<svg width="92" height="161" viewBox="0 0 92 161" fill="none" xmlns="http://www.w3.org/2000/svg">
<g clip-path="url(#clip0_770_1514)">
<path d="M43.7532 160.275C67.6951 160.275 87.1039 158.653 87.1039 156.652C87.1039 154.651 67.6951 153.029 43.7532 153.029C19.8113 153.029 0.402588 154.651 0.402588 156.652C0.402588 158.653 19.8113 160.275 43.7532 160.275Z" fill="#F4F2ED"/>
<path d="M45.3957 58.4181C45.3957 58.4181 37.3495 15.9843 68.9594 0.766113C68.9594 0.766113 70.3551 43.683 45.3957 58.4181Z" fill="#5C8A5C"/>
<path d="M66.6604 5.91943C66.332 6.2415 66.0857 6.48306 65.8393 6.80514C65.0183 7.77137 64.2794 8.65709 63.6226 9.62332C62.4731 11.2337 61.4058 12.8441 60.4205 14.4545C59.0248 16.7896 57.7932 19.2051 56.6438 21.6207C55.1659 24.761 53.7701 27.9818 52.6207 31.2025C51.1428 35.309 49.8292 39.335 48.7618 43.4415C47.4482 48.4337 46.2987 53.4259 45.4777 58.4181C44.4103 64.3766 43.5893 70.4155 43.0146 76.374C42.3578 83.4597 42.0293 90.5454 41.8651 97.6311C41.783 105.844 41.9472 113.977 42.4399 122.19C42.6041 124.364 42.6862 126.538 42.8504 128.712C42.8504 129.034 43.7535 129.034 43.6714 128.712C43.0146 120.257 42.6862 111.803 42.6041 103.348C42.6041 96.0207 42.7683 88.774 43.343 81.4467C43.8356 75.1662 44.4924 68.8857 45.4777 62.6857C46.2987 57.4519 47.3661 52.1376 48.5976 46.9844C49.665 42.6363 50.8965 38.3688 52.3744 34.1012C53.5238 30.7194 54.8375 27.3376 56.3974 23.9558C57.5469 21.3792 58.8606 18.8025 60.2563 16.2259C61.3237 14.374 62.391 12.6025 63.6226 10.8311C64.3615 9.70384 65.1825 8.65709 66.0857 7.61034C66.4141 7.20774 66.9888 6.72462 67.2351 6.2415C67.2351 6.2415 67.2351 6.2415 67.3172 6.16098C67.6456 5.83891 66.9067 5.59735 66.6604 5.91943Z" fill="#457158"/>
<path d="M45.724 39.496C46.7092 43.0388 47.1197 46.8233 46.8734 50.4466C46.7913 51.0908 47.6123 51.0908 47.6944 50.4466C47.9407 46.7427 47.7765 42.7973 46.7092 39.1739C46.545 38.6103 45.5597 38.9324 45.724 39.496Z" fill="#457158"/>
<path d="M58.45 34.9065C55.4943 36.5975 52.7028 38.9325 50.5681 41.5897C49.6649 42.6364 48.8439 43.8442 48.2692 45.213C48.0229 45.7767 48.6797 46.2598 48.926 45.6962C50.7323 41.7507 54.509 38.691 58.1216 36.3559C58.45 36.1143 58.7784 35.9533 59.1068 35.7923C59.5995 35.4702 59.0247 34.5845 58.45 34.9065Z" fill="#457158"/>
<path d="M49.8292 22.9896C50.0755 23.9559 50.2397 25.0026 50.3218 26.0494C50.7323 29.5922 50.7323 33.0546 50.6502 36.5974C50.6502 37.2416 51.4712 37.2416 51.4712 36.5974C51.5534 33.0546 51.7176 29.4312 51.307 25.8883C51.2249 24.8416 51.0607 23.7143 50.8144 22.6676C50.6502 22.1039 49.665 22.426 49.8292 22.9896Z" fill="#457158"/>
<path d="M64.033 19.93C60.913 21.2988 57.8752 23.5534 55.6584 26.13C54.5911 27.3378 53.6879 28.6261 53.0311 29.9949C52.7848 30.5586 53.4416 31.1222 53.77 30.4781C55.7405 26.4521 59.5994 23.3923 63.6224 21.2988C63.9509 21.1378 64.2793 20.9768 64.6077 20.8157C65.1003 20.5742 64.6077 19.6884 64.033 19.93Z" fill="#457158"/>
<path d="M57.2184 11.3143C57.4647 12.0389 57.6289 12.9247 57.711 13.6493C57.9573 15.7428 57.8752 17.9169 57.3826 20.0104C57.2184 20.6545 58.0394 20.8156 58.2036 20.1714C58.7783 17.9974 59.0246 15.8234 58.7783 13.6493C58.6962 12.7636 58.532 11.8779 58.2036 10.9922C58.0394 10.5091 56.9721 10.7506 57.2184 11.3143Z" fill="#457158"/>
<path d="M66.6604 10.6702C66.0036 10.6702 65.2647 10.7507 64.6078 10.9117C63.3763 11.1533 62.391 11.7169 61.57 12.6832C61.4058 12.9247 61.1595 13.1663 61.3237 13.3273C61.4879 13.4883 61.8163 13.3273 61.9805 13.1663C62.7194 12.2806 63.7868 12.039 64.8541 11.878C65.511 11.7169 65.9215 11.6364 66.5783 11.6364C67.3172 11.7169 67.3172 10.6702 66.6604 10.6702Z" fill="#457158"/>
<path d="M68.9593 2.5376C66.9888 31.2831 46.7913 57.4519 46.7092 57.5324C67.3993 44.0051 68.8772 10.5895 68.9593 2.5376Z" fill="#77AD74"/>
<path d="M48.3511 78.2259C48.3511 78.2259 53.4415 40.8649 90.9628 51.3324C91.0449 51.2519 71.8327 74.2 48.3511 78.2259Z" fill="#72A265"/>
<path d="M87.5144 51.2522C85.9545 51.3327 84.3945 51.6548 82.9167 51.9769C78.9757 52.7821 75.3631 54.0704 72.079 55.5197C66.8244 57.8548 62.555 60.834 59.0245 64.0548C53.7699 68.886 50.1574 74.3613 47.6943 79.8366C43.9175 88.0496 42.4396 96.5041 42.0291 104.959C41.947 106.247 41.947 107.535 41.947 108.824C41.947 109.146 42.7681 109.146 42.7681 108.824C42.8502 99.9665 43.9996 91.1093 47.448 82.4938C49.7469 76.6964 53.1131 70.9795 58.2035 65.8262C61.6519 62.3639 65.8391 59.1431 71.1759 56.5665C74.46 54.9561 78.2368 53.5067 82.2598 52.621C83.984 52.2184 85.7903 51.8964 87.6787 51.7353C87.7608 51.7353 87.5145 51.7353 87.6787 51.7353C88.0892 51.7353 88.0892 51.2522 87.5144 51.2522Z" fill="#457158"/>
<path d="M56.6434 61.1558C56.315 62.3636 55.9866 63.4909 55.6582 64.6182C55.0014 66.6311 54.3445 68.7246 53.2772 70.5766C53.113 70.8987 53.6056 71.2208 53.7698 70.8987C54.8372 69.0467 55.494 66.9532 56.1508 64.8597C56.5613 63.6519 56.8897 62.4441 57.2182 61.2363C57.3824 60.9143 56.8076 60.7532 56.6434 61.1558Z" fill="#457158"/>
<path d="M67.3991 65.9871C65.3466 66.3092 63.3761 66.9533 61.4056 67.5975C57.8751 68.8053 54.2626 70.4962 51.6353 73.2339C51.389 73.4754 51.7995 73.9585 52.0458 73.6364C54.7552 70.9793 58.3678 69.2884 61.8982 68.0806C63.7045 67.4364 65.675 66.9533 67.5634 66.5507C67.8918 66.4702 67.7276 65.9066 67.3991 65.9871Z" fill="#457158"/>
<path d="M63.5402 54.8754C63.5402 55.7611 63.376 56.7273 63.1297 57.613C62.7191 59.3844 62.0623 61.1559 60.9129 62.4442C60.6666 62.7663 61.0771 63.1689 61.3234 62.8468C62.637 61.478 63.2939 59.626 63.7044 57.7741C63.9507 56.8078 64.1149 55.7611 64.1149 54.7948C64.197 54.4728 63.5402 54.4728 63.5402 54.8754Z" fill="#457158"/>
<path d="M77.0873 59.3846C75.3631 59.143 73.5568 59.0625 71.8327 59.0625C68.8769 59.0625 65.757 59.3846 63.1297 60.7534C62.8013 60.9144 63.1297 61.4781 63.4581 61.2365C66.0033 59.8677 69.2053 59.6261 72.079 59.6261C73.2284 59.6261 74.46 59.7067 75.6094 59.7872C75.9378 59.7872 76.2662 59.8677 76.6768 59.8677C76.7589 59.8677 76.9231 59.8677 77.0052 59.8677C77.0052 59.8677 77.2515 59.8677 77.0873 59.8677C77.3336 60.0287 77.4978 59.4651 77.0873 59.3846Z" fill="#457158"/>
<path d="M74.2137 51.0105C74.2137 51.0105 74.2137 50.9299 74.2137 51.0105V51.091C74.2137 51.252 74.1316 51.3325 74.1316 51.4936C74.0495 51.9767 73.8853 52.3793 73.6389 52.7819C72.9821 54.2312 71.9148 55.439 70.6011 56.2442C70.2727 56.4858 70.6011 56.9689 70.9295 56.7273C72.8179 55.5196 74.2137 53.5871 74.7884 51.4131C74.7884 51.252 74.8705 51.091 74.8705 50.8494C74.8705 50.6079 74.2137 50.6079 74.2137 51.0105Z" fill="#457158"/>
<path d="M91.0448 51.2522C91.0448 51.2522 63.9507 72.9119 48.4331 78.1457C71.8326 74.2002 91.0448 51.2522 91.0448 51.2522Z" fill="#84BD75"/>
<path d="M82.9986 55.1975C82.1776 54.8754 81.3566 54.6338 80.4534 54.4728C78.8935 54.1507 77.3335 53.8286 75.6914 54.0702C75.2809 54.1507 75.2809 54.7143 75.6914 54.7143C77.2514 54.5533 78.8114 54.7949 80.3713 55.1169C81.1924 55.278 82.0134 55.5195 82.7523 55.8416C83.1629 55.9221 83.3271 55.3585 82.9986 55.1975Z" fill="#457158"/>
<path d="M54.5908 96.2624C54.5908 96.2624 64.8538 77.5819 82.506 93.5247C82.506 93.5247 69.4515 104.636 54.5908 96.2624Z" fill="#5C8A5C"/>
<path d="M76.9231 91.9142C75.9379 91.5921 74.8705 91.3505 73.8032 91.1895C71.4222 90.7869 68.9591 90.6258 66.496 90.8674C63.1297 91.1895 60.174 92.1557 57.9572 93.6051C54.1804 95.9401 52.2921 99.0804 50.9784 102.06C48.5974 107.535 48.269 113.332 48.4332 118.969C48.4332 119.935 48.5153 120.821 48.5974 121.787C48.5974 122.109 49.5005 122.109 49.4184 121.787C49.09 115.828 49.1721 109.709 51.2247 103.831C52.3742 100.61 54.0162 97.2284 57.6288 94.5713C59.6814 93.0414 62.4729 91.8336 65.757 91.431C68.138 91.109 70.6011 91.1895 72.9 91.5921C73.7211 91.7531 74.6242 91.9142 75.1989 92.0752C75.6094 92.1557 75.9379 92.3168 76.3484 92.3973C76.3484 92.3973 76.3484 92.3973 76.4305 92.3973C76.9231 92.4778 77.3336 92.0752 76.9231 91.9142Z" fill="#457158"/>
<path d="M64.4429 88.291C64.2787 88.6131 64.0324 88.8547 63.7861 89.1768C63.0472 89.9819 62.2262 90.7066 61.323 91.3508C60.502 91.9144 59.6809 92.478 58.8599 92.8806C58.5315 93.0417 58.8599 93.6053 59.1883 93.3638C61.2409 92.2365 63.3756 90.7871 64.7714 88.8547C64.8535 88.7742 64.9356 88.6131 65.0177 88.5326C65.1819 88.291 64.6072 87.969 64.4429 88.291Z" fill="#457158"/>
<path d="M68.5484 96.1013C67.2347 95.3766 65.8389 94.813 64.4432 94.3298C62.0622 93.6052 59.3528 93.2831 56.9718 94.3298C56.6434 94.4909 56.8897 94.974 57.3002 94.813C59.5991 93.7662 62.3085 94.2493 64.6074 94.974C65.921 95.3766 67.1526 95.9402 68.302 96.5844C68.5484 96.826 68.8768 96.2623 68.5484 96.1013Z" fill="#457158"/>
<path d="M74.7882 94.6519C74.0493 93.9272 73.1461 93.283 72.3251 92.6389C70.9293 91.6726 69.2052 90.7064 67.481 90.7869C67.0705 90.7869 67.0705 91.1895 67.481 91.1895C69.1231 91.1895 70.7651 92.3168 72.0788 93.283C72.8998 93.8467 73.6387 94.4103 74.3777 95.135C74.624 95.3765 75.0345 94.8934 74.7882 94.6519Z" fill="#457158"/>
<path d="M71.8324 88.2908C71.9145 88.2103 71.7503 88.2908 71.8324 88.2908C71.6682 88.4518 71.504 88.5324 71.4219 88.6129C71.0114 88.8544 70.6008 89.096 70.1082 89.3375C68.7125 90.0622 67.1525 90.6259 65.5925 90.8674C65.182 90.9479 65.3462 91.4311 65.7567 91.3505C67.3988 91.0285 68.9588 90.5453 70.4366 89.8207C71.0935 89.4986 71.6682 89.096 72.2429 88.6934C72.5713 88.4518 72.0787 88.0492 71.8324 88.2908Z" fill="#457158"/>
<path d="M82.506 93.5249C82.506 93.5249 66.4137 100.45 54.5908 96.2626C69.4515 104.637 82.506 93.5249 82.506 93.5249Z" fill="#77AD74"/>
<path d="M35.2147 73.8779C35.2147 73.8779 13.7036 40.7844 26.758 18.239C26.758 18.1585 47.366 40.865 35.2147 73.8779Z" fill="#72A265"/>
<path d="M39.9767 126.296C39.5662 114.782 38.9094 103.348 37.9241 91.8336C37.1031 82.3323 36.1179 72.831 34.8863 63.4102C33.9011 56.1635 32.8337 48.8362 31.6022 41.5895C30.7811 36.8388 29.878 32.0882 28.9749 27.418C28.7285 26.1297 28.4001 24.7609 28.1538 23.4726C27.9896 22.9089 28.0717 22.2648 27.7433 21.7011V21.6206C27.6612 21.2986 26.8402 21.4596 26.9223 21.7817C26.9223 21.9427 26.9223 21.8622 27.0044 22.0232C27.0865 22.3453 27.1686 22.5869 27.2507 22.9089C27.497 24.0362 27.7433 25.1635 27.9896 26.3713C28.8927 30.7998 29.7138 35.1479 30.5348 39.5765C31.7664 46.5011 32.8337 53.5063 33.7369 60.5115C34.9684 69.7713 36.0358 78.9505 36.8568 88.2102C37.9241 99.4024 38.6631 110.595 39.0736 121.787C39.1557 123.317 39.1557 124.847 39.2378 126.296C39.1557 126.618 39.9767 126.618 39.9767 126.296Z" fill="#457158"/>
<path d="M28.6466 56.5664C29.6318 57.3716 30.535 58.4184 31.2739 59.4651C32.916 61.6391 34.1475 64.1352 34.5581 66.7924C34.6402 67.195 35.2149 67.0339 35.1328 66.6314C34.7223 63.8937 33.4907 61.3171 31.7665 59.143C30.9455 58.0963 30.0424 57.0495 28.975 56.1638C28.8108 55.8417 28.3182 56.2443 28.6466 56.5664Z" fill="#457158"/>
<path d="M35.9537 49.239C35.3789 49.9637 34.9684 50.8494 34.64 51.6546C33.7369 54.1507 33.4906 56.8884 33.5727 59.5455C33.5727 59.9481 34.2295 59.9481 34.2295 59.5455C34.1474 56.9689 34.3116 54.3923 35.2147 51.8962C35.461 51.3325 35.7074 50.6884 36.0358 50.2053C36.1179 50.0442 36.2 49.8832 36.2821 49.8027C36.2821 49.8027 36.3642 49.6416 36.3642 49.7221C36.6105 49.4001 36.2 48.917 35.9537 49.239Z" fill="#457158"/>
<path d="M24.5413 43.4414C25.6907 44.4077 26.7581 45.4544 27.6612 46.5817C29.9601 49.2388 31.7664 52.2181 32.9979 55.4388C33.1621 55.7609 33.7369 55.6804 33.5727 55.2778C32.4232 52.1375 30.6169 49.0778 28.318 46.4207C27.3328 45.2129 26.1834 44.0051 24.9518 43.0388C24.7055 42.7973 24.295 43.1999 24.5413 43.4414Z" fill="#457158"/>
<path d="M34.2295 36.1145C33.7368 37.3223 33.4084 38.6106 33.1621 39.8989C32.4232 43.0392 32.0948 46.1795 32.1769 49.4002C32.1769 49.8028 32.8337 49.8028 32.8337 49.4002C32.8337 46.26 33.1621 43.0392 33.901 39.8989C34.1473 38.6911 34.4758 37.4834 34.9684 36.2756C34.9684 35.9535 34.3937 35.7924 34.2295 36.1145Z" fill="#457158"/>
<path d="M24.2949 32.0885C25.2802 32.8937 26.1012 33.7794 26.8402 34.7456C28.6464 36.9196 30.0422 39.3352 30.7811 41.9924C30.8632 42.395 31.52 42.2339 31.3558 41.8313C30.5348 39.0937 29.139 36.6781 27.4149 34.4235C26.5938 33.3768 25.6907 32.4105 24.7055 31.6053C24.4592 31.4443 24.0486 31.8469 24.2949 32.0885Z" fill="#457158"/>
<path d="M30.5349 26.0494C30.2065 26.6131 29.9602 27.3377 29.796 28.0624C29.3034 30.0754 29.3034 32.0884 29.4676 34.1014C29.4676 34.504 30.1244 34.504 30.1244 34.1014C29.9602 32.1689 29.9602 30.1559 30.4528 28.2234C30.617 27.5793 30.7812 26.9351 31.1097 26.3715C31.2739 26.0494 30.7812 25.7273 30.5349 26.0494Z" fill="#457158"/>
<path d="M35.2147 73.878C47.366 40.865 26.7581 18.239 26.7581 18.239C26.7581 18.239 43.4251 46.0988 35.2147 73.878Z" fill="#84BD75"/>
<path d="M33.0798 94.3297C33.0798 94.3297 32.8335 67.5973 11.7329 67.3557C11.7329 67.3557 14.0318 91.5116 33.0798 94.3297Z" fill="#72A265"/>
<path d="M11.7329 67.3557C11.7329 67.3557 32.423 74.9245 33.0798 94.3297C33.0798 94.3297 32.8335 67.5973 11.7329 67.3557Z" fill="#84BD75"/>
<path d="M13.5391 69.7713C14.5243 70.3349 15.2633 70.9791 16.0843 71.5427C18.3832 73.3946 20.3537 75.3271 22.1599 77.3401C25.0336 80.6414 27.3325 84.1037 29.2208 87.5661C31.8482 92.4778 33.6544 97.631 34.8039 102.704C36.3638 109.548 36.7744 116.392 36.3638 123.236C36.2817 124.202 36.2817 125.169 36.1996 126.135C36.1996 126.457 37.0207 126.457 37.0207 126.135C37.5954 119.049 37.4312 111.883 36.0354 104.797C35.0502 99.483 33.326 94.1687 30.7808 88.9349C28.9745 85.231 26.6756 81.5271 23.7199 78.0648C21.9136 75.8907 19.7789 73.7167 17.3158 71.7037C16.659 71.1401 15.9201 70.5765 15.099 70.0128C14.7706 69.7713 14.4422 69.5297 14.1138 69.3687C14.1138 69.3687 14.1138 69.3687 14.0317 69.3687C13.7854 69.2881 13.1286 69.6102 13.5391 69.7713Z" fill="#457158"/>
<path d="M22.8991 86.5999C23.8843 86.6804 24.9517 86.922 25.8548 87.2441C27.9074 87.9687 29.7958 89.1765 30.9452 91.0285C31.1915 91.3505 31.6842 91.0285 31.4378 90.7064C29.7137 88.0492 26.7579 86.5194 23.638 86.1168C23.3917 86.1168 23.0633 86.0363 22.817 86.0363C22.4886 85.9557 22.4886 86.5999 22.8991 86.5999Z" fill="#457158"/>
<path d="M25.2801 75.9714C25.9369 78.8701 26.6758 81.7688 27.4968 84.6675C27.5789 85.0701 28.2358 84.9091 28.0716 84.5065C27.2505 81.6078 26.5116 78.7091 25.8548 75.8103C25.8548 75.4078 25.1979 75.5688 25.2801 75.9714Z" fill="#457158"/>
<path d="M17.3161 78.9505C17.4803 78.9505 17.8908 78.87 18.1371 78.87C18.876 78.87 19.615 78.87 20.3539 78.9505C22.4886 79.2726 24.5412 80.3194 25.8548 82.0103C26.1011 82.3324 26.5938 82.0103 26.3474 81.6882C24.2949 78.9505 20.5181 77.7428 17.1519 78.3064C16.7413 78.3869 16.9055 79.0311 17.3161 78.9505Z" fill="#457158"/>
<path d="M18.055 70.013C19.2866 72.5091 20.5181 74.9246 22.1602 77.1792C22.4065 77.5013 22.8991 77.1792 22.6528 76.8571C21.0929 74.6026 19.7792 72.1065 18.5476 69.6909C18.3834 69.2883 17.8908 69.6104 18.055 70.013Z" fill="#457158"/>
<path d="M13.8677 72.1869C13.8677 72.2674 13.7856 72.1869 13.8677 72.1869H13.9498C14.114 72.1869 14.1961 72.2674 14.3603 72.2674C14.8529 72.3479 15.2635 72.509 15.7561 72.5895C17.1518 72.9921 18.4655 73.6362 19.5328 74.5219C19.8613 74.7635 20.2718 74.3609 19.9434 74.1193C18.2192 72.7505 16.0024 71.7843 13.8677 71.5427C13.4572 71.5427 13.4572 72.1869 13.8677 72.1869Z" fill="#457158"/>
<path d="M13.375 109.709L17.2339 140.468C17.2339 149.808 25.0337 157.538 34.6398 157.538H53.7699C63.2939 157.538 71.1758 149.888 71.1758 140.468L76.0199 109.709H13.375Z" fill="#B4D9D3"/>
<path d="M74.7883 121.948C73.0641 123.881 71.3399 125.733 69.6158 127.665C67.8916 125.733 66.1674 123.881 64.4432 121.948C63.9506 121.385 62.8833 121.385 62.3907 121.948C60.6665 123.881 58.9423 125.733 57.2181 127.665C55.494 125.733 53.7698 123.881 52.0456 121.948C51.553 121.385 50.4857 121.385 49.993 121.948C48.2689 123.881 46.5447 125.733 44.8205 127.665C43.0963 125.733 41.3722 123.881 39.648 121.948C39.1554 121.385 38.088 121.385 37.5954 121.948C35.8712 123.881 34.1471 125.733 32.4229 127.665C30.6987 125.733 28.9745 123.881 27.2504 121.948C26.7577 121.385 25.6904 121.385 25.1978 121.948C23.4736 123.881 21.7494 125.733 20.0253 127.665C18.3011 125.733 16.5769 123.881 14.8527 121.948C13.6212 120.579 11.5686 122.592 12.8002 123.961C14.8527 126.216 16.9874 128.47 19.04 130.805C19.5326 131.369 20.6 131.369 21.0926 130.805C22.8168 128.873 24.541 127.021 26.2651 125.088C27.9893 127.021 29.7135 128.873 31.4376 130.805C31.9303 131.369 32.9976 131.369 33.4902 130.805C35.2144 128.873 36.9386 127.021 38.6628 125.088C40.3869 127.021 42.1111 128.873 43.8353 130.805C44.3279 131.369 45.3952 131.369 45.8879 130.805C47.612 128.873 49.3362 127.021 51.0604 125.088C52.7845 127.021 54.5087 128.873 56.2329 130.805C56.7255 131.369 57.7929 131.369 58.2855 130.805C60.0097 128.873 61.7338 127.021 63.458 125.088C65.1822 127.021 66.9063 128.873 68.6305 130.805C69.1231 131.369 70.1905 131.369 70.6831 130.805C72.7357 128.551 74.8704 126.296 76.923 123.961C78.0724 122.592 76.0198 120.579 74.7883 121.948Z" fill="white"/>
<path d="M74.7883 132.335C73.0641 134.268 71.3399 136.12 69.6158 138.052C67.8916 136.12 66.1674 134.268 64.4432 132.335C63.9506 131.772 62.8833 131.772 62.3907 132.335C60.6665 134.268 58.9423 136.12 57.2181 138.052C55.494 136.12 53.7698 134.268 52.0456 132.335C51.553 131.772 50.4857 131.772 49.993 132.335C48.2689 134.268 46.5447 136.12 44.8205 138.052C43.0963 136.12 41.3722 134.268 39.648 132.335C39.1554 131.772 38.088 131.772 37.5954 132.335C35.8712 134.268 34.1471 136.12 32.4229 138.052C30.6987 136.12 28.9745 134.268 27.2504 132.335C26.7577 131.772 25.6904 131.772 25.1978 132.335C23.4736 134.268 21.7494 136.12 20.0253 138.052C18.3011 136.12 16.5769 134.268 14.8527 132.335C13.6212 130.966 11.5686 132.979 12.8002 134.348C14.8527 136.603 16.9874 138.857 19.04 141.192C19.5326 141.756 20.6 141.756 21.0926 141.192C22.8168 139.26 24.541 137.408 26.2651 135.475C27.9893 137.408 29.7135 139.26 31.4376 141.192C31.9303 141.756 32.9976 141.756 33.4902 141.192C35.2144 139.26 36.9386 137.408 38.6628 135.475C40.3869 137.408 42.1111 139.26 43.8353 141.192C44.3279 141.756 45.3952 141.756 45.8879 141.192C47.612 139.26 49.3362 137.408 51.0604 135.475C52.7845 137.408 54.5087 139.26 56.2329 141.192C56.7255 141.756 57.7929 141.756 58.2855 141.192C60.0097 139.26 61.7338 137.408 63.458 135.475C65.1822 137.408 66.9063 139.26 68.6305 141.192C69.1231 141.756 70.1905 141.756 70.6831 141.192C72.7357 138.938 74.8704 136.683 76.923 134.348C78.0724 132.979 76.0198 130.966 74.7883 132.335Z" fill="white"/>
<path opacity="0.1" d="M62.1443 109.709L57.3002 140.468C57.3002 149.808 49.5004 157.538 39.8943 157.538H53.7698C63.2938 157.538 71.1757 149.888 71.1757 140.468L76.0198 109.709H62.1443Z" fill="#482C80"/>
<path d="M78.483 108.743H10.9119V114.621H78.483V108.743Z" fill="#91B9B2"/>
</g>
<defs>
<clipPath id="clip0_770_1514">
<rect width="90.6422" height="159.509" fill="white" transform="translate(0.402588 0.766113)"/>
</clipPath>
</defs>
</svg>
