<svg width="85" height="69" viewBox="0 0 85 69" fill="none" xmlns="http://www.w3.org/2000/svg">
<rect x="2.51978" y="35.6255" width="73.9027" height="36.017" transform="rotate(-28.8201 2.51978 35.6255)" fill="#63B386"/>
<rect x="7.58118" y="36.7188" width="65.9179" height="29.2213" transform="rotate(-28.8201 7.58118 36.7188)" fill="#2D7A4F"/>
<path fill-rule="evenodd" clip-rule="evenodd" d="M62.2462 9.55002C63.0604 11.0297 64.9199 11.5693 66.3996 10.7551L75.0808 26.533C73.6011 27.3472 73.0615 29.2067 73.8757 30.6865L24.7558 57.7128C23.9417 56.2331 22.0821 55.6935 20.6024 56.5077L11.9212 40.7298C13.4009 39.9156 13.9404 38.0561 13.1263 36.5764L62.2462 9.55002Z" fill="#63B386"/>
<circle cx="25.0438" cy="43.7869" r="3.05804" transform="rotate(-28.8201 25.0438 43.7869)" fill="#2D7A4F"/>
<circle cx="62.107" cy="23.3943" r="3.05804" transform="rotate(-28.8201 62.107 23.3943)" fill="#2D7A4F"/>
<path fill-rule="evenodd" clip-rule="evenodd" d="M31.4443 40.2653C28.9158 35.6698 29.325 30.25 32.0448 26.1672L43.0299 20.1231C47.9344 20.0109 52.7315 22.5661 55.26 27.1616C57.7885 31.757 57.3793 37.1767 54.6595 41.2595L43.6743 47.3037C38.7698 47.4159 33.9727 44.8607 31.4443 40.2653Z" fill="#2D7A4F"/>
<path d="M14.6825 39.7623L13.4083 40.9069C13.065 40.3174 12.6516 39.8495 12.1939 39.532L14.0446 37.8696C14.1976 37.7322 14.3106 37.5008 14.3589 37.2262C14.4072 36.9516 14.3868 36.6563 14.3022 36.4053C14.2177 36.1543 14.0758 35.9682 13.9078 35.8878C13.7399 35.8075 13.5596 35.8395 13.4067 35.9768L7.06454 41.6737C6.91163 41.811 6.79858 42.0424 6.75027 42.317C6.70196 42.5916 6.72234 42.8869 6.80694 43.1379C6.89153 43.3889 7.0334 43.5751 7.20134 43.6554C7.36928 43.7358 7.54954 43.7037 7.70245 43.5664L9.72042 41.7538C10.1018 41.414 10.5346 41.2583 10.9689 41.3045C11.4031 41.3508 11.8211 41.5971 12.1745 42.0151L8.34036 45.4591C8.18744 45.5965 8.0744 45.8279 8.02608 46.1025C7.97777 46.3771 7.99816 46.6724 8.08275 46.9234C8.16734 47.1744 8.30921 47.3605 8.47715 47.4409C8.64509 47.5212 8.82535 47.4892 8.97826 47.3519L13.0142 43.7266C13.21 44.5748 13.2135 45.5085 13.024 46.3576C12.8345 47.2067 12.4647 47.9146 11.9819 48.3525L9.93512 50.191C9.90679 50.2107 9.87975 50.2349 9.8544 50.2635C9.8129 50.288 9.77401 50.323 9.73909 50.3671C9.70719 50.4243 9.68099 50.4895 9.66144 50.5601L9.61458 50.6885C9.59877 50.7637 9.58985 50.8423 9.58808 50.9219C9.58291 50.9812 9.58049 51.041 9.58084 51.101C9.59474 51.1621 9.61409 51.2195 9.63826 51.2713C9.62898 51.4026 9.64259 51.5357 9.67751 51.6552C9.68966 51.7017 9.70462 51.7461 9.72217 51.7877C9.73735 51.8558 9.75887 51.9196 9.78596 51.977C9.82108 52.0295 9.86098 52.0727 9.90421 52.105C9.90421 52.105 9.92973 52.1807 9.98285 52.1823L15.6749 55.6996C15.8386 55.801 16.0199 55.7921 16.1789 55.6747C16.338 55.5572 16.4617 55.341 16.5229 55.0734C16.5842 54.8059 16.5779 54.509 16.5054 54.2481C16.433 53.9871 16.3003 53.7836 16.1366 53.6821L11.8299 50.9547L12.591 50.2711C13.3862 49.5638 13.9892 48.393 14.281 46.9897C14.5729 45.5863 14.5323 44.0525 14.1673 42.6908L15.3205 41.655C15.4734 41.5177 15.5864 41.2863 15.6347 41.0117C15.683 40.7371 15.6627 40.4418 15.5781 40.1908C15.4935 39.9398 15.3516 39.7536 15.1837 39.6733C15.0157 39.5929 14.8355 39.625 14.6825 39.7623Z" fill="white"/>
<rect x="3.35364" y="25.1104" width="73.9027" height="36.017" transform="rotate(-14.0765 3.35364 25.1104)" fill="#63B386"/>
<rect x="7.97021" y="27.4558" width="65.9179" height="29.2213" transform="rotate(-14.0765 7.97021 27.4558)" fill="#2D7A4F"/>
<path fill-rule="evenodd" clip-rule="evenodd" d="M67.7496 15.0936L13.369 28.7294C13.7797 30.3676 12.7847 32.0286 11.1465 32.4394L11.1465 32.4394L15.5265 49.9071C17.1646 49.4963 18.8257 50.4913 19.2364 52.1295L73.617 38.4938C73.2063 36.8556 74.2013 35.1945 75.8395 34.7838L75.8395 34.7838L71.4596 17.316C69.8214 17.7268 68.1604 16.7318 67.7496 15.0936Z" fill="#63B386"/>
<circle cx="23.059" cy="38.7354" r="3.05804" transform="rotate(-14.0765 23.059 38.7354)" fill="#2D7A4F"/>
<circle cx="64.0917" cy="28.4466" r="3.05804" transform="rotate(-14.0765 64.0917 28.4466)" fill="#2D7A4F"/>
<path fill-rule="evenodd" clip-rule="evenodd" d="M30.1451 36.9584C28.8694 31.8708 30.6444 26.7336 34.3137 23.4774L46.4753 20.4279C51.2469 21.5676 55.2357 25.2595 56.5114 30.3471C57.7871 35.4347 56.0121 40.5719 52.3428 43.8281L40.1812 46.8776C35.4096 45.7379 31.4208 42.046 30.1451 36.9584Z" fill="#2D7A4F"/>
<path d="M15.8125 40.6678L14.4019 41.2453C14.1617 40.5327 13.8349 39.9083 13.4417 39.4111L15.4907 38.5724C15.66 38.5031 15.8054 38.3262 15.8949 38.0807C15.9844 37.8353 16.0108 37.5412 15.9681 37.2634C15.9254 36.9855 15.8172 36.7465 15.6673 36.599C15.5174 36.4516 15.3381 36.4076 15.1688 36.4769L8.1474 39.3512C7.97811 39.4205 7.83271 39.5973 7.74318 39.8428C7.65365 40.0883 7.62733 40.3823 7.67001 40.6602C7.71269 40.9381 7.82087 41.177 7.97076 41.3245C8.12065 41.472 8.29996 41.5159 8.46925 41.4466L10.7033 40.5321C11.1252 40.362 11.568 40.3912 11.9807 40.6164C12.3935 40.8415 12.7593 41.2534 13.0359 41.8045L8.7911 43.5421C8.6218 43.6114 8.4764 43.7882 8.38687 44.0337C8.29735 44.2792 8.27103 44.5732 8.31371 44.8511C8.35639 45.129 8.46457 45.3679 8.61445 45.5154C8.76434 45.6629 8.94365 45.7068 9.11294 45.6375L13.5811 43.8085C13.6383 44.71 13.4961 45.6144 13.1805 46.3569C12.8649 47.0993 12.3968 47.6303 11.8617 47.8531L9.59571 48.7807C9.56525 48.788 9.53531 48.8002 9.50635 48.8173C9.46239 48.8238 9.41932 48.8414 9.37869 48.8695C9.33891 48.9117 9.30342 48.9638 9.2735 49.024L9.20817 49.1287C9.18116 49.1948 9.16027 49.2671 9.14616 49.3434C9.13191 49.3985 9.12024 49.4554 9.11124 49.5136C9.11516 49.5784 9.12492 49.642 9.14021 49.7021C9.11077 49.8253 9.10318 49.9596 9.11832 50.0897C9.12283 50.1397 9.13037 50.1889 9.14085 50.2364C9.14493 50.3085 9.15579 50.3792 9.17304 50.446C9.19882 50.5113 9.23068 50.5697 9.26744 50.6189C9.26744 50.6189 9.28032 50.7027 9.33144 50.7263L14.2878 56.4926C14.4302 56.6588 14.607 56.7254 14.7791 56.6779C14.9512 56.6305 15.1046 56.4727 15.2055 56.2394C15.3064 56.0062 15.3466 55.7164 15.3172 55.434C15.2878 55.1516 15.1913 54.8996 15.0488 54.7334L11.3091 50.3065L12.1517 49.9616C13.0309 49.608 13.7966 48.7263 14.2976 47.4904C14.7986 46.2545 14.9984 44.7543 14.8578 43.2859L16.1344 42.7633C16.3037 42.694 16.4491 42.5171 16.5386 42.2716C16.6281 42.0262 16.6544 41.7321 16.6118 41.4543C16.5691 41.1764 16.4609 40.9374 16.311 40.7899C16.1611 40.6425 15.9818 40.5985 15.8125 40.6678Z" fill="white"/>
<rect x="6.62402" y="18.5823" width="73.9027" height="36.017" fill="#63B386"/>
<rect x="10.5315" y="21.9802" width="65.9179" height="29.2213" fill="#2D7A4F"/>
<path fill-rule="evenodd" clip-rule="evenodd" d="M71.5225 24.5286L15.4584 24.5286V24.5286C15.4584 26.2175 14.0892 27.5866 12.4003 27.5866H12.4003V45.5951C12.4003 45.5951 12.4003 45.5951 12.4003 45.5951C14.0892 45.5951 15.4583 46.9642 15.4583 48.6531H71.5225C71.5225 46.9642 72.8916 45.5951 74.5805 45.5951L74.5805 27.5866C72.8916 27.5866 71.5225 26.2175 71.5225 24.5286Z" fill="#63B386"/>
<circle cx="22.4239" cy="36.5908" r="3.05804" fill="#2D7A4F"/>
<circle cx="64.7269" cy="36.5908" r="3.05804" fill="#2D7A4F"/>
<path fill-rule="evenodd" clip-rule="evenodd" d="M29.7292 36.5909C29.7292 31.3457 32.7004 26.7945 37.0515 24.5286H49.5896C53.9407 26.7945 56.9119 31.3457 56.9119 36.5909C56.9119 41.836 53.9407 46.3872 49.5896 48.6531H37.0515C32.7004 46.3872 29.7292 41.836 29.7292 36.5909Z" fill="#2D7A4F"/>
<path d="M47.4217 33.2796H45.9674C45.8407 32.6198 45.6167 32.0029 45.3093 31.4674H47.4217C47.5963 31.4674 47.7637 31.372 47.8871 31.2021C48.0105 31.0321 48.0798 30.8017 48.0798 30.5614C48.0798 30.321 48.0105 30.0906 47.8871 29.9207C47.7637 29.7507 47.5963 29.6553 47.4217 29.6553H40.1829C40.0084 29.6553 39.841 29.7507 39.7176 29.9207C39.5942 30.0906 39.5249 30.321 39.5249 30.5614C39.5249 30.8017 39.5942 31.0321 39.7176 31.2021C39.841 31.372 40.0084 31.4674 40.1829 31.4674H42.4862C42.9207 31.4695 43.3459 31.6408 43.7127 31.9615C44.0795 32.2821 44.3729 32.7391 44.5591 33.2796H40.1829C40.0084 33.2796 39.841 33.3751 39.7176 33.545C39.5942 33.7149 39.5249 33.9454 39.5249 34.1857C39.5249 34.426 39.5942 34.6565 39.7176 34.8264C39.841 34.9963 40.0084 35.0918 40.1829 35.0918H44.7895C44.7106 35.8444 44.4379 36.5329 44.0212 37.0318C43.6044 37.5308 43.0714 37.807 42.5191 37.81H40.1829C40.1523 37.8058 40.1214 37.8058 40.0908 37.81C40.0472 37.8007 40.0028 37.8007 39.9592 37.81C39.9143 37.8311 39.8722 37.8616 39.8342 37.9006L39.7552 37.9641C39.7191 38.0089 39.6881 38.0608 39.6631 38.1181C39.641 38.1583 39.6212 38.2007 39.6038 38.245C39.598 38.299 39.598 38.354 39.6038 38.4081C39.5569 38.4984 39.5296 38.6052 39.5249 38.7161C39.5218 38.7583 39.5218 38.8008 39.5249 38.843C39.5181 38.903 39.5181 38.9641 39.5249 39.0242C39.5401 39.086 39.5623 39.144 39.5907 39.1963C39.5907 39.1963 39.5907 39.2688 39.6367 39.3051L43.5852 45.6477C43.6986 45.8303 43.8601 45.9434 44.0341 45.9621C44.2081 45.9808 44.3804 45.9035 44.5131 45.7473C44.6457 45.5911 44.7279 45.3688 44.7414 45.1292C44.755 44.8896 44.6989 44.6524 44.5855 44.4698L41.6175 39.6222H42.4862C43.3917 39.6274 44.2658 39.165 44.9359 38.3262C45.6059 37.4875 46.0233 36.3335 46.1056 35.0918H47.4217C47.5963 35.0918 47.7637 34.9963 47.8871 34.8264C48.0105 34.6565 48.0798 34.426 48.0798 34.1857C48.0798 33.9454 48.0105 33.7149 47.8871 33.545C47.7637 33.3751 47.5963 33.2796 47.4217 33.2796Z" fill="white"/>
</svg>
