<svg width="119" height="157" viewBox="0 0 119 157" fill="none" xmlns="http://www.w3.org/2000/svg">
<path d="M67.4855 4.04962L62.4176 3.36804L61.8147 7.63199L66.8826 8.31357L67.4855 4.04962Z" fill="#C8C6C6"/>
<path d="M69.2543 4.82934L60.5101 3.65248C59.4811 3.51545 58.762 2.58847 58.9025 1.58491C59.0431 0.581353 59.9935 -0.119927 61.0225 0.0171043L69.7667 1.19397C70.7957 1.331 71.5147 2.25798 71.3742 3.26154C71.2337 4.26509 70.2833 4.96637 69.2543 4.82934Z" fill="#9C9C9B"/>
<path d="M81.2152 14.907L79.6505 12.8927L77.8685 14.2095L79.4332 16.2238L81.2152 14.907Z" fill="#C8C6C6"/>
<path d="M81.5634 15.796L78.8607 12.3178C78.5425 11.9107 78.6252 11.3263 79.0467 11.016C79.4682 10.7057 80.0633 10.7863 80.3815 11.1974L83.0841 14.6756C83.4023 15.0867 83.3196 15.667 82.8981 15.9774C82.4808 16.2837 81.8816 16.2031 81.5634 15.796Z" fill="#9C9C9B"/>
<path d="M47.5426 11.9276L49.6079 10.4015L48.2578 8.66348L46.1925 10.1895L47.5426 11.9276Z" fill="#C8C6C6"/>
<path d="M45.6166 10.9596L49.1829 8.32374C49.6044 8.0134 49.6829 7.429 49.3689 7.02193C49.0507 6.61084 48.4515 6.53426 48.0341 6.84057L44.4678 9.47641C44.0463 9.78675 43.9678 10.3712 44.2818 10.7782C44.6 11.1893 45.1951 11.2699 45.6166 10.9596Z" fill="#9C9C9B"/>
<path d="M61.5836 46.9262C72.5545 46.9262 81.4482 38.2522 81.4482 27.5523C81.4482 16.8524 72.5545 8.17847 61.5836 8.17847C50.6127 8.17847 41.719 16.8524 41.719 27.5523C41.719 38.2522 50.6127 46.9262 61.5836 46.9262Z" fill="white"/>
<path d="M69.2913 9.04089L61.5844 27.5523L82.1887 24.6585C82.1887 24.6585 78.5191 11.8259 69.2913 9.04089Z" fill="#EF6B5E"/>
<path d="M58.6384 48.4055C46.8486 46.8216 38.5796 36.1734 40.2036 24.6748C41.8277 13.1762 52.7456 5.11149 64.5354 6.69542C76.3252 8.27935 84.5942 18.9275 82.9702 30.4261C81.3461 41.9247 70.4283 49.9894 58.6384 48.4055ZM64.0643 10.0205C54.1547 8.68641 44.9807 15.4655 43.6129 25.1302C42.245 34.795 49.1958 43.7424 59.1054 45.0764C69.015 46.4105 78.189 39.6314 79.5568 29.9667C80.9288 20.3019 73.978 11.3545 64.0643 10.0205Z" fill="#0C3B59"/>
<path d="M63.2741 15.6266C63.0551 15.5984 62.9063 15.4009 62.9352 15.1913L63.3857 11.9912C63.4146 11.7776 63.6171 11.6325 63.832 11.6607C64.0469 11.6889 64.1998 11.8864 64.1708 12.096L63.7204 15.2961C63.6915 15.5057 63.489 15.6548 63.2741 15.6266Z" fill="#0A1F30"/>
<path d="M56.7272 16.4247C56.5908 16.4046 56.4669 16.3199 56.4132 16.1869L55.1652 13.1964C55.0825 12.9989 55.1817 12.7732 55.3842 12.6926C55.5867 12.612 55.8181 12.7088 55.9007 12.9062L57.1487 15.8968C57.2314 16.0942 57.1322 16.3199 56.9297 16.4006C56.8636 16.4288 56.7933 16.4328 56.7272 16.4247Z" fill="#0A1F30"/>
<path d="M51.4722 20.31C51.4061 20.3019 51.3399 20.2737 51.2821 20.2334L48.6704 18.2505C48.4968 18.1175 48.4679 17.8757 48.6001 17.7064C48.7365 17.5371 48.9845 17.5089 49.158 17.6379L51.7739 19.6208C51.9474 19.7538 51.9763 19.9956 51.8441 20.1649C51.749 20.2778 51.6085 20.3261 51.4722 20.31Z" fill="#0A1F30"/>
<path d="M48.91 26.2386L45.6288 25.7993C45.4098 25.7711 45.261 25.5736 45.29 25.364C45.3189 25.1504 45.5214 25.0053 45.7363 25.0335L49.0174 25.4728C49.2364 25.5011 49.3852 25.6985 49.3563 25.9081C49.3315 26.1177 49.129 26.2668 48.91 26.2386Z" fill="#0A1F30"/>
<path d="M46.666 33.8357C46.5296 33.8156 46.4056 33.7309 46.3519 33.5979C46.2693 33.4004 46.3685 33.1747 46.5709 33.0941L49.6372 31.877C49.8397 31.7964 50.0711 31.8931 50.1538 32.0906C50.2364 32.2881 50.1372 32.5138 49.9347 32.5944L46.8685 33.8115C46.8024 33.8357 46.7321 33.8438 46.666 33.8357Z" fill="#0A1F30"/>
<path d="M51.6826 40.2965C51.6165 40.2884 51.5504 40.2602 51.4925 40.2199C51.319 40.0869 51.29 39.8451 51.4223 39.6758L53.4554 37.1246C53.5918 36.9553 53.8398 36.9271 54.0133 37.0561C54.1869 37.1891 54.2158 37.4309 54.0836 37.6002L52.0504 40.1514C51.9595 40.2643 51.819 40.3126 51.6826 40.2965Z" fill="#0A1F30"/>
<path d="M59.3384 43.4401C59.1194 43.4119 58.9706 43.2144 58.9996 43.0048L59.45 39.8047C59.4789 39.5911 59.6814 39.446 59.8963 39.4742C60.1112 39.5024 60.2641 39.6999 60.2352 39.9095L59.7847 43.1096C59.7558 43.3232 59.5574 43.4723 59.3384 43.4401Z" fill="#0A1F30"/>
<path d="M67.5835 42.4325C67.4472 42.4124 67.3232 42.3278 67.2695 42.1948L66.0215 39.2042C65.9388 39.0068 66.038 38.7811 66.2405 38.7004C66.443 38.6198 66.6744 38.7166 66.7571 38.9141L68.0051 41.9046C68.0877 42.1021 67.9885 42.3278 67.786 42.4084C67.7199 42.4366 67.6497 42.4406 67.5835 42.4325Z" fill="#0A1F30"/>
<path d="M74.2085 37.5397C74.1424 37.5317 74.0762 37.5035 74.0184 37.4632L71.4026 35.4802C71.229 35.3472 71.2001 35.1054 71.3323 34.9361C71.4687 34.7669 71.7166 34.7346 71.8902 34.8676L74.506 36.8506C74.6796 36.9836 74.7085 37.2254 74.5763 37.3947C74.4854 37.5075 74.3407 37.5559 74.2085 37.5397Z" fill="#0A1F30"/>
<path d="M77.4311 30.0714L74.1499 29.6321C73.9309 29.6039 73.7822 29.4064 73.8111 29.1968C73.84 28.9832 74.0425 28.8381 74.2574 28.8663L77.5385 29.3056C77.7576 29.3338 77.9063 29.5313 77.8774 29.7409C77.8485 29.9545 77.6501 30.0996 77.4311 30.0714Z" fill="#0A1F30"/>
<path d="M73.3318 23.2481C73.1954 23.2279 73.0714 23.1433 73.0177 23.0103C72.935 22.8128 73.0342 22.5871 73.2367 22.5065L76.303 21.2893C76.5055 21.2087 76.7369 21.3054 76.8195 21.5029C76.9022 21.7004 76.803 21.9261 76.6005 22.0067L73.5343 23.2239C73.4681 23.2521 73.3979 23.2561 73.3318 23.2481Z" fill="#0A1F30"/>
<path d="M69.3484 18.1213C69.2823 18.1133 69.2162 18.0851 69.1583 18.0448C68.9847 17.9118 68.9558 17.6699 69.0881 17.5007L71.1212 14.9494C71.2576 14.7802 71.5055 14.752 71.6791 14.8809C71.8526 15.0139 71.8816 15.2558 71.7493 15.425L69.7162 17.9762C69.6294 18.0891 69.4848 18.1415 69.3484 18.1213Z" fill="#0A1F30"/>
<path d="M60.7981 27.4437L62.9718 16.9366C62.9842 16.8761 63.042 16.8398 63.104 16.8519C63.1577 16.864 63.1991 16.9124 63.1949 16.9648L62.3726 27.6573C62.3395 28.0845 61.9593 28.4069 61.5213 28.3747C61.0833 28.3425 60.7527 27.9717 60.7857 27.5444C60.7899 27.5082 60.794 27.4759 60.7981 27.4437Z" fill="#0A1F30"/>
<path d="M63.0873 27.7539C62.9716 28.564 62.2071 29.1282 61.3806 29.0154C60.5541 28.9025 59.9714 28.1569 60.0872 27.3508C60.2029 26.5407 60.9674 25.9765 61.7939 26.0893C62.6203 26.1981 63.203 26.9438 63.0873 27.7539Z" fill="#0C3B59"/>
<path d="M115.438 35.0746C115.005 34.8328 114.768 34.4784 114.629 34.0228C114.569 33.8309 114.46 33.6508 114.363 33.4741C113.299 31.4888 111.971 29.6932 110.436 28.0517C109.25 26.7785 108.16 25.3913 106.849 24.2615C103.327 21.221 99.3168 18.9491 95.0657 17.0866C94.8708 17.0022 94.6807 16.8924 94.5119 16.7624C91.7033 14.5555 87.3912 14.6044 84.6702 16.9218C83.5297 17.8918 82.4486 18.9399 81.3451 19.9543C80.718 20.5307 80.0799 21.0947 79.4897 21.7065C78.9915 22.2243 78.9038 22.8635 79.2386 23.5082C79.5547 24.1172 79.8746 24.7334 80.2796 25.2773C80.8239 26.008 81.4199 26.7068 82.0634 27.3487C82.5669 27.8545 83.2213 28.1531 83.9701 28.0417C84.2167 28.0076 84.3605 28.0642 84.5353 28.223C85.045 28.6799 85.6498 28.9362 86.3273 28.6982C86.9814 28.4678 87.2641 27.913 87.3495 27.2522C87.373 27.0802 87.3964 26.9082 87.4199 26.7362C87.469 26.6648 87.5165 26.6078 87.552 26.58C87.9056 26.3938 88.2759 26.2308 88.609 26.0144C88.9242 25.8074 89.1938 25.5742 89.6043 25.5223C89.878 25.4877 90.1735 25.2865 90.3731 25.0765C90.6663 24.767 90.9168 24.4025 91.1202 24.0263C91.5041 23.3087 91.8208 22.5673 91.0842 21.792C92.1974 22.1044 93.1038 22.6216 93.8566 23.393C94.8141 24.3713 95.431 25.5518 95.7942 26.8567C96.1515 28.1419 96.3886 29.4585 96.7495 30.7418C96.9974 31.6285 97.3584 32.4875 97.6789 33.3907C93.9433 33.2957 90.6203 34.3656 87.8983 37.0622C85.985 35.7068 83.8836 34.9384 81.5331 35.031C79.3015 35.1157 77.2748 35.754 75.5587 37.173C75.5587 37.173 71.9576 38.9276 71.9523 38.9349C71.892 38.9849 71.6572 39.0675 71.5952 39.1229C71.5952 39.1229 71.0793 39.8324 71.0689 39.8561C70.6075 40.3226 71.3557 40.4441 71.6519 41.8299C71.6523 41.8479 72.3967 43.2532 72.4041 43.2584C72.5299 43.402 80.2768 63.2798 91.177 55.8349C91.1985 55.8236 91.2144 55.8106 91.234 55.7958C91.3532 55.7102 91.4665 55.6049 91.5712 55.5179C92.3676 54.8386 93.125 54.8002 93.7029 54.3919C94.0847 54.1909 94.2472 54.1101 94.4748 53.9892C95.23 53.5879 95.0858 53.2524 95.7153 52.8799C99.1393 50.8582 103.196 49.4931 106.384 47.2038C108.349 45.7905 110.162 44.1564 112.006 42.5741C113.554 41.2436 114.752 39.6459 115.413 37.6876C115.646 36.9949 115.808 36.2891 115.694 35.5513C115.67 35.3767 115.573 35.1494 115.438 35.0746Z" fill="#CE9370"/>
<path d="M113.452 34.6886C112.468 33.8607 111.481 33.0346 110.588 32.1181C109.992 31.506 109.548 30.7407 109.061 30.0306C108.105 28.6496 107.232 27.2074 106.206 25.882C104.931 24.2315 103.297 22.9388 101.646 21.6826C99.2312 19.8429 96.7097 18.1554 93.9517 16.8935C91.2118 15.6402 88.5427 15.8641 86.1328 17.776C84.7406 18.883 83.4078 20.0683 82.0358 21.1965C81.6063 21.5504 81.1195 21.8386 80.666 22.1641C80.3707 22.3743 79.9863 22.5539 79.9769 22.9693C79.9685 23.2565 80.0618 23.5723 80.1919 23.8368C80.7447 24.9735 81.4171 26.0426 82.3293 26.9262C82.6298 27.2196 83.0174 27.4534 83.4004 27.6349C83.8908 27.8648 84.3892 27.7803 84.8717 27.4578C83.2572 26.6612 82.3866 25.3543 82.0693 23.6512C82.0976 23.6271 82.126 23.6031 82.149 23.5773C82.2432 23.6783 82.3481 23.7735 82.428 23.882C82.8704 24.4884 83.3021 25.1004 83.7445 25.7068C83.8635 25.8722 83.9932 26.0319 84.1263 26.1808C84.9893 27.1268 85.6523 27.1472 86.5355 26.3036C86.0294 25.7581 85.4699 25.2499 85.0367 24.6524C84.6073 24.062 84.3632 23.3558 84.3035 22.5753C84.4052 22.6905 84.5086 22.8002 84.5996 22.9211C85.0824 23.5609 85.5545 24.2064 86.0409 24.8443C86.2117 25.0646 86.4002 25.2755 86.6063 25.459C87.3241 26.1119 87.8693 26.1077 88.6388 25.438C87.0919 24.51 86.449 23.0376 86.1236 21.3798C86.1574 21.3574 86.1948 21.3332 86.2286 21.3108C86.5043 21.713 86.7709 22.1155 87.0537 22.514C87.4592 23.085 87.87 23.6487 88.2916 24.2068C88.4031 24.3579 88.552 24.4848 88.7007 24.6026C89.1835 24.9825 89.6405 24.9927 90.0682 24.5577C90.4218 24.1982 90.7419 23.7925 90.9963 23.3575C91.4968 22.5147 91.2845 21.9468 90.344 21.5206C90.3536 21.8074 90.3811 22.0849 90.3651 22.3579C90.343 22.7663 90.0571 22.9078 89.743 22.6489C89.3406 22.318 88.9736 21.9501 88.8645 21.3963C88.7838 20.9918 88.6563 20.5937 88.5523 20.1969C88.911 20.341 89.2359 20.5075 89.5789 20.596C90.0728 20.7283 90.3305 20.62 90.541 20.1534C90.7291 19.7396 90.8388 19.2895 90.985 18.8568C91.0275 18.7295 91.0754 18.6039 91.1303 18.4656C91.6644 18.8822 91.7864 20.0496 91.4487 21.167C94.7443 21.3705 96.6071 23.4185 97.8265 26.2112C98.3442 27.3938 98.6508 28.6692 99.0952 29.8857C99.6394 31.3873 100.415 32.7485 101.642 33.8133C102.232 34.3281 102.905 34.713 103.659 34.9409C103.768 34.9747 103.879 35.0121 103.976 35.0661C104.776 35.5295 105.575 35.9984 106.374 36.4673C106.419 36.4934 106.463 36.516 106.509 36.5421C107.17 36.9236 107.189 37.2879 106.54 37.6753C105.345 38.3864 104.016 38.5659 102.705 38.2576C101.73 38.0271 100.914 37.3437 100.204 36.6274C99.817 36.2383 99.391 36.0703 98.8763 35.9764C96.7468 35.5878 94.6263 35.5456 92.5326 36.1781C89.8649 36.9851 87.8364 38.6597 86.255 40.9063C85.8325 41.5074 85.4724 42.1577 85.0847 42.7814C84.9939 42.9296 84.9032 43.0777 84.7487 43.2001C84.8582 41.6235 85.5756 40.2742 86.3888 38.9338C83.0729 35.954 79.4493 36.5481 75.5373 37.9463C75.5373 37.9463 67.9995 40.0904 84.2545 55.4476C87.7388 57.5952 90.1906 56.6465 91.3125 55.7365C91.1063 55.8907 90.8793 55.9966 90.6488 55.8534C90.4585 55.7346 90.4759 55.2738 90.4116 54.961C90.3894 54.8496 90.423 54.7315 90.4134 54.618C90.3485 53.7582 90.6119 53.063 91.4707 52.6062C88.6503 51.9017 87.2086 51.078 87.1252 50.1138C87.2577 50.1489 87.3808 50.1662 87.4902 50.2181C89.7537 51.225 92.0525 51.0775 94.3545 50.3901C97.0673 49.5821 99.5363 48.2503 101.802 46.5923C104.616 44.5311 107.595 42.721 110.483 40.7719C111.628 40.0005 112.722 39.1416 113.781 38.251C114.554 37.5975 114.951 36.6955 115.014 35.768C114.465 35.3913 113.924 35.0831 113.452 34.6886ZM82.06 23.0358C81.4236 22.9101 81.2173 22.371 81.6252 21.9327C81.8212 21.7246 82.0633 21.5607 82.3126 21.3929C81.9169 21.8977 81.5065 22.383 82.06 23.0358ZM84.1346 21.9252C83.4845 21.7475 83.3183 21.2238 83.7568 20.7831C83.9389 20.6005 84.1671 20.4622 84.3714 20.3044C83.9884 20.8071 83.6482 21.2873 84.1346 21.9252ZM86.1062 20.8963C85.555 20.7851 85.3476 20.2785 85.7073 19.8702C85.9049 19.6476 86.1539 19.4708 86.3827 19.2729C85.838 20.0751 85.8085 20.2183 86.1062 20.8963ZM97.6149 45.5626C97.0422 46.2336 96.4002 46.8681 95.7056 47.4117C95.2918 47.7345 94.7338 47.9051 94.2133 48.0514C92.2999 48.5844 90.3705 48.6104 88.4445 48.1146C88.1486 48.0378 87.8696 47.9064 87.5839 47.7968C87.592 47.7515 87.5984 47.7117 87.6064 47.6664C87.8281 47.6455 88.0476 47.612 88.2678 47.6056C89.7724 47.5524 91.2623 47.4019 92.6964 46.9115C92.89 46.846 93.0892 46.7913 93.2678 46.6973C94.5407 46.0134 96.0128 45.6991 97.1187 44.7154C97.7957 44.1127 98.3711 43.3947 98.9889 42.7227C99.1054 42.5975 99.187 42.4405 99.3089 42.317C98.9457 43.5072 98.4184 44.6196 97.6149 45.5626ZM106.798 29.9174C107.004 30.3608 107.135 30.8437 107.282 31.3137C105.468 28.5876 103.316 26.1629 100.905 23.8971C101.072 23.9279 101.251 23.9386 101.413 23.9948C102.94 24.5314 104.249 25.4573 105.194 26.7247C105.897 27.6687 106.297 28.8356 106.798 29.9174Z" fill="#F9B288"/>
<path d="M87.2641 26.5446C87.0402 26.6306 86.8785 26.6701 86.7449 26.7541C86.2956 27.0271 85.8633 27.3323 85.4028 27.5839C85.1225 27.736 84.8011 27.8186 84.5002 27.9314C84.5137 27.9744 84.5308 28.0156 84.5462 28.0622C85.8103 28.5051 86.8695 27.9611 87.2641 26.5446Z" fill="#F9B288"/>
<path d="M49.8569 49.0294L28.5193 62.609C27.7042 63.1252 26.6226 62.8863 26.1064 62.0713L6.87293 31.8476C6.35674 31.0326 6.59562 29.9509 7.41068 29.4347L28.7483 15.8551C29.5634 15.3389 30.645 15.5778 31.1612 16.3929L50.3947 46.6165C50.914 47.429 50.6725 48.5075 49.8569 49.0294Z" fill="#537275"/>
<path d="M48.2543 47.6226L27.9235 60.5631C27.7105 60.6985 27.4237 60.638 27.2857 60.4219L9.43396 32.3675C9.29859 32.1545 9.35909 31.8677 9.57513 31.7297L29.906 18.7893C30.1189 18.6539 30.4057 18.7144 30.5437 18.9304L48.3955 46.9849C48.5308 47.1979 48.4703 47.4847 48.2543 47.6226Z" fill="white"/>
<path opacity="0.04" d="M50.1235 48.7813L28.5 62.5728C28.1951 62.8689 27.039 63.228 26.2122 62.2356L6.986 31.8378L50.1235 48.7813Z" fill="#010101"/>
<path d="M21.6473 37.8268L16.6918 40.9782L13.5404 36.0227L18.4959 32.8713L21.6473 37.8268ZM16.7554 40.6888L21.3522 37.7627L18.4261 33.1659L13.8293 36.092L16.7554 40.6888Z" fill="#163E4A"/>
<path d="M26.4061 45.3041L21.4506 48.4555L18.2992 43.5L23.2547 40.3486L26.4061 45.3041ZM21.5168 48.1692L26.1136 45.243L23.1874 40.6463L18.5907 43.5724L21.5168 48.1692Z" fill="#163E4A"/>
<path d="M31.1678 52.785L26.2123 55.9364L23.0609 50.981L28.0164 47.8296L31.1678 52.785ZM26.2759 55.647L30.8727 52.7209L27.9466 48.1242L23.3498 51.0503L26.2759 55.647Z" fill="#163E4A"/>
<path d="M21.3802 31.6089L21.7031 32.1162L31.9048 25.6237L31.5819 25.1163L21.3802 31.6089Z" fill="#E6E6E5"/>
<path d="M22.376 33.172L22.6989 33.6793L32.9005 27.1868L32.5776 26.6794L22.376 33.172Z" fill="#E6E6E5"/>
<path d="M23.3689 34.7314L23.6918 35.2388L33.8934 28.7462L33.5705 28.2388L23.3689 34.7314Z" fill="#E6E6E5"/>
<path d="M26.2474 39.2564L26.5703 39.7638L36.7719 33.2712L36.4491 32.7639L26.2474 39.2564Z" fill="#E6E6E5"/>
<path d="M27.2407 40.816L27.5636 41.3234L37.7652 34.8308L37.4423 34.3234L27.2407 40.816Z" fill="#E6E6E5"/>
<path d="M28.2326 42.3812L28.5555 42.8885L38.7572 36.396L38.4343 35.8886L28.2326 42.3812Z" fill="#E6E6E5"/>
<path d="M30.8175 46.4398L31.1404 46.9471L41.342 40.4546L41.0191 39.9472L30.8175 46.4398Z" fill="#E6E6E5"/>
<path d="M31.811 47.9993L32.1339 48.5067L42.3355 42.0142L42.0126 41.5068L31.811 47.9993Z" fill="#E6E6E5"/>
<path d="M32.8064 49.5621L33.1293 50.0695L43.3309 43.5769L43.008 43.0695L32.8064 49.5621Z" fill="#E6E6E5"/>
<path opacity="0.22" d="M18.9039 31.759L17.0211 36.6058L15.4578 36.2429L14.9342 37.4304L17.6691 37.7051L19.615 31.5342L18.9039 31.759Z" fill="#010101"/>
<path d="M14.9772 37.0848L15.3427 36.2497L16.9148 36.6106L18.8203 31.7028L19.1329 31.6051L17.3287 37.3218L14.9772 37.0848Z" fill="#8BAC81"/>
<path d="M17.374 37.3888L14.8862 37.1395L15.309 36.1777L16.8754 36.5381L18.7705 31.6494L19.2279 31.5048L17.374 37.3888ZM15.0681 37.0299L17.2862 37.2519L19.0413 31.697L18.8672 31.7528L16.9539 36.6828L15.3819 36.3219L15.0681 37.0299Z" fill="#8BAC81"/>
<path opacity="0.22" d="M24.6085 39.9304L22.7288 44.7747L21.165 44.4174L20.6445 45.6023L23.3737 45.8765L25.3222 39.7088L24.6085 39.9304Z" fill="#010101"/>
<path d="M20.6819 45.2563L21.0505 44.4186L22.6194 44.7821L24.5249 39.8743L24.8407 39.774L23.0364 45.4907L20.6819 45.2563Z" fill="#8BAC81"/>
<path d="M23.0788 45.5601L20.591 45.3107L21.0138 44.349L22.5802 44.7094L24.4754 39.8207L24.9353 39.6791L23.0788 45.5601ZM20.7729 45.2012L22.991 45.4231L24.7462 39.8682L24.572 39.924L22.6588 44.8541L21.0867 44.4932L20.7729 45.2012Z" fill="#8BAC81"/>
<path opacity="0.22" d="M28.9938 46.8209L27.1142 51.6652L25.5504 51.3079L25.0299 52.4928L27.7616 52.7701L29.7076 46.5992L28.9938 46.8209Z" fill="#010101"/>
<path d="M25.0673 52.1466L25.4385 51.312L27.0049 51.6724L28.9104 46.7645L29.2261 46.6643L27.4244 52.3841L25.0673 52.1466Z" fill="#8BAC81"/>
<path d="M27.464 52.4507L24.9762 52.2013L25.399 51.2396L26.9654 51.6L28.8606 46.7113L29.318 46.5666L27.464 52.4507ZM25.1607 52.0949L27.3788 52.3169L29.134 46.762L28.9598 46.8178L27.0465 51.7478L25.4745 51.3869L25.1607 52.0949Z" fill="#8BAC81"/>
<path d="M24.2581 17.5528L20.6501 19.8496L20.3214 19.3354C19.3211 17.7626 17.2312 17.2973 15.6585 18.2976L15.6006 18.3353C14.0278 19.3357 13.5625 21.4256 14.5628 22.9983L14.8915 23.5126L11.2834 25.8093C11.0979 25.9271 11.041 26.1742 11.1614 26.3628L13.4809 30.0045C13.5987 30.19 13.8457 30.2469 14.0344 30.1265L27.0122 21.8674C27.1977 21.7496 27.2546 21.5026 27.1342 21.3139L24.8147 17.6723C24.6881 17.4888 24.4437 17.435 24.2581 17.5528ZM17.5506 21.3444C17.0245 21.6776 16.3279 21.5225 15.9915 20.999C15.6551 20.4754 15.8133 19.7762 16.3369 19.4398C16.863 19.1065 17.5597 19.2617 17.896 19.7852C18.2324 20.3088 18.0768 21.0111 17.5506 21.3444Z" fill="#F7D77F"/>
<path d="M12.9392 29.1883L13.3033 29.7604L26.9577 21.0704L26.5936 20.4983L12.9392 29.1883Z" fill="#E4C473"/>
<path d="M27.1565 21.5047L13.6401 30.1074C13.5977 30.1322 13.5414 30.1213 13.5166 30.0789L13.4065 29.9027L27.0599 21.2122L27.1802 21.4008C27.1999 21.437 27.1901 21.482 27.1565 21.5047Z" fill="#E4C473"/>
<path opacity="0.72" d="M71.2508 58.8142C71.1136 58.6204 71.0369 58.4186 71.0369 58.2087C71.0369 57.0625 73.2285 56.1342 75.9287 56.1342C78.6289 56.1342 80.8206 57.0625 80.8206 58.2087C80.8206 58.4186 80.7439 58.6245 80.6066 58.8142H80.6187L74.8349 65.8452L67.816 58.1845L71.2508 58.8142Z" fill="#9FB4B7"/>
<path opacity="0.72" d="M73.5512 58.588L81.9182 48.6066H68.5585L73.5512 58.588Z" fill="#9FB4B7"/>
<path d="M51.4333 59.5765C54.135 59.5765 56.3252 58.6477 56.3252 57.502C56.3252 56.3562 54.135 55.4274 51.4333 55.4274C48.7317 55.4274 46.5415 56.3562 46.5415 57.502C46.5415 58.6477 48.7317 59.5765 51.4333 59.5765Z" fill="#CD7E29"/>
<path d="M46.5415 56.2912V57.2881C46.5415 58.1397 47.7523 58.8703 49.4798 59.1891C49.8915 59.2658 50.3315 59.3183 50.7875 59.3425C50.9974 59.3546 51.2154 59.3587 51.4333 59.3587C52.1276 59.3587 52.7895 59.2981 53.3828 59.1851C55.1143 58.8663 56.0144 58.1155 56.0144 57.2639L56.3211 56.1782C55.6148 55.3992 53.512 55.2054 51.4293 55.2054C49.7745 55.2135 47.4254 55.7584 46.5415 56.2912Z" fill="#FFC615"/>
<g opacity="0.43">
<path d="M49.48 57.3607V59.1891C49.8917 59.2658 50.3316 59.3183 50.7877 59.3425V57.3567H49.48V57.3607Z" fill="#FAF395"/>
</g>
<path d="M53.1771 59.2257V55.2703C54.5938 55.3712 55.8168 55.6295 56.3213 56.1865V57.2883C56.3253 58.1723 55.0176 58.927 53.1771 59.2257Z" fill="#F09D20"/>
<path d="M51.4332 58.366C54.1349 58.366 56.325 57.4372 56.325 56.2914C56.325 55.1456 54.1349 54.2168 51.4332 54.2168C48.7315 54.2168 46.5414 55.1456 46.5414 56.2914C46.5414 57.4372 48.7315 58.366 51.4332 58.366Z" fill="#FED401"/>
<path d="M48.6403 57.8938C47.8291 57.6436 47.2196 57.2924 46.9088 56.8969L50.8239 54.3218C51.0418 54.3097 51.2638 54.3016 51.4899 54.3016C52.2769 54.3016 53.0519 54.3824 53.7461 54.5357L48.6403 57.8938Z" fill="#FAF395"/>
<path d="M50.7918 58.2648C50.4245 58.2406 50.0652 58.2003 49.7181 58.1438L54.7472 54.8341C55.0176 54.939 55.2598 55.0561 55.4697 55.1853L50.7918 58.2648Z" fill="#FAF395"/>
<path d="M51.4333 57.5588C54.135 57.5588 56.3252 56.63 56.3252 55.4843C56.3252 54.3385 54.135 53.4097 51.4333 53.4097C48.7317 53.4097 46.5415 54.3385 46.5415 55.4843C46.5415 56.63 48.7317 57.5588 51.4333 57.5588Z" fill="#CD7E29"/>
<path d="M46.5415 54.2735V55.2704C46.5415 56.122 47.7523 56.8526 49.4798 57.1714C49.8915 57.2481 50.3315 57.3006 50.7875 57.3248C50.9974 57.3369 51.2154 57.341 51.4333 57.341C52.1276 57.341 52.7895 57.2804 53.3828 57.1674C55.1143 56.8486 56.0144 56.0978 56.0144 55.2462L56.3211 54.1605C55.6148 53.3815 53.512 53.1877 51.4293 53.1877C49.7745 53.1958 47.4254 53.7407 46.5415 54.2735Z" fill="#FFC615"/>
<g opacity="0.43">
<path d="M49.48 55.3432V57.1715C49.8917 57.2482 50.3316 57.3007 50.7877 57.3249V55.3391H49.48V55.3432Z" fill="#FAF395"/>
</g>
<path d="M53.1771 57.2078V53.2523C54.5938 53.3532 55.8168 53.6115 56.3213 54.1685V55.2704C56.3253 56.1543 55.0176 56.9091 53.1771 57.2078Z" fill="#F09D20"/>
<path d="M51.4332 56.3478C54.1349 56.3478 56.325 55.419 56.325 54.2732C56.325 53.1274 54.1349 52.1986 51.4332 52.1986C48.7315 52.1986 46.5414 53.1274 46.5414 54.2732C46.5414 55.419 48.7315 56.3478 51.4332 56.3478Z" fill="#FED401"/>
<path d="M48.6403 55.8754C47.8291 55.6251 47.2196 55.274 46.9088 54.8785L50.8239 52.3034C51.0418 52.2913 51.2638 52.2832 51.4899 52.2832C52.2769 52.2832 53.0519 52.3639 53.7461 52.5173L48.6403 55.8754Z" fill="#FAF395"/>
<path d="M50.7918 56.2473C50.4245 56.2231 50.0652 56.1827 49.7181 56.1262L54.7472 52.8165C55.0176 52.9215 55.2598 53.0385 55.4697 53.1677L50.7918 56.2473Z" fill="#FAF395"/>
<path d="M51.4333 55.5404C54.135 55.5404 56.3252 54.6116 56.3252 53.4658C56.3252 52.3201 54.135 51.3912 51.4333 51.3912C48.7317 51.3912 46.5415 52.3201 46.5415 53.4658C46.5415 54.6116 48.7317 55.5404 51.4333 55.5404Z" fill="#CD7E29"/>
<path d="M46.5415 52.255V53.252C46.5415 54.1036 47.7523 54.8341 49.4798 55.153C49.8915 55.2297 50.3315 55.2822 50.7875 55.3064C50.9974 55.3185 51.2154 55.3225 51.4333 55.3225C52.1276 55.3225 52.7895 55.262 53.3828 55.149C55.1143 54.8301 56.0144 54.0794 56.0144 53.2278L56.3211 52.142C55.6148 51.363 53.512 51.1693 51.4293 51.1693C49.7745 51.1774 47.4254 51.7223 46.5415 52.255Z" fill="#FFC615"/>
<g opacity="0.43">
<path d="M49.48 53.3246V55.153C49.8917 55.2297 50.3316 55.2821 50.7877 55.3064V53.3206H49.48V53.3246Z" fill="#FAF395"/>
</g>
<path d="M53.1771 55.1892V51.2338C54.5938 51.3347 55.8168 51.593 56.3213 52.15V53.2518C56.3253 54.1358 55.0176 54.8905 53.1771 55.1892Z" fill="#F09D20"/>
<path d="M51.4332 54.3297C54.1349 54.3297 56.325 53.4009 56.325 52.2551C56.325 51.1094 54.1349 50.1805 51.4332 50.1805C48.7315 50.1805 46.5414 51.1094 46.5414 52.2551C46.5414 53.4009 48.7315 54.3297 51.4332 54.3297Z" fill="#FED401"/>
<path d="M48.6403 53.8573C47.8291 53.6071 47.2196 53.2559 46.9088 52.8604L50.8239 50.2853C51.0418 50.2732 51.2638 50.2651 51.4899 50.2651C52.2769 50.2651 53.0519 50.3459 53.7461 50.4992L48.6403 53.8573Z" fill="#FAF395"/>
<path d="M50.7918 54.2287C50.4245 54.2045 50.0652 54.1641 49.7181 54.1076L54.7472 50.798C55.0176 50.9029 55.2598 51.02 55.4697 51.1491L50.7918 54.2287Z" fill="#FAF395"/>
<path d="M51.4333 53.5225C54.135 53.5225 56.3252 52.5936 56.3252 51.4479C56.3252 50.3021 54.135 49.3733 51.4333 49.3733C48.7317 49.3733 46.5415 50.3021 46.5415 51.4479C46.5415 52.5936 48.7317 53.5225 51.4333 53.5225Z" fill="#CD7E29"/>
<path d="M46.5415 50.2367V51.2337C46.5415 52.0853 47.7523 52.8158 49.4798 53.1347C49.8915 53.2114 50.3315 53.2639 50.7875 53.2881C50.9974 53.3002 51.2154 53.3042 51.4333 53.3042C52.1276 53.3042 52.7895 53.2437 53.3828 53.1307C55.1143 52.8118 56.0144 52.0611 56.0144 51.2094L56.3211 50.1237C55.6148 49.3447 53.512 49.151 51.4293 49.151C49.7745 49.1591 47.4254 49.704 46.5415 50.2367Z" fill="#FFC615"/>
<g opacity="0.43">
<path d="M49.48 51.3067V53.135C49.8917 53.2117 50.3316 53.2642 50.7877 53.2884V51.3026H49.48V51.3067Z" fill="#FAF395"/>
</g>
<path d="M53.1771 53.1713V49.2158C54.5938 49.3167 55.8168 49.575 56.3213 50.132V51.2339C56.3253 52.1178 55.0176 52.8726 53.1771 53.1713Z" fill="#F09D20"/>
<path d="M51.4332 52.3115C54.1349 52.3115 56.325 51.3827 56.325 50.2369C56.325 49.0912 54.1349 48.1624 51.4332 48.1624C48.7315 48.1624 46.5414 49.0912 46.5414 50.2369C46.5414 51.3827 48.7315 52.3115 51.4332 52.3115Z" fill="#FED401"/>
<path d="M48.6403 51.839C47.8291 51.5888 47.2196 51.2376 46.9088 50.8421L50.8239 48.267C51.0418 48.2549 51.2638 48.2468 51.4899 48.2468C52.2769 48.2468 53.0519 48.3275 53.7461 48.4809L48.6403 51.839Z" fill="#FAF395"/>
<path d="M50.7918 52.2105C50.4245 52.1863 50.0652 52.146 49.7181 52.0894L54.7472 48.7798C55.0176 48.8847 55.2598 49.0018 55.4697 49.1309L50.7918 52.2105Z" fill="#FAF395"/>
<path d="M51.4333 51.5045C54.135 51.5045 56.3252 50.5757 56.3252 49.4299C56.3252 48.2842 54.135 47.3553 51.4333 47.3553C48.7317 47.3553 46.5415 48.2842 46.5415 49.4299C46.5415 50.5757 48.7317 51.5045 51.4333 51.5045Z" fill="#CD7E29"/>
<path d="M46.5415 48.2189V49.2158C46.5415 50.0675 47.7523 50.798 49.4798 51.1169C49.8915 51.1936 50.3315 51.246 50.7875 51.2702C50.9974 51.2824 51.2154 51.2864 51.4333 51.2864C52.1276 51.2864 52.7895 51.2259 53.3828 51.1128C55.1143 50.794 56.0144 50.0433 56.0144 49.1916L56.3211 48.1059C55.6148 47.3269 53.512 47.1332 51.4293 47.1332C49.7745 47.1413 47.4254 47.6861 46.5415 48.2189Z" fill="#FFC615"/>
<g opacity="0.43">
<path d="M49.48 49.2888V51.1172C49.8917 51.1939 50.3316 51.2464 50.7877 51.2706V49.2848H49.48V49.2888Z" fill="#FAF395"/>
</g>
<path d="M53.1771 51.1534V47.198C54.5938 47.2989 55.8168 47.5572 56.3213 48.1142V49.2161C56.3253 50.1 55.0176 50.8548 53.1771 51.1534Z" fill="#F09D20"/>
<path d="M51.4332 50.2935C54.1349 50.2935 56.325 49.3646 56.325 48.2189C56.325 47.0731 54.1349 46.1443 51.4332 46.1443C48.7315 46.1443 46.5414 47.0731 46.5414 48.2189C46.5414 49.3646 48.7315 50.2935 51.4332 50.2935Z" fill="#FED401"/>
<path d="M48.6403 49.8212C47.8291 49.5709 47.2196 49.2198 46.9088 48.8243L50.8239 46.2492C51.0418 46.2371 51.2638 46.229 51.4899 46.229C52.2769 46.229 53.0519 46.3097 53.7461 46.4631L48.6403 49.8212Z" fill="#FAF395"/>
<path d="M50.7918 50.1929C50.4245 50.1687 50.0652 50.1284 49.7181 50.0719L54.7472 46.7622C55.0176 46.8671 55.2598 46.9842 55.4697 47.1134L50.7918 50.1929Z" fill="#FAF395"/>
<path d="M51.4333 49.4865C54.135 49.4865 56.3252 48.5576 56.3252 47.4119C56.3252 46.2661 54.135 45.3373 51.4333 45.3373C48.7317 45.3373 46.5415 46.2661 46.5415 47.4119C46.5415 48.5576 48.7317 49.4865 51.4333 49.4865Z" fill="#CD7E29"/>
<path d="M46.5415 46.2011V47.198C46.5415 48.0496 47.7523 48.7802 49.4798 49.099C49.8915 49.1757 50.3315 49.2282 50.7875 49.2524C50.9974 49.2645 51.2154 49.2686 51.4333 49.2686C52.1276 49.2686 52.7895 49.208 53.3828 49.095C55.1143 48.7762 56.0144 48.0254 56.0144 47.1738L56.3211 46.0881C55.6148 45.3091 53.512 45.1154 51.4293 45.1154C49.7745 45.1234 47.4254 45.6683 46.5415 46.2011Z" fill="#FFC615"/>
<g opacity="0.43">
<path d="M49.48 47.2706V49.099C49.8917 49.1757 50.3316 49.2282 50.7877 49.2524V47.2666H49.48V47.2706Z" fill="#FAF395"/>
</g>
<path d="M53.1771 49.1352V45.1798C54.5938 45.2807 55.8168 45.539 56.3213 46.096V47.1979C56.3253 48.0818 55.0176 48.8366 53.1771 49.1352Z" fill="#F09D20"/>
<path d="M51.4332 48.2756C54.1349 48.2756 56.325 47.3468 56.325 46.2011C56.325 45.0553 54.1349 44.1265 51.4332 44.1265C48.7315 44.1265 46.5414 45.0553 46.5414 46.2011C46.5414 47.3468 48.7315 48.2756 51.4332 48.2756Z" fill="#FED401"/>
<path d="M48.6403 47.8037C47.8291 47.5535 47.2196 47.2023 46.9088 46.8068L50.8239 44.2317C51.0418 44.2196 51.2638 44.2115 51.4899 44.2115C52.2769 44.2115 53.0519 44.2923 53.7461 44.4456L48.6403 47.8037Z" fill="#FAF395"/>
<path d="M50.7918 48.1748C50.4245 48.1505 50.0652 48.1102 49.7181 48.0537L54.7472 44.744C55.0176 44.849 55.2598 44.966 55.4697 45.0952L50.7918 48.1748Z" fill="#FAF395"/>
<path d="M51.4333 47.4681C54.135 47.4681 56.3252 46.5393 56.3252 45.3936C56.3252 44.2478 54.135 43.319 51.4333 43.319C48.7317 43.319 46.5415 44.2478 46.5415 45.3936C46.5415 46.5393 48.7317 47.4681 51.4333 47.4681Z" fill="#CD7E29"/>
<path d="M46.5415 44.1828V45.1797C46.5415 46.0313 47.7523 46.7619 49.4798 47.0807C49.8915 47.1574 50.3315 47.2099 50.7875 47.2341C50.9974 47.2462 51.2154 47.2503 51.4333 47.2503C52.1276 47.2503 52.7895 47.1897 53.3828 47.0767C55.1143 46.7579 56.0144 46.0071 56.0144 45.1555L56.3211 44.0698C55.6148 43.2908 53.512 43.097 51.4293 43.097C49.7745 43.1051 47.4254 43.65 46.5415 44.1828Z" fill="#FFC615"/>
<g opacity="0.43">
<path d="M49.48 45.2525V47.0808C49.8917 47.1575 50.3316 47.21 50.7877 47.2342V45.2484H49.48V45.2525Z" fill="#FAF395"/>
</g>
<path d="M53.1771 47.1173V43.1619C54.5938 43.2628 55.8168 43.5211 56.3213 44.0781V45.1799C56.3253 46.0639 55.0176 46.8186 53.1771 47.1173Z" fill="#F09D20"/>
<path d="M51.4332 46.2575C54.1349 46.2575 56.325 45.3286 56.325 44.1829C56.325 43.0371 54.1349 42.1083 51.4332 42.1083C48.7315 42.1083 46.5414 43.0371 46.5414 44.1829C46.5414 45.3286 48.7315 46.2575 51.4332 46.2575Z" fill="#FED401"/>
<path d="M48.6403 45.7851C47.8291 45.5348 47.2196 45.1837 46.9088 44.7881L50.8239 42.213C51.0418 42.2009 51.2638 42.1929 51.4899 42.1929C52.2769 42.1929 53.0519 42.2736 53.7461 42.427L48.6403 45.7851Z" fill="#FAF395"/>
<path d="M50.7918 46.1568C50.4245 46.1326 50.0652 46.0922 49.7181 46.0357L54.7472 42.7261C55.0176 42.831 55.2598 42.9481 55.4697 43.0772L50.7918 46.1568Z" fill="#FAF395"/>
<path d="M51.4333 45.4503C54.135 45.4503 56.3252 44.5215 56.3252 43.3757C56.3252 42.23 54.135 41.3011 51.4333 41.3011C48.7317 41.3011 46.5415 42.23 46.5415 43.3757C46.5415 44.5215 48.7317 45.4503 51.4333 45.4503Z" fill="#CD7E29"/>
<path d="M46.5415 42.1647V43.1616C46.5415 44.0133 47.7523 44.7438 49.4798 45.0627C49.8915 45.1394 50.3315 45.1918 50.7875 45.216C50.9974 45.2282 51.2154 45.2322 51.4333 45.2322C52.1276 45.2322 52.7895 45.1717 53.3828 45.0586C55.1143 44.7398 56.0144 43.9891 56.0144 43.1374L56.3211 42.0517C55.6148 41.2727 53.512 41.079 51.4293 41.079C49.7745 41.0871 47.4254 41.6319 46.5415 42.1647Z" fill="#FFC615"/>
<g opacity="0.43">
<path d="M49.48 43.2343V45.0626C49.8917 45.1393 50.3316 45.1918 50.7877 45.216V43.2302H49.48V43.2343Z" fill="#FAF395"/>
</g>
<path d="M53.1771 45.0992V41.1438C54.5938 41.2447 55.8168 41.503 56.3213 42.06V43.1619C56.3253 44.0458 55.0176 44.8006 53.1771 45.0992Z" fill="#F09D20"/>
<path d="M51.4332 44.2394C54.1349 44.2394 56.325 43.3106 56.325 42.1648C56.325 41.019 54.1349 40.0902 51.4332 40.0902C48.7315 40.0902 46.5414 41.019 46.5414 42.1648C46.5414 43.3106 48.7315 44.2394 51.4332 44.2394Z" fill="#FED401"/>
<path d="M48.6403 43.767C47.8291 43.5167 47.2196 43.1656 46.9088 42.7701L50.8239 40.195C51.0418 40.1829 51.2638 40.1748 51.4899 40.1748C52.2769 40.1748 53.0519 40.2555 53.7461 40.4089L48.6403 43.767Z" fill="#FAF395"/>
<path d="M50.7918 44.1384C50.4245 44.1142 50.0652 44.0738 49.7181 44.0173L54.7472 40.7076C55.0176 40.8126 55.2598 40.9296 55.4697 41.0588L50.7918 44.1384Z" fill="#FAF395"/>
<path d="M51.4333 43.4321C54.135 43.4321 56.3252 42.5033 56.3252 41.3576C56.3252 40.2118 54.135 39.283 51.4333 39.283C48.7317 39.283 46.5415 40.2118 46.5415 41.3576C46.5415 42.5033 48.7317 43.4321 51.4333 43.4321Z" fill="#CD7E29"/>
<path d="M46.5415 40.1468V41.1437C46.5415 41.9953 47.7523 42.7259 49.4798 43.0447C49.8915 43.1214 50.3315 43.1739 50.7875 43.1981C50.9974 43.2102 51.2154 43.2143 51.4333 43.2143C52.1276 43.2143 52.7895 43.1537 53.3828 43.0407C55.1143 42.7218 56.0144 41.9711 56.0144 41.1195L56.3211 40.0338C55.6148 39.2548 53.512 39.061 51.4293 39.061C49.7745 39.0691 47.4254 39.614 46.5415 40.1468Z" fill="#FFC615"/>
<g opacity="0.43">
<path d="M49.48 41.216V43.0443C49.8917 43.121 50.3316 43.1735 50.7877 43.1977V41.2119H49.48V41.216Z" fill="#FAF395"/>
</g>
<path d="M53.1771 43.0809V39.1255C54.5938 39.2264 55.8168 39.4847 56.3213 40.0417V41.1436C56.3253 42.0275 55.0176 42.7822 53.1771 43.0809Z" fill="#F09D20"/>
<path d="M51.4332 42.2212C54.1349 42.2212 56.325 41.2924 56.325 40.1466C56.325 39.0009 54.1349 38.072 51.4332 38.072C48.7315 38.072 46.5414 39.0009 46.5414 40.1466C46.5414 41.2924 48.7315 42.2212 51.4332 42.2212Z" fill="#FED401"/>
<path d="M48.6403 41.749C47.8291 41.4988 47.2196 41.1477 46.9088 40.7521L50.8239 38.177C51.0418 38.1649 51.2638 38.1569 51.4899 38.1569C52.2769 38.1569 53.0519 38.2376 53.7461 38.391L48.6403 41.749Z" fill="#FAF395"/>
<path d="M50.7918 42.1204C50.4245 42.0962 50.0652 42.0559 49.7181 41.9994L54.7472 38.6897C55.0176 38.7946 55.2598 38.9117 55.4697 39.0409L50.7918 42.1204Z" fill="#FAF395"/>
<path d="M51.4333 41.4137C54.135 41.4137 56.3252 40.4849 56.3252 39.3391C56.3252 38.1934 54.135 37.2645 51.4333 37.2645C48.7317 37.2645 46.5415 38.1934 46.5415 39.3391C46.5415 40.4849 48.7317 41.4137 51.4333 41.4137Z" fill="#CD7E29"/>
<path d="M46.5415 38.1285V39.1254C46.5415 39.977 47.7523 40.7076 49.4798 41.0264C49.8915 41.1031 50.3315 41.1556 50.7875 41.1798C50.9974 41.1919 51.2154 41.1959 51.4333 41.1959C52.1276 41.1959 52.7895 41.1354 53.3828 41.0224C55.1143 40.7035 56.0144 39.9528 56.0144 39.1012L56.3211 38.0154C55.6148 37.2365 53.512 37.0427 51.4293 37.0427C49.7745 37.0508 47.4254 37.5957 46.5415 38.1285Z" fill="#FFC615"/>
<g opacity="0.43">
<path d="M49.48 39.198V41.0264C49.8917 41.1031 50.3316 41.1556 50.7877 41.1798V39.194H49.48V39.198Z" fill="#FAF395"/>
</g>
<path d="M53.1771 41.063V37.1075C54.5938 37.2084 55.8168 37.4668 56.3213 38.0237V39.1256C56.3253 40.0095 55.0176 40.7643 53.1771 41.063Z" fill="#F09D20"/>
<path d="M51.4332 40.203C54.1349 40.203 56.325 39.2742 56.325 38.1284C56.325 36.9827 54.1349 36.0538 51.4332 36.0538C48.7315 36.0538 46.5414 36.9827 46.5414 38.1284C46.5414 39.2742 48.7315 40.203 51.4332 40.203Z" fill="#FED401"/>
<path d="M48.6403 39.7306C47.8291 39.4804 47.2196 39.1292 46.9088 38.7337L50.8239 36.1586C51.0418 36.1465 51.2638 36.1384 51.4899 36.1384C52.2769 36.1384 53.0519 36.2191 53.7461 36.3725L48.6403 39.7306Z" fill="#FAF395"/>
<path d="M50.7918 40.1021C50.4245 40.0779 50.0652 40.0376 49.7181 39.981L54.7472 36.6714C55.0176 36.7763 55.2598 36.8934 55.4697 37.0225L50.7918 40.1021Z" fill="#FAF395"/>
<path d="M51.4333 39.3959C54.135 39.3959 56.3252 38.4671 56.3252 37.3213C56.3252 36.1755 54.135 35.2467 51.4333 35.2467C48.7317 35.2467 46.5415 36.1755 46.5415 37.3213C46.5415 38.4671 48.7317 39.3959 51.4333 39.3959Z" fill="#CD7E29"/>
<path d="M46.5415 36.1106V37.1076C46.5415 37.9592 47.7523 38.6897 49.4798 39.0086C49.8915 39.0853 50.3315 39.1378 50.7875 39.162C50.9974 39.1741 51.2154 39.1781 51.4333 39.1781C52.1276 39.1781 52.7895 39.1176 53.3828 39.0046C55.1143 38.6857 56.0144 37.935 56.0144 37.0833L56.3211 35.9976C55.6148 35.2186 53.512 35.0249 51.4293 35.0249C49.7745 35.033 47.4254 35.5779 46.5415 36.1106Z" fill="#FFC615"/>
<g opacity="0.43">
<path d="M49.48 37.1798V39.0082C49.8917 39.0849 50.3316 39.1374 50.7877 39.1616V37.1758H49.48V37.1798Z" fill="#FAF395"/>
</g>
<path d="M53.1771 39.0448V35.0894C54.5938 35.1903 55.8168 35.4486 56.3213 36.0056V37.1074C56.3253 37.9914 55.0176 38.7461 53.1771 39.0448Z" fill="#F09D20"/>
<path d="M51.4332 38.1849C54.1349 38.1849 56.325 37.2561 56.325 36.1104C56.325 34.9646 54.1349 34.0358 51.4332 34.0358C48.7315 34.0358 46.5414 34.9646 46.5414 36.1104C46.5414 37.2561 48.7315 38.1849 51.4332 38.1849Z" fill="#FED401"/>
<path d="M48.6403 37.7129C47.8291 37.4627 47.2196 37.1115 46.9088 36.716L50.8239 34.1409C51.0418 34.1288 51.2638 34.1207 51.4899 34.1207C52.2769 34.1207 53.0519 34.2014 53.7461 34.3548L48.6403 37.7129Z" fill="#FAF395"/>
<path d="M50.7918 38.0839C50.4245 38.0597 50.0652 38.0194 49.7181 37.9629L54.7472 34.6532C55.0176 34.7581 55.2598 34.8752 55.4697 35.0044L50.7918 38.0839Z" fill="#FAF395"/>
<path d="M51.4333 37.3778C54.135 37.3778 56.3252 36.449 56.3252 35.3032C56.3252 34.1575 54.135 33.2286 51.4333 33.2286C48.7317 33.2286 46.5415 34.1575 46.5415 35.3032C46.5415 36.449 48.7317 37.3778 51.4333 37.3778Z" fill="#CD7E29"/>
<path d="M46.5415 34.0924V35.0894C46.5415 35.941 47.7523 36.6715 49.4798 36.9904C49.8915 37.0671 50.3315 37.1196 50.7875 37.1438C50.9974 37.1559 51.2154 37.1599 51.4333 37.1599C52.1276 37.1599 52.7895 37.0994 53.3828 36.9864C55.1143 36.6675 56.0144 35.9168 56.0144 35.0652L56.3211 33.9794C55.6148 33.2005 53.512 33.0067 51.4293 33.0067C49.7745 33.0148 47.4254 33.5597 46.5415 34.0924Z" fill="#FFC615"/>
<g opacity="0.43">
<path d="M49.48 35.162V36.9904C49.8917 37.0671 50.3316 37.1195 50.7877 37.1438V35.158H49.48V35.162Z" fill="#FAF395"/>
</g>
<path d="M53.1771 37.0266V33.0712C54.5938 33.1721 55.8168 33.4304 56.3213 33.9874V35.0892C56.3253 35.9732 55.0176 36.7279 53.1771 37.0266Z" fill="#F09D20"/>
<path d="M51.4332 36.1671C54.1349 36.1671 56.325 35.2383 56.325 34.0925C56.325 32.9468 54.1349 32.0179 51.4332 32.0179C48.7315 32.0179 46.5414 32.9468 46.5414 34.0925C46.5414 35.2383 48.7315 36.1671 51.4332 36.1671Z" fill="#FED401"/>
<path d="M48.6403 35.6947C47.8291 35.4445 47.2196 35.0933 46.9088 34.6978L50.8239 32.1227C51.0418 32.1106 51.2638 32.1025 51.4899 32.1025C52.2769 32.1025 53.0519 32.1833 53.7461 32.3366L48.6403 35.6947Z" fill="#FAF395"/>
<path d="M50.7918 36.0661C50.4245 36.0419 50.0652 36.0015 49.7181 35.945L54.7472 32.6354C55.0176 32.7403 55.2598 32.8574 55.4697 32.9865L50.7918 36.0661Z" fill="#FAF395"/>
<path d="M51.4332 35.3596C54.1349 35.3596 56.325 34.4308 56.325 33.285C56.325 32.1393 54.1349 31.2104 51.4332 31.2104C48.7315 31.2104 46.5414 32.1393 46.5414 33.285C46.5414 34.4308 48.7315 35.3596 51.4332 35.3596Z" fill="#CD7E29"/>
<path d="M46.5414 32.0744V33.0713C46.5414 33.9229 47.7522 34.6535 49.4797 34.9723C49.8914 35.049 50.3313 35.1015 50.7874 35.1257C50.9973 35.1378 51.2153 35.1419 51.4332 35.1419C52.1274 35.1419 52.7894 35.0813 53.3827 34.9683C55.1142 34.6495 56.0143 33.8987 56.0143 33.0471L56.321 31.9614C55.6147 31.1824 53.5118 30.9886 51.4292 30.9886C49.7743 30.9967 47.4253 31.5416 46.5414 32.0744Z" fill="#FFC615"/>
<g opacity="0.43">
<path d="M49.4799 33.1439V34.9723C49.8915 35.049 50.3315 35.1015 50.7876 35.1257V33.1399H49.4799V33.1439Z" fill="#FAF395"/>
</g>
<path d="M53.177 35.0085V31.0531C54.5937 31.154 55.8167 31.4123 56.3212 31.9693V33.0712C56.3252 33.9551 55.0175 34.7099 53.177 35.0085Z" fill="#F09D20"/>
<path d="M51.4332 34.1491C54.1349 34.1491 56.325 33.2202 56.325 32.0745C56.325 30.9287 54.1349 29.9999 51.4332 29.9999C48.7315 29.9999 46.5414 30.9287 46.5414 32.0745C46.5414 33.2202 48.7315 34.1491 51.4332 34.1491Z" fill="#FED401"/>
<path d="M48.6403 33.6765C47.8291 33.4263 47.2196 33.0751 46.9088 32.6796L50.8239 30.1045C51.0418 30.0924 51.2638 30.0844 51.4899 30.0844C52.2769 30.0844 53.0519 30.1651 53.7461 30.3184L48.6403 33.6765Z" fill="#FAF395"/>
<path d="M50.7916 34.048C50.4243 34.0238 50.0651 33.9835 49.718 33.927L54.7471 30.6173C55.0175 30.7222 55.2597 30.8393 55.4696 30.9685L50.7916 34.048Z" fill="#FAF395"/>
<path opacity="0.8" d="M45.835 48.4651C45.835 49.6114 48.0226 51.1734 50.7268 51.9524C51.0093 52.0331 51.2878 52.1058 51.5582 52.1623V42.4795C51.2878 42.423 51.0214 43.9971 50.7268 43.9971C48.5069 43.9971 47.4575 43.2625 46.5655 42.4836C45.9762 42.6531 45.835 48.0091 45.835 48.4651Z" fill="#9C86B7"/>
<path d="M37.9202 68.5411C37.9202 69.6874 40.1118 70.6157 42.812 70.6157C45.5122 70.6157 47.7038 69.6874 47.7038 68.5411C47.7038 67.3949 45.5122 66.4666 42.812 66.4666C40.1118 66.4666 37.9202 67.3949 37.9202 68.5411Z" fill="#CD7E29"/>
<path d="M37.9202 67.3304V68.3273C37.9202 69.1789 39.131 69.9095 40.8585 70.2283C41.2702 70.305 41.7101 70.3575 42.1662 70.3817C42.3761 70.3938 42.594 70.3978 42.812 70.3978C43.5062 70.3978 44.1681 70.3373 44.7615 70.2243C46.493 69.9054 47.393 69.1547 47.393 68.3031L47.6998 67.2173C46.9935 66.4384 44.8906 66.2446 42.808 66.2446C41.1572 66.2527 38.8081 66.7976 37.9202 67.3304Z" fill="#FFC615"/>
<g opacity="0.43">
<path d="M40.8584 68.3999V70.2283C41.2701 70.305 41.71 70.3574 42.1661 70.3817V68.3959H40.8584V68.3999Z" fill="#FAF395"/>
</g>
<path d="M44.5597 70.2645V66.3091C45.9764 66.41 47.1993 66.6683 47.7039 67.2253V68.3272C47.7039 69.2111 46.3961 69.9659 44.5597 70.2645Z" fill="#F09D20"/>
<path d="M42.812 69.405C45.5137 69.405 47.7038 68.4762 47.7038 67.3305C47.7038 66.1847 45.5137 65.2559 42.812 65.2559C40.1103 65.2559 37.9202 66.1847 37.9202 67.3305C37.9202 68.4762 40.1103 69.405 42.812 69.405Z" fill="#FED401"/>
<path d="M40.019 68.9326C39.2077 68.6824 38.5983 68.3312 38.2875 67.9357L42.2026 65.3606C42.4205 65.3485 42.6425 65.3405 42.8685 65.3405C43.6556 65.3405 44.4305 65.4212 45.1247 65.5745L40.019 68.9326Z" fill="#FAF395"/>
<path d="M42.1741 69.304C41.8068 69.2798 41.4476 69.2394 41.1005 69.1829L46.1295 65.8733C46.3999 65.9782 46.6421 66.0953 46.852 66.2244L42.1741 69.304Z" fill="#FAF395"/>
<path d="M37.9202 66.5228C37.9202 67.6691 40.1118 68.5974 42.812 68.5974C45.5122 68.5974 47.7038 67.6691 47.7038 66.5228C47.7038 65.3766 45.5122 64.4482 42.812 64.4482C40.1118 64.4482 37.9202 65.3766 37.9202 66.5228Z" fill="#CD7E29"/>
<path d="M37.9202 65.312V66.309C37.9202 67.1606 39.131 67.8912 40.8585 68.21C41.2702 68.2867 41.7101 68.3392 42.1662 68.3634C42.3761 68.3755 42.594 68.3795 42.812 68.3795C43.5062 68.3795 44.1681 68.319 44.7615 68.206C46.493 67.8871 47.393 67.1364 47.393 66.2848L47.6998 65.199C46.9935 64.4201 44.8906 64.2263 42.808 64.2263C41.1572 64.2344 38.8081 64.7793 37.9202 65.312Z" fill="#FFC615"/>
<g opacity="0.43">
<path d="M40.8584 66.3817V68.2101C41.2701 68.2868 41.71 68.3393 42.1661 68.3635V66.3777H40.8584V66.3817Z" fill="#FAF395"/>
</g>
<path d="M44.5597 68.2463V64.2909C45.9764 64.3918 47.1993 64.6501 47.7039 65.2071V66.309C47.7039 67.1929 46.3961 67.9477 44.5597 68.2463Z" fill="#F09D20"/>
<path d="M42.812 67.3869C45.5137 67.3869 47.7038 66.458 47.7038 65.3123C47.7038 64.1665 45.5137 63.2377 42.812 63.2377C40.1103 63.2377 37.9202 64.1665 37.9202 65.3123C37.9202 66.458 40.1103 67.3869 42.812 67.3869Z" fill="#FED401"/>
<path d="M40.019 66.9143C39.2077 66.6641 38.5983 66.3129 38.2875 65.9174L42.2026 63.3423C42.4205 63.3302 42.6425 63.3221 42.8685 63.3221C43.6556 63.3221 44.4305 63.4029 45.1247 63.5562L40.019 66.9143Z" fill="#FAF395"/>
<path d="M42.1741 67.2859C41.8068 67.2616 41.4476 67.2213 41.1005 67.1647L46.1295 63.8551C46.3999 63.96 46.6421 64.0771 46.852 64.2062L42.1741 67.2859Z" fill="#FAF395"/>
<path d="M37.9202 64.5053C37.9202 65.6515 40.1118 66.5799 42.812 66.5799C45.5122 66.5799 47.7038 65.6515 47.7038 64.5053C47.7038 63.359 45.5122 62.4307 42.812 62.4307C40.1118 62.4307 37.9202 63.359 37.9202 64.5053Z" fill="#CD7E29"/>
<path d="M37.9202 63.2946V64.2915C37.9202 65.1432 39.131 65.8737 40.8585 66.1926C41.2702 66.2692 41.7101 66.3217 42.1662 66.3459C42.3761 66.358 42.594 66.3621 42.812 66.3621C43.5062 66.3621 44.1681 66.3015 44.7615 66.1885C46.493 65.8697 47.393 65.1189 47.393 64.2673L47.6998 63.1816C46.9935 62.4026 44.8906 62.2089 42.808 62.2089C41.1572 62.2169 38.8081 62.7618 37.9202 63.2946Z" fill="#FFC615"/>
<g opacity="0.43">
<path d="M40.8584 64.3641V66.1925C41.2701 66.2692 41.71 66.3217 42.1661 66.3459V64.3601H40.8584V64.3641Z" fill="#FAF395"/>
</g>
<path d="M44.5597 66.2288V62.2733C45.9764 62.3742 47.1993 62.6325 47.7039 63.1895V64.2914C47.7039 65.1753 46.3961 65.9301 44.5597 66.2288Z" fill="#F09D20"/>
<path d="M42.812 65.3688C45.5137 65.3688 47.7038 64.44 47.7038 63.2942C47.7038 62.1484 45.5137 61.2196 42.812 61.2196C40.1103 61.2196 37.9202 62.1484 37.9202 63.2942C37.9202 64.44 40.1103 65.3688 42.812 65.3688Z" fill="#FED401"/>
<path d="M40.019 64.8969C39.2077 64.6466 38.5983 64.2955 38.2875 63.8999L42.2026 61.3249C42.4205 61.3128 42.6425 61.3047 42.8685 61.3047C43.6556 61.3047 44.4305 61.3854 45.1247 61.5388L40.019 64.8969Z" fill="#FAF395"/>
<path d="M42.1741 65.2679C41.8068 65.2437 41.4476 65.2033 41.1005 65.1468L46.1295 61.8372C46.3999 61.9421 46.6421 62.0591 46.852 62.1883L42.1741 65.2679Z" fill="#FAF395"/>
<path d="M37.9202 62.4871C37.9202 63.6333 40.1118 64.5617 42.812 64.5617C45.5122 64.5617 47.7038 63.6333 47.7038 62.4871C47.7038 61.3408 45.5122 60.4125 42.812 60.4125C40.1118 60.4125 37.9202 61.3408 37.9202 62.4871Z" fill="#CD7E29"/>
<path d="M37.9202 61.2759V62.2728C37.9202 63.1245 39.131 63.855 40.8585 64.1739C41.2702 64.2506 41.7101 64.303 42.1662 64.3273C42.3761 64.3394 42.594 64.3434 42.812 64.3434C43.5062 64.3434 44.1681 64.2828 44.7615 64.1698C46.493 63.851 47.393 63.1003 47.393 62.2486L47.6998 61.1629C46.9935 60.3839 44.8906 60.1902 42.808 60.1902C41.1572 60.1983 38.8081 60.7431 37.9202 61.2759Z" fill="#FFC615"/>
<g opacity="0.43">
<path d="M40.8584 62.3455V64.1739C41.2701 64.2505 41.71 64.303 42.1661 64.3272V62.3414H40.8584V62.3455Z" fill="#FAF395"/>
</g>
<path d="M44.5597 64.2102V60.2548C45.9764 60.3557 47.1993 60.614 47.7039 61.171V62.2728C47.7039 63.1568 46.3961 63.9115 44.5597 64.2102Z" fill="#F09D20"/>
<path d="M42.812 63.3506C45.5137 63.3506 47.7038 62.4218 47.7038 61.276C47.7038 60.1302 45.5137 59.2014 42.812 59.2014C40.1103 59.2014 37.9202 60.1302 37.9202 61.276C37.9202 62.4218 40.1103 63.3506 42.812 63.3506Z" fill="#FED401"/>
<path d="M40.019 62.8786C39.2077 62.6283 38.5983 62.2772 38.2875 61.8816L42.2026 59.3066C42.4205 59.2944 42.6425 59.2864 42.8685 59.2864C43.6556 59.2864 44.4305 59.3671 45.1247 59.5205L40.019 62.8786Z" fill="#FAF395"/>
<path d="M42.1741 63.2496C41.8068 63.2254 41.4476 63.185 41.1005 63.1285L46.1295 59.8188C46.3999 59.9238 46.6421 60.0408 46.852 60.17L42.1741 63.2496Z" fill="#FAF395"/>
<path d="M37.9202 60.4692C37.9202 61.6155 40.1118 62.5438 42.812 62.5438C45.5122 62.5438 47.7038 61.6155 47.7038 60.4692C47.7038 59.323 45.5122 58.3947 42.812 58.3947C40.1118 58.3947 37.9202 59.323 37.9202 60.4692Z" fill="#CD7E29"/>
<path d="M37.9202 59.2581V60.255C37.9202 61.1067 39.131 61.8372 40.8585 62.1561C41.2702 62.2327 41.7101 62.2852 42.1662 62.3094C42.3761 62.3215 42.594 62.3256 42.812 62.3256C43.5062 62.3256 44.1681 62.265 44.7615 62.152C46.493 61.8332 47.393 61.0824 47.393 60.2308L47.6998 59.1451C46.9935 58.3661 44.8906 58.1724 42.808 58.1724C41.1572 58.1804 38.8081 58.7253 37.9202 59.2581Z" fill="#FFC615"/>
<g opacity="0.43">
<path d="M40.8584 60.3278V62.1562C41.2701 62.2328 41.71 62.2853 42.1661 62.3095V60.3237H40.8584V60.3278Z" fill="#FAF395"/>
</g>
<path d="M44.5597 62.1927V58.2373C45.9764 58.3382 47.1993 58.5965 47.7039 59.1535V60.2554C47.7039 61.1393 46.3961 61.8941 44.5597 62.1927Z" fill="#F09D20"/>
<path d="M42.812 61.3328C45.5137 61.3328 47.7038 60.404 47.7038 59.2582C47.7038 58.1124 45.5137 57.1836 42.812 57.1836C40.1103 57.1836 37.9202 58.1124 37.9202 59.2582C37.9202 60.404 40.1103 61.3328 42.812 61.3328Z" fill="#FED401"/>
<path d="M40.019 60.8604C39.2077 60.6101 38.5983 60.259 38.2875 59.8634L42.2026 57.2884C42.4205 57.2763 42.6425 57.2682 42.8685 57.2682C43.6556 57.2682 44.4305 57.3489 45.1247 57.5023L40.019 60.8604Z" fill="#FAF395"/>
<path d="M42.1741 61.2319C41.8068 61.2077 41.4476 61.1673 41.1005 61.1108L46.1295 57.8011C46.3999 57.9061 46.6421 58.0231 46.852 58.1523L42.1741 61.2319Z" fill="#FAF395"/>
<path d="M37.9202 58.4508C37.9202 59.5971 40.1118 60.5254 42.812 60.5254C45.5122 60.5254 47.7038 59.5971 47.7038 58.4508C47.7038 57.3045 45.5122 56.3762 42.812 56.3762C40.1118 56.3762 37.9202 57.3045 37.9202 58.4508Z" fill="#CD7E29"/>
<path d="M37.9202 57.24V58.237C37.9202 59.0886 39.131 59.8191 40.8585 60.138C41.2702 60.2147 41.7101 60.2671 42.1662 60.2914C42.3761 60.3035 42.594 60.3075 42.812 60.3075C43.5062 60.3075 44.1681 60.247 44.7615 60.1339C46.493 59.8151 47.393 59.0644 47.393 58.2127L47.6998 57.127C46.9935 56.348 44.8906 56.1543 42.808 56.1543C41.1572 56.1624 38.8081 56.7073 37.9202 57.24Z" fill="#FFC615"/>
<g opacity="0.43">
<path d="M40.8584 58.3096V60.138C41.2701 60.2147 41.71 60.2671 42.1661 60.2913V58.3055H40.8584V58.3096Z" fill="#FAF395"/>
</g>
<path d="M44.5597 60.1742V56.2188C45.9764 56.3197 47.1993 56.578 47.7039 57.135V58.2368C47.7039 59.1208 46.3961 59.8755 44.5597 60.1742Z" fill="#F09D20"/>
<path d="M42.812 59.3147C45.5137 59.3147 47.7038 58.3859 47.7038 57.2401C47.7038 56.0944 45.5137 55.1655 42.812 55.1655C40.1103 55.1655 37.9202 56.0944 37.9202 57.2401C37.9202 58.3859 40.1103 59.3147 42.812 59.3147Z" fill="#FED401"/>
<path d="M40.019 58.8423C39.2077 58.5921 38.5983 58.2409 38.2875 57.8454L42.2026 55.2703C42.4205 55.2582 42.6425 55.2501 42.8685 55.2501C43.6556 55.2501 44.4305 55.3308 45.1247 55.4842L40.019 58.8423Z" fill="#FAF395"/>
<path d="M42.1741 59.2137C41.8068 59.1895 41.4476 59.1491 41.1005 59.0926L46.1295 55.783C46.3999 55.8879 46.6421 56.0049 46.852 56.1341L42.1741 59.2137Z" fill="#FAF395"/>
<path d="M37.9202 56.4329C37.9202 57.5791 40.1118 58.5075 42.812 58.5075C45.5122 58.5075 47.7038 57.5791 47.7038 56.4329C47.7038 55.2866 45.5122 54.3583 42.812 54.3583C40.1118 54.3583 37.9202 55.2866 37.9202 56.4329Z" fill="#CD7E29"/>
<path d="M37.9202 55.2221V56.219C37.9202 57.0706 39.131 57.8012 40.8585 58.12C41.2702 58.1967 41.7101 58.2492 42.1662 58.2734C42.3761 58.2855 42.594 58.2896 42.812 58.2896C43.5062 58.2896 44.1681 58.229 44.7615 58.116C46.493 57.7971 47.393 57.0464 47.393 56.1948L47.6998 55.1091C46.9935 54.3301 44.8906 54.1364 42.808 54.1364C41.1572 54.1444 38.8081 54.6893 37.9202 55.2221Z" fill="#FFC615"/>
<g opacity="0.43">
<path d="M40.8584 56.2914V58.1198C41.2701 58.1965 41.71 58.2489 42.1661 58.2732V56.2874H40.8584V56.2914Z" fill="#FAF395"/>
</g>
<path d="M44.5597 58.1562V54.2008C45.9764 54.3017 47.1993 54.56 47.7039 55.117V56.2189C47.7039 57.1028 46.3961 57.8576 44.5597 58.1562Z" fill="#F09D20"/>
<path d="M42.812 57.2965C45.5137 57.2965 47.7038 56.3677 47.7038 55.2219C47.7038 54.0762 45.5137 53.1473 42.812 53.1473C40.1103 53.1473 37.9202 54.0762 37.9202 55.2219C37.9202 56.3677 40.1103 57.2965 42.812 57.2965Z" fill="#FED401"/>
<path d="M40.019 56.824C39.2077 56.5738 38.5983 56.2226 38.2875 55.8271L42.2026 53.252C42.4205 53.2399 42.6425 53.2318 42.8685 53.2318C43.6556 53.2318 44.4305 53.3125 45.1247 53.4659L40.019 56.824Z" fill="#FAF395"/>
<path d="M42.1741 57.1958C41.8068 57.1715 41.4476 57.1312 41.1005 57.0747L46.1295 53.765C46.3999 53.87 46.6421 53.987 46.852 54.1162L42.1741 57.1958Z" fill="#FAF395"/>
<path d="M37.9202 54.4146C37.9202 55.5608 40.1118 56.4891 42.812 56.4891C45.5122 56.4891 47.7038 55.5608 47.7038 54.4146C47.7038 53.2683 45.5122 52.34 42.812 52.34C40.1118 52.34 37.9202 53.2683 37.9202 54.4146Z" fill="#CD7E29"/>
<path d="M37.9202 53.2039V54.2008C37.9202 55.0525 39.131 55.783 40.8585 56.1019C41.2702 56.1785 41.7101 56.231 42.1662 56.2552C42.3761 56.2673 42.594 56.2714 42.812 56.2714C43.5062 56.2714 44.1681 56.2108 44.7615 56.0978C46.493 55.779 47.393 55.0282 47.393 54.1766L47.6998 53.0909C46.9935 52.3119 44.8906 52.1182 42.808 52.1182C41.1572 52.1262 38.8081 52.6711 37.9202 53.2039Z" fill="#FFC615"/>
<g opacity="0.43">
<path d="M40.8584 54.2734V56.1018C41.2701 56.1785 41.71 56.231 42.1661 56.2552V54.2694H40.8584V54.2734Z" fill="#FAF395"/>
</g>
<path d="M44.5597 56.1384V52.183C45.9764 52.2839 47.1993 52.5422 47.7039 53.0992V54.2011C47.7039 55.085 46.3961 55.8397 44.5597 56.1384Z" fill="#F09D20"/>
<path d="M42.812 55.2784C45.5137 55.2784 47.7038 54.3496 47.7038 53.2039C47.7038 52.0581 45.5137 51.1293 42.812 51.1293C40.1103 51.1293 37.9202 52.0581 37.9202 53.2039C37.9202 54.3496 40.1103 55.2784 42.812 55.2784Z" fill="#FED401"/>
<path d="M40.019 54.8062C39.2077 54.5559 38.5983 54.2048 38.2875 53.8092L42.2026 51.2342C42.4205 51.2221 42.6425 51.214 42.8685 51.214C43.6556 51.214 44.4305 51.2947 45.1247 51.4481L40.019 54.8062Z" fill="#FAF395"/>
<path d="M42.1741 55.1776C41.8068 55.1533 41.4476 55.113 41.1005 55.0565L46.1295 51.7468C46.3999 51.8518 46.6421 51.9688 46.852 52.098L42.1741 55.1776Z" fill="#FAF395"/>
<path d="M37.9202 52.3967C37.9202 53.543 40.1118 54.4713 42.812 54.4713C45.5122 54.4713 47.7038 53.543 47.7038 52.3967C47.7038 51.2505 45.5122 50.3221 42.812 50.3221C40.1118 50.3221 37.9202 51.2505 37.9202 52.3967Z" fill="#CD7E29"/>
<path d="M37.9202 51.1859V52.1829C37.9202 53.0345 39.131 53.7651 40.8585 54.0839C41.2702 54.1606 41.7101 54.2131 42.1662 54.2373C42.3761 54.2494 42.594 54.2534 42.812 54.2534C43.5062 54.2534 44.1681 54.1929 44.7615 54.0799C46.493 53.761 47.393 53.0103 47.393 52.1587L47.6998 51.0729C46.9935 50.294 44.8906 50.1002 42.808 50.1002C41.1572 50.1083 38.8081 50.6532 37.9202 51.1859Z" fill="#FFC615"/>
<g opacity="0.43">
<path d="M40.8584 52.2551V54.0835C41.2701 54.1602 41.71 54.2127 42.1661 54.2369V52.2511H40.8584V52.2551Z" fill="#FAF395"/>
</g>
<path d="M44.5597 54.1201V50.1647C45.9764 50.2656 47.1993 50.5239 47.7039 51.0809V52.1828C47.7039 53.0667 46.3961 53.8214 44.5597 54.1201Z" fill="#F09D20"/>
<path d="M42.812 53.2603C45.5137 53.2603 47.7038 52.3314 47.7038 51.1857C47.7038 50.0399 45.5137 49.1111 42.812 49.1111C40.1103 49.1111 37.9202 50.0399 37.9202 51.1857C37.9202 52.3314 40.1103 53.2603 42.812 53.2603Z" fill="#FED401"/>
<path d="M40.019 52.7882C39.2077 52.538 38.5983 52.1868 38.2875 51.7913L42.2026 49.2162C42.4205 49.2041 42.6425 49.196 42.8685 49.196C43.6556 49.196 44.4305 49.2768 45.1247 49.4301L40.019 52.7882Z" fill="#FAF395"/>
<path d="M42.1741 53.1596C41.8068 53.1354 41.4476 53.095 41.1005 53.0385L46.1295 49.7289C46.3999 49.8338 46.6421 49.9509 46.852 50.08L42.1741 53.1596Z" fill="#FAF395"/>
<path d="M37.9202 50.3781C37.9202 51.5243 40.1118 52.4526 42.812 52.4526C45.5122 52.4526 47.7038 51.5243 47.7038 50.3781C47.7038 49.2318 45.5122 48.3035 42.812 48.3035C40.1118 48.3035 37.9202 49.2318 37.9202 50.3781Z" fill="#CD7E29"/>
<path d="M37.9202 49.1673V50.1642C37.9202 51.0158 39.131 51.7464 40.8585 52.0652C41.2702 52.1419 41.7101 52.1944 42.1662 52.2186C42.3761 52.2307 42.594 52.2348 42.812 52.2348C43.5062 52.2348 44.1681 52.1742 44.7615 52.0612C46.493 51.7423 47.393 50.9916 47.393 50.14L47.6998 49.0543C46.9935 48.2753 44.8906 48.0815 42.808 48.0815C41.1572 48.0896 38.8081 48.6345 37.9202 49.1673Z" fill="#FFC615"/>
<g opacity="0.43">
<path d="M40.8584 50.237V52.0653C41.2701 52.142 41.71 52.1945 42.1661 52.2187V50.2329H40.8584V50.237Z" fill="#FAF395"/>
</g>
<path d="M44.5597 52.1019V48.1465C45.9764 48.2474 47.1993 48.5057 47.7039 49.0627V50.1646C47.7039 51.0485 46.3961 51.8032 44.5597 52.1019Z" fill="#F09D20"/>
<path d="M42.812 51.2421C45.5137 51.2421 47.7038 50.3133 47.7038 49.1675C47.7038 48.0217 45.5137 47.0929 42.812 47.0929C40.1103 47.0929 37.9202 48.0217 37.9202 49.1675C37.9202 50.3133 40.1103 51.2421 42.812 51.2421Z" fill="#FED401"/>
<path d="M40.019 50.7696C39.2077 50.5193 38.5983 50.1682 38.2875 49.7726L42.2026 47.1975C42.4205 47.1854 42.6425 47.1774 42.8685 47.1774C43.6556 47.1774 44.4305 47.2581 45.1247 47.4115L40.019 50.7696Z" fill="#FAF395"/>
<path d="M42.1741 51.1411C41.8068 51.1168 41.4476 51.0765 41.1005 51.02L46.1295 47.7103C46.3999 47.8153 46.6421 47.9323 46.852 48.0615L42.1741 51.1411Z" fill="#FAF395"/>
<path d="M37.9202 48.3604C37.9202 49.5066 40.1118 50.4349 42.812 50.4349C45.5122 50.4349 47.7038 49.5066 47.7038 48.3604C47.7038 47.2141 45.5122 46.2858 42.812 46.2858C40.1118 46.2858 37.9202 47.2141 37.9202 48.3604Z" fill="#CD7E29"/>
<path d="M37.9202 47.1497V48.1466C37.9202 48.9983 39.131 49.7288 40.8585 50.0477C41.2702 50.1243 41.7101 50.1768 42.1662 50.201C42.3761 50.2131 42.594 50.2172 42.812 50.2172C43.5062 50.2172 44.1681 50.1566 44.7615 50.0436C46.493 49.7248 47.393 48.974 47.393 48.1224L47.6998 47.0367C46.9935 46.2577 44.8906 46.064 42.808 46.064C41.1572 46.072 38.8081 46.6169 37.9202 47.1497Z" fill="#FFC615"/>
<g opacity="0.43">
<path d="M40.8584 48.2193V50.0476C41.2701 50.1243 41.71 50.1768 42.1661 50.201V48.2152H40.8584V48.2193Z" fill="#FAF395"/>
</g>
<path d="M44.5597 50.0839V46.1284C45.9764 46.2293 47.1993 46.4876 47.7039 47.0446V48.1465C47.7039 49.0304 46.3961 49.7852 44.5597 50.0839Z" fill="#F09D20"/>
<path d="M42.812 49.2244C45.5137 49.2244 47.7038 48.2956 47.7038 47.1498C47.7038 46.004 45.5137 45.0752 42.812 45.0752C40.1103 45.0752 37.9202 46.004 37.9202 47.1498C37.9202 48.2956 40.1103 49.2244 42.812 49.2244Z" fill="#FED401"/>
<path d="M40.019 48.752C39.2077 48.5017 38.5983 48.1506 38.2875 47.755L42.2026 45.18C42.4205 45.1679 42.6425 45.1598 42.8685 45.1598C43.6556 45.1598 44.4305 45.2405 45.1247 45.3939L40.019 48.752Z" fill="#FAF395"/>
<path d="M42.1741 49.123C41.8068 49.0988 41.4476 49.0584 41.1005 49.0019L46.1295 45.6923C46.3999 45.7972 46.6421 45.9142 46.852 46.0434L42.1741 49.123Z" fill="#FAF395"/>
<path d="M37.9202 46.3424C37.9202 47.4887 40.1118 48.417 42.812 48.417C45.5122 48.417 47.7038 47.4887 47.7038 46.3424C47.7038 45.1961 45.5122 44.2678 42.812 44.2678C40.1118 44.2678 37.9202 45.1961 37.9202 46.3424Z" fill="#CD7E29"/>
<path d="M37.9202 45.1316V46.1286C37.9202 46.9802 39.131 47.7107 40.8585 48.0296C41.2702 48.1063 41.7101 48.1587 42.1662 48.183C42.3761 48.1951 42.594 48.1991 42.812 48.1991C43.5062 48.1991 44.1681 48.1386 44.7615 48.0255C46.493 47.7067 47.393 46.956 47.393 46.1043L47.6998 45.0186C46.9935 44.2396 44.8906 44.0459 42.808 44.0459C41.1572 44.054 38.8081 44.5989 37.9202 45.1316Z" fill="#FFC615"/>
<g opacity="0.43">
<path d="M40.8584 46.2012V48.0296C41.2701 48.1063 41.71 48.1587 42.1661 48.1829V46.1971H40.8584V46.2012Z" fill="#FAF395"/>
</g>
<path d="M44.5597 48.0662V44.1107C45.9764 44.2116 47.1993 44.4699 47.7039 45.0269V46.1288C47.7039 47.0127 46.3961 47.7675 44.5597 48.0662Z" fill="#F09D20"/>
<path d="M42.812 47.2062C45.5137 47.2062 47.7038 46.2774 47.7038 45.1316C47.7038 43.9858 45.5137 43.057 42.812 43.057C40.1103 43.057 37.9202 43.9858 37.9202 45.1316C37.9202 46.2774 40.1103 47.2062 42.812 47.2062Z" fill="#FED401"/>
<path d="M40.019 46.7339C39.2077 46.4837 38.5983 46.1325 38.2875 45.737L42.2026 43.1619C42.4205 43.1498 42.6425 43.1417 42.8685 43.1417C43.6556 43.1417 44.4305 43.2224 45.1247 43.3758L40.019 46.7339Z" fill="#FAF395"/>
<path d="M42.1741 47.1053C41.8068 47.0811 41.4476 47.0407 41.1005 46.9842L46.1295 43.6746C46.3999 43.7795 46.6421 43.8965 46.852 44.0257L42.1741 47.1053Z" fill="#FAF395"/>
<path d="M37.9202 44.3241C37.9202 45.4704 40.1118 46.3987 42.812 46.3987C45.5122 46.3987 47.7038 45.4704 47.7038 44.3241C47.7038 43.1778 45.5122 42.2495 42.812 42.2495C40.1118 42.2495 37.9202 43.1778 37.9202 44.3241Z" fill="#CD7E29"/>
<path d="M37.9202 43.1133V44.1102C37.9202 44.9619 39.131 45.6924 40.8585 46.0113C41.2702 46.088 41.7101 46.1404 42.1662 46.1647C42.3761 46.1768 42.594 46.1808 42.812 46.1808C43.5062 46.1808 44.1681 46.1203 44.7615 46.0072C46.493 45.6884 47.393 44.9377 47.393 44.086L47.6998 43.0003C46.9935 42.2213 44.8906 42.0276 42.808 42.0276C41.1572 42.0357 38.8081 42.5805 37.9202 43.1133Z" fill="#FFC615"/>
<g opacity="0.43">
<path d="M40.8584 44.183V46.0114C41.2701 46.0881 41.71 46.1405 42.1661 46.1648V44.179H40.8584V44.183Z" fill="#FAF395"/>
</g>
<path d="M44.5597 46.0476V42.0922C45.9764 42.1931 47.1993 42.4514 47.7039 43.0084V44.1102C47.7039 44.9942 46.3961 45.7489 44.5597 46.0476Z" fill="#F09D20"/>
<path d="M42.812 45.188C45.5137 45.188 47.7038 44.2592 47.7038 43.1134C47.7038 41.9676 45.5137 41.0388 42.812 41.0388C40.1103 41.0388 37.9202 41.9676 37.9202 43.1134C37.9202 44.2592 40.1103 45.188 42.812 45.188Z" fill="#FED401"/>
<path d="M40.019 44.7156C39.2077 44.4654 38.5983 44.1142 38.2875 43.7187L42.2026 41.1436C42.4205 41.1315 42.6425 41.1234 42.8685 41.1234C43.6556 41.1234 44.4305 41.2041 45.1247 41.3575L40.019 44.7156Z" fill="#FAF395"/>
<path d="M42.1741 45.0871C41.8068 45.0629 41.4476 45.0225 41.1005 44.966L46.1295 41.6564C46.3999 41.7613 46.6421 41.8784 46.852 42.0075L42.1741 45.0871Z" fill="#FAF395"/>
<path d="M72.1872 61.7522L77.7934 55.0684V58.6323L72.1952 65.3121L72.1912 65.3404H48.4949V61.7522H72.1872Z" fill="#497637"/>
<path d="M77.7939 58.0836V54.5197L72.1876 61.2036L72.1917 64.7675L77.7939 58.0836Z" fill="#4F853D"/>
<path d="M54.1578 54.6406L48.7574 61.0823H72.1309L77.5313 54.6406H54.1578Z" fill="#AED46D"/>
<path d="M48.4949 64.7958H72.1912L72.1872 61.2036H48.4949V64.7958Z" fill="#70A341"/>
<path d="M54.1296 54.6163L48.822 61.0338H72.2237L77.5312 54.6163H54.1296ZM51.8411 58.9552L53.6775 56.7353C54.9005 56.7313 56.4261 56.0815 57.0921 55.2783H73.5193C72.8654 56.0693 73.2973 56.7151 74.4839 56.7353L72.6475 58.9552C71.4488 58.9673 69.9675 59.5929 69.2894 60.3719H52.8582C53.4676 59.5929 53.0237 58.9673 51.8411 58.9552Z" fill="#70A341"/>
<path d="M61.1282 57.8252C60.5147 58.5679 60.9345 59.1693 62.0646 59.1693C63.1948 59.1693 64.6074 58.5679 65.225 57.8252C65.8384 57.0826 65.4187 56.4812 64.2886 56.4812C63.1584 56.4812 61.7417 57.0826 61.1282 57.8252Z" fill="#607935"/>
<path d="M66.9363 57.8253C66.6054 58.2289 66.8314 58.5518 67.4409 58.5518C68.0543 58.5518 68.8172 58.2248 69.1522 57.8253C69.4832 57.4216 69.2571 57.0988 68.6477 57.0988C68.0342 57.0988 67.2673 57.4257 66.9363 57.8253Z" fill="white"/>
<path d="M57.2011 57.8253C56.8701 58.2289 57.0962 58.5518 57.7056 58.5518C58.3191 58.5518 59.082 58.2248 59.417 57.8253C59.7479 57.4216 59.5219 57.0988 58.9124 57.0988C58.2989 57.0988 57.5321 57.4257 57.2011 57.8253Z" fill="white"/>
<path d="M54.1011 54.5195H77.7934L72.1872 61.2034H48.4949L54.1011 54.5195ZM77.2727 54.7617H54.2141L49.0196 60.9613H72.0782L77.2727 54.7617Z" fill="#A0CE61"/>
<path opacity="0.44" d="M64.9585 54.5197H68.244L62.6418 61.2036V64.7957H59.3563V61.2036L64.9585 54.5197Z" fill="#48853E"/>
<path d="M58.6743 61.2036V64.7917H61.9598V61.2036L61.9638 61.1995L67.566 54.5197H64.2805L58.6784 61.1995L58.6743 61.2036Z" fill="white"/>
<path d="M67.2028 54.5197H67.8647L62.2625 61.2036V64.7957H61.6006V61.2036L67.2028 54.5197Z" fill="#F5895E"/>
<path d="M63.9698 54.5197H64.6276L59.0255 61.2036V64.7957H58.3635V61.2036L63.9698 54.5197Z" fill="#F5895E"/>
<path opacity="0.29" d="M58.3717 61.2035V64.7916H62.2626V61.2035L62.2666 61.1995H58.9812L58.3717 61.2035Z" fill="#856E57"/>
<path d="M72.1872 55.698L77.7934 49.0142V52.5781L72.1952 59.2579L72.1912 59.2862H48.4949V55.698H72.1872Z" fill="#497637"/>
<path d="M77.7939 52.0293V48.4653L72.1876 55.1492L72.1917 58.7132L77.7939 52.0293Z" fill="#4F853D"/>
<path d="M54.1578 48.5863L48.7574 55.028H72.1309L77.5313 48.5863H54.1578Z" fill="#AED46D"/>
<path d="M48.4949 58.7411H72.1912L72.1872 55.1489H48.4949V58.7411Z" fill="#70A341"/>
<path d="M54.1296 48.562L48.822 54.9795H72.2237L77.5312 48.562H54.1296ZM51.8411 52.9009L53.6775 50.681C54.9005 50.677 56.4261 50.0271 57.0921 49.2239H73.5193C72.8654 50.015 73.2973 50.6608 74.4839 50.681L72.6475 52.9009C71.4488 52.913 69.9675 53.5386 69.2894 54.3176H52.8582C53.4676 53.5386 53.0237 52.913 51.8411 52.9009Z" fill="#70A341"/>
<path d="M61.1282 51.7706C60.5147 52.5132 60.9345 53.1146 62.0646 53.1146C63.1948 53.1146 64.6074 52.5132 65.225 51.7706C65.8384 51.0279 65.4187 50.4265 64.2886 50.4265C63.1584 50.4265 61.7417 51.0279 61.1282 51.7706Z" fill="#607935"/>
<path d="M66.9363 51.7709C66.6054 52.1746 66.8314 52.4975 67.4409 52.4975C68.0543 52.4975 68.8172 52.1705 69.1522 51.7709C69.4832 51.3673 69.2571 51.0444 68.6477 51.0444C68.0342 51.0444 67.2673 51.3714 66.9363 51.7709Z" fill="white"/>
<path d="M57.2011 51.7709C56.8701 52.1746 57.0962 52.4975 57.7056 52.4975C58.3191 52.4975 59.082 52.1705 59.417 51.7709C59.7479 51.3673 59.5219 51.0444 58.9124 51.0444C58.2989 51.0444 57.5321 51.3714 57.2011 51.7709Z" fill="white"/>
<path d="M54.1011 48.4652H77.7934L72.1872 55.1491H48.4949L54.1011 48.4652ZM77.2727 48.7074H54.2141L49.0196 54.9069H72.0782L77.2727 48.7074Z" fill="#A0CE61"/>
<path opacity="0.44" d="M64.9585 48.4653H68.244L62.6418 55.1492V58.7414H59.3563V55.1492L64.9585 48.4653Z" fill="#48853E"/>
<path d="M58.6743 55.1492V58.7374H61.9598V55.1492L61.9638 55.1452L67.566 48.4653H64.2805L58.6784 55.1452L58.6743 55.1492Z" fill="white"/>
<path d="M67.2028 48.4653H67.8647L62.2625 55.1492V58.7414H61.6006V55.1492L67.2028 48.4653Z" fill="#F5895E"/>
<path d="M63.9698 48.4653H64.6276L59.0255 55.1492V58.7414H58.3635V55.1492L63.9698 48.4653Z" fill="#F5895E"/>
<path opacity="0.29" d="M58.3717 55.1492V58.7373H62.2626V55.1492L62.2666 55.1451H58.9812L58.3717 55.1492Z" fill="#856E57"/>
<path d="M72.1872 49.6438L77.7934 42.96V46.5239L72.1952 53.2037L72.1912 53.232H48.4949V49.6438H72.1872Z" fill="#497637"/>
<path d="M77.7939 45.9751V42.4111L72.1876 49.095L72.1917 52.659L77.7939 45.9751Z" fill="#4F853D"/>
<path d="M54.1578 42.5321L48.7574 48.9738H72.1309L77.5313 42.5321H54.1578Z" fill="#AED46D"/>
<path d="M48.4949 52.6873H72.1912L72.1872 49.0951H48.4949V52.6873Z" fill="#70A341"/>
<path d="M54.1296 42.5078L48.822 48.9253H72.2237L77.5312 42.5078H54.1296ZM51.8411 46.8467L53.6775 44.6268C54.9005 44.6228 56.4261 43.9729 57.0921 43.1697H73.5193C72.8654 43.9608 73.2973 44.6066 74.4839 44.6268L72.6475 46.8467C71.4488 46.8588 69.9675 47.4844 69.2894 48.2634H52.8582C53.4676 47.4844 53.0237 46.8588 51.8411 46.8467Z" fill="#70A341"/>
<path d="M61.1282 45.7167C60.5147 46.4594 60.9345 47.0608 62.0646 47.0608C63.1948 47.0608 64.6074 46.4594 65.225 45.7167C65.8384 44.9741 65.4187 44.3727 64.2886 44.3727C63.1584 44.3727 61.7417 44.9741 61.1282 45.7167Z" fill="#607935"/>
<path d="M66.9363 45.7167C66.6054 46.1204 66.8314 46.4433 67.4409 46.4433C68.0543 46.4433 68.8172 46.1163 69.1522 45.7167C69.4832 45.3131 69.2571 44.9902 68.6477 44.9902C68.0342 44.9902 67.2673 45.3172 66.9363 45.7167Z" fill="white"/>
<path d="M57.2011 45.7167C56.8701 46.1204 57.0962 46.4433 57.7056 46.4433C58.3191 46.4433 59.082 46.1163 59.417 45.7167C59.7479 45.3131 59.5219 44.9902 58.9124 44.9902C58.2989 44.9902 57.5321 45.3172 57.2011 45.7167Z" fill="white"/>
<path d="M54.1011 42.4111H77.7934L72.1872 49.095H48.4949L54.1011 42.4111ZM77.2727 42.6533H54.2141L49.0196 48.8529H72.0782L77.2727 42.6533Z" fill="#A0CE61"/>
<path opacity="0.44" d="M64.9585 42.4111H68.244L62.6418 49.095V52.6872H59.3563V49.095L64.9585 42.4111Z" fill="#48853E"/>
<path d="M58.6743 49.095V52.6832H61.9598V49.095L61.9638 49.091L67.566 42.4111H64.2805L58.6784 49.091L58.6743 49.095Z" fill="white"/>
<path d="M67.2028 42.4111H67.8647L62.2625 49.095V52.6872H61.6006V49.095L67.2028 42.4111Z" fill="#F5895E"/>
<path d="M63.9698 42.4111H64.6276L59.0255 49.095V52.6872H58.3635V49.095L63.9698 42.4111Z" fill="#F5895E"/>
<path opacity="0.29" d="M58.3717 49.095V52.6831H62.2626V49.095L62.2666 49.0909H58.9812L58.3717 49.095Z" fill="#856E57"/>
<path d="M72.1872 43.5898L77.7934 36.9059V40.4698L72.1952 47.1497L72.1912 47.1779H48.4949V43.5898H72.1872Z" fill="#497637"/>
<path d="M77.7937 39.9206V36.3567L72.1875 43.0406L72.1915 46.6045L77.7937 39.9206Z" fill="#4F853D"/>
<path d="M54.1577 36.478L48.7573 42.9197H72.1307L77.5311 36.478H54.1577Z" fill="#AED46D"/>
<path d="M48.4949 46.6328H72.1912L72.1872 43.0406H48.4949V46.6328Z" fill="#70A341"/>
<path d="M54.1295 36.4537L48.8219 42.8712H72.2236L77.5311 36.4537H54.1295ZM51.8409 40.7926L53.6774 38.5727C54.9004 38.5687 56.426 37.9189 57.092 37.1157H73.5192C72.8653 37.9067 73.2972 38.5525 74.4838 38.5727L72.6474 40.7926C71.4486 40.8047 69.9674 41.4303 69.2893 42.2093H52.8581C53.4675 41.4303 53.0235 40.8047 51.8409 40.7926Z" fill="#70A341"/>
<path d="M61.1281 39.6624C60.5146 40.4051 60.9344 41.0064 62.0645 41.0064C63.1946 41.0064 64.6073 40.4051 65.2248 39.6624C65.8383 38.9197 65.4186 38.3184 64.2884 38.3184C63.1583 38.3184 61.7416 38.9197 61.1281 39.6624Z" fill="#607935"/>
<path d="M66.9362 39.6627C66.6052 40.0663 66.8313 40.3892 67.4407 40.3892C68.0542 40.3892 68.8171 40.0622 69.1521 39.6627C69.483 39.259 69.257 38.9362 68.6475 38.9362C68.034 38.9362 67.2672 39.2631 66.9362 39.6627Z" fill="white"/>
<path d="M57.2009 39.6627C56.8699 40.0663 57.0959 40.3892 57.7054 40.3892C58.3189 40.3892 59.0817 40.0622 59.4167 39.6627C59.7477 39.259 59.5217 38.9362 58.9122 38.9362C58.2987 38.9362 57.5318 39.2631 57.2009 39.6627Z" fill="white"/>
<path d="M54.101 36.3567H77.7933L72.187 43.0406H48.4948L54.101 36.3567ZM77.2726 36.5989H54.214L49.0194 42.7984H72.0781L77.2726 36.5989Z" fill="#A0CE61"/>
<path opacity="0.44" d="M64.9584 36.3567H68.2438L62.6416 43.0406V46.6328H59.3562V43.0406L64.9584 36.3567Z" fill="#48853E"/>
<path d="M58.6742 43.0406V46.6287H61.9596V43.0406L61.9637 43.0365L67.5659 36.3567H64.2804L58.6782 43.0365L58.6742 43.0406Z" fill="white"/>
<path d="M67.2027 36.3567H67.8646L62.2624 43.0406V46.6328H61.6005V43.0406L67.2027 36.3567Z" fill="#F5895E"/>
<path d="M63.9696 36.3567H64.6275L59.0253 43.0406V46.6328H58.3634V43.0406L63.9696 36.3567Z" fill="#F5895E"/>
<path opacity="0.29" d="M58.3716 43.0405V46.6287H62.2624V43.0405L62.2665 43.0365H58.981L58.3716 43.0405Z" fill="#856E57"/>
<path opacity="0.72" d="M64.9141 59.7987L69.814 58.8865V49.0625H48.7372V61.0095L64.9141 59.7987Z" fill="#9C86B7"/>
<path d="M60.6962 69.6108L66.2984 62.9269V66.4908L60.7043 73.1666L60.7002 73.1989H37.0039V69.6108H60.6962Z" fill="#497637"/>
<path d="M66.2984 65.942V62.3781L60.6962 69.0619L60.7002 72.6259L66.2984 65.942Z" fill="#4F853D"/>
<path d="M42.6625 62.499L37.2621 68.9407H60.6395L66.0399 62.499H42.6625Z" fill="#AED46D"/>
<path d="M37.0039 72.6502H60.7002L60.6962 69.062H37.0039V72.6502Z" fill="#70A341"/>
<path d="M42.6342 62.4747L37.3267 68.8922H60.7283L66.0359 62.4747H42.6342ZM40.3497 66.8136L42.1862 64.5937C43.4092 64.5897 44.9348 63.9399 45.6008 63.1367H62.028C61.3741 63.9277 61.806 64.5735 62.9926 64.5937L61.1562 66.8136C59.9574 66.8257 58.4762 67.4513 57.7981 68.2303H41.3669C41.9723 67.4513 41.5283 66.8217 40.3497 66.8136Z" fill="#70A341"/>
<path d="M49.6369 65.6836C49.0234 66.4263 49.4432 67.0277 50.5733 67.0277C51.7034 67.0277 53.1161 66.4263 53.7336 65.6836C54.3471 64.941 53.9274 64.3396 52.7972 64.3396C51.6671 64.3396 50.2504 64.941 49.6369 65.6836Z" fill="#607935"/>
<path d="M55.441 65.6837C55.11 66.0873 55.336 66.4102 55.9455 66.4102C56.559 66.4102 57.3218 66.0832 57.6568 65.6837C57.9878 65.28 57.7618 64.9572 57.1523 64.9572C56.5388 64.9572 55.776 65.28 55.441 65.6837Z" fill="white"/>
<path d="M45.7099 65.6837C45.3789 66.0873 45.605 66.4102 46.2144 66.4102C46.8279 66.4102 47.5907 66.0832 47.9257 65.6837C48.2567 65.28 48.0307 64.9572 47.4212 64.9572C46.8037 64.9572 46.0409 65.28 45.7099 65.6837Z" fill="white"/>
<path d="M42.6062 62.3781H66.2985L60.6923 69.0619H37L42.6062 62.3781ZM65.7778 62.6202H42.7192L37.5247 68.8198H60.5833L65.7778 62.6202Z" fill="#A0CE61"/>
<path opacity="0.44" d="M53.4673 62.3781H56.7528L51.1465 69.0619V72.6501H47.8611V69.0619L53.4673 62.3781Z" fill="#48853E"/>
<path d="M47.1831 69.0619V72.6501H50.4685V69.0619V69.0579L56.0707 62.3781H52.7853L47.1871 69.0579L47.1831 69.0619Z" fill="white"/>
<path d="M55.7115 62.3781H56.3734L50.7672 69.0619V72.6501H50.1052V69.0619L55.7115 62.3781Z" fill="#F5895E"/>
<path d="M52.4744 62.3781H53.1363L47.5301 69.0619V72.6501H46.8722V69.0619L52.4744 62.3781Z" fill="#F5895E"/>
<path opacity="0.29" d="M46.8802 69.0619V72.6501H50.7711V69.0619V69.0579H47.4897L46.8802 69.0619Z" fill="#856E57"/>
<path d="M60.6962 63.5572L66.2984 56.8733V60.4372L60.7043 67.113L60.7002 67.1453H37.0039V63.5572H60.6962Z" fill="#497637"/>
<path d="M66.2984 59.888V56.3241L60.6962 63.008L60.7002 66.5719L66.2984 59.888Z" fill="#4F853D"/>
<path d="M42.6625 56.4454L37.2621 62.8871H60.6395L66.0399 56.4454H42.6625Z" fill="#AED46D"/>
<path d="M37.0039 66.5962H60.7002L60.6962 63.0081H37.0039V66.5962Z" fill="#70A341"/>
<path d="M42.6342 56.4211L37.3267 62.8386H60.7283L66.0359 56.4211H42.6342ZM40.3497 60.76L42.1862 58.5401C43.4092 58.5361 44.9348 57.8863 45.6008 57.0831H62.028C61.3741 57.8742 61.806 58.5199 62.9926 58.5401L61.1562 60.76C59.9574 60.7721 58.4762 61.3977 57.7981 62.1767H41.3669C41.9723 61.3977 41.5283 60.7681 40.3497 60.76Z" fill="#70A341"/>
<path d="M49.6369 59.6297C49.0234 60.3723 49.4432 60.9737 50.5733 60.9737C51.7034 60.9737 53.1161 60.3723 53.7336 59.6297C54.3471 58.887 53.9274 58.2856 52.7972 58.2856C51.6671 58.2856 50.2504 58.887 49.6369 59.6297Z" fill="#607935"/>
<path d="M55.441 59.6297C55.11 60.0333 55.336 60.3562 55.9455 60.3562C56.559 60.3562 57.3218 60.0293 57.6568 59.6297C57.9878 59.2261 57.7618 58.9032 57.1523 58.9032C56.5388 58.9032 55.776 59.2261 55.441 59.6297Z" fill="white"/>
<path d="M45.7099 59.6297C45.3789 60.0333 45.605 60.3562 46.2144 60.3562C46.8279 60.3562 47.5907 60.0293 47.9257 59.6297C48.2567 59.2261 48.0307 58.9032 47.4212 58.9032C46.8037 58.9032 46.0409 59.2261 45.7099 59.6297Z" fill="white"/>
<path d="M42.6062 56.324H66.2985L60.6923 63.0079H37L42.6062 56.324ZM65.7778 56.5661H42.7192L37.5247 62.7657H60.5833L65.7778 56.5661Z" fill="#A0CE61"/>
<path opacity="0.44" d="M53.4673 56.3241H56.7528L51.1465 63.008V66.5961H47.8611V63.008L53.4673 56.3241Z" fill="#48853E"/>
<path d="M47.1831 63.008V66.5961H50.4685V63.008V63.004L56.0707 56.3241H52.7853L47.1871 63.004L47.1831 63.008Z" fill="white"/>
<path d="M55.7115 56.3241H56.3734L50.7672 63.008V66.5961H50.1052V63.008L55.7115 56.3241Z" fill="#F5895E"/>
<path d="M52.4744 56.3241H53.1363L47.5301 63.008V66.5961H46.8722V63.008L52.4744 56.3241Z" fill="#F5895E"/>
<path opacity="0.29" d="M46.8802 63.0079V66.5961H50.7711V63.0079V63.0039H47.4897L46.8802 63.0079Z" fill="#856E57"/>
<path d="M60.6962 57.5022L66.2984 50.8184V54.3823L60.7043 61.0581L60.7002 61.0904H37.0039V57.5022H60.6962Z" fill="#497637"/>
<path d="M66.2984 53.8335V50.2695L60.6962 56.9534L60.7002 60.5174L66.2984 53.8335Z" fill="#4F853D"/>
<path d="M42.6626 50.3905L37.2622 56.8322H60.6397L66.0401 50.3905H42.6626Z" fill="#AED46D"/>
<path d="M37.0039 60.5416H60.7002L60.6962 56.9535H37.0039V60.5416Z" fill="#70A341"/>
<path d="M42.6343 50.3662L37.3268 56.7837H60.7285L66.036 50.3662H42.6343ZM40.3499 54.7051L42.1863 52.4852C43.4093 52.4812 44.9349 51.8313 45.6009 51.0281H62.0281C61.3742 51.8192 61.8061 52.465 62.9927 52.4852L61.1563 54.7051C59.9575 54.7172 58.4763 55.3428 57.7982 56.1218H41.367C41.9724 55.3428 41.5284 54.7132 40.3499 54.7051Z" fill="#70A341"/>
<path d="M49.6369 53.5752C49.0234 54.3179 49.4432 54.9193 50.5733 54.9193C51.7034 54.9193 53.1161 54.3179 53.7336 53.5752C54.3471 52.8326 53.9274 52.2312 52.7972 52.2312C51.6671 52.2312 50.2504 52.8326 49.6369 53.5752Z" fill="#607935"/>
<path d="M55.441 53.5751C55.11 53.9788 55.336 54.3017 55.9455 54.3017C56.559 54.3017 57.3218 53.9747 57.6568 53.5751C57.9878 53.1715 57.7618 52.8486 57.1523 52.8486C56.5388 52.8486 55.776 53.1715 55.441 53.5751Z" fill="white"/>
<path d="M45.7099 53.5751C45.3789 53.9788 45.605 54.3017 46.2144 54.3017C46.8279 54.3017 47.5907 53.9747 47.9257 53.5751C48.2567 53.1715 48.0307 52.8486 47.4212 52.8486C46.8037 52.8486 46.0409 53.1715 45.7099 53.5751Z" fill="white"/>
<path d="M42.6062 50.2694H66.2985L60.6923 56.9533H37L42.6062 50.2694ZM65.7778 50.5116H42.7192L37.5247 56.7111H60.5833L65.7778 50.5116Z" fill="#A0CE61"/>
<path opacity="0.44" d="M53.4674 50.2695H56.7529L51.1466 56.9534V60.5416H47.8612V56.9534L53.4674 50.2695Z" fill="#48853E"/>
<path d="M47.1831 56.9534V60.5416H50.4685V56.9534V56.9494L56.0707 50.2695H52.7853L47.1871 56.9494L47.1831 56.9534Z" fill="white"/>
<path d="M55.7116 50.2695H56.3735L50.7673 56.9534V60.5416H50.1053V56.9534L55.7116 50.2695Z" fill="#F5895E"/>
<path d="M52.4744 50.2695H53.1363L47.5301 56.9534V60.5416H46.8722V56.9534L52.4744 50.2695Z" fill="#F5895E"/>
<path opacity="0.29" d="M46.8804 56.9534V60.5415H50.7712V56.9534V56.9493H47.4898L46.8804 56.9534Z" fill="#856E57"/>
<path d="M70.6373 69.6468C73.339 69.6468 75.5291 68.718 75.5291 67.5722C75.5291 66.4265 73.339 65.4977 70.6373 65.4977C67.9356 65.4977 65.7455 66.4265 65.7455 67.5722C65.7455 68.718 67.9356 69.6468 70.6373 69.6468Z" fill="#CD7E29"/>
<path d="M65.7455 66.3612V67.3582C65.7455 68.2098 66.9563 68.9403 68.6838 69.2592C69.0955 69.3359 69.5354 69.3884 69.9915 69.4126C70.2014 69.4247 70.4194 69.4287 70.6373 69.4287C71.3315 69.4287 71.9935 69.3682 72.5868 69.2552C74.3183 68.9363 75.2184 68.1856 75.2184 67.334L75.5251 66.2482C74.8188 65.4693 72.7159 65.2755 70.6333 65.2755C68.9825 65.2836 66.6294 65.8285 65.7455 66.3612Z" fill="#FFC615"/>
<g opacity="0.43">
<path d="M68.6836 67.4308V69.2592C69.0953 69.3359 69.5352 69.3883 69.9913 69.4125V67.4268H68.6836V67.4308Z" fill="#FAF395"/>
</g>
<path d="M72.381 69.2916V65.3362C73.7977 65.4371 75.0206 65.6954 75.5252 66.2524V67.3543C75.5292 68.2382 74.2215 68.9929 72.381 69.2916Z" fill="#F09D20"/>
<path d="M70.6374 68.4359C73.3391 68.4359 75.5293 67.5071 75.5293 66.3613C75.5293 65.2156 73.3391 64.2867 70.6374 64.2867C67.9358 64.2867 65.7456 65.2156 65.7456 66.3613C65.7456 67.5071 67.9358 68.4359 70.6374 68.4359Z" fill="#FED401"/>
<path d="M67.8442 67.9639C67.0329 67.7137 66.4235 67.3625 66.1127 66.967L70.0277 64.3919C70.2457 64.3798 70.4677 64.3717 70.6937 64.3717C71.4808 64.3717 72.2557 64.4524 72.9499 64.6058L67.8442 67.9639Z" fill="#FAF395"/>
<path d="M69.9957 68.3311C69.6284 68.3069 69.2692 68.2666 68.9221 68.21L73.9512 64.9004C74.2216 65.0053 74.4638 65.1224 74.6737 65.2515L69.9957 68.3311Z" fill="#FAF395"/>
<path d="M70.6373 67.6288C73.339 67.6288 75.5291 66.7 75.5291 65.5542C75.5291 64.4084 73.339 63.4796 70.6373 63.4796C67.9356 63.4796 65.7455 64.4084 65.7455 65.5542C65.7455 66.7 67.9356 67.6288 70.6373 67.6288Z" fill="#CD7E29"/>
<path d="M65.7455 64.3434V65.3404C65.7455 66.192 66.9563 66.9225 68.6838 67.2414C69.0955 67.3181 69.5354 67.3705 69.9915 67.3947C70.2014 67.4069 70.4194 67.4109 70.6373 67.4109C71.3315 67.4109 71.9935 67.3504 72.5868 67.2374C74.3183 66.9185 75.2184 66.1678 75.2184 65.3161L75.5251 64.2304C74.8188 63.4514 72.7159 63.2577 70.6333 63.2577C68.9825 63.2658 66.6294 63.8106 65.7455 64.3434Z" fill="#FFC615"/>
<g opacity="0.43">
<path d="M68.6836 65.413V67.2413C69.0953 67.318 69.5352 67.3705 69.9913 67.3947V65.4089H68.6836V65.413Z" fill="#FAF395"/>
</g>
<path d="M72.381 67.2738V63.3184C73.7977 63.4193 75.0206 63.6776 75.5252 64.2346V65.3364C75.5292 66.2204 74.2215 66.9751 72.381 67.2738Z" fill="#F09D20"/>
<path d="M70.6374 66.4181C73.3391 66.4181 75.5293 65.4893 75.5293 64.3435C75.5293 63.1978 73.3391 62.2689 70.6374 62.2689C67.9358 62.2689 65.7456 63.1978 65.7456 64.3435C65.7456 65.4893 67.9358 66.4181 70.6374 66.4181Z" fill="#FED401"/>
<path d="M67.8442 65.9457C67.0329 65.6955 66.4235 65.3443 66.1127 64.9488L70.0277 62.3737C70.2457 62.3616 70.4677 62.3535 70.6937 62.3535C71.4808 62.3535 72.2557 62.4342 72.9499 62.5876L67.8442 65.9457Z" fill="#FAF395"/>
<path d="M69.9957 66.3133C69.6284 66.2891 69.2692 66.2487 68.9221 66.1922L73.9512 62.8826C74.2216 62.9875 74.4638 63.1046 74.6737 63.2337L69.9957 66.3133Z" fill="#FAF395"/>
<path d="M70.6373 65.6105C73.339 65.6105 75.5291 64.6817 75.5291 63.5359C75.5291 62.3901 73.339 61.4613 70.6373 61.4613C67.9356 61.4613 65.7455 62.3901 65.7455 63.5359C65.7455 64.6817 67.9356 65.6105 70.6373 65.6105Z" fill="#CD7E29"/>
<path d="M65.7455 62.3251V63.322C65.7455 64.1737 66.9563 64.9042 68.6838 65.2231C69.0955 65.2998 69.5354 65.3522 69.9915 65.3764C70.2014 65.3886 70.4194 65.3926 70.6373 65.3926C71.3315 65.3926 71.9935 65.332 72.5868 65.219C74.3183 64.9002 75.2184 64.1494 75.2184 63.2978L75.5251 62.2121C74.8188 61.4331 72.7159 61.2394 70.6333 61.2394C68.9825 61.2475 66.6294 61.7923 65.7455 62.3251Z" fill="#FFC615"/>
<g opacity="0.43">
<path d="M68.6836 63.3948V65.2232C69.0953 65.2999 69.5352 65.3523 69.9913 65.3765V63.3907H68.6836V63.3948Z" fill="#FAF395"/>
</g>
<path d="M72.381 65.2555V61.3C73.7977 61.401 75.0206 61.6593 75.5252 62.2163V63.3181C75.5292 64.202 74.2215 64.9568 72.381 65.2555Z" fill="#F09D20"/>
<path d="M70.6374 64.3999C73.3391 64.3999 75.5293 63.4711 75.5293 62.3253C75.5293 61.1796 73.3391 60.2507 70.6374 60.2507C67.9358 60.2507 65.7456 61.1796 65.7456 62.3253C65.7456 63.4711 67.9358 64.3999 70.6374 64.3999Z" fill="#FED401"/>
<path d="M67.8442 63.9274C67.0329 63.6772 66.4235 63.326 66.1127 62.9305L70.0277 60.3554C70.2457 60.3433 70.4677 60.3352 70.6937 60.3352C71.4808 60.3352 72.2557 60.4159 72.9499 60.5693L67.8442 63.9274Z" fill="#FAF395"/>
<path d="M69.9957 64.2989C69.6284 64.2747 69.2692 64.2343 68.9221 64.1778L73.9512 60.8682C74.2216 60.9731 74.4638 61.0902 74.6737 61.2193L69.9957 64.2989Z" fill="#FAF395"/>
<path d="M70.6373 63.5922C73.339 63.5922 75.5291 62.6634 75.5291 61.5176C75.5291 60.3718 73.339 59.443 70.6373 59.443C67.9356 59.443 65.7455 60.3718 65.7455 61.5176C65.7455 62.6634 67.9356 63.5922 70.6373 63.5922Z" fill="#CD7E29"/>
<path d="M65.7455 60.3068V61.3037C65.7455 62.1554 66.9563 62.8859 68.6838 63.2048C69.0955 63.2814 69.5354 63.3339 69.9915 63.3581C70.2014 63.3702 70.4194 63.3743 70.6373 63.3743C71.3315 63.3743 71.9935 63.3137 72.5868 63.2007C74.3183 62.8819 75.2184 62.1311 75.2184 61.2795L75.5251 60.1938C74.8188 59.4148 72.7159 59.2211 70.6333 59.2211C68.9825 59.2291 66.6294 59.774 65.7455 60.3068Z" fill="#FFC615"/>
<g opacity="0.43">
<path d="M68.6836 61.3767V63.2051C69.0953 63.2818 69.5352 63.3343 69.9913 63.3585V61.3727H68.6836V61.3767Z" fill="#FAF395"/>
</g>
<path d="M72.381 63.2372V59.2817C73.7977 59.3826 75.0206 59.641 75.5252 60.1979V61.2998C75.5292 62.1837 74.2215 62.9385 72.381 63.2372Z" fill="#F09D20"/>
<path d="M70.6374 62.3815C73.3391 62.3815 75.5293 61.4527 75.5293 60.3069C75.5293 59.1611 73.3391 58.2323 70.6374 58.2323C67.9358 58.2323 65.7456 59.1611 65.7456 60.3069C65.7456 61.4527 67.9358 62.3815 70.6374 62.3815Z" fill="#FED401"/>
<path d="M67.8442 61.9095C67.0329 61.6592 66.4235 61.3081 66.1127 60.9125L70.0277 58.3374C70.2457 58.3253 70.4677 58.3173 70.6937 58.3173C71.4808 58.3173 72.2557 58.398 72.9499 58.5514L67.8442 61.9095Z" fill="#FAF395"/>
<path d="M69.9957 62.2805C69.6284 62.2563 69.2692 62.2159 68.9221 62.1594L73.9512 58.8497C74.2216 58.9547 74.4638 59.0717 74.6737 59.2009L69.9957 62.2805Z" fill="#FAF395"/>
<path d="M70.6373 61.5747C73.339 61.5747 75.5291 60.6459 75.5291 59.5001C75.5291 58.3544 73.339 57.4255 70.6373 57.4255C67.9356 57.4255 65.7455 58.3544 65.7455 59.5001C65.7455 60.6459 67.9356 61.5747 70.6373 61.5747Z" fill="#CD7E29"/>
<path d="M65.7455 58.2893V59.2863C65.7455 60.1379 66.9563 60.8684 68.6838 61.1873C69.0955 61.264 69.5354 61.3165 69.9915 61.3407C70.2014 61.3528 70.4194 61.3568 70.6373 61.3568C71.3315 61.3568 71.9935 61.2963 72.5868 61.1833C74.3183 60.8644 75.2184 60.1137 75.2184 59.262L75.5251 58.1763C74.8188 57.3974 72.7159 57.2036 70.6333 57.2036C68.9825 57.2117 66.6294 57.7566 65.7455 58.2893Z" fill="#FFC615"/>
<g opacity="0.43">
<path d="M68.6836 59.3589V61.1873C69.0953 61.264 69.5352 61.3164 69.9913 61.3407V59.3549H68.6836V59.3589Z" fill="#FAF395"/>
</g>
<path d="M72.381 61.2194V57.2639C73.7977 57.3648 75.0206 57.6231 75.5252 58.1801V59.282C75.5292 60.1659 74.2215 60.9207 72.381 61.2194Z" fill="#F09D20"/>
<path d="M70.6374 60.3637C73.3391 60.3637 75.5293 59.4348 75.5293 58.2891C75.5293 57.1433 73.3391 56.2145 70.6374 56.2145C67.9358 56.2145 65.7456 57.1433 65.7456 58.2891C65.7456 59.4348 67.9358 60.3637 70.6374 60.3637Z" fill="#FED401"/>
<path d="M67.8442 59.8916C67.0329 59.6414 66.4235 59.2902 66.1127 58.8947L70.0277 56.3196C70.2457 56.3075 70.4677 56.2994 70.6937 56.2994C71.4808 56.2994 72.2557 56.3802 72.9499 56.5335L67.8442 59.8916Z" fill="#FAF395"/>
<path d="M69.9957 60.263C69.6284 60.2388 69.2692 60.1984 68.9221 60.1419L73.9512 56.8323C74.2216 56.9372 74.4638 57.0543 74.6737 57.1834L69.9957 60.263Z" fill="#FAF395"/>
<path d="M70.6374 59.5565C73.3391 59.5565 75.5293 58.6277 75.5293 57.4819C75.5293 56.3362 73.3391 55.4073 70.6374 55.4073C67.9358 55.4073 65.7456 56.3362 65.7456 57.4819C65.7456 58.6277 67.9358 59.5565 70.6374 59.5565Z" fill="#CD7E29"/>
<path d="M65.7456 56.2709V57.2678C65.7456 58.1195 66.9565 58.85 68.6839 59.1689C69.0956 59.2456 69.5356 59.298 69.9917 59.3222C70.2015 59.3344 70.4195 59.3384 70.6374 59.3384C71.3317 59.3384 71.9936 59.2778 72.5869 59.1648C74.3184 58.846 75.2185 58.0952 75.2185 57.2436L75.5252 56.1579C74.8189 55.3789 72.7161 55.1852 70.6334 55.1852C68.9826 55.1933 66.6295 55.7381 65.7456 56.2709Z" fill="#FFC615"/>
<g opacity="0.43">
<path d="M68.6836 57.3405V59.1688C69.0953 59.2455 69.5352 59.298 69.9913 59.3222V57.3364H68.6836V57.3405Z" fill="#FAF395"/>
</g>
<path d="M72.381 59.2013V55.2458C73.7977 55.3468 75.0206 55.6051 75.5252 56.1621V57.2639C75.5292 58.1479 74.2215 58.9026 72.381 59.2013Z" fill="#F09D20"/>
<path d="M70.6374 58.3456C73.3391 58.3456 75.5293 57.4168 75.5293 56.271C75.5293 55.1252 73.3391 54.1964 70.6374 54.1964C67.9358 54.1964 65.7456 55.1252 65.7456 56.271C65.7456 57.4168 67.9358 58.3456 70.6374 58.3456Z" fill="#FED401"/>
<path d="M67.8442 57.8731C67.0329 57.6228 66.4235 57.2717 66.1127 56.8761L70.0277 54.3011C70.2457 54.289 70.4677 54.2809 70.6937 54.2809C71.4808 54.2809 72.2557 54.3616 72.9499 54.515L67.8442 57.8731Z" fill="#FAF395"/>
<path d="M69.9957 58.2446C69.6284 58.2204 69.2692 58.18 68.9221 58.1235L73.9512 54.8138C74.2216 54.9188 74.4638 55.0358 74.6737 55.165L69.9957 58.2446Z" fill="#FAF395"/>
<path fill-rule="evenodd" clip-rule="evenodd" d="M82.3787 51.8085C79.9951 63.9017 77.9988 78.7059 73.9646 89.5543C70.0965 99.9601 64.5731 101.32 60.7142 108.549C57.7174 114.165 59.248 118.411 61.7561 123.095C62.9641 125.35 63.7893 126.231 61.8483 127.254C62.6183 131.459 68.4874 136.369 72.0098 137.365L72.1158 139.066C67.1181 140.325 41.5715 140.574 36.2003 139.066L36.3064 137.365C39.8288 136.369 45.6979 131.459 46.4678 127.254C44.5268 126.226 45.3521 125.35 46.56 123.095C49.0681 118.411 50.5988 114.165 47.5974 108.549C43.7384 101.32 38.2151 99.9601 34.3469 89.5543C30.3082 78.7105 28.3118 63.9017 25.9282 51.8085C35.0754 49.3972 73.2362 49.3972 82.3787 51.8085Z" fill="#F6C105"/>
<path fill-rule="evenodd" clip-rule="evenodd" d="M82.0741 53.5928C85.8362 48.3185 98.492 48.5121 99.4878 59.7616C100.728 73.7636 83.9598 85.571 71.5392 92.1686L73.5632 87.2723C81.9911 81.1265 91.1751 76.2486 93.757 65.5155C94.9465 60.5638 93.3375 54.9852 88.5518 55.6768C86.1774 56.0179 85.6703 56.8017 85.283 57.7699C84.4208 59.9368 82.8855 61.9839 81.3134 62.5371C78.5701 63.5007 76.3663 60.9235 82.0741 53.5928Z" fill="#F6C105"/>
<path fill-rule="evenodd" clip-rule="evenodd" d="M26.2369 53.5929C22.4747 48.3185 9.819 48.5121 8.81853 59.7571C7.57831 73.759 24.3512 85.5664 36.7718 92.1686L34.7478 87.2723C26.3198 81.1266 17.1358 76.2487 14.5539 65.5155C13.3644 60.5639 14.9781 54.9852 19.7592 55.6768C22.1335 56.018 22.6407 56.8018 23.028 57.77C23.8901 59.9369 25.4254 61.9839 26.9976 62.5372C29.7362 63.5008 31.9446 60.9235 26.2369 53.5929Z" fill="#F6C105"/>
<path fill-rule="evenodd" clip-rule="evenodd" d="M82.3786 51.8085C79.995 63.9018 77.9987 78.706 73.9645 89.5544C70.0963 99.9602 64.573 101.32 60.714 108.549C57.7172 114.165 59.2479 118.411 61.756 123.095C62.9639 125.35 63.7892 126.231 61.8482 127.254C62.6182 131.459 68.4873 136.369 72.0097 137.365L72.1157 139.066C69.603 139.702 61.8851 140.076 54.158 140.103V50.0012C65.9792 50.0012 77.805 50.6052 82.3786 51.8085Z" fill="#FAA501"/>
<path fill-rule="evenodd" clip-rule="evenodd" d="M82.0741 53.5928C85.8362 48.3185 98.492 48.5121 99.4878 59.7616C100.728 73.7636 83.9598 85.571 71.5392 92.1686L73.5632 87.2723C81.9911 81.1265 91.1751 76.2486 93.757 65.5155C94.9465 60.5638 93.3375 54.9852 88.5518 55.6768C86.1774 56.0179 85.6703 56.8017 85.283 57.7699C84.4208 59.9368 82.8855 61.9839 81.3134 62.5371C78.5701 63.5007 76.3663 60.9235 82.0741 53.5928Z" fill="#FAA501"/>
<path fill-rule="evenodd" clip-rule="evenodd" d="M76.7447 147.595V138.835H31.5622V147.595H26.0297V156.355H82.2773V147.595H76.7447Z" fill="#1A1E1E"/>
<path d="M70.0181 144.138H38.2889V151.053H70.0181V144.138Z" fill="#898989"/>
</svg>
