<svg width="118" height="131" viewBox="0 0 118 131" fill="none" xmlns="http://www.w3.org/2000/svg">
<path d="M117.911 100.549C117.533 99.9683 117.471 99.3766 117.595 98.7229C117.646 98.4468 117.629 98.1537 117.623 97.8719C117.601 94.7274 117.128 91.6448 116.299 88.6185C115.662 86.2742 115.217 83.8509 114.332 81.6024C111.96 75.5556 108.483 70.1399 104.442 65.0736C104.256 64.8426 104.093 64.5833 103.969 64.3128C101.934 59.7594 96.5751 57.0149 91.7061 58.1082C89.666 58.5647 87.6485 59.1564 85.6254 59.6918C84.4758 59.9961 83.3205 60.2779 82.1934 60.6498C81.241 60.9654 80.7169 61.698 80.7113 62.7124C80.7057 63.6704 80.7 64.6397 80.8466 65.5752C81.0438 66.8319 81.3256 68.083 81.7031 69.2946C81.9962 70.247 82.6104 71.0416 83.6079 71.391C83.9348 71.5093 84.0757 71.6727 84.1884 71.9827C84.5209 72.8787 85.1013 73.5888 86.0932 73.7353C87.0512 73.8762 87.7612 73.3746 88.2966 72.6139C88.4375 72.4166 88.5784 72.2194 88.7193 72.0221C88.8263 71.9658 88.9221 71.9263 88.9841 71.9151C89.542 71.9151 90.1056 71.9545 90.6579 71.9038C91.182 71.8531 91.6666 71.7404 92.2076 71.9432C92.5683 72.0785 93.0642 72.0221 93.4474 71.8925C94.011 71.7009 94.5576 71.4135 95.0535 71.081C95.9946 70.4442 96.8681 69.7341 96.4624 68.2971C97.6346 69.4073 98.4179 70.6358 98.8462 72.0785C99.3928 73.91 99.3872 75.7697 98.9871 77.6181C98.5926 79.4384 98.029 81.2192 97.6402 83.0394C97.3697 84.2961 97.257 85.5923 97.0654 86.9166C92.5119 84.3694 87.7105 83.5297 82.5935 85.0907C81.1114 82.1716 79.015 79.8554 76.0508 78.4409C73.2387 77.094 70.3195 76.5643 67.2764 77.2011C67.2764 77.2011 61.686 77.0264 61.6748 77.0321C61.5677 77.0546 61.2239 77.0039 61.1112 77.0321C61.1112 77.0321 60.0123 77.5731 59.9841 77.5956C59.1106 77.8717 59.9559 78.5085 59.4206 80.4133C59.4093 80.4359 59.4149 82.6562 59.4206 82.6675C59.4826 82.9267 56.1238 112.524 74.4334 110.416C74.4672 110.416 74.4954 110.411 74.5292 110.405C74.7321 110.377 74.9406 110.321 75.1266 110.281C76.5523 109.96 77.5385 110.715 78.5811 109.718C78.8629 109.453 79.6237 109.926 79.7082 110.281C80.5535 113.865 80.9424 109.768 81.9624 109.718C87.5077 109.447 93.408 110.4 98.8349 109.644C102.182 109.177 105.485 108.337 108.793 107.582C111.571 106.945 114.09 105.75 116.181 103.761C116.919 103.057 117.578 102.29 117.917 101.304C118.001 101.073 118.029 100.729 117.911 100.549Z" fill="#CE9370"/>
<path d="M115.708 98.7796C115.031 97.1172 114.35 95.4547 113.842 93.7415C113.504 92.5975 113.454 91.3634 113.313 90.1687C113.031 87.8412 112.89 85.4912 112.484 83.1863C111.983 80.3179 110.805 77.658 109.582 75.0318C107.796 71.1885 105.778 67.4634 103.191 64.1103C100.622 60.7798 97.1784 59.3202 92.9574 60.1148C90.5173 60.5769 88.0997 61.1743 85.6708 61.6758C84.91 61.8336 84.1211 61.8731 83.349 61.9801C82.8474 62.0478 82.2557 62.0196 81.974 62.5268C81.7767 62.8762 81.6865 63.327 81.6753 63.7384C81.6189 65.5023 81.7542 67.2606 82.3064 68.9456C82.4868 69.5035 82.8136 70.0445 83.1687 70.5178C83.6251 71.1208 84.2958 71.3406 85.1016 71.2561C83.6251 69.2217 83.3997 67.0408 84.1154 64.7302C84.1661 64.719 84.2169 64.7077 84.2619 64.6908C84.3127 64.8768 84.3803 65.0627 84.4085 65.2487C84.5606 66.2856 84.6959 67.3225 84.848 68.3595C84.8875 68.6412 84.9438 68.923 85.0115 69.1935C85.4623 70.9236 86.2682 71.3801 87.9081 70.9123C87.6376 69.9092 87.2769 68.9174 87.1304 67.8974C86.9839 66.8886 87.1417 65.8573 87.5756 64.8542C87.6263 65.0627 87.6827 65.2656 87.7165 65.4741C87.8968 66.5787 88.0602 67.6832 88.2462 68.7878C88.3138 69.171 88.4096 69.5542 88.5449 69.9149C89.007 71.1885 89.6832 71.5379 91.0696 71.211C89.7621 69.0583 89.9256 66.821 90.6018 64.5612C90.6582 64.5555 90.7202 64.5499 90.7765 64.5443C90.8554 65.2205 90.923 65.8911 91.0132 66.5674C91.1428 67.5367 91.2837 68.5004 91.4415 69.464C91.4809 69.7232 91.5824 69.9768 91.6895 70.2192C92.0389 71.0025 92.5968 71.3124 93.4083 71.0532C94.0789 70.8391 94.7382 70.546 95.3356 70.1741C96.5021 69.4584 96.6092 68.6187 95.7244 67.4803C95.5497 67.841 95.4032 68.2017 95.206 68.5285C94.9129 69.0188 94.4677 69.0075 94.248 68.4834C93.9662 67.8128 93.752 67.1197 93.9775 66.3645C94.1409 65.8122 94.2423 65.2374 94.3719 64.6795C94.7213 65.0909 95.0144 65.5079 95.3807 65.8404C95.9048 66.3251 96.2936 66.3589 96.8572 65.9193C97.3587 65.5305 97.787 65.0458 98.2491 64.6063C98.3844 64.4766 98.5253 64.3527 98.6831 64.2174C99.0719 65.0796 98.4633 66.6012 97.3193 67.7621C101.258 70.1572 102.228 73.8991 101.918 78.1426C101.788 79.9403 101.337 81.7155 101.095 83.5076C100.791 85.7167 100.864 87.9032 101.687 90.0165C102.081 91.0365 102.662 91.9495 103.445 92.7215C103.558 92.8342 103.67 92.9526 103.755 93.0822C104.442 94.1755 105.124 95.2744 105.806 96.3733C105.846 96.4353 105.885 96.4916 105.925 96.5536C106.494 97.4553 106.28 97.9174 105.226 97.9738C103.287 98.0752 101.529 97.4328 100.109 96.1986C99.055 95.28 98.4914 93.905 98.0801 92.5581C97.8546 91.8255 97.4376 91.3408 96.8628 90.89C94.4846 89.0247 91.8923 87.5933 88.8943 87.0128C85.0734 86.2746 81.478 87.0241 78.0629 88.7711C77.15 89.2388 76.2821 89.808 75.3974 90.3265C75.1889 90.4504 74.9804 90.5744 74.7099 90.6251C75.8708 88.7485 77.6347 87.5482 79.5113 86.4211C77.3529 80.5828 72.4895 78.9597 66.747 78.1426C66.747 78.1426 56.0396 75.8884 66.1327 105.435C69.0406 110.355 72.6867 110.777 74.6648 110.383C74.3097 110.439 73.9603 110.422 73.7687 110.096C73.6109 109.825 73.9322 109.267 74.0561 108.839C74.1012 108.687 74.2196 108.563 74.2816 108.416C74.7606 107.312 75.5383 106.624 76.8964 106.619C73.8702 103.914 72.6247 101.958 73.1488 100.713C73.2897 100.842 73.4306 100.944 73.532 101.079C75.6735 103.795 78.6096 105.108 81.9007 105.756C85.7779 106.523 89.6945 106.483 93.5717 105.908C98.39 105.193 103.248 104.894 108.083 104.364C109.999 104.156 111.909 103.806 113.797 103.395C115.178 103.091 116.254 102.234 116.936 101.13C116.502 100.307 116.035 99.5742 115.708 98.7796ZM84.5043 63.9638C83.7998 63.3946 83.8956 62.5944 84.6846 62.3183C85.0622 62.1887 85.4679 62.1436 85.8849 62.0985C85.0678 62.4648 84.245 62.7973 84.5043 63.9638ZM87.7897 63.9413C87.1022 63.2988 87.2375 62.5437 88.0659 62.2845C88.4096 62.1774 88.7816 62.1548 89.1366 62.0929C88.3364 62.4648 87.6038 62.8367 87.7897 63.9413ZM90.8949 63.9526C90.2862 63.4566 90.3595 62.6958 91.0696 62.4253C91.4584 62.2788 91.8811 62.2225 92.2925 62.1267C91.0977 62.7635 90.9681 62.9213 90.8949 63.9526ZM89.069 101.913C87.925 102.369 86.719 102.736 85.5074 102.955C84.786 103.085 83.9858 102.933 83.2476 102.775C80.5369 102.189 78.1362 100.966 76.0793 99.1008C75.7637 98.8134 75.5045 98.4697 75.2227 98.1485C75.2621 98.0977 75.2959 98.0527 75.3354 98.0019C75.6228 98.1203 75.9158 98.2217 76.192 98.357C78.0855 99.2699 80.0241 100.053 82.1148 100.38C82.3966 100.425 82.6784 100.487 82.9602 100.487C84.9776 100.47 87.0008 101.039 89.007 100.544C90.2355 100.239 91.4133 99.7264 92.6137 99.2981C92.8391 99.2192 93.042 99.0783 93.273 99.005C92.0501 100.239 90.6751 101.27 89.069 101.913ZM110.591 88.5569C110.557 89.2388 110.405 89.9207 110.281 90.597C109.813 86.0491 108.731 81.6535 107.226 77.286C107.412 77.4325 107.627 77.5622 107.79 77.7369C109.328 79.3937 110.343 81.3886 110.687 83.5695C110.94 85.1926 110.675 86.8945 110.591 88.5569Z" fill="#F9B288"/>
<path d="M88.6513 71.6841C88.3188 71.6447 88.0934 71.5883 87.8736 71.6053C87.141 71.6503 86.4084 71.7461 85.6758 71.7574C85.2306 71.763 84.7798 71.656 84.3346 71.5996C84.3233 71.6616 84.3177 71.7236 84.3064 71.7912C85.58 73.1606 87.2425 73.1775 88.6513 71.6841Z" fill="#F9B288"/>
<path fill-rule="evenodd" clip-rule="evenodd" d="M89.9934 2.63287C87.0798 17.4146 84.6397 35.5101 79.7087 48.7703C74.9805 61.4895 68.2292 63.152 63.5124 71.9883C59.8493 78.8523 61.7203 84.0426 64.786 89.7682C66.2625 92.5239 67.2712 93.6003 64.8987 94.8514C65.8398 99.9909 73.0137 105.993 77.3192 107.21L77.4488 109.289C71.34 110.828 40.114 111.132 33.5487 109.289L33.6783 107.21C37.9838 105.993 45.1577 99.9909 46.0988 94.8514C43.7263 93.5946 44.7351 92.5239 46.2116 89.7682C49.2772 84.0426 51.1482 78.8523 47.4795 71.9883C42.7627 63.152 36.0114 61.4895 31.2832 48.7703C26.3466 35.5157 23.9064 17.4146 20.9929 2.63287C32.1737 -0.314472 78.8183 -0.314472 89.9934 2.63287Z" fill="#F6C105"/>
<path fill-rule="evenodd" clip-rule="evenodd" d="M89.6209 4.81373C94.2194 -1.63323 109.689 -1.39654 110.906 12.354C112.422 29.4688 91.9258 43.9012 76.7439 51.9655L79.2179 45.9807C89.5195 38.4686 100.745 32.5063 103.901 19.387C105.355 13.3345 103.388 6.51563 97.5387 7.36095C94.6365 7.77797 94.0166 8.736 93.5432 9.91944C92.4893 12.5681 90.6127 15.0702 88.6911 15.7465C85.338 16.9243 82.6442 13.7741 89.6209 4.81373Z" fill="#F6C105"/>
<path fill-rule="evenodd" clip-rule="evenodd" d="M21.3702 4.81384C16.7716 -1.63311 1.30233 -1.39642 0.0794327 12.3484C-1.4365 29.4633 19.0653 43.8957 34.2472 51.9656L31.7732 45.9808C21.4716 38.4687 10.2458 32.5064 7.08993 19.3871C5.63599 13.3346 7.60839 6.51575 13.4524 7.36107C16.3546 7.77809 16.9745 8.73612 17.4479 9.91956C18.5017 12.5682 20.3783 15.0704 22.3 15.7466C25.6475 16.9244 28.3468 13.7742 21.3702 4.81384Z" fill="#F6C105"/>
<path fill-rule="evenodd" clip-rule="evenodd" d="M89.9931 2.63317C87.0796 17.4149 84.6394 35.5104 79.7084 48.7706C74.9803 61.4898 68.229 63.1523 63.5121 71.9886C59.8491 78.8526 61.7201 84.0429 64.7858 89.7685C66.2622 92.5242 67.271 93.6006 64.8985 94.8516C65.8396 99.9912 73.0135 105.993 77.319 107.21L77.4486 109.29C74.3773 110.067 64.9435 110.524 55.4985 110.558V0.424072C69.9478 0.424072 84.4027 1.16232 89.9931 2.63317Z" fill="#FAA501"/>
<path fill-rule="evenodd" clip-rule="evenodd" d="M89.6209 4.81397C94.2194 -1.63298 109.689 -1.3963 110.906 12.3542C112.422 29.4691 91.9258 43.9014 76.7439 51.9658L79.2179 45.9809C89.5195 38.4689 100.745 32.5066 103.901 19.3872C105.355 13.3348 103.388 6.51587 97.5387 7.36119C94.6365 7.77822 94.0166 8.73624 93.5432 9.91969C92.4893 12.5683 90.6127 15.0705 88.6911 15.7467C85.338 16.9245 82.6442 13.7743 89.6209 4.81397Z" fill="#FAA501"/>
<path fill-rule="evenodd" clip-rule="evenodd" d="M83.1069 119.715V109.008H27.8795V119.715H21.1169V130.422H89.8694V119.715H83.1069Z" fill="#1A1E1E"/>
<path d="M74.8847 115.489H36.1016V123.942H74.8847V115.489Z" fill="#898989"/>
<path d="M55.5 18.4224L58.5309 27.7506H68.3393L60.4042 33.5158L63.4351 42.8441L55.5 37.0789L47.5649 42.8441L50.5958 33.5158L42.6607 27.7506H52.4691L55.5 18.4224Z" fill="#FFE3B9"/>
</svg>
