<svg width="333" height="206" viewBox="0 0 333 206" fill="none" xmlns="http://www.w3.org/2000/svg">
<path d="M88.3995 79.4078C88.3995 75.6281 85.6134 72.5012 81.9799 71.9654V71.9264H81.7559C81.6682 71.9167 81.5805 71.9069 81.4831 71.8972C81.5708 71.2445 81.6389 70.5918 81.6389 69.9197C81.6389 62.0389 75.2486 55.6485 67.3678 55.6485C66.7249 55.6485 66.0917 55.707 65.4682 55.7849C62.049 49.1705 55.1618 44.6407 47.1934 44.6407C39.1957 44.6407 32.2793 49.2095 28.8795 55.8823C22.0021 55.9018 16.3716 61.2011 15.7968 67.9324C15.0955 67.7668 14.3746 67.6792 13.6245 67.6792C8.3057 67.6792 4 71.9849 4 77.3037C4 82.5251 8.15958 86.7723 13.3517 86.9184V86.9282H81.9799V86.8405C85.6134 86.3145 88.3995 83.1972 88.3995 79.4078Z" fill="#9BD4F2"/>
<path d="M292.084 85.418C292.084 82.9339 290.184 80.9174 287.768 80.6836V80.557C288.06 79.5049 288.236 78.3944 288.236 77.2449C288.236 70.4844 282.751 65 275.991 65C272.065 65 268.587 66.8509 266.347 69.7148C264.662 68.5361 262.626 67.8347 260.414 67.8347C254.813 67.8347 250.264 72.2768 250.079 77.8294V77.8879C246.718 77.9171 244 80.6447 244 84.0152C244 87.3857 246.718 90.1133 250.079 90.1426V90.201H287.788V90.1523C290.184 89.9185 292.084 87.902 292.084 85.418Z" fill="#9BD4F2"/>
<path d="M122.332 24.9534C122.556 24.1936 122.673 23.3948 122.673 22.5668C122.673 17.8714 118.864 14.0528 114.159 14.0528C113.301 14.0528 112.483 14.1794 111.704 14.4132C109.58 10.0296 105.099 7 99.9069 7C92.6593 7 86.7853 12.8741 86.7853 20.1217C86.7853 20.5892 86.8145 21.0471 86.8534 21.4952H85.7819C82.4406 21.4952 79.7325 24.2033 79.7325 27.5446C79.7325 30.8859 82.4406 33.594 85.7819 33.594H122.254C122.263 33.594 122.273 33.594 122.283 33.594C124.67 33.594 126.608 31.6555 126.608 29.2688C126.608 26.9017 124.699 24.9729 122.332 24.9534Z" fill="#9BD4F2"/>
<path d="M304.906 189.994L272.068 171.427L255.225 147.365L240.097 141.521L229.44 124.843L223.079 122.953L212.762 102.497L207.775 99.7495L201.589 84.4457L195.569 82.8968L182.847 52.981L176.768 52.2894L172.014 39.7424L169.092 38.5345L163.072 21L162 39.5671L163.159 42.4018L163.763 55.2118H166.686L170.553 90.7971L175.19 90.2808L175.531 106.442L183.012 111.166L181.726 136.523L189.802 132.481L192.812 157.75L201.346 164.082L209.372 189.75L200.206 191.582V204.723C256.433 204.674 310.235 202.58 332.406 195.654L304.906 189.994Z" fill="#E5EBF7"/>
<path d="M210.02 189.232L201.993 163.563L193.459 157.231L190.449 131.952L182.373 135.995L183.659 110.638L176.178 105.913L175.837 89.7525L171.2 90.2688L167.333 54.6835H164.41L163.806 41.8735L162.647 39.0388L163.719 20.4717L158.108 36.5742L153.578 38.1815L145.843 55.9986L141.547 58.0637L131.465 76.9718L124.471 78.5791L111.807 101.101L102.981 107.803L86.7032 139.716L79.6018 142.697L53.9332 180.055L44.5327 182.578L29.9109 199.869C29.9109 199.869 118.022 204.263 200.853 204.194V191.053L210.02 189.232Z" fill="#9AA3B2"/>
<path d="M187.351 77.3806L192.28 88.6026L199.781 91.301L205.168 106.088L212.445 108.952L217.773 128.952L222.761 130.325L217.832 130.783L214.286 128.659L210.039 111.816L199.839 109.176L196.284 94.9151L188.208 91.7589L187.351 77.3806Z" fill="#D2DEEB"/>
<path d="M229.408 138.751L239.607 149.574L249.913 154.279L281.378 189.173L262.577 191.754L243.562 189.455L250.089 178.457L247.965 164.186L234.843 155.536L229.408 138.751Z" fill="#D2DEEB"/>
<path d="M193.654 123.672L194.628 115.83L204.486 117.661L209.873 141.44L221.67 141.781L227.408 163.154L237.548 166.943L239.896 178.574L233.876 169.057L221.563 167.225L218.231 147.197L204.135 145.278L201.846 120.749L197.55 119.269L193.654 123.672Z" fill="#D2DEEB"/>
<path d="M164.131 27.6995L161.384 83.8684L156.611 85.1932L152.052 107.589L156.864 121.772L165.768 119.239L166.011 136.511L173.57 142.531L174.321 155.195L181.763 152.156L186.468 170.089L191.446 168.317L200.272 189.114L191.163 189.407L152.052 193.128L119.194 186.942V135.595L132.939 122.074L140.274 97.7791H146.012L150.366 79.212L153.571 79.8939L157.731 48.322L160.303 49.2669L164.131 27.6995Z" fill="#86909C"/>
<path d="M142.142 65.9442L137.251 87.8623L130.286 90.4438L118.334 118.46L113.18 125.737L101.257 128.377L126.584 84.3651L132.429 82.5338L142.142 65.9442Z" fill="#86909C"/>
<path d="M149.16 173.569L140.568 163.71L139.253 149.79L133.749 145.952L132.892 127.326L126.706 128.242L128.772 107.61L123.901 110.932L120.462 106.636L123.297 85L111.49 97.2644L107.019 98.1801L93.7804 115.948L88.5396 118.959L73.9275 137.155L68.6866 139.503L51.756 160.272L46.5152 161.762L23.8664 189.652L0 195.117C22.2688 198.955 54.2206 201.215 87.3121 202.53L153.115 189.33L149.16 173.569Z" fill="#9AA3B2"/>
<path d="M235.962 203.826L209.943 189.73L187.713 160.048L181.177 159.931L171.318 139.191L164.675 139.074L152.293 111.224L145.075 110.191L127.287 85.0097L124.452 106.645L127.891 110.941L132.762 107.619L130.697 128.252L136.882 127.336L137.74 145.962L143.244 149.8L144.559 163.72L153.151 173.579L157.106 189.34L91.3024 202.54C162.006 207.761 229.942 205.949 235.962 203.826Z" fill="#E8F0F8"/>
<path d="M149.501 125.836L154.225 136.97L161.96 146.429L171.419 147.54L176.27 167.1L184.872 173.54L188.349 189.876L208.806 199.159L185.086 195.165L173.055 189.398L175.023 178.098L166.606 173.501L166.392 155.625L159.68 151.836L150.874 137.097L149.501 125.836Z" fill="#D4DFEC"/>
<path d="M36.7835 192.019L34.8937 189.535L49.1648 167.441L57.4158 164.519L73.0605 141.831L77.9604 139.678L86.903 128.934L81.1361 139.678L74.697 143.77L60.8935 168.299L53.6361 173.803L46.671 189.447L36.7835 192.019Z" fill="#86909C"/>
<path d="M67.8422 189.535L73.9403 176.384L77.8953 174.231L82.1036 167.178C82.1036 167.178 69.9853 164.431 70.1606 164.081C70.336 163.74 80.2137 146.205 80.2137 146.205L84.9383 143.283L92.5951 127.726L97.232 125.836L106.34 108.389L109.779 107.269L125.277 85.0097L114.075 112.773L110.208 115.695L105.054 131.681L101.012 133.999L95.6051 149.644L112.623 143.029L107.119 161.772L102.307 165.123L97.5827 189.535L78.5577 194.951L67.8422 189.535Z" fill="#86909C"/>
<path d="M122.816 115.091L115.451 121.053L110.386 138.159L115.88 135.441L118.257 122.173L122.816 115.091Z" fill="#86909C"/>
<path d="M148.114 189.389L137.798 192.019L134.652 189.389L137.574 174.027L131.671 171.679L135.275 156.551L131.33 154.086L133.161 139.367L133.56 152.488L137.282 154.661V169.331L146.916 172.595L148.114 189.389Z" fill="#86909C"/>
<path d="M165.861 3.36572L181.029 8.35332L165.861 13.6819V3.36572Z" fill="#ED1C24"/>
<path d="M164.861 3.11231C165.62 3.11231 166.235 2.49736 166.235 1.73878C166.235 0.980191 165.62 0.365234 164.861 0.365234C164.103 0.365234 163.488 0.980191 163.488 1.73878C163.488 2.49736 164.103 3.11231 164.861 3.11231Z" fill="#949391"/>
<path d="M165.329 2.42072H164.384V27.2223H165.329V2.42072Z" fill="#949391"/>
<path d="M288.428 185.676L251.81 165.394L214.686 160.582L232.045 132.907L197.317 127.403L215.543 107.978L185.461 97.6622L196.635 80.4686L177.21 77.3806L185.978 57.9465L172.223 51.4198L165.647 24.2607" stroke="#ED1C24" stroke-width="1.19695" stroke-miterlimit="10" stroke-dasharray="3.59 3.59"/>
<path d="M164.648 27.6702C162.865 27.6702 161.413 26.2187 161.413 24.436C161.413 22.6534 162.865 21.2019 164.648 21.2019C166.43 21.2019 167.882 22.6534 167.882 24.436C167.882 26.2187 166.43 27.6702 164.648 27.6702Z" fill="white"/>
<path d="M164.647 22.1663C165.894 22.1663 166.907 23.1794 166.907 24.4263C166.907 25.6732 165.894 26.6863 164.647 26.6863C163.4 26.6863 162.387 25.6732 162.387 24.4263C162.387 23.1794 163.4 22.1663 164.647 22.1663ZM164.647 20.218C162.319 20.218 160.439 22.1078 160.439 24.4263C160.439 26.7448 162.329 28.6346 164.647 28.6346C166.966 28.6346 168.856 26.7448 168.856 24.4263C168.856 22.1078 166.975 20.218 164.647 20.218Z" fill="#ED1C24"/>
<path d="M185.676 61.1027C183.893 61.1027 182.442 59.6512 182.442 57.8685C182.442 56.0859 183.893 54.6344 185.676 54.6344C187.459 54.6344 188.91 56.0859 188.91 57.8685C188.91 59.6512 187.459 61.1027 185.676 61.1027Z" fill="white"/>
<path d="M185.676 55.5988C186.923 55.5988 187.936 56.6119 187.936 57.8588C187.936 59.1057 186.923 60.1188 185.676 60.1188C184.429 60.1188 183.416 59.1057 183.416 57.8588C183.416 56.6119 184.429 55.5988 185.676 55.5988ZM185.676 53.6505C183.348 53.6505 181.468 55.5403 181.468 57.8588C181.468 60.187 183.357 62.0671 185.676 62.0671C187.994 62.0671 189.884 60.1772 189.884 57.8588C189.884 55.5403 188.004 53.6505 185.676 53.6505Z" fill="#ED1C24"/>
<path d="M171.096 54.9169C169.314 54.9169 167.862 53.4654 167.862 51.6828C167.862 49.9001 169.314 48.4486 171.096 48.4486C172.879 48.4486 174.331 49.9001 174.331 51.6828C174.331 53.4654 172.879 54.9169 171.096 54.9169Z" fill="white"/>
<path d="M171.096 49.4131C172.343 49.4131 173.356 50.4262 173.356 51.6731C173.356 52.92 172.343 53.9331 171.096 53.9331C169.849 53.9331 168.836 52.92 168.836 51.6731C168.836 50.4262 169.849 49.4131 171.096 49.4131ZM171.096 47.4648C168.768 47.4648 166.888 49.3546 166.888 51.6731C166.888 53.9915 168.778 55.8814 171.096 55.8814C173.415 55.8814 175.305 53.9915 175.305 51.6731C175.305 49.3546 173.424 47.4648 171.096 47.4648Z" fill="#ED1C24"/>
<path d="M195.904 84.0826C194.122 84.0826 192.67 82.6311 192.67 80.8485C192.67 79.0658 194.122 77.6143 195.904 77.6143C197.687 77.6143 199.139 79.0658 199.139 80.8485C199.139 82.6311 197.687 84.0826 195.904 84.0826Z" fill="white"/>
<path d="M195.904 78.5788C197.151 78.5788 198.164 79.5919 198.164 80.8388C198.164 82.0857 197.151 83.0988 195.904 83.0988C194.658 83.0988 193.644 82.0857 193.644 80.8388C193.644 79.5919 194.658 78.5788 195.904 78.5788ZM195.904 76.6305C193.576 76.6305 191.696 78.5203 191.696 80.8388C191.696 83.1572 193.586 85.0471 195.904 85.0471C198.223 85.0471 200.113 83.1572 200.113 80.8388C200.113 78.5203 198.233 76.6305 195.904 76.6305Z" fill="#ED1C24"/>
<path d="M176.733 80.5562C174.95 80.5562 173.499 79.1048 173.499 77.3221C173.499 75.5394 174.95 74.088 176.733 74.088C178.516 74.088 179.967 75.5394 179.967 77.3221C179.967 79.1048 178.526 80.5562 176.733 80.5562Z" fill="white"/>
<path d="M176.733 75.0524C177.98 75.0524 178.993 76.0655 178.993 77.3124C178.993 78.5593 177.98 79.5724 176.733 79.5724C175.487 79.5724 174.473 78.5593 174.473 77.3124C174.473 76.0655 175.487 75.0524 176.733 75.0524ZM176.733 73.1041C174.405 73.1041 172.525 74.994 172.525 77.3124C172.525 79.6309 174.415 81.5207 176.733 81.5207C179.052 81.5207 180.942 79.6309 180.942 77.3124C180.942 74.994 179.062 73.1041 176.733 73.1041Z" fill="#ED1C24"/>
<path d="M215.504 111.154C213.721 111.154 212.27 109.703 212.27 107.92C212.27 106.137 213.721 104.686 215.504 104.686C217.287 104.686 218.738 106.137 218.738 107.92C218.738 109.703 217.287 111.154 215.504 111.154Z" fill="white"/>
<path d="M215.504 105.65C216.751 105.65 217.764 106.663 217.764 107.91C217.764 109.157 216.751 110.17 215.504 110.17C214.257 110.17 213.244 109.157 213.244 107.91C213.234 106.673 214.257 105.65 215.504 105.65ZM215.504 103.702C213.176 103.702 211.296 105.592 211.296 107.91C211.296 110.229 213.185 112.118 215.504 112.118C217.822 112.118 219.712 110.229 219.712 107.91C219.712 105.592 217.832 103.702 215.504 103.702Z" fill="#ED1C24"/>
<path d="M185.676 100.76C183.893 100.76 182.442 99.3084 182.442 97.5257C182.442 95.743 183.893 94.2916 185.676 94.2916C187.459 94.2916 188.91 95.743 188.91 97.5257C188.91 99.3084 187.459 100.76 185.676 100.76Z" fill="white"/>
<path d="M185.676 95.256C186.923 95.256 187.936 96.2691 187.936 97.516C187.936 98.7629 186.923 99.776 185.676 99.776C184.429 99.776 183.416 98.7629 183.416 97.516C183.416 96.2691 184.429 95.256 185.676 95.256ZM185.676 93.3077C183.348 93.3077 181.468 95.1976 181.468 97.516C181.468 99.8345 183.357 101.724 185.676 101.724C187.994 101.724 189.884 99.8345 189.884 97.516C189.884 95.1976 188.004 93.3077 185.676 93.3077Z" fill="#ED1C24"/>
<path d="M232.688 135.741C230.905 135.741 229.454 134.29 229.454 132.507C229.454 130.724 230.905 129.273 232.688 129.273C234.471 129.273 235.922 130.724 235.922 132.507C235.932 134.29 234.48 135.741 232.688 135.741Z" fill="white"/>
<path d="M232.688 130.237C233.934 130.237 234.948 131.25 234.948 132.497C234.948 133.744 233.934 134.757 232.688 134.757C231.441 134.757 230.428 133.744 230.428 132.497C230.428 131.25 231.441 130.237 232.688 130.237ZM232.688 128.289C230.359 128.289 228.479 130.179 228.479 132.497C228.479 134.816 230.369 136.706 232.688 136.706C235.006 136.706 236.896 134.816 236.896 132.497C236.896 130.179 235.016 128.289 232.688 128.289Z" fill="#ED1C24"/>
<path d="M196.937 130.666C195.154 130.666 193.703 129.214 193.703 127.432C193.703 125.649 195.154 124.198 196.937 124.198C198.72 124.198 200.171 125.649 200.171 127.432C200.171 129.214 198.72 130.666 196.937 130.666Z" fill="white"/>
<path d="M196.937 125.162C198.184 125.162 199.197 126.175 199.197 127.422C199.197 128.669 198.184 129.682 196.937 129.682C195.69 129.682 194.677 128.669 194.677 127.422C194.677 126.185 195.69 125.162 196.937 125.162ZM196.937 123.214C194.609 123.214 192.729 125.104 192.729 127.422C192.729 129.75 194.618 131.63 196.937 131.63C199.255 131.63 201.145 129.741 201.145 127.422C201.145 125.104 199.265 123.214 196.937 123.214Z" fill="#ED1C24"/>
<path d="M215.075 162.988C213.293 162.988 211.841 161.536 211.841 159.754C211.841 157.971 213.293 156.52 215.075 156.52C216.858 156.52 218.31 157.971 218.31 159.754C218.31 161.536 216.858 162.988 215.075 162.988Z" fill="white"/>
<path d="M215.075 157.484C216.322 157.484 217.335 158.497 217.335 159.744C217.335 160.991 216.322 162.004 215.075 162.004C213.828 162.004 212.815 160.991 212.815 159.744C212.815 158.497 213.828 157.484 215.075 157.484ZM215.075 155.536C212.747 155.536 210.867 157.426 210.867 159.744C210.867 162.063 212.757 163.952 215.075 163.952C217.394 163.952 219.284 162.063 219.284 159.744C219.284 157.426 217.394 155.536 215.075 155.536Z" fill="#ED1C24"/>
<path d="M292.428 189.202C294.214 189.202 295.662 187.754 295.662 185.968C295.662 184.182 294.214 182.734 292.428 182.734C290.642 182.734 289.194 184.182 289.194 185.968C289.194 187.754 290.642 189.202 292.428 189.202Z" fill="white"/>
<path d="M292.428 183.698C293.675 183.698 294.688 184.711 294.688 185.958C294.688 187.205 293.675 188.218 292.428 188.218C291.181 188.218 290.168 187.205 290.168 185.958C290.168 184.711 291.181 183.698 292.428 183.698ZM292.428 181.75C290.1 181.75 288.22 183.64 288.22 185.958C288.22 188.277 290.11 190.167 292.428 190.167C294.747 190.167 296.637 188.277 296.637 185.958C296.637 183.64 294.757 181.75 292.428 181.75Z" fill="#ED1C24"/>
</svg>
