<svg width="174" height="62" viewBox="0 0 174 62" fill="none" xmlns="http://www.w3.org/2000/svg">
<path d="M173.303 53.3008C171.249 50.9929 153.623 51.7534 152.875 51.7887C152.126 51.8241 151.423 51.886 150.51 51.9567C145.034 52.39 134.783 53.2124 133.633 47.8185C133.268 46.05 132.61 43.9809 130.776 43.0701C129.324 42.3538 127.371 42.513 124.97 43.5653C122.83 44.6087 120.8 45.8525 118.909 47.2791C116.171 49.1979 113.314 51.1786 111.607 50.9133C111.447 50.8877 111.294 50.8296 111.159 50.7427C111.023 50.6559 110.908 50.5422 110.822 50.4093C110.493 49.9407 110.046 48.6939 110.749 45.599C110.975 44.6363 110.933 43.6326 110.627 42.6908C110.32 41.7491 109.761 40.9034 109.005 40.2405C107.636 39.1529 105.792 39.0202 103.811 39.878C101.831 40.7357 99.1013 42.7075 96.5638 44.5821C93.2959 46.9961 89.9094 49.4897 88.3485 49.2775C86.0756 48.9768 86.3221 44.8563 86.4681 42.4069V41.9559C86.5512 40.8381 86.2903 39.7215 85.7184 38.7472C85.1465 37.773 84.2893 36.9849 83.2551 36.4825C81.8494 35.8812 78.9101 35.4479 75.0398 39.2944L74.8116 39.5154C68.422 45.8112 61.8133 52.3193 55.8344 51.8948C54.2736 51.7711 53.2512 51.3289 52.7127 50.542C51.5625 48.853 52.7127 45.6698 53.8445 42.3008C54.9764 38.9318 56.2178 35.3683 55.3415 32.7686C55.1602 32.2327 54.8652 31.7395 54.4753 31.3207C54.0854 30.9019 53.6094 30.5668 53.0778 30.337C49.6183 28.7188 43.5207 30.2485 41.6586 30.9117C36.3461 32.8128 29.1441 39.1617 26.7708 46.1207C26.3494 47.6634 26.2576 49.2731 26.5009 50.8513C26.7442 52.4296 27.3175 53.9431 28.1856 55.2992C29.0078 56.503 30.1064 57.5062 31.3954 58.2302C32.6844 58.9543 34.1289 59.3796 35.6158 59.4728C38.7741 59.7735 41.0014 58.2349 42.7996 57.0058C43.9954 56.1834 45.036 55.4672 46.0674 55.4318C46.7247 55.4318 47.674 56.095 48.7602 56.9085C50.6406 58.3056 53.1782 60.1979 56.7564 60.1979H57.3862C64.5335 59.7558 68.422 56.0685 71.8542 52.8233C73.3019 51.3273 74.9256 50.0008 76.692 48.8707C76.9235 48.6969 77.1907 48.573 77.4756 48.5075C77.7606 48.4419 78.0567 48.4361 78.3442 48.4905C79.1383 48.7823 79.6221 50.1706 80.1698 51.7711C81.1739 54.6714 82.5431 58.6416 87.171 59.632C89.6995 60.1802 93.4511 57.1031 96.7555 54.3973C97.9199 53.392 99.1387 52.4475 100.407 51.5677C101.319 50.9929 101.931 50.7719 102.296 50.9133C102.661 51.0548 103.045 52.001 103.355 53.0709C104.03 55.4318 105.053 59.013 110.11 59.9768C114.08 60.7373 119.366 57.0765 122.889 54.6714C123.802 54.0524 124.569 53.513 125.125 53.1859C126.604 52.3016 127.636 53.1859 129.635 54.9543C131.862 56.9616 134.911 59.7116 140.387 59.8088H141.3C161.82 60.3305 172.682 58.4206 173.531 54.1231C173.564 53.9784 173.56 53.8282 173.52 53.6851C173.481 53.5421 173.406 53.4103 173.303 53.3008ZM45.2368 38.2686C46.3322 38.923 45.9214 41.4608 44.251 44.4584C41.7955 48.8442 37.551 52.5669 34.703 51.2847C34.4715 51.1874 34.2755 51.0249 34.1404 50.8184C34.0053 50.6118 33.9374 50.3707 33.9454 50.1264C33.7902 47.2526 39.194 41.0894 43.0734 38.9053C43.6205 38.5514 44.2459 38.3272 44.8991 38.251C45.0144 38.2431 45.13 38.2613 45.2368 38.304V38.2686Z" fill="#08765C"/>
<path d="M8.2325 0.139966C7.678 0.450094 7.21743 0.896023 6.897 1.43302C6.57657 1.97002 6.40755 2.5792 6.40689 3.19945C6.66087 11.179 5.94395 19.1597 4.27093 26.9768C3.89668 28.9133 3.4129 31.0178 2.91085 33.2461C1.11263 41.1336 -0.895539 50.0644 0.482795 55.9093C0.820533 57.3418 2.18061 61.0114 4.40785 61.0114H4.50826C7.12801 60.6754 7.06411 57.8369 7.0276 56.3072C7.0276 56.0685 7.0276 55.8562 7.0276 55.6794C7.15293 53.724 7.42136 51.7797 7.83087 49.8611C9.17269 43.5475 10.2498 38.5958 11.4821 33.4583C13.6554 25.0997 15.0123 16.5615 15.5349 7.95669C15.4741 6.16579 14.9601 4.41678 14.0379 2.86344C13.0886 1.14801 9.67473 -0.49669 8.2325 0.139966Z" fill="#08765C"/>
</svg>
