<svg width="60" height="60" viewBox="0 0 60 60" fill="none" xmlns="http://www.w3.org/2000/svg">
<rect width="60" height="60" rx="30" fill="white"/>
<path d="M30.2881 37.0004C26.8348 36.5688 26.2113 34.6622 26.3312 33.7629C25.0722 34.4824 24.5326 35.2018 24.5326 35.7414C24.5326 36.281 25.0722 38.9789 32.8061 39.3386C40.5401 39.6983 43.9575 37.7199 44.3172 36.281C44.605 35.1299 43.238 34.1227 42.5186 33.7629C42.6985 34.3025 42.6985 35.5256 41.2596 36.1011C38.0221 37.1803 34.6048 37.54 30.2881 37.0004Z" fill="#BDD2EF"/>
<path d="M40.0005 24.77C40.5761 26.9284 40.2403 29.1466 40.0005 29.986C40.3602 29.6263 41.4394 27.6478 40.8998 25.3096C40.3602 22.9714 40.3602 20.8131 41.4394 17.7555C39.8207 19.9138 39.2811 22.0721 40.0005 24.77Z" fill="#BDD2EF"/>
<path d="M42.2917 19.0146C42.8672 21.1729 42.5315 23.3912 42.2917 24.2305C42.6514 23.8708 43.7305 21.8923 43.191 19.5541C42.6514 17.2159 42.6514 15.0576 43.7305 12C42.1118 14.1583 41.5722 16.3166 42.2917 19.0146Z" fill="#BDD2EF"/>
<path fill-rule="evenodd" clip-rule="evenodd" d="M34.7846 27.115C34.7846 27.1127 34.7846 27.1104 34.7846 27.1082C34.7846 26.5121 34.3014 26.029 33.7054 26.029C33.1094 26.029 32.6263 26.5121 32.6263 27.1082C32.6263 27.3134 32.6836 27.5053 32.7831 27.6687C30.8292 28.4767 29.4796 29.8765 28.8492 30.8851C31.3672 31.4247 38.2019 29.2664 39.4609 27.6477C37.72 27.0227 36.1533 26.9125 34.7846 27.115ZM28.4895 31.065C30.9476 31.7245 36.7271 32.6478 40.1804 31.065C41.4754 32.5039 40.9598 35.1419 40.5401 36.281C38.0221 36.9405 32.0507 37.8278 28.3096 36.1011C27.2304 34.6622 27.4103 32.324 28.4895 31.065Z" fill="#2867CE"/>
<path fill-rule="evenodd" clip-rule="evenodd" d="M24.7125 22.6117C24.7125 23.2379 24.5939 23.8364 24.3781 24.386C24.9538 24.2838 25.5463 24.2305 26.1513 24.2305C28.5086 24.2305 30.6768 25.0403 32.3928 26.3968L28.9531 26.5154C28.0781 26.2006 27.1348 26.029 26.1513 26.029C21.582 26.029 17.8778 29.7332 17.8778 34.3026C17.8778 38.8719 21.582 42.5761 26.1513 42.5761C28.5696 42.5761 30.7455 41.5386 32.2583 39.8845L34.4252 40.048C32.6059 42.6631 29.5785 44.3748 26.1513 44.3748C20.5886 44.3748 16.0792 39.8653 16.0792 34.3026C16.0792 31.6133 17.1332 29.1701 18.8506 27.3637C16.6512 26.9006 15 24.949 15 22.6117C15 19.9297 17.1742 17.7555 19.8562 17.7555C22.5382 17.7555 24.7125 19.9297 24.7125 22.6117Z" fill="#2867CE"/>
</svg>
