<svg width="60" height="60" viewBox="0 0 60 60" fill="none" xmlns="http://www.w3.org/2000/svg">
<rect width="60" height="60" rx="30" fill="white"/>
<path fill-rule="evenodd" clip-rule="evenodd" d="M14.4467 33.4243L29.2847 19.0076C29.8455 18.4628 30.7417 18.4757 31.2866 19.0365L45.4398 33.6034C46.682 31.6342 46.4452 28.9998 44.7296 27.2841L33.9382 16.4927C31.9479 14.5024 28.7211 14.5024 26.7308 16.4927L15.4927 27.7308C13.9532 29.2703 13.6045 31.5497 14.4467 33.4243Z" fill="#2867CE"/>
<rect x="26.2523" y="33.8107" width="8.0897" height="10.3213" fill="#2867CE"/>
<path fill-rule="evenodd" clip-rule="evenodd" d="M29.8955 20.8248C30.117 20.602 30.4774 20.602 30.6988 20.8248L42.0208 32.2174C42.19 32.3877 42.2211 32.6149 42.1528 32.8062V41.288C42.1528 43.3208 40.5049 44.9687 38.4721 44.9687H34.4837C34.483 44.9687 34.4823 44.9687 34.4815 44.9687C34.2504 44.9687 34.0631 44.7814 34.0631 44.5503C34.0631 44.5496 34.0631 44.5488 34.0631 44.5481V34.9389C34.0631 34.4698 33.6828 34.0896 33.2137 34.0896H27.3807C26.9116 34.0896 26.5313 34.4698 26.5313 34.9389V44.5503C26.5313 44.7814 26.344 44.9687 26.1129 44.9687L26.1107 44.9687H22.1223C20.0895 44.9687 18.4416 43.3208 18.4416 41.288V32.8062C18.3733 32.6149 18.4044 32.3877 18.5736 32.2174L29.8955 20.8248Z" fill="#BDD2EF"/>
</svg>
