<svg width="60" height="60" viewBox="0 0 60 60" fill="none" xmlns="http://www.w3.org/2000/svg">
<rect width="60" height="60" rx="30" fill="white"/>
<path fill-rule="evenodd" clip-rule="evenodd" d="M42.4336 17.5175H20.8252V40.3848H18.0979V44.161H24.1818V44.1608H42.4336V17.5175Z" fill="#BDD2EF"/>
<path fill-rule="evenodd" clip-rule="evenodd" d="M17.0489 17.3077C17.0489 16.0332 18.0821 15 19.3566 15H37.3986C38.6024 15 39.591 15.9218 39.6969 17.098H41.8042C43.0787 17.098 44.1119 18.1312 44.1119 19.4057V42.6924C44.1119 43.9669 43.0787 45.0001 41.8042 45.0001H19.3566C18.0821 45.0001 17.049 43.9669 17.049 42.6924V39.5505L17.0489 39.5455V38.7063H19.1469C19.842 38.7063 20.4056 38.1427 20.4056 37.4475V36.6084C20.4056 35.9132 19.842 35.3496 19.1469 35.3496H17.0489V33.2519H19.1469C19.842 33.2519 20.4056 32.6883 20.4056 31.9931V31.154C20.4056 30.4588 19.842 29.8952 19.1469 29.8952H17.0489V28.0071H19.1469C19.842 28.0071 20.4056 27.4436 20.4056 26.7484V25.9092C20.4056 25.2141 19.842 24.6505 19.1469 24.6505H17.0489V22.5526H19.1469C19.842 22.5526 20.4056 21.989 20.4056 21.2939V20.4547C20.4056 19.7595 19.842 19.1959 19.1469 19.1959H17.0489V17.3077ZM19.3566 41.8531C18.9789 41.8531 18.6224 41.7624 18.3077 41.6015V42.2727C18.3077 43.1996 19.0591 43.951 19.986 43.951H40.1259C41.0528 43.951 41.8042 43.1996 41.8042 42.2727V19.8252C41.8042 18.8982 41.0528 18.1468 40.1259 18.1468H39.7063V39.5455C39.7063 40.82 38.6731 41.8531 37.3986 41.8531H19.3566ZM33.6558 19.1017C33.3569 18.9243 32.9708 19.0229 32.7934 19.3218L24.3152 33.6124C24.2561 33.712 24.2889 33.8407 24.3886 33.8998L28.4116 36.2866C28.5112 36.3457 28.64 36.3128 28.6991 36.2132L37.1773 21.9227C37.3546 21.6237 37.2561 21.2376 36.9571 21.0603L33.6558 19.1017ZM23.9981 39.4937C23.8579 39.5738 23.6836 39.472 23.6844 39.3105L23.7074 34.7266C23.7082 34.5651 23.8836 34.4651 24.023 34.5465L27.9812 36.8584C28.1207 36.9398 28.1197 37.1417 27.9794 37.2218L23.9981 39.4937ZM16 20.6643C16 20.4326 16.1879 20.2447 16.4196 20.2447H18.9371C19.1688 20.2447 19.3566 20.4326 19.3566 20.6643V20.8741C19.3566 21.1058 19.1688 21.2937 18.9371 21.2937H16.4196C16.1879 21.2937 16 21.1058 16 20.8741V20.6643ZM16.4196 25.6993C16.1879 25.6993 16 25.8871 16 26.1188V26.3286C16 26.5604 16.1879 26.7482 16.4196 26.7482H18.9371C19.1688 26.7482 19.3566 26.5604 19.3566 26.3286V26.1188C19.3566 25.8871 19.1688 25.6993 18.9371 25.6993H16.4196ZM16 31.3637C16 31.132 16.1879 30.9441 16.4196 30.9441H18.9371C19.1688 30.9441 19.3566 31.132 19.3566 31.3637V31.5735C19.3566 31.8052 19.1688 31.9931 18.9371 31.9931H16.4196C16.1879 31.9931 16 31.8052 16 31.5735V31.3637ZM16.4196 36.3986C16.1879 36.3986 16 36.5865 16 36.8182V37.028C16 37.2597 16.1879 37.4476 16.4196 37.4476H18.9371C19.1688 37.4476 19.3566 37.2597 19.3566 37.028V36.8182C19.3566 36.5865 19.1688 36.3986 18.9371 36.3986H16.4196Z" fill="#2867CE"/>
</svg>
