<svg width="60" height="60" viewBox="0 0 60 60" fill="none" xmlns="http://www.w3.org/2000/svg">
<rect width="60" height="60" rx="30" fill="white"/>
<path d="M25.5 25L18.5 34L21 36L33 35L25.5 25Z" fill="#BDD2EF"/>
<path d="M39 28.5L35.5 33L39 38L41.5 36.5L44.5 37L39 28.5Z" fill="#BDD2EF"/>
<path fill-rule="evenodd" clip-rule="evenodd" d="M25.126 23.883V13H31.892C32.0409 13.0638 32.3005 13.2745 32.1473 13.6064L30.775 14.9787L32.1473 16.3191C32.1899 16.4574 32.2111 16.7596 31.9558 16.8617H26.1473V24.0106L39.1686 40.9894C39.2856 41.5745 39.2197 42.7957 38.0197 43H13.2537C12.6686 42.8617 11.626 42.2723 12.1367 41.0213C13.0303 39.8213 21.1686 29.0957 25.126 23.883ZM25.6367 26.0851L32.1473 34.6064L27.6154 33.3617L23.3707 35.4361L19.6047 33.9361L25.6367 26.0851Z" fill="#2867CE"/>
<path fill-rule="evenodd" clip-rule="evenodd" d="M42.743 43.0001C42.5622 42.9894 42.1047 42.8405 41.7218 42.3299C41.3133 41.7426 36.7856 35.8937 34.5728 33.0426L38.4984 27.8086C38.6367 27.7235 38.9899 27.6554 39.2962 28.0639C39.6026 28.4724 45.8069 36.8511 48.8707 40.9894C49.0409 41.5107 49.0686 42.6426 47.8175 43.0001H42.743ZM36.2643 32.9787L38.7537 29.5638L43.7962 36.2979L41.1154 35.4043L39.4239 37.1915L36.2643 32.9787Z" fill="#2867CE"/>
</svg>
