<svg width="60" height="60" viewBox="0 0 60 60" fill="none" xmlns="http://www.w3.org/2000/svg">
<rect width="60" height="60" rx="30" fill="white"/>
<path fill-rule="evenodd" clip-rule="evenodd" d="M26.7179 14.3635C29.6531 13.7053 32.7183 13.9448 35.5156 15.0509C38.3129 16.1569 40.713 18.0785 42.4043 20.566C44.0956 23.0534 45 25.992 45 29C45 29.9092 44.2629 30.6463 43.3537 30.6463H43.3403C42.4311 30.6463 41.694 29.9092 41.694 29C41.694 26.655 40.9889 24.3641 39.6704 22.4248C38.3518 20.4856 36.4807 18.9876 34.2999 18.1253C32.1192 17.263 29.7295 17.0763 27.4413 17.5894C25.1531 18.1025 23.072 19.2917 21.4682 21.0026C19.8645 22.7135 18.8122 24.8671 18.448 27.1837C18.0837 29.5003 18.4244 31.8729 19.4257 33.9934C20.4271 36.1139 22.0428 37.8843 24.0632 39.0749C26.0836 40.2654 28.4152 40.821 30.7554 40.6695C31.1911 40.6413 31.6202 40.7874 31.9482 41.0755C32.2763 41.3637 32.4764 41.7704 32.5046 42.2061L32.5055 42.2194C32.5642 43.1268 31.8763 43.9099 30.9689 43.9687C27.9672 44.163 24.9763 43.4503 22.3848 41.9232C19.7933 40.3961 17.7207 38.1251 16.4363 35.4051C15.1518 32.6851 14.7148 29.6417 15.182 26.6702C15.6493 23.6987 16.9991 20.9363 19.0562 18.7417C21.1134 16.5471 23.7828 15.0216 26.7179 14.3635Z" fill="#BDD2EF"/>
<path d="M44.3478 35.5218C44.3478 36.6023 43.4718 37.4783 42.3913 37.4783C41.3107 37.4783 40.4348 36.6023 40.4348 35.5218C40.4348 34.4412 41.3107 33.5652 42.3913 33.5652C43.4718 33.5652 44.3478 34.4412 44.3478 35.5218Z" fill="#2867CE"/>
<path d="M39.7826 40.7391C39.7826 41.8197 38.7606 42.6956 37.5 42.6956C36.2393 42.6956 35.2174 41.8197 35.2174 40.7391C35.2174 39.6586 36.2393 38.7826 37.5 38.7826C38.7606 38.7826 39.7826 39.6586 39.7826 40.7391Z" fill="#2867CE"/>
<path d="M28.0435 22.4783H31.3044V35.5217H28.0435V22.4783Z" fill="#2867CE"/>
<path d="M23.4782 30.3043L23.4782 27.0435L36.5217 27.0435L36.5217 30.3043L23.4782 30.3043Z" fill="#2867CE"/>
</svg>
