<svg width="60" height="60" viewBox="0 0 60 60" fill="none" xmlns="http://www.w3.org/2000/svg">
<path d="M30.2881 39.0004C26.8348 38.5688 26.2113 36.6622 26.3312 35.7629C25.0722 36.4824 24.5326 37.2018 24.5326 37.7414C24.5326 38.281 25.0722 40.9789 32.8062 41.3386C40.5402 41.6983 43.9575 39.7199 44.3172 38.281C44.605 37.1299 43.2381 36.1227 42.5186 35.7629C42.6985 36.3025 42.6985 37.5256 41.2596 38.1011C38.0221 39.1803 34.6048 39.54 30.2881 39.0004Z" fill="#7EA8EC"/>
<path d="M40.0005 26.77C40.5761 28.9284 40.2404 31.1466 40.0005 31.986C40.3603 31.6263 41.4394 29.6478 40.8998 27.3096C40.3603 24.9714 40.3603 22.8131 41.4394 19.7555C39.8207 21.9138 39.2811 24.0721 40.0005 26.77Z" fill="#7EA8EC"/>
<path d="M42.2917 21.0146C42.8672 23.1729 42.5315 25.3912 42.2917 26.2305C42.6514 25.8708 43.7305 23.8923 43.191 21.5541C42.6514 19.2159 42.6514 17.0576 43.7305 14C42.1118 16.1583 41.5722 18.3166 42.2917 21.0146Z" fill="#7EA8EC"/>
<path fill-rule="evenodd" clip-rule="evenodd" d="M34.7846 29.115C34.7846 29.1127 34.7846 29.1104 34.7846 29.1082C34.7846 28.5121 34.3014 28.029 33.7054 28.029C33.1094 28.029 32.6263 28.5121 32.6263 29.1082C32.6263 29.3134 32.6836 29.5053 32.7831 29.6687C30.8292 30.4767 29.4796 31.8765 28.8492 32.8851C31.3672 33.4247 38.2019 31.2664 39.461 29.6477C37.72 29.0227 36.1533 28.9125 34.7846 29.115ZM28.4895 33.065C30.9476 33.7245 36.7271 34.6478 40.1804 33.065C41.4754 34.5039 40.9598 37.1419 40.5401 38.281C38.0221 38.9405 32.0507 39.8278 28.3096 38.1011C27.2305 36.6622 27.4103 34.324 28.4895 33.065Z" fill="#7EA8EC"/>
<path fill-rule="evenodd" clip-rule="evenodd" d="M24.7125 24.6117C24.7125 25.2379 24.5939 25.8364 24.3781 26.386C24.9538 26.2838 25.5463 26.2305 26.1513 26.2305C28.5086 26.2305 30.6768 27.0403 32.3928 28.3968L28.9531 28.5154C28.0781 28.2006 27.1348 28.029 26.1513 28.029C21.582 28.029 17.8778 31.7332 17.8778 36.3026C17.8778 40.8719 21.582 44.5761 26.1513 44.5761C28.5696 44.5761 30.7455 43.5386 32.2583 41.8845L34.4252 42.048C32.6059 44.6631 29.5785 46.3748 26.1513 46.3748C20.5886 46.3748 16.0792 41.8653 16.0792 36.3026C16.0792 33.6133 17.1332 31.1701 18.8506 29.3637C16.6512 28.9006 15 26.949 15 24.6117C15 21.9297 17.1742 19.7555 19.8562 19.7555C22.5382 19.7555 24.7125 21.9297 24.7125 24.6117Z" fill="#7EA8EC"/>
</svg>
