<svg width="60" height="60" viewBox="0 0 60 60" fill="none" xmlns="http://www.w3.org/2000/svg">
<path fill-rule="evenodd" clip-rule="evenodd" d="M14.4467 30.4243L29.2847 16.0076C29.8455 15.4628 30.7417 15.4757 31.2866 16.0365L45.4398 30.6034C46.682 28.6342 46.4452 25.9998 44.7296 24.2841L33.9382 13.4927C31.9479 11.5024 28.7211 11.5024 26.7308 13.4927L15.4927 24.7308C13.9532 26.2703 13.6045 28.5497 14.4467 30.4243Z" fill="#7EA8EC"/>
<path fill-rule="evenodd" clip-rule="evenodd" d="M29.8955 17.8248C30.117 17.602 30.4774 17.602 30.6988 17.8248L42.0208 29.2174C42.19 29.3877 42.2211 29.6149 42.1528 29.8062V38.288C42.1528 40.3208 40.5049 41.9687 38.4721 41.9687H34.4837C34.483 41.9687 34.4823 41.9687 34.4815 41.9687C34.2505 41.9687 34.0631 41.7814 34.0631 41.5504H33.9236H33.7841V41.9687H26.6708V41.5503H26.5313C26.5313 41.7814 26.344 41.9687 26.1129 41.9687L26.1107 41.9687H22.1223C20.0895 41.9687 18.4416 40.3208 18.4416 38.288V29.8062C18.3733 29.6149 18.4044 29.3877 18.5736 29.2174L29.8955 17.8248ZM27.8494 32C27.3803 32 27 32.3803 27 32.8494V40.1506C27 40.6197 27.3803 41 27.8494 41H33.1506C33.6197 41 34 40.6197 34 40.1506V32.8494C34 32.3803 33.6197 32 33.1506 32H27.8494Z" fill="#7EA8EC"/>
</svg>
