<svg width="29" height="30" viewBox="0 0 29 30" fill="none" xmlns="http://www.w3.org/2000/svg">
<path fill-rule="evenodd" clip-rule="evenodd" d="M1.04895 2.30769C1.04895 1.03319 2.08214 0 3.35664 0H21.3986C22.6024 0 23.591 0.92178 23.6969 2.09803H25.8042C27.0787 2.09803 28.1119 3.13122 28.1119 4.40572V27.6924C28.1119 28.9669 27.0787 30.0001 25.8042 30.0001H3.35665C2.08215 30.0001 1.04895 28.9669 1.04895 27.6924V24.5505L1.04895 24.5455V23.7063H3.14686C3.84204 23.7063 4.4056 23.1427 4.4056 22.4475V21.6084C4.4056 20.9132 3.84204 20.3496 3.14686 20.3496H1.04895V18.2519H3.14686C3.84204 18.2519 4.4056 17.6883 4.4056 16.9931V16.154C4.4056 15.4588 3.84204 14.8952 3.14686 14.8952H1.04895V13.0071H3.14686C3.84204 13.0071 4.4056 12.4436 4.4056 11.7484V10.9092C4.4056 10.2141 3.84204 9.65049 3.14686 9.65049H1.04895V7.55259H3.14686C3.84204 7.55259 4.4056 6.98903 4.4056 6.29385V5.45469C4.4056 4.75951 3.84204 4.19595 3.14686 4.19595H1.04895V2.30769ZM3.35664 26.8531C2.97893 26.8531 2.62241 26.7624 2.3077 26.6015V27.2727C2.3077 28.1996 3.0591 28.951 3.98602 28.951H24.1259C25.0528 28.951 25.8042 28.1996 25.8042 27.2727V4.82515C25.8042 3.89824 25.0528 3.14683 24.1259 3.14683H23.7063V24.5455C23.7063 25.82 22.6731 26.8531 21.3986 26.8531H3.35664ZM17.6558 4.10167C17.3569 3.92431 16.9708 4.02288 16.7934 4.32182L8.3152 18.6124C8.25608 18.712 8.28894 18.8407 8.38858 18.8998L12.4116 21.2866C12.5112 21.3457 12.64 21.3128 12.6991 21.2132L21.1773 6.92266C21.3546 6.62372 21.2561 6.23761 20.9571 6.06025L17.6558 4.10167ZM7.99815 24.4937C7.85789 24.5738 7.68357 24.472 7.68438 24.3105L7.70743 19.7266C7.70824 19.5651 7.88357 19.4651 8.02303 19.5465L11.9812 21.8584C12.1207 21.9398 12.1197 22.1417 11.9794 22.2218L7.99815 24.4937ZM0 5.66432C0 5.43259 0.187853 5.24474 0.41958 5.24474H2.93706C3.16879 5.24474 3.35664 5.43259 3.35664 5.66432V5.87411C3.35664 6.10584 3.16879 6.29369 2.93706 6.29369H0.41958C0.187853 6.29369 0 6.10584 0 5.87411V5.66432ZM0.41958 10.6993C0.187853 10.6993 0 10.8871 0 11.1188V11.3286C0 11.5604 0.187853 11.7482 0.41958 11.7482H2.93706C3.16879 11.7482 3.35664 11.5604 3.35664 11.3286V11.1188C3.35664 10.8871 3.16879 10.6993 2.93706 10.6993H0.41958ZM0 16.3637C0 16.132 0.187853 15.9441 0.41958 15.9441H2.93706C3.16879 15.9441 3.35664 16.132 3.35664 16.3637V16.5735C3.35664 16.8052 3.16879 16.9931 2.93706 16.9931H0.41958C0.187853 16.9931 0 16.8052 0 16.5735V16.3637ZM0.41958 21.3986C0.187853 21.3986 0 21.5865 0 21.8182V22.028C0 22.2597 0.187853 22.4476 0.41958 22.4476H2.93706C3.16879 22.4476 3.35664 22.2597 3.35664 22.028V21.8182C3.35664 21.5865 3.16879 21.3986 2.93706 21.3986H0.41958Z" fill="#7EA8EC"/>
</svg>
