<svg width="60" height="60" viewBox="0 0 60 60" fill="none" xmlns="http://www.w3.org/2000/svg">
<path fill-rule="evenodd" clip-rule="evenodd" d="M25.126 25.883V15H31.892C32.0409 15.0638 32.3005 15.2745 32.1473 15.6064L30.775 16.9787L32.1473 18.3191C32.1899 18.4574 32.2111 18.7596 31.9558 18.8617H26.1473V26.0106L39.1686 42.9894C39.2856 43.5745 39.2197 44.7957 38.0197 45H13.2537C12.6686 44.8617 11.626 44.2723 12.1367 43.0213C13.0303 41.8213 21.1686 31.0957 25.126 25.883ZM25.6367 28.0851L32.1473 36.6064L27.6154 35.3617L23.3707 37.4361L19.6047 35.9361L25.6367 28.0851Z" fill="#7EA8EC"/>
<path fill-rule="evenodd" clip-rule="evenodd" d="M42.743 45.0001C42.5622 44.9894 42.1047 44.8405 41.7218 44.3299C41.3133 43.7426 36.7856 37.8937 34.5728 35.0426L38.4984 29.8086C38.6367 29.7235 38.9899 29.6554 39.2962 30.0639C39.6026 30.4724 45.8069 38.8511 48.8707 42.9894C49.0409 43.5107 49.0686 44.6426 47.8175 45.0001H42.743ZM36.2643 34.9787L38.7537 31.5638L43.7962 38.2979L41.1154 37.4043L39.4239 39.1915L36.2643 34.9787Z" fill="#7EA8EC"/>
</svg>
