<svg width="60" height="60" viewBox="0 0 60 60" fill="none" xmlns="http://www.w3.org/2000/svg">
<path fill-rule="evenodd" clip-rule="evenodd" d="M26.7179 15.3635C29.6531 14.7053 32.7183 14.9448 35.5156 16.0509C38.3129 17.1569 40.713 19.0785 42.4043 21.566C44.0956 24.0534 45 26.992 45 30C45 30.9092 44.2629 31.6463 43.3537 31.6463H43.3403C42.4311 31.6463 41.694 30.9092 41.694 30C41.694 27.655 40.9889 25.3641 39.6704 23.4248C38.3518 21.4856 36.4807 19.9876 34.2999 19.1253C32.1192 18.263 29.7295 18.0763 27.4413 18.5894C25.1531 19.1025 23.072 20.2917 21.4682 22.0026C19.8645 23.7135 18.8122 25.8671 18.448 28.1837C18.0837 30.5003 18.4244 32.8729 19.4257 34.9934C20.4271 37.1139 22.0428 38.8843 24.0632 40.0749C26.0836 41.2654 28.4152 41.821 30.7554 41.6695C31.1911 41.6413 31.6202 41.7874 31.9482 42.0755C32.2763 42.3637 32.4764 42.7704 32.5046 43.2061L32.5055 43.2194C32.5642 44.1268 31.8763 44.9099 30.9689 44.9687C27.9672 45.163 24.9763 44.4503 22.3848 42.9232C19.7933 41.3961 17.7207 39.1251 16.4363 36.4051C15.1518 33.6851 14.7148 30.6417 15.182 27.6702C15.6493 24.6987 16.9991 21.9363 19.0562 19.7417C21.1134 17.5471 23.7828 16.0216 26.7179 15.3635Z" fill="#7EA8EC"/>
<path d="M44.3478 36.5217C44.3478 37.6023 43.4718 38.4782 42.3913 38.4782C41.3107 38.4782 40.4348 37.6023 40.4348 36.5217C40.4348 35.4412 41.3107 34.5652 42.3913 34.5652C43.4718 34.5652 44.3478 35.4412 44.3478 36.5217Z" fill="#7EA8EC"/>
<path d="M39.7826 41.7391C39.7826 42.8197 38.7606 43.6956 37.5 43.6956C36.2393 43.6956 35.2174 42.8197 35.2174 41.7391C35.2174 40.6586 36.2393 39.7826 37.5 39.7826C38.7606 39.7826 39.7826 40.6586 39.7826 41.7391Z" fill="#7EA8EC"/>
<path d="M28.0435 23.4783H31.3044V36.5217H28.0435V23.4783Z" fill="#7EA8EC"/>
<path d="M23.4782 31.3043L23.4782 28.0435L36.5217 28.0435L36.5217 31.3043L23.4782 31.3043Z" fill="#7EA8EC"/>
</svg>
