<svg width="91" height="91" viewBox="0 0 91 91" fill="none" xmlns="http://www.w3.org/2000/svg">
<circle cx="45.3824" cy="45.3824" r="43.7774" fill="#55A6D3" fill-opacity="0.2" stroke="#55A6D3" stroke-width="3.21"/>
<path d="M47.1755 33.9775C43.1674 36.3859 41.6267 41.7621 43.5827 46.1351C43.9673 46.994 44.3148 47.8747 44.5858 48.7751C44.671 49.0549 44.5268 49.5029 44.3257 49.728C44.2252 49.8394 43.7072 49.6974 43.4625 49.54C42.3042 48.7904 41.76 47.689 41.7862 46.2969C40.0794 47.4814 39.6882 50.6502 40.8531 53.6902C35.8418 51.3234 32.5244 43.1258 35.125 36.8864C35.5577 38.567 35.7457 40.241 37.1881 41.5916C35.3326 36.2613 37.8306 32.4281 40.9405 28.7609C42.066 27.4322 43.1893 26.0816 44.1334 24.6239C45.6304 22.3182 46.3669 19.8159 45.3616 17.0186C47.3635 18.4019 48.8845 20.17 49.9707 22.3204C51.3453 25.0457 51.8152 27.9589 51.8611 30.9791C51.8808 32.3581 51.9179 33.7481 52.1386 35.103C52.2239 35.6363 52.8292 36.0843 53.1986 36.5695C53.6772 36.1783 54.4181 35.8723 54.582 35.3762C54.9819 34.172 55.113 32.8805 55.3097 31.8467C59.6172 37.0874 59.7418 47.949 52.4992 54.0005C52.7156 52.9187 53.1002 51.7124 53.168 50.4885C53.2882 48.3533 52.4075 46.5045 50.7181 45.2544C46.8149 42.3674 45.7572 38.6544 47.1755 33.9775Z" fill="#55A6D3"/>
<path d="M27.3582 53.8563C29.9829 55.0932 32.435 56.2493 34.8871 57.4054C34.9155 57.3508 34.9417 57.2984 34.9701 57.2437C32.5224 55.9084 30.0726 54.5731 27.4631 53.1482C28.8968 52.5866 30.0463 52.3658 31.2483 53.1897C32.0416 53.7317 32.9551 54.0967 33.9036 54.3852C32.8765 53.7361 31.8515 53.087 30.726 52.3768C31.5499 51.9134 32.2274 51.7299 33.095 52.1254C43.6594 56.9246 54.2369 61.6998 64.8232 66.451C65.5706 66.7853 65.8329 67.2028 65.8438 68.0004C65.8678 69.4844 66.0121 70.9661 66.1104 72.5243C64.1042 72.9985 62.1722 73.4531 60.0961 73.9426C60.0961 72.4784 60.0655 71.1169 60.1289 69.7575C60.1376 69.5543 60.5463 69.3073 60.8173 69.1871C61.4729 68.8921 62.157 68.6604 62.8126 68.2758C60.9134 68.903 59.0318 69.3773 57.1654 68.0747C57.1414 68.1818 57.1195 68.2889 57.0955 68.3982C57.3752 68.5468 57.6506 68.702 57.9347 68.8418C58.2931 69.0189 58.7061 69.1238 59.0034 69.3729C59.2285 69.5608 59.305 69.9258 59.4492 70.2121C59.3836 70.2842 59.3181 70.3585 59.2525 70.4306C58.1554 69.9695 57.0561 69.5084 55.9591 69.0473C55.9438 69.091 55.9285 69.1347 55.9132 69.1806C57.0867 69.8974 58.2625 70.6142 59.4273 71.3485C59.4623 71.3704 59.3661 71.5955 59.305 71.8206C58.6406 71.519 58.033 71.2458 57.3555 70.9399C57.8953 71.9998 59.7683 71.8315 59.4448 73.6695C58.2188 73.1144 57.0561 72.6423 55.9438 72.0741C46.5792 67.2814 37.2299 62.4757 27.8674 57.6896C27.3517 57.4251 27.0807 57.1607 27.1747 56.5269C27.2927 55.7074 27.2949 54.8725 27.3582 53.8563Z" fill="#55A6D3"/>
<path d="M33.8621 73.7196C33.3944 71.7855 35.3395 72.0194 35.9011 70.9397C35.2083 71.2479 34.592 71.5233 33.8468 71.8533C33.7747 70.6185 34.7865 70.6819 35.3285 70.33C35.9601 69.9191 36.6791 69.6394 37.267 69.0778C36.1852 69.5214 35.1034 69.965 33.8971 70.4611C33.8534 68.7543 35.582 69.1542 36.3557 67.9719C34.4653 69.0646 32.7628 69.1761 30.9948 68.5445C31.1522 68.6407 31.3008 68.7587 31.469 68.8286C33.1824 69.5345 33.1846 69.5323 33.1977 71.3506C33.2043 72.1723 33.1977 72.9962 33.1977 73.9491C31.1041 73.4574 29.1743 73.0028 27.1484 72.5286C27.2555 70.7452 27.3386 69.0078 27.4916 67.2791C27.5134 67.0431 27.8543 66.7546 28.1144 66.6344C30.6888 65.4434 33.272 64.2698 35.8661 63.1268C36.1612 62.9957 36.6179 62.941 36.8846 63.0765C39.8611 64.5845 42.8158 66.134 46.035 67.808C41.8695 69.8317 37.9073 71.7549 33.8621 73.7196Z" fill="#55A6D3"/>
<path d="M62.5221 52.3766C61.4359 53.0629 60.4066 53.7119 59.3794 54.3632C59.4013 54.4135 59.4231 54.4637 59.445 54.5118C60.848 53.8147 62.2533 53.1175 63.6563 52.4203C63.7 52.4815 63.7437 52.5427 63.7874 52.6039C63.6432 52.8203 63.499 53.0388 63.405 53.1787C64.0497 53.0672 64.7753 52.9405 65.4986 52.8159C65.5467 52.9514 65.597 53.0869 65.6451 53.2224C63.4115 54.4441 61.178 55.6657 58.9423 56.8874C58.9729 56.9529 59.0057 57.0185 59.0363 57.0841C61.2633 56.0372 63.488 54.9904 65.868 53.8715C65.9466 54.9467 66.0559 55.9039 66.0625 56.8633C66.0647 57.1015 65.7871 57.4403 65.5489 57.567C62.8302 59.0378 60.0984 60.4868 57.3557 61.9095C57.0694 62.0581 56.617 62.1368 56.3417 62.0166C53.3913 60.7272 50.4606 59.3919 47.2939 57.9648C49.746 56.8524 51.9795 55.8362 54.2152 54.8265C56.1362 53.9567 58.0616 53.0935 59.9848 52.228C61.1168 51.7232 61.1168 51.7254 62.5221 52.3766Z" fill="#55A6D3"/>
</svg>
