<svg width="91" height="91" viewBox="0 0 91 91" fill="none" xmlns="http://www.w3.org/2000/svg">
<circle cx="45.3824" cy="45.3824" r="43.7774" fill="#55A6D3" fill-opacity="0.2" stroke="#55A6D3" stroke-width="3.21"/>
<path d="M36.3661 20.1024C36.5161 20.3953 36.666 20.6881 36.8329 21.014C36.9269 21.031 37.0818 21.058 37.3946 21.1139C36.9139 21.3298 36.5211 21.4508 36.57 21.9325C36.583 22.0585 36.588 22.2144 36.662 22.3014C36.9848 22.6832 37.3327 23.045 37.6685 23.4118C37.9804 23.2449 38.0593 23.2629 38.754 23.6627C38.5091 23.7527 38.3012 23.8306 38.0923 23.9066C37.6895 24.0525 37.6265 24.2654 37.7924 24.6372C37.9844 25.068 38.1193 25.5248 38.2832 25.9826C38.2132 26.0765 38.1303 26.1885 38.0003 26.3624C38.1972 26.3374 38.3162 26.3214 38.5981 26.2854C38.0003 27.14 37.9264 27.9876 38.2342 28.8622C38.625 28.7322 39.0268 28.5983 39.5186 28.4354C38.711 29.0971 39.4107 29.7028 39.5006 30.3714C39.5836 30.2715 39.6495 30.1925 39.7085 30.1226C39.8804 30.2225 40.0494 30.3205 40.1603 30.3844C40.0254 30.7123 39.8804 31.0611 39.7365 31.4109C39.8175 31.3979 39.8984 31.385 39.9794 31.372C40.2812 31.6788 40.5831 31.9867 40.9169 32.3255C40.706 32.3735 40.4542 32.4314 40.1973 32.4904C40.1733 32.6573 40.1493 32.8303 40.1283 32.9782C40.3592 33.1581 40.5641 33.358 40.806 33.4899C40.9359 33.5609 41.1518 33.5689 41.2908 33.5119C41.6686 33.358 42.0254 33.1551 42.4312 33.0342C42.1034 33.36 41.7745 33.6858 41.4467 34.0127C41.4767 34.0517 41.5076 34.0906 41.5376 34.1296C41.8955 34.0467 42.2523 33.9637 42.6101 33.8807C42.6371 33.9177 42.6651 33.9557 42.6921 33.9927C41.7195 34.3605 41.3277 35.1601 41.0569 36.0487C41.0479 36.0787 41.0269 36.1107 41.0019 36.1297C40.817 36.2676 40.4821 36.3965 40.4761 36.5405C40.4642 36.8093 40.6431 37.0872 40.785 37.479C40.8969 37.2581 40.9669 37.1202 41.0369 36.9832C41.1078 37.0132 41.1788 37.0432 41.2488 37.0732C41.3097 37.565 41.3717 38.0577 41.4327 38.5475C41.9474 38.4575 42.1094 38.6804 42.0274 39.437C42.2233 39.2941 42.4102 39.1572 42.6471 38.9853C42.787 39.1632 42.928 39.3421 43.0469 39.492C43.3378 39.3961 43.5736 39.3191 43.8555 39.2262C43.8245 39.572 43.8005 39.8349 43.7775 40.0967C43.9695 40.1827 44.1614 40.2686 44.4732 40.4086C44.4912 40.1047 44.5072 39.8389 44.5252 39.548C44.7701 39.465 44.7811 39.434 44.6801 38.6005C44.6081 38.7594 44.5372 38.9173 44.5122 38.9733C44.0284 38.6754 43.6546 38.4455 43.2438 38.1927C43.4107 38.0057 43.5577 37.8408 43.6926 37.6889C43.8835 37.7399 44.0774 37.7918 44.3213 37.8568C44.3493 37.8178 44.4122 37.7289 44.4772 37.6379C44.961 38.3726 44.965 37.547 45.2348 37.373C45.2228 37.551 45.2148 37.6779 45.2058 37.8048C45.2258 37.8138 45.2458 37.8228 45.2658 37.8318C45.3858 37.6089 45.5057 37.385 45.6097 37.1931C45.4078 37.0872 45.2188 36.9882 45.0289 36.8883C45.0459 36.8293 45.0639 36.7703 45.0809 36.7114C45.2888 36.7114 45.4977 36.7114 45.6976 36.7114C45.9345 36.4685 45.8495 35.8898 46.4552 35.9577C46.2733 35.9208 46.0924 35.8828 45.8485 35.8328C45.9565 35.6919 46.0454 35.5759 46.1374 35.456C45.9805 35.2411 45.8255 35.0292 45.6716 34.8173C45.7186 34.8123 45.7656 34.8073 45.8126 34.8023C45.8126 34.6374 45.8126 34.4725 45.8126 34.3075C45.8126 34.2915 45.7986 34.2716 45.8036 34.2596C46.1284 33.4869 46.4512 32.7133 46.7881 31.9457C46.8151 31.8847 46.937 31.8647 46.972 31.8477C47.2299 31.1211 46.7191 30.3435 47.1139 29.6228C47.1679 29.6228 47.2219 29.6228 47.2748 29.6218C47.2748 30.0826 47.1669 30.5803 47.3048 30.9951C47.4448 31.4169 47.8286 31.7578 48.1464 32.1896C47.8536 32.3335 47.6087 32.4534 47.3638 32.5734C47.4278 32.6573 47.4917 32.7413 47.5557 32.8263C47.8616 32.9482 48.1784 33.0511 48.4693 33.2031C48.5842 33.263 48.7181 33.439 48.7082 33.5499C48.6942 33.6998 48.5492 33.8378 48.4373 34.0177C48.4783 34.0946 48.5602 34.2476 48.6532 34.4225C48.7931 34.3595 48.918 34.3035 49.065 34.2386C49.093 34.6334 48.954 34.7953 48.5522 34.7663C48.3193 34.7503 48.0785 34.8413 47.8566 34.9382C48.4513 34.9282 49.3149 35.7119 49.2099 36.1816C49.5218 36.5824 50.2724 36.1017 50.4543 36.8043C50.0665 36.7653 49.7077 36.7284 49.3488 36.6924C49.3408 36.7563 49.3338 36.8213 49.3259 36.8853C49.5208 36.9133 49.7157 36.9403 49.9146 36.9692C49.8856 37.3141 49.7327 37.429 49.076 37.508C49.3738 38.0097 50.1115 38.1477 50.1864 38.8803C49.7876 38.8623 49.4478 38.8473 49.108 38.8323C49.7906 39.3061 50.9421 39.1752 50.7442 40.5465C50.3893 40.4406 50.0015 40.3256 49.6147 40.2107C50.3024 41.4121 50.3024 41.4121 50.5922 40.9883C50.8471 41.1402 51.105 41.2951 51.3589 41.4461C51.115 42.1387 50.7302 41.4601 50.4173 41.633C50.6022 41.9938 50.7891 42.3596 50.9761 42.7245C50.9551 42.7384 50.9341 42.7524 50.9141 42.7664C50.8241 42.6845 50.7342 42.6035 50.5852 42.4676C50.4153 42.6105 50.2524 42.7474 50.0235 42.9403C50.2784 43.0573 50.3823 43.1053 50.6112 43.2112C50.2654 43.2582 50.0595 43.2852 49.7476 43.3282C49.9356 43.3931 50.0345 43.4271 50.1834 43.4781C50.0315 43.591 49.8996 43.689 49.7407 43.8069C50.0435 43.9519 50.3134 44.0818 50.5593 44.1997C50.5673 44.1088 50.5822 43.9579 50.5942 43.8209C50.6662 43.8089 50.6932 43.7979 50.6982 43.8039C51.015 44.2397 51.4418 44.3926 51.9756 44.4206C52.1895 44.4316 52.3904 44.6985 52.5793 44.9054C52.1345 44.8784 51.8236 45.3042 51.3619 45.1653C51.2349 45.1273 51.042 45.3062 50.7652 45.4421C50.7732 45.4451 50.6422 45.3942 50.5063 45.3412C50.4953 45.3972 50.4753 45.4451 50.4863 45.4541C50.7951 45.704 51.108 45.9509 51.5378 46.2917C51.2789 46.3747 51.076 46.4406 50.8721 46.5056C50.8591 46.5356 50.8461 46.5646 50.8331 46.5946C51.2669 46.6855 51.6997 46.7795 52.1345 46.8664C52.2724 46.8934 52.4243 46.8764 52.5463 46.9314C52.5813 46.9474 52.5513 47.2373 52.5253 47.2413C52.3814 47.2643 52.2294 47.2383 52.0805 47.2273C52.0485 47.2253 52.0165 47.2153 51.9856 47.2093C51.5638 47.8899 50.8931 48.1708 50.0565 48.0179C50.1994 48.4237 51.142 48.6906 51.6287 48.4317C51.6497 48.5586 51.6687 48.6726 51.7037 48.8875C51.9616 48.7106 52.1655 48.5696 52.3714 48.4267C52.7752 48.6066 53.4299 48.2648 53.5828 48.8345C53.9126 48.9125 54.1905 48.9214 54.4074 49.0414C54.7522 49.2313 55.0561 49.4952 55.4099 49.753C55.3289 49.875 55.205 50.0629 55.0611 50.2808C55.3639 50.3617 55.4059 49.6761 55.6958 50.2028C55.7547 50.1658 55.8227 50.1379 55.8707 50.0899C56.1735 49.786 56.6343 49.823 56.6973 50.2308C56.7612 50.6456 57.0601 50.6106 57.27 50.7266C57.6268 50.9245 58.0146 50.9665 58.3585 50.6406C58.4424 50.8305 58.4644 50.9904 58.5554 51.0594C58.7163 51.1823 58.9172 51.3083 59.1051 51.3143C59.1961 51.3173 59.333 51.0624 59.382 50.9035C59.4459 50.6986 59.406 50.4497 59.7108 50.4147C59.6189 49.9839 59.8597 49.6581 60.1196 49.3283C60.2855 49.5162 60.6424 49.6191 60.5764 50.0399C60.5664 50.1019 60.6454 50.2388 60.6823 50.2378C61.1241 50.2348 61.1691 50.5956 61.1991 50.8715C61.2511 51.3493 61.7088 51.3713 61.9557 51.6201C62.0097 51.6741 62.2756 51.5442 62.4285 51.4662C62.5794 51.3892 62.7104 51.2733 62.8793 51.1534C62.8913 51.1694 62.8343 51.0924 62.6914 50.9015C63.2291 51.0364 63.6529 51.2563 64.0497 51.2153C64.6904 51.1494 65.2511 51.7531 65.9188 51.3733C66.0247 51.3133 66.3136 51.6141 66.4495 51.5642C66.9193 51.3883 67.4451 51.6581 67.9178 51.3313C68.0058 51.2703 68.4646 51.0404 68.7744 51.3073C68.8554 51.3773 69.0833 51.2633 69.2452 51.2553C69.605 51.2373 69.9658 51.2353 70.3257 51.2213C70.8664 51.2013 71.3981 51.2783 71.9329 51.3323C71.9899 51.3383 72.1288 51.0774 72.1308 50.9395C72.1338 50.7586 71.9769 50.5667 71.9978 50.3937C72.1328 49.3053 71.9569 48.3857 70.9623 47.699C70.4396 47.3382 70.0148 46.8135 69.615 46.3087C69.4381 46.0848 69.3701 45.729 69.3571 45.4291C69.3321 44.8154 69.3991 44.1977 69.3801 43.583C69.3751 43.4111 69.2092 43.2382 69.1033 43.0753C68.9083 42.7764 68.6945 42.4896 68.5095 42.1847C68.4746 42.1277 68.5125 41.9898 68.5635 41.9288C68.5965 41.8899 68.7184 41.9078 68.7944 41.9268C68.8544 41.9418 68.9313 41.9848 68.9553 42.0368C69.2642 42.6945 69.9269 42.6915 70.4936 42.8534C70.5985 42.8834 70.7485 42.7704 70.8734 42.7135C71.1583 42.5825 71.4401 42.4466 71.723 42.3117C71.768 42.3776 71.8129 42.4436 71.8579 42.5096C71.601 42.7424 71.3662 43.0083 71.0823 43.2012C70.6265 43.5131 70.1997 44.3647 70.3696 44.8804C70.4256 45.0493 70.7235 45.2552 70.9014 45.2472C72.3247 45.1853 73.748 45.0933 75.1683 44.9734C75.9289 44.9094 76.5117 45.3112 77.1044 45.652C77.4582 45.8549 77.6291 47.2802 77.4082 47.862C77.2183 47.5251 77.0624 47.2483 76.8825 46.9284C76.7745 47.3502 76.5876 47.754 76.6016 48.1498C76.6106 48.3967 76.8735 48.7195 77.1104 48.8555C77.5272 49.0944 77.6891 49.3692 77.6621 49.85C77.6331 50.3598 77.6801 50.8795 77.7441 51.3883C77.829 52.0629 78.1079 52.2818 78.7666 52.2988C79.1034 52.3078 79.4392 52.3538 79.7761 52.3568C79.893 52.3578 80.01 52.2818 80.1169 52.1819C80.4747 52.2378 80.8396 52.5807 81.2224 52.1329C81.2524 52.0979 81.3803 52.0909 81.4093 52.1219C82.002 52.7466 82.4078 52.2598 82.8796 51.848C82.8686 52.2688 82.9695 52.2828 83.3593 52.1549C83.8721 51.987 83.4183 52.4927 83.5283 52.5947C83.7751 52.5167 83.998 52.4457 84.2329 52.3708C84.2989 52.6746 84.1979 53.0285 84.6917 52.9385C84.8156 52.9155 84.9935 53.1854 85.1805 53.3513C85.2814 53.3173 85.4353 53.2653 85.6162 53.2044C85.6162 53.3103 85.6162 53.3943 85.6162 53.4712C85.8071 53.4373 85.9941 53.4033 86.2769 53.3533C86.189 53.6382 86.125 53.8441 86.052 54.0789C86.4508 54.1149 86.8976 54.0949 87.3034 54.2139C87.5763 54.2938 87.8202 54.5477 88.0111 54.7776C88.0641 54.8416 87.8841 55.1034 87.8022 55.2704C87.7822 55.3113 87.7152 55.3703 87.6912 55.3613C86.8806 55.0675 87.3634 55.7931 87.1905 55.999C87.1745 56.018 87.1885 56.062 87.1885 56.111C87.2734 56.091 87.3514 56.072 87.4294 56.053C87.4434 56.096 87.4583 56.1389 87.4723 56.1819C87.1435 56.2889 86.8147 56.3948 86.4558 56.5118C86.4868 56.3728 86.5208 56.2239 86.5538 56.076C86.5168 56.048 86.4798 56.02 86.4418 55.992C86.3689 56.116 86.2969 56.2399 86.2239 56.3638C86.192 56.3468 86.159 56.3309 86.127 56.3139C86.169 56.1669 86.211 56.021 86.2589 55.8551C85.8961 55.6672 85.7532 55.8121 85.7582 56.1959C85.6382 56.1819 85.5313 56.1699 85.4193 56.1579C85.4713 56.3548 85.5213 56.5408 85.5483 56.6417C85.1205 56.6417 84.7417 56.6417 84.2579 56.6417C84.2329 56.7407 84.1889 56.9086 84.127 57.1475C83.4123 57.0785 82.6087 56.9995 81.7591 56.9176C81.8161 56.7536 81.8551 56.6427 81.893 56.5338C81.5592 56.6127 81.2474 56.6857 80.9075 56.7666C80.9085 56.7776 80.9175 56.8636 80.9265 56.9536C80.5577 56.9536 80.2019 57.0225 79.92 56.6677C79.837 56.5637 79.5472 56.6437 79.3663 56.5907C79.2573 56.5587 79.1874 56.3788 79.0814 56.3578C78.7036 56.2829 78.3198 56.2359 77.936 56.2019C77.6371 56.1759 77.3303 56.2159 77.0354 56.1729C76.5277 56.099 76.0109 55.8571 75.5261 55.9151C74.9104 55.989 74.4137 55.4593 73.81 55.6962C73.2502 55.2014 72.6885 55.5412 72.1148 55.6672C71.9339 55.7072 71.716 55.5292 71.5131 55.5262C71.2762 55.5222 71.0383 55.6002 70.7135 55.6592C70.2847 55.2764 69.599 55.5282 68.9923 55.4253C68.3746 55.3203 67.7039 55.1254 67.0772 55.5802C66.9723 55.4073 66.8833 55.2604 66.7664 55.0685C66.6125 55.5152 66.4685 55.1844 66.3356 55.0925C66.2127 55.2074 66.1037 55.3103 65.9768 55.4283C65.8738 55.2454 65.7909 55.0995 65.7099 54.9555C65.59 54.9905 65.452 55.0305 65.2471 55.0895C65.3071 54.8746 65.3441 54.7386 65.405 54.5197C65.6149 54.6607 65.7889 54.7786 65.8808 54.8406C66.5455 54.7046 67.1492 54.5837 67.7499 54.4548C67.8948 54.4238 68.0348 54.3638 68.1757 54.3138C68.2667 54.2818 68.3636 54.2029 68.4446 54.2169C68.8354 54.2878 69.2212 54.3828 69.609 54.4698C69.636 54.3998 69.662 54.3298 69.689 54.2599C69.4201 54.1459 69.1602 53.995 68.8804 53.927C68.4146 53.8141 67.9358 53.7091 67.4611 53.7031C67.3311 53.7011 67.1812 53.8511 66.9493 53.8141C66.2666 53.7051 65.57 53.6831 64.8823 53.6022C64.8023 53.5932 64.7414 53.4273 64.6204 53.2643C64.5215 53.4742 64.4595 53.6072 64.3775 53.7801C63.8418 53.2463 63.5599 53.964 63.1292 54.027C62.7403 54.0829 62.3155 54.0889 62.0577 54.6487C62.0277 54.6837 61.6239 54.2019 61.7548 54.7806C61.299 54.5197 61.0562 54.6926 60.8583 55.0805C60.7713 55.2514 60.5804 55.3683 60.4085 55.5382C60.2635 55.3573 60.1656 55.2364 60.0526 55.0945C59.9697 55.1524 59.8557 55.1894 59.8168 55.2644C59.5759 55.7331 59.1921 55.961 58.6773 56.015C58.6073 56.022 58.4854 56.1569 58.4954 56.2129C58.5534 56.5338 58.6433 56.8486 58.7233 57.1655C58.7693 57.1684 58.8162 57.1704 58.8622 57.1734C58.8832 56.9366 58.9042 56.6997 58.9282 56.4368C59.402 56.3838 59.4389 56.8296 59.6298 57.1495C59.7008 56.9995 59.7608 56.8736 59.8208 56.7467C59.7788 56.7157 59.7368 56.6837 59.6948 56.6527C59.8527 56.6077 60.0117 56.5627 60.1636 56.5198C60.1986 56.5667 60.2226 56.5907 60.2376 56.6187C60.3655 56.8716 60.1156 57.3444 60.6174 57.3664C60.9202 57.3793 61.2331 57.2864 61.5329 57.2114C61.7558 57.1555 61.9627 57.0375 62.1856 56.9765C62.2646 56.9546 62.3665 57.0315 62.4595 57.0445C62.5424 57.0555 62.6964 57.0615 62.7054 57.0335C62.9033 56.4348 63.528 56.6477 63.9038 56.3958C63.9398 56.3718 64.0087 56.3698 64.0497 56.3858C64.3855 56.5218 64.7184 56.6647 65.0472 56.8046C65.2111 56.5657 65.2311 56.5707 65.432 56.7616C65.48 56.8076 65.582 56.8216 65.6549 56.8136C66.0597 56.7726 66.3896 56.9605 66.7534 57.0895C67.0512 57.1954 67.4301 57.0705 67.8219 57.0445C67.7439 56.8526 67.7039 56.7536 67.662 56.6497C67.7149 56.6427 67.7479 56.6287 67.7719 56.6377C67.9148 56.6897 68.0508 56.7686 68.1977 56.7996C68.4346 56.8496 68.6954 56.8286 68.9123 56.9186C69.0283 56.9665 69.0733 57.1844 69.1502 57.3254C69.2422 57.2224 69.3741 57.0745 69.5201 56.9106C69.661 56.9895 69.7999 57.0685 69.9578 57.1565C70.0198 57.0365 70.0698 56.9386 70.1128 56.8526C70.7025 57.1135 71.2752 57.3674 71.8309 57.6132C71.8309 57.5792 71.8309 57.4003 71.8309 57.3024C72.1828 57.1664 72.4746 57.0535 72.7725 56.9386C72.7725 56.9386 72.8125 56.9645 72.8115 56.9875C72.8015 57.1525 72.7825 57.3174 72.7675 57.4833C72.9964 57.4803 73.2392 57.5223 73.4481 57.4573C73.5641 57.4213 73.8599 57.2854 73.5991 57.0355C73.69 56.9685 73.793 56.8366 73.8709 56.8496C74.0509 56.8796 74.2188 56.9805 74.2967 57.0135C74.6925 56.8466 75.0244 56.7057 75.4282 56.5348C75.3802 56.7027 75.3442 56.8276 75.3062 56.9585C75.3202 56.9685 75.3532 57.0035 75.3652 56.9975C75.4912 56.9306 75.6141 56.8576 75.771 56.7666C75.785 56.8266 75.812 56.9446 75.858 57.1415C75.9189 56.9915 75.9539 56.9046 75.9689 56.8676C76.2688 56.8926 76.5566 56.9166 76.8445 56.9396C76.8505 56.8946 76.8575 56.8506 76.8635 56.8056C77.1104 56.9775 77.3572 57.1505 77.6021 57.3224C77.4292 57.4323 77.2723 57.5323 77.0784 57.6552C77.0694 57.5373 77.0624 57.4473 77.0564 57.3564C77.0214 57.3564 76.9864 57.3564 76.9524 57.3564C76.9524 57.6222 76.9524 57.8891 76.9524 58.149C76.2978 58.149 75.6841 58.149 75.0414 58.149C75.1033 58.3459 75.1453 58.4828 75.1913 58.6297C75.4512 58.6137 75.73 58.6207 75.9989 58.5748C76.2688 58.5288 76.4327 58.6287 76.6296 58.8027C76.7216 58.8846 76.9894 58.7687 77.1773 58.7427C77.1773 58.6917 77.1773 58.6397 77.1773 58.5888C77.4032 58.7647 77.6291 58.9396 77.848 59.1105C77.7081 59.4553 77.5801 59.7692 77.4532 60.082C77.3892 60.072 77.3243 60.061 77.2603 60.051C77.2603 59.7782 77.2603 59.5053 77.2603 59.2334C76.9794 59.3154 76.7585 59.3794 76.5456 59.4413C76.6986 59.6233 76.5946 59.8451 76.3198 59.8571C76.2258 59.8611 76.1318 59.7982 76.0349 59.7882C75.9369 59.7782 75.837 59.7952 75.6841 59.8032C75.84 59.8961 75.9539 59.9641 76.0659 60.0311C75.795 60.5708 75.5451 60.6707 75.2902 60.3429C75.1913 60.5608 75.0943 60.7737 74.9954 60.9916C74.8645 60.9106 74.7205 60.8077 74.5636 60.7287C74.4247 60.6588 74.2737 60.6148 74.0658 60.5358C74.0998 60.6648 74.1408 60.8207 74.1578 60.8846C73.9199 60.8187 73.6131 60.7887 73.3682 60.6488C73.1773 60.5408 73.0633 60.2969 72.9584 60.168C72.7275 60.184 72.5366 60.197 72.2917 60.213C72.4686 60.3709 72.6315 60.5178 72.7955 60.6648C72.7595 60.7177 72.7235 60.7717 72.6885 60.8247C72.4067 60.6608 72.1248 60.4978 71.8249 60.3239C71.2852 60.7877 70.6265 60.6008 69.9698 60.5258C69.619 60.4858 69.2612 60.5188 68.7834 60.5188C68.6485 60.3119 68.3886 60.221 68.0018 60.5138C67.8439 60.6328 67.538 60.5568 67.2681 60.5708C67.3421 60.3769 67.4051 60.213 67.476 60.0281C66.9073 59.9181 67.0562 60.25 67.1152 60.4519C66.2926 60.6188 65.483 60.8237 64.6604 60.9346C64.1417 61.0046 63.6919 61.2475 63.0982 61.1985C61.9637 61.1045 60.8053 61.3134 59.6548 61.3714C59.26 61.3914 58.8602 61.3334 58.4634 61.3104C58.3645 61.3044 58.2315 61.2485 58.1726 61.2924C57.5938 61.7292 56.8422 61.3964 56.2755 61.6943C55.8047 61.9421 55.5978 61.8302 55.4359 61.4764C54.7102 61.6683 54.0376 61.9351 53.3059 61.6973C53.23 61.6723 53.111 61.6243 53.103 61.5733C52.9721 60.7107 52.1935 61.0256 51.7167 60.8477C51.2429 60.6717 50.996 60.4039 51.2069 59.9411C51.102 59.8751 50.994 59.8072 50.8271 59.7022C51.017 59.5423 51.1859 59.3994 51.3319 59.2764C51.2349 59.1805 51.051 58.9986 50.9221 58.8716C51.142 58.6947 51.3019 58.5918 51.4298 58.4578C51.6997 58.175 52.1265 58.1959 52.6023 58.5288C52.6912 58.3899 52.7802 58.2519 52.8701 58.113C52.8312 58.115 52.7922 58.117 52.7532 58.119C52.7342 57.9391 52.7412 57.7502 52.6862 57.5822C52.6492 57.4683 52.5423 57.3554 52.4373 57.2904C52.2714 57.1874 52.0805 57.1255 51.8186 57.0105C51.7567 57.0265 51.5748 57.0745 51.3369 57.1375C51.3599 56.9755 51.3739 56.8726 51.3938 56.7317C50.6062 56.7836 51.2259 56.085 50.8951 55.8761C50.7122 56.004 50.5133 56.2299 50.2784 56.2779C50.1005 56.3149 49.8766 56.125 49.6477 56.025C48.9141 55.991 48.1554 55.8881 47.4148 55.3843C47.3798 55.5672 47.2958 55.7381 47.3288 55.8821C47.4088 56.2289 47.7886 56.128 47.9515 56.106C48.3483 56.053 48.6592 56.031 48.8531 56.4478C48.8751 56.4938 48.952 56.5148 49.05 56.5757C48.928 56.6287 48.8441 56.6657 48.7341 56.7137C48.961 57.0165 49.1489 56.8436 49.3328 56.6847C49.3468 56.6727 49.3149 56.6007 49.3259 56.5947C49.8176 56.3109 50.1674 56.7796 50.5932 56.8556C50.6352 56.8626 50.6432 57.1175 50.6492 57.2584C50.6542 57.3694 50.6332 57.4823 50.6232 57.5992C50.1385 57.6952 49.6287 57.7951 49.119 57.8961C49.1329 57.7552 49.2419 57.4073 48.7991 57.6792C48.7491 57.7102 48.6532 57.7162 48.6042 57.6882C47.8196 57.2404 46.943 57.6902 46.1344 57.4403C46.0105 57.4023 45.8365 57.5533 45.6796 57.5932C44.6931 57.8441 43.7346 57.5972 42.769 57.4223C42.761 57.3324 42.754 57.2404 42.744 57.1275C42.3982 57.2394 42.1084 57.2904 41.8715 56.9256C41.7875 56.7966 41.5116 56.7936 41.1968 56.6917C41.3357 56.5388 41.4227 56.3648 41.5566 56.3129C41.7435 56.2399 41.9834 56.3029 42.1693 56.2299C43.3498 55.7661 43.8015 55.7092 44.938 55.8961C45.1589 55.932 45.3898 55.9011 45.6456 55.9011C45.6676 55.8511 45.7176 55.7361 45.7696 55.6152C45.9795 55.7231 46.1654 55.8181 46.4772 55.978C46.3303 55.7431 46.2533 55.5822 46.1424 55.4503C45.9705 55.2454 45.5777 55.2474 45.5947 54.8636C45.2998 54.8696 45.0009 54.8476 44.7131 54.8955C44.6031 54.9135 44.5192 55.0915 44.4232 55.1954C44.3373 55.0315 44.2383 54.8736 44.1724 54.7016C44.1424 54.6227 44.1764 54.5187 44.1873 54.3098C43.7576 54.4078 43.3787 54.5027 42.9949 54.5767C42.913 54.5927 42.814 54.5047 42.7251 54.5097C42.5711 54.5197 42.4192 54.5647 42.2663 54.5957C42.2683 54.6407 42.2703 54.6867 42.2723 54.7316C42.1293 54.5687 41.9324 54.2429 41.8525 54.2689C41.1388 54.5047 40.5041 53.939 39.8215 54.1039C39.6036 54.1569 39.4097 54.4318 39.2148 54.4218C38.8309 54.4008 38.5841 54.6277 38.2762 54.7506C37.9344 54.8876 37.5636 54.9485 37.2117 55.0625C37.1658 55.0775 37.1598 55.2144 37.1668 55.1934C37.5496 55.3443 37.8794 55.4753 38.2242 55.6112C37.9864 55.937 37.7125 56.006 37.3387 55.8681C37.1707 55.8061 36.9549 55.8741 36.715 55.8861C36.5171 55.8431 36.2692 55.7291 36.0323 55.7481C35.3746 55.8021 34.7189 55.8911 34.0693 56.004C33.5365 56.096 33.0188 56.3039 32.485 56.3498C31.7554 56.4128 31.0107 56.3129 30.2851 56.3928C29.6074 56.4668 28.9457 56.6837 28.2111 56.8526C28.1651 56.6937 28.1131 56.5098 28.0362 56.2429C26.8398 56.1439 25.5564 56.032 24.272 55.934C23.8782 55.9041 23.4734 55.8521 23.0896 55.9111C22.5299 55.997 21.9751 56.02 21.4144 55.994C21.1175 55.98 20.7877 56.027 20.5308 55.9151C19.6692 55.5402 18.7597 55.5962 17.8651 55.5552C17.1215 55.5212 16.3718 55.6092 15.6282 55.5742C15.1085 55.5492 14.6537 55.6482 14.2089 55.9031C13.6272 56.2369 12.8655 55.998 12.4527 55.4143C12.3708 55.2974 12.1449 55.2814 11.965 55.2114C11.967 55.2024 11.977 55.1574 11.986 55.1124C11.995 55.0655 12.003 55.0185 12.005 55.0035C11.6381 54.9185 11.2853 54.8376 10.9095 54.7506C10.9245 54.6707 10.9425 54.5707 10.9435 54.5657C10.6646 54.5057 10.4097 54.4828 10.1808 54.3948C9.93396 54.2998 9.71007 54.1429 9.4432 53.995C9.41322 53.5462 9.859 53.6382 10.1269 53.5202C10.1858 53.4942 10.3318 53.5772 10.3458 53.5532C10.7016 52.9665 11.2933 53.2523 11.7711 53.1934C12.3368 53.1244 12.9195 53.1984 13.4952 53.1914C13.6032 53.1904 13.7101 53.1044 13.877 53.0325C13.7261 52.9295 13.5732 52.8735 13.5742 52.8186C13.5792 52.4008 13.3113 52.5827 13.1244 52.6007C12.9805 52.6147 12.8366 52.6676 12.6946 52.6606C12.6057 52.6556 12.5017 52.5107 12.4367 52.5307C11.895 52.7036 11.7411 52.6007 11.82 52.0199C11.6321 52.1459 11.4732 52.2518 11.2843 52.3778C11.2263 52.2208 11.1764 52.0869 11.1664 52.0609C10.8585 52.1549 10.5567 52.2468 10.1968 52.3568C10.1818 52.5927 9.97394 52.6786 9.61812 52.7206C9.22731 52.7666 8.72055 52.6257 8.48367 53.1424C8.47167 53.1684 8.36872 53.1524 8.30775 53.1554C8.30275 53.0504 8.29776 52.9455 8.29176 52.8196C8.15483 52.8685 8.0059 52.9215 7.84098 52.9795C7.84098 52.8785 7.84098 52.8066 7.84098 52.7366C7.54412 52.8745 7.25526 53.0095 6.91143 53.1694C6.93442 53.0115 6.94841 52.9135 6.9694 52.7636C6.66655 52.8655 6.3527 53.1704 6.25075 52.7996C5.98088 52.7706 5.77798 52.8006 5.62905 52.7246C4.99336 52.3998 4.32768 52.4667 3.65901 52.5247C3.54506 52.5347 3.43112 52.5457 3.34416 52.5537C3.31417 52.7046 3.28119 52.8705 3.24821 53.0364C3.10528 52.9015 2.95135 52.7756 2.82241 52.6286C2.73745 52.5317 2.70547 52.3878 2.61851 52.2928C2.42061 52.0749 2.33065 51.919 2.59952 51.6451C2.77244 51.4682 2.78543 51.1354 2.87039 50.8725C2.92436 50.8875 2.97934 50.9025 3.03331 50.9175C3.02631 50.9994 3.01832 51.0824 3.01332 51.1444C3.48809 51.3563 3.85391 51.2423 4.04982 50.8005C4.33768 50.9525 4.58456 51.1554 4.86042 51.2093C5.13829 51.2633 5.44414 51.1694 5.69902 51.1923C6.04485 51.2893 6.39168 51.3873 6.7705 51.4932C6.84746 51.3673 6.91943 51.2473 6.94441 51.2063C7.25926 51.1823 7.49015 51.1644 7.72204 51.1464C7.72104 51.1524 7.72004 51.1574 7.71904 51.1634C8.27677 51.0664 8.8345 50.9705 9.51217 50.8535C9.92597 51.1654 10.3598 51.1893 10.9775 50.8365C11.3133 51.0374 11.6501 51.2383 11.987 51.4402C12.01 51.4102 12.0319 51.3813 12.0549 51.3513C11.981 51.2713 11.907 51.1923 11.855 51.1364C12.2049 51.1274 12.1999 51.1294 12.3728 51.5502C12.3968 51.6091 12.5087 51.6331 12.5787 51.6731C12.5677 51.5912 12.5557 51.5092 12.5537 51.4942C12.9295 51.3803 13.3043 51.2663 13.7251 51.1394C13.7441 51.2933 13.7281 51.4352 13.7861 51.5362C13.8241 51.6031 13.966 51.6321 14.063 51.6391C14.1609 51.6451 14.3268 51.5562 14.3508 51.5902C14.4308 51.7001 14.4688 51.844 14.5027 51.981C14.5177 52.0409 14.4858 52.1139 14.4748 52.1809C14.5407 52.1549 14.6287 52.1469 14.6707 52.0999C14.8896 51.852 15.1045 51.839 15.3313 52.1269C15.5342 51.893 15.7591 51.7071 15.3663 51.4322C15.5153 51.4792 15.6642 51.5262 15.7501 51.5542C15.8981 51.3443 16.037 51.1474 16.1759 50.9515C16.2169 50.9515 16.2569 50.9525 16.2979 50.9525C16.3548 51.3863 16.5717 51.6131 16.9616 51.4372C17.1385 51.3573 17.3604 51.1394 17.3714 50.9715C17.4463 49.828 17.5313 48.6806 17.3873 47.4562C16.9146 47.5381 16.5218 47.6061 16.129 47.6741C16.085 47.6311 16.041 47.5891 15.997 47.5461C16.1649 47.4662 16.3329 47.3862 16.5458 47.2852C15.7791 47.0434 15.1075 46.8315 14.4368 46.6196C14.4428 46.5836 14.4488 46.5466 14.4548 46.5106C14.7156 46.4846 14.9765 46.4586 15.1404 46.4427C15.0825 46.1548 15.0595 45.8309 14.9475 45.5421C14.8296 45.2402 14.7816 44.7655 14.2269 44.9944C14.1819 45.0133 14.078 44.9604 14.037 44.9104C13.8141 44.6435 13.6032 44.3667 13.4403 43.9918C13.7071 44.0588 13.973 44.1268 14.2709 44.2017C14.2189 44.0418 14.1709 43.8949 14.1169 43.733C13.979 43.75 13.8591 43.7649 13.7151 43.7819C13.7151 43.4551 13.6931 43.1582 13.7271 42.8674C13.7381 42.7704 13.893 42.6895 13.982 42.6015C14.054 42.6795 14.1199 42.7634 14.1989 42.8334C14.3278 42.9483 14.4648 43.0543 14.5977 43.1652C14.6277 43.1293 14.6577 43.0943 14.6877 43.0583C14.5337 42.9224 14.3798 42.7864 14.2259 42.6515C14.2579 42.6135 14.2889 42.5765 14.3208 42.5385C14.4158 42.6205 14.5107 42.7025 14.5047 42.6965C14.9185 42.6775 15.2244 42.6645 15.6322 42.6465C15.3613 42.3286 15.1055 42.0268 14.8496 41.7259C14.8306 41.7619 14.8116 41.7969 14.7926 41.8329C14.6057 41.7429 14.4218 41.645 14.2309 41.565C14.0929 41.507 13.945 41.4721 13.7361 41.4071C13.7361 41.3461 13.7361 41.2082 13.7361 41.0463C13.5742 40.9813 13.4103 40.9163 13.2444 40.8494C13.4373 40.5485 13.992 40.7214 14.1389 40.2097C14.6417 40.2876 15.2774 40.3866 15.9141 40.4855C15.9331 40.4556 15.952 40.4256 15.971 40.3956C15.3843 39.9038 14.7966 39.4111 14.2099 38.9193C14.2259 38.8743 14.2419 38.8283 14.2579 38.7834C14.9605 38.8583 15.6632 38.9333 16.3648 39.0083C16.3678 38.9913 16.3708 38.9733 16.3738 38.9563C16.3109 38.9263 16.2189 38.9133 16.1889 38.8643C15.9131 38.4025 15.5932 38.0197 15.0395 37.8468C14.8656 37.7918 14.7676 37.493 14.5917 37.2441C14.7186 37.2631 14.7836 37.2721 14.8946 37.2891C14.8326 37.1462 14.7806 37.0272 14.6917 36.8203C15.3813 37.1032 15.99 37.0132 16.5667 36.5954C16.4418 36.3126 16.4758 35.8778 15.8471 35.9727C15.6192 36.0077 15.3064 35.6569 15.0725 35.44C14.7186 35.1131 14.3988 34.7483 14.065 34.3995C14.0839 34.3545 14.1029 34.3095 14.1219 34.2646C14.8366 34.4265 15.5522 34.5884 16.3828 34.7753C16.5528 34.6164 16.8476 34.3405 17.1435 34.0637C17.0965 34.0197 17.0505 33.9767 17.0035 33.9327C16.9306 34.0357 16.8576 34.1396 16.8016 34.2186C16.019 34.3595 16.116 33.5379 15.6812 33.1681C16.1519 33.0641 16.6137 32.9622 17.1375 32.8462C17.1415 32.7783 17.1505 32.6274 17.1585 32.4924C16.8696 32.5414 16.5977 32.5884 16.2759 32.6433C16.3868 32.2485 16.3429 32.0376 15.943 31.9797C15.8041 31.9597 15.6982 31.7158 15.5103 31.4969C16.011 31.4969 16.4038 31.5379 16.7816 31.4809C16.9995 31.4479 17.1934 31.256 17.5613 31.0391C17.2814 30.9252 17.1255 30.8742 16.9815 30.7992C16.7926 30.7003 16.6137 30.5833 16.4308 30.4734C16.4418 30.4154 16.4538 30.3565 16.4648 30.2985C16.6687 30.2435 16.8716 30.1895 17.1285 30.1196C17.3424 29.8237 17.0805 29.262 17.5673 28.9701C17.6202 28.9391 17.5073 28.6093 17.4513 28.4244C17.3474 28.0746 17.5643 27.7287 17.9561 27.7247C17.9421 27.9346 17.9321 28.1425 17.9131 28.3494C17.9001 28.4914 17.8751 28.6313 17.8551 28.7722C18.012 28.7722 18.169 28.7722 18.3189 28.7722C18.2489 29.169 18.17 29.6118 18.093 30.0466C18.3079 30.0906 18.5268 30.1346 18.8157 30.1925C18.3919 30.4724 18.4099 30.6513 18.8566 30.7403C18.6707 30.9821 18.4968 31.21 18.2459 31.5369C18.5658 31.5109 18.8177 31.4899 19.0056 31.4739C18.9386 31.8707 18.8756 32.2465 18.7947 32.7323C19.1965 32.5904 19.5203 32.4754 19.9161 32.3355C19.9491 32.6913 19.9701 32.9162 19.9921 33.1571C19.2824 32.9552 19.3484 33.8298 18.8656 33.9497C18.8486 33.9537 18.9026 34.2436 18.9166 34.3455C19.8951 34.3455 20.7817 34.3455 21.7112 34.3455C21.4574 34.7673 20.9026 34.7123 20.8657 35.2601C20.8567 35.392 20.4169 35.479 20.194 35.6169C20.0391 35.7129 19.9151 35.8598 19.8252 36.0597C20.5298 35.7958 21.1565 35.8058 21.6983 36.2206C21.2815 36.6774 20.8607 37.1382 20.3769 37.6679C21.0556 37.7559 21.6443 38.2256 22.185 37.522C22.4549 37.6609 22.5848 37.8058 22.297 38.1027C22.147 38.2576 22.1211 38.5945 21.9581 38.6644C21.5014 38.8633 21.1615 39.1252 20.9166 39.571C20.8657 39.6639 20.4589 39.562 20.194 39.549C20.3469 39.8578 20.8437 40.0837 20.4599 40.5245C21.1735 40.3246 21.8682 40.1307 22.6898 39.9018C22.6128 40.3776 22.6488 40.7574 22.277 40.8584C21.6663 41.0243 21.3874 41.626 20.8377 41.8569C20.7867 41.8779 20.7907 42.0288 20.7777 42.0838C21.5373 42.0368 22.28 41.9908 23.0246 41.9448C23.0326 42.6395 22.7757 42.9733 22.0901 43.0973C21.3944 43.2232 21.1125 43.8009 20.6738 44.2087C21.0506 44.3097 21.3774 44.4716 21.7003 44.4636C22.0041 44.4556 22.304 44.2687 22.6158 44.1568C22.4949 45.0703 21.7023 44.9814 21.1775 45.2452C20.7837 45.4431 20.3259 45.5131 19.8262 45.66C20.3539 46.1978 20.9116 45.3292 21.3774 45.789C21.1455 46.0039 20.8487 46.1948 20.9796 46.6036C20.9876 46.6286 20.7557 46.7855 20.6348 46.7865C20.262 46.7905 20.0381 46.8744 19.9361 47.3052C19.8172 47.803 19.4593 47.799 18.9586 47.2653C18.9236 47.4831 18.8726 47.6441 18.8756 47.804C18.8896 48.3847 18.9396 48.9654 18.9406 49.5461C18.9416 49.869 18.8236 50.1958 18.8476 50.5137C18.8766 50.9015 18.9996 51.2823 19.1285 51.6551C19.4783 50.6646 19.9191 50.5726 20.7147 51.3423C21.0196 51.0494 21.3224 50.7596 21.6543 50.4417C21.7222 50.5047 21.8852 50.6546 22.0791 50.8335C22.1001 50.7536 22.144 50.5866 22.196 50.3897C22.3989 50.2568 22.6498 50.0939 22.9297 49.91C23.0126 50.0799 23.1056 50.2718 23.2465 50.5607C23.3385 50.5047 23.4864 50.3408 23.6283 50.3458C23.8072 50.3528 23.9801 50.4987 24.1471 50.5796C24.324 50.4527 24.5399 50.2968 24.7698 50.1299C24.8008 50.1978 24.8477 50.2988 24.8527 50.3108C25.1696 50.1658 25.4684 50.0289 25.7673 49.892C25.8243 50.0289 25.8812 50.1658 25.9552 50.3428C26.0911 50.3158 26.365 50.1968 26.256 50.5976C26.7258 50.5517 27.1456 50.5007 27.5674 50.4787C27.6514 50.4747 27.7353 50.6056 27.8303 50.6296C27.9632 50.6636 28.1471 50.7156 28.2351 50.6536C28.381 50.5507 28.5919 50.2638 28.5619 50.2268C28.2361 49.824 28.7738 49.6541 28.8108 49.3283C28.8568 49.4162 28.9557 49.5152 28.9397 49.5901C28.8578 49.9779 29.0717 50.2588 29.4345 50.1119C29.5774 50.0539 30.446 50.2778 29.8893 49.5421C29.8483 49.4882 30.0352 49.2613 30.1192 49.1094C30.0592 49.0874 29.9722 49.0554 29.8633 49.0164C30.0012 48.7665 30.1312 48.5306 30.2491 48.3157C30.391 48.4277 30.498 48.5106 30.6039 48.5946C30.6419 48.4927 30.6809 48.3907 30.7209 48.2858C30.8568 48.2728 31.0197 48.2578 31.1827 48.2418C31.1956 48.1928 31.2086 48.1448 31.2216 48.0958C30.7838 47.833 30.3461 47.5701 29.8543 47.2752C30.0242 47.0633 30.1701 46.8804 30.3431 46.6655C29.7653 46.5366 29.1586 47.2952 28.6839 46.5366C28.7778 46.4077 28.8708 46.2807 29.0587 46.0239C28.7169 46.1408 28.5139 46.2098 28.2821 46.2897C28.7668 46.7865 28.493 47.1683 28.1091 47.5881C27.9922 47.3932 27.8823 47.2083 27.7553 46.9974C27.6134 47.0244 27.4585 47.0534 27.2895 47.0853C27.0187 46.6136 27.4585 46.3577 27.5554 46.1248C27.2536 45.667 26.9937 45.2732 26.6858 44.8064C26.5439 44.8454 26.333 44.9034 26.0501 44.9804C26.0082 44.7575 25.9652 44.5276 25.9262 44.3207C26.1531 44.2017 26.341 44.1028 26.5599 43.9868C26.8298 44.3986 27.1426 44.4706 27.5424 44.0668C27.6084 43.9998 27.9162 44.1498 28.1001 44.2297C28.2321 44.2867 28.354 44.4796 28.46 44.4646C29.1007 44.3777 29.3855 44.9734 30.0432 45.1893C30.3221 44.9624 30.6759 44.6505 31.0567 44.3757C31.2156 44.2607 31.4305 44.2237 31.6574 44.2197C32.2092 43.9189 32.3601 43.0413 33.2536 43.2012C33.3356 42.8944 33.6215 42.5695 33.0967 42.5295C32.8458 42.6075 32.599 42.7304 32.3441 42.7514C31.9473 42.7844 31.9443 42.7544 31.7674 43.1123C31.6074 42.9513 31.4585 42.8014 31.3066 42.6495C30.9847 42.8914 30.9798 42.9583 31.2726 43.2892C31.1497 43.3531 31.0237 43.4191 30.8048 43.5331C30.8708 43.1642 30.9308 42.8294 31.0137 42.3716C30.7848 42.3216 30.486 42.2407 30.1831 42.1927C29.6444 42.1068 29.6274 41.574 29.3635 41.2552C29.2756 41.1492 29.2626 40.9803 29.1986 40.7914C28.9647 40.8953 28.7498 41.0283 28.5169 41.0822C28.349 41.1212 28.0302 41.1092 27.9962 41.0293C27.8723 40.7334 27.5664 40.4715 27.7633 40.0767C27.8873 39.8289 28.0192 39.7829 28.2751 39.8548C28.464 39.9078 28.7798 39.6879 28.7019 40.0957C29.1886 40.0458 29.7284 40.1407 30.0502 39.9188C30.47 39.63 30.9418 39.8099 31.2496 39.6399C31.8483 39.3091 32.481 39.6969 33.0328 39.3771C33.1877 39.2871 33.4026 39.2701 33.5175 39.1502C33.6045 39.0592 33.5765 38.8583 33.6005 38.7074C33.4625 38.6934 33.3166 38.6444 33.1867 38.6704C32.3881 38.8333 31.5995 39.0552 30.7948 39.1732C30.2401 39.2541 30.1911 39.1442 30.2741 38.4845C30.507 38.5005 30.7459 38.5155 31.0367 38.5355C31.0367 38.2806 31.0367 38.0277 31.0367 37.7938C31.5765 37.511 32.0642 37.1622 32.607 37.0022C33.0438 36.8733 33.3056 36.6634 33.5385 36.1406C32.629 36.2036 31.7774 36.2636 30.9268 36.3226C30.9138 36.2676 30.8998 36.2116 30.8868 36.1566C31.0687 36.0437 31.2506 35.9307 31.4325 35.8168C31.4375 35.7768 31.4425 35.7378 31.4485 35.6979C31.1077 35.6569 30.7669 35.6049 30.425 35.5769C29.7923 35.5259 29.1117 35.6179 28.6329 34.8773C28.8268 34.8513 28.9547 34.8203 29.0827 34.8193C29.5724 34.8173 30.0722 34.8923 30.549 34.8153C31.4035 34.6764 32.1732 34.6864 33.0008 35.0952C33.3616 35.2741 34.0193 34.9402 34.504 34.7443C34.7349 34.6514 34.8759 34.3365 35.0798 34.0966C34.9588 33.9917 34.8399 33.8877 34.688 33.7558C34.3391 34.0557 33.9923 34.3555 33.5735 34.7163C33.4805 33.9187 34.0093 33.8328 34.501 33.6029C33.7954 33.5869 33.3176 33.276 32.8389 32.8303C33.2287 32.7543 33.5185 32.6973 33.8094 32.6403C33.8054 32.6014 33.8024 32.5624 33.7984 32.5234C33.2367 32.4764 32.6749 32.4304 32.1132 32.3835C32.0992 32.3495 32.0852 32.3165 32.0702 32.2825C32.2601 32.1916 32.442 32.0716 32.6419 32.0156C33.2257 31.8517 33.3026 31.6738 32.9818 31.1421C32.9048 31.0151 32.8418 30.8752 32.7449 30.7673C32.443 30.4294 32.6659 30.1575 32.8868 29.9477C33.0797 29.7637 33.3576 29.6678 33.7084 29.4719C33.5255 29.316 33.4036 29.135 33.2427 29.0901C32.8608 28.9821 32.46 28.9411 32.0692 28.8652C31.9023 28.8332 31.7394 28.7802 31.5745 28.7362C31.5695 28.6653 31.5655 28.5943 31.5605 28.5233C32.0792 28.4154 32.595 28.2605 33.1187 28.2145C33.4685 28.1835 33.6225 28.1035 33.5335 27.7517C33.7894 27.6887 34.0283 27.6308 34.2672 27.5718C33.7184 27.3209 33.6315 26.9361 33.9993 26.5153C34.1902 26.2964 34.3311 26.0345 34.4601 25.8416C34.2532 25.4438 33.9773 25.115 33.9323 24.7562C33.9023 24.5133 34.1622 24.1974 34.3621 23.9765C34.4631 23.8656 34.7189 23.8956 34.9948 23.8446C35.0698 23.7037 35.2077 23.4478 35.3716 23.14C34.9768 22.965 34.577 22.7881 34.1222 22.5872C34.3561 22.2724 34.566 21.9905 34.7759 21.7086L34.7649 21.6987C34.7329 21.8176 34.7009 21.9355 34.661 22.0845C34.8189 22.0005 34.9388 21.9375 35.0968 21.8536C35.1307 22.0065 35.1537 22.1075 35.1827 22.2384C35.5885 22.0685 35.9773 21.9105 36.3601 21.7396C36.4071 21.7186 36.4591 21.6147 36.4441 21.5747C36.4191 21.5087 36.3461 21.4278 36.2822 21.4178C36.1622 21.3988 36.0353 21.4248 35.8804 21.4338C36.1173 21.1699 36.3342 20.929 36.4931 20.7511C36.4431 20.4792 36.4071 20.2853 36.3721 20.0914L36.3661 20.1024ZM73.1443 58.2239C72.7945 58.048 72.4456 57.8721 72.1558 57.7262C72.0608 57.9291 71.9649 58.132 71.8339 58.4108C72.1468 58.5138 72.4516 58.6137 72.6585 58.6817C72.8674 58.4848 73.0064 58.3549 73.1453 58.2239C72.9574 58.7167 73.4581 58.6727 73.642 58.9336C73.819 58.7147 73.9609 58.5388 74.0509 58.4268C74.3587 58.4268 74.6126 58.4268 74.8725 58.4268C74.6706 57.9661 73.744 57.8591 73.1443 58.2239ZM72.5366 48.1908C72.5366 49.2093 72.5366 50.2738 72.5366 51.5072C72.9984 51.1074 73.4861 51.823 73.84 51.2193C73.9349 51.2653 74.0299 51.3493 74.1278 51.3523C74.4906 51.3633 74.9244 51.3653 75.1883 51.4872C75.6101 51.6831 75.9569 51.95 76.4577 51.809C76.5426 51.7851 76.6756 51.945 76.7665 51.926C76.9624 51.885 77.2893 51.811 77.3113 51.7001C77.4482 51.0174 77.2753 50.3787 76.9215 49.761C76.8515 49.825 76.8115 49.843 76.8065 49.868C76.7216 50.3068 76.6436 50.7476 76.5596 51.1863C76.4887 51.5532 76.1998 51.7101 75.776 51.5832C76.4197 51.0764 76.3867 50.3737 76.3517 49.6811C76.3437 49.5312 76.2748 49.3362 76.1648 49.2483C75.74 48.9045 75.2922 48.5866 74.8405 48.2778C74.7425 48.2108 74.5946 48.1958 74.4687 48.1938C73.8619 48.1868 73.2562 48.1908 72.5366 48.1908ZM40.0803 45.9719C40.0803 45.2842 40.0803 44.7205 40.0803 44.0958C40.1043 44.0688 40.2113 43.9728 40.2832 43.8559C40.4452 43.59 40.5081 43.3432 40.9239 43.679C41.4867 44.1338 41.7745 44.0048 42.1084 43.3561C42.1653 43.2462 42.2213 43.1353 42.3053 42.9723C41.9035 43.0193 41.5616 43.0593 41.2198 43.0993C41.2158 43.0723 41.2118 43.0453 41.2088 43.0183C41.9924 42.5905 42.775 42.1617 43.5616 41.7319C43.6396 41.8789 43.6986 41.9898 43.8035 42.1897C44.0814 41.9818 44.3213 41.8029 44.5612 41.624C44.5342 41.582 44.5062 41.539 44.4792 41.497C44.6331 41.531 44.7871 41.565 44.973 41.606C44.96 41.3411 44.95 41.1202 44.937 40.8694C44.801 40.8903 44.6461 40.8664 44.5872 40.9313C44.2793 41.2682 43.9565 41.2282 43.5946 41.0433C43.5337 41.0123 43.3917 41.0633 43.3308 41.1222C43.0639 41.3791 42.773 41.4011 42.4222 41.3271C42.1823 41.2762 41.9015 41.0103 41.6506 41.3481C41.6426 41.3591 41.4287 41.2142 41.3077 41.1472C41.2688 41.1252 41.2198 41.1212 41.1738 41.1082C41.0759 41.2242 40.9839 41.3321 40.8919 41.4391C40.875 41.3901 40.857 41.3411 40.84 41.2931C40.4831 41.3671 40.1263 41.4411 39.8994 41.4881C40.0034 42.0298 40.1103 42.4776 40.1713 42.9324C40.2163 43.2662 40.0384 43.4661 39.7175 43.607C39.4596 43.721 39.2517 43.9489 39.1278 44.0448C39.4686 44.7385 39.7455 45.2972 40.0803 45.9719ZM70.9244 57.3024C70.8114 57.5723 70.7425 57.7742 70.6435 57.9611C70.4806 58.2699 70.5845 58.4088 70.9064 58.4728C71.1153 58.5148 71.3152 58.6038 71.5321 58.6757C71.9929 57.9651 71.1702 57.8091 70.9244 57.3024ZM16.07 45.8349C16.4948 46.0598 16.8816 46.2647 17.3843 46.5316C16.8976 45.6111 16.7077 45.5251 16.07 45.8349ZM69.4911 58.6287C69.706 58.4098 69.8699 58.2429 70.0348 58.075C70.0078 58.018 69.9808 57.9611 69.9528 57.9051C69.724 57.9211 69.4941 57.9381 69.1852 57.9601C69.3172 58.2499 69.3971 58.4258 69.4911 58.6287ZM64.2126 52.6157C64.1856 52.6576 64.1587 52.7006 64.1317 52.7426C64.3446 52.8705 64.5565 52.9985 64.8583 53.1794C64.8423 52.9265 64.8593 52.8226 64.8253 52.7406C64.7684 52.6017 64.6784 52.4767 64.6014 52.3458C64.5605 52.3728 64.5205 52.3998 64.4795 52.4277C64.4905 52.5147 64.5015 52.6007 64.5145 52.7106C64.3935 52.6736 64.3026 52.6446 64.2126 52.6157Z" fill="#55A6D3"/>
<path d="M34.7806 21.7068C34.9895 21.1141 35.2224 20.5284 35.3973 19.9247C35.4933 19.5918 35.6022 19.22 35.1734 18.9641C35.0085 18.8652 34.9116 18.6523 34.7656 18.4684C35.0035 18.1885 35.2284 17.9247 35.4673 17.6448C35.3513 17.5139 35.2334 17.3819 35.0105 17.132C35.2774 17.0841 35.5772 16.9791 35.6092 17.0341C35.8531 17.4439 36.07 17.8757 36.2419 18.3205C36.3139 18.5064 36.2539 18.7433 36.2539 19.0481C36.063 19.232 35.7122 19.4979 36.3069 19.8247C36.3608 19.8547 36.3479 20.0076 36.3668 20.1036L36.3798 20.0896C36.1679 20.4314 36.02 20.9712 35.7282 21.0671C35.3164 21.2011 35.0285 21.392 34.7716 21.6978L34.7806 21.7068Z" fill="#55A6D3"/>
<path d="M47.6929 60.109C48.0337 59.7922 48.2736 59.5703 48.4995 59.3594C49.0882 59.6683 49.6009 59.3214 50.1617 59.2375C50.1247 59.3114 50.0817 59.3964 50.0317 59.4953C50.2686 59.3854 50.4925 59.2814 50.7844 59.1455C50.7104 59.3854 50.6584 59.5563 50.6165 59.6932C50.3466 59.7402 50.0537 59.7282 49.8298 59.8452C49.548 59.9931 49.3211 60.246 49.0712 60.4539C48.6574 60.7987 48.4625 60.7577 48.1247 60.3079C48.0517 60.211 47.8758 60.19 47.6929 60.109Z" fill="#55A6D3"/>
<path d="M84.9273 60.3839C84.8274 60.235 84.7274 60.0871 84.6035 59.9032C84.5205 60.147 84.4636 60.314 84.3866 60.5428C84.2697 60.3739 84.1667 60.226 84.0538 60.0631C83.9248 60.203 83.8499 60.283 83.8059 60.3309C83.6859 60.196 83.568 60.0641 83.4401 59.9201C83.3751 60.0691 83.3271 60.224 83.3041 60.221C83.1192 60.192 82.8473 60.19 82.7754 60.0731C82.5955 59.7832 82.9563 59.2795 83.3041 59.2555C83.52 59.2405 83.7339 59.1995 83.9488 59.1705C83.9798 59.1155 84.0098 59.0616 84.0408 59.0066C84.4006 59.4114 84.7594 59.8162 85.1192 60.221C85.0553 60.275 84.9913 60.3289 84.9273 60.3839Z" fill="#55A6D3"/>
<path d="M78.7474 60.0092C78.4155 59.8693 78.1277 59.7483 77.9258 59.6634C77.9828 59.3315 78.0347 59.0267 78.0977 58.6619C78.2986 58.7938 78.4835 58.9147 78.6354 59.0147C78.5475 59.2636 78.4825 59.4475 78.4185 59.6314C78.4555 59.6474 78.4925 59.6634 78.5295 59.6794C78.6254 59.4775 78.7214 59.2746 78.8163 59.0727C79.0542 59.2806 79.0542 59.2806 78.7474 60.0092Z" fill="#55A6D3"/>
<path d="M32.2261 34.3266C32.5319 34.1387 32.7788 33.9548 33.0547 33.8358C33.1376 33.8008 33.3785 33.9268 33.4045 34.0187C33.4395 34.1437 33.3835 34.3746 33.2856 34.4415C32.9657 34.6614 32.6189 34.6964 32.2261 34.3266Z" fill="#55A6D3"/>
<path d="M32.0287 32.3675C31.4929 32.2906 31.0531 32.2266 30.6133 32.1636C30.6124 32.1246 30.6114 32.0847 30.6104 32.0457C30.8402 31.9207 31.0691 31.7958 31.344 31.6459C31.5169 31.8288 31.7348 32.0577 32.0287 32.3675Z" fill="#55A6D3"/>
<path d="M79.229 58.8367C79.8747 59.0915 79.8707 59.1845 79.229 60.2C79.229 59.6913 79.229 59.2875 79.229 58.8367Z" fill="#55A6D3"/>
<path d="M77.905 59.7333C78.0759 59.9931 78.1889 60.1651 78.3188 60.362C78.003 60.362 77.7891 60.362 77.5122 60.362C77.6262 60.1791 77.7231 60.0241 77.905 59.7333Z" fill="#55A6D3"/>
<path d="M82.6479 60.0821C82.336 60.0251 82.1001 59.9831 81.8652 59.9402C81.8742 59.8952 81.8832 59.8512 81.8922 59.8062C82.0751 59.6963 82.258 59.5863 82.446 59.4734C82.5029 59.6443 82.5519 59.7932 82.6479 60.0821Z" fill="#55A6D3"/>
<path d="M64.2085 54.9886C64.4504 54.8707 64.6423 54.7757 64.9561 54.6228C64.8652 54.8077 64.8342 54.8697 64.7892 54.9606C64.8862 54.9776 64.9831 54.9946 65.0991 55.0146C65.0631 55.0476 65.0371 55.0826 65.0271 55.0786C64.7742 54.9686 64.4774 55.4894 64.2085 54.9886Z" fill="#55A6D3"/>
<path d="M71.5776 56.5569C71.4897 56.7038 71.4167 56.8637 71.3058 56.9907C71.2698 57.0316 71.0859 57.0196 71.0539 56.9737C70.9759 56.8617 70.9459 56.7148 71.0039 56.5279C71.0589 56.6068 71.1129 56.6868 71.1958 56.8057C71.2968 56.6868 71.3807 56.5878 71.4637 56.4889C71.5017 56.5109 71.5397 56.5339 71.5776 56.5569Z" fill="#55A6D3"/>
<path d="M66.9313 56.4369C67.1003 56.5338 67.2692 56.6298 67.4381 56.7267C67.3621 56.8217 67.2862 56.9167 67.2092 57.0106C67.0713 56.8797 66.9333 56.7487 66.7954 56.6178C66.8414 56.5568 66.8864 56.4969 66.9313 56.4369Z" fill="#55A6D3"/>
</svg>
