<svg width="91" height="91" viewBox="0 0 91 91" fill="none" xmlns="http://www.w3.org/2000/svg">
<circle cx="45.3824" cy="45.3824" r="43.7774" fill="#55A6D3" fill-opacity="0.2" stroke="#55A6D3" stroke-width="3.21"/>
<path d="M38.0188 85.5619C34.9733 85.0733 31.9245 84.5881 28.8791 84.0994C28.8722 84.0444 28.8653 83.9893 28.855 83.9377C31.312 84.0822 33.7689 84.2577 36.2294 84.3575C37.8192 84.4229 39.4159 84.3747 41.0091 84.3747C43.356 84.3747 45.7028 84.3747 48.0497 84.3747C48.0531 84.5812 48.0566 84.7911 48.06 84.9976C45.6306 85.1868 43.2011 85.3726 40.7717 85.5619C39.8529 85.5619 38.9341 85.5619 38.0188 85.5619Z" fill="#55A6D3"/>
<path d="M72.7154 80.4553C69.6115 80.3005 66.511 80.1456 63.3073 79.9839C64.405 83.1463 63.3176 84.7189 60.2103 84.8256C58.8923 84.8703 57.5744 84.8565 56.2564 84.9013C54.9453 84.946 53.6377 85.0286 52.3301 85.0974C52.2922 84.9391 52.2543 84.7774 52.2165 84.6191C54.1711 84.2302 56.1119 83.776 58.0802 83.4835C59.0885 83.3321 60.1483 83.5592 61.1669 83.4457C61.5799 83.4009 62.1064 82.9673 62.2681 82.5819C62.3851 82.2998 62.096 81.6081 61.7967 81.4395C61.019 80.999 60.1587 80.617 59.2846 80.4381C56.9377 79.9598 54.5737 79.5709 52.2027 79.2165C51.4216 79.0995 50.6095 79.1993 49.8146 79.1993C49.7733 79.4608 49.732 79.7258 49.6941 79.9873C51.9446 80.5276 54.1986 81.0678 56.4491 81.6081C56.4491 81.67 56.4525 81.732 56.4525 81.7974C55.7953 81.7974 55.1346 81.8077 54.4773 81.7974C50.9364 81.7354 47.3954 81.67 43.8511 81.6046C43.3383 81.5943 42.8015 81.67 42.3198 81.5427C35.7334 79.8256 28.9475 80.0699 22.251 79.4161C21.8759 79.3782 21.5249 79.0857 21.1636 78.9137C21.5077 78.6384 21.8725 78.1016 22.189 78.1291C23.8855 78.2771 25.5682 78.6315 27.2647 78.7726C28.242 78.8517 29.2399 78.604 30.2276 78.6005C31.3838 78.5971 32.5538 78.5936 33.6894 78.7829C34.8456 78.9756 35.9605 79.4023 37.0926 79.7258C37.1856 79.4849 37.275 79.2475 37.3679 79.0066C36.69 78.5799 35.9743 78.1945 35.3445 77.7058C35.028 77.4615 34.8628 77.0245 34.6288 76.6735C35.0039 76.467 35.3686 76.2193 35.7644 76.0678C35.9502 75.9956 36.2117 76.1539 36.4251 76.1195C37.0926 76.0093 37.7533 75.8579 38.4141 75.7237C37.9701 75.0734 37.6639 74.2268 37.0582 73.8105C35.9708 73.0637 34.5428 72.6336 36.2565 71.116C33.1112 66.1505 27.7981 64.4884 22.7431 62.4478C22.8738 62.1759 23.008 61.9006 23.1388 61.6288C24.4774 62.0624 25.9296 62.2929 27.134 62.9674C31.5662 65.445 35.4306 68.6281 38.593 72.6439C39.5015 73.7967 39.9591 75.0011 39.7251 76.4464C39.4877 77.9157 40.1931 79.0823 41.4182 79.4746C42.4884 79.8153 44.1539 79.9322 44.8903 79.3335C46.6728 77.8779 48.0527 75.9371 49.6184 74.2096C50.2826 73.4767 50.6852 72.2723 52.2303 72.6611C51.6762 73.4767 51.191 74.189 50.7058 74.9047C50.8263 75.0389 50.9502 75.1731 51.0706 75.3108C54.5083 74.0376 56.1669 69.9288 59.8318 69.0169C59.9453 69.1718 60.0623 69.3301 60.1759 69.4849C59.0437 70.414 57.9116 71.3431 56.4044 72.582C58.5344 72.8297 60.1346 73.0155 61.7382 73.2048C61.7794 73.37 61.8173 73.5317 61.8586 73.6969C61.3768 73.9274 60.9157 74.2784 60.4064 74.3645C59.5083 74.5193 58.5448 74.3851 57.6776 74.6226C57.0479 74.7946 56.0809 75.3383 56.0534 75.7685C56.0052 76.4911 56.3975 77.6611 56.9412 77.9157C58.1938 78.5007 59.6425 78.8655 61.0293 78.924C64.2915 79.0651 67.564 78.9378 70.8297 79.0135C71.5351 79.0307 72.2337 79.4436 72.9356 79.6707C72.8668 79.9288 72.7911 80.1903 72.7154 80.4553ZM50.2172 76.6632C50.0279 76.5014 49.8421 76.3431 49.6528 76.1814C48.8132 77.1518 47.977 78.1222 47.1374 79.0961C47.2647 79.2131 47.392 79.3266 47.5193 79.4436C48.4175 78.5179 49.3156 77.5888 50.2172 76.6632Z" fill="#55A6D3"/>
<path d="M42.1303 50.8477C41.7621 54.7741 41.5557 58.5352 40.9844 62.2379C40.7849 63.5318 39.842 64.8222 38.9404 65.8511C38.4621 66.3948 37.0994 66.8043 36.5626 66.5049C35.8055 66.0817 34.9659 64.9151 35.0244 64.1271C35.1276 62.6612 35.6163 61.0989 36.363 59.8222C38.1008 56.8319 40.0897 53.986 42.1303 50.8477ZM36.3217 63.7761C36.5041 63.8174 36.6899 63.8587 36.8723 63.9C37.4607 62.3377 38.0457 60.7754 38.6341 59.2166C38.4586 59.1546 38.2797 59.0927 38.1042 59.0273C37.5123 60.6103 36.917 62.1932 36.3217 63.7761Z" fill="#55A6D3"/>
<path d="M61.3117 46.0645C61.2326 46.5497 61.1431 47.0349 61.0709 47.5236C60.6338 50.4554 60.2175 53.3873 59.7495 56.3157C59.5877 57.324 59.395 58.346 59.0475 59.2992C58.6173 60.4795 57.7398 61.271 56.3978 60.8408C55.0867 60.421 54.4742 59.3783 54.808 58.0122C55.0489 57.0246 55.4171 56.0473 55.8713 55.1354C57.2409 52.3722 58.6724 49.6364 60.1039 46.9042C60.3 46.5291 60.6407 46.2331 60.9126 45.8994C61.0502 45.951 61.181 46.0095 61.3117 46.0645Z" fill="#55A6D3"/>
<path d="M64.2366 8.759C61.9173 15.2111 59.5945 21.6667 57.1513 28.4596C56.1809 26.2607 61.6283 10.5415 63.6895 8.55597C63.8719 8.62479 64.0543 8.69017 64.2366 8.759Z" fill="#55A6D3"/>
<path d="M67.7396 24.3371C66.0121 31.1128 64.2331 37.8746 61.8724 44.4575C61.5387 44.3543 61.2083 44.2511 60.8745 44.1478C62.9358 37.472 64.997 30.7996 67.0582 24.1238C67.2854 24.196 67.5125 24.2649 67.7396 24.3371Z" fill="#55A6D3"/>
<path d="M18.3937 80.8167C26.3015 80.9956 34.2402 80.6549 42.0585 82.2791C42.0482 82.4443 42.0378 82.6095 42.0275 82.7747C34.1404 82.2585 26.2533 81.7458 18.3696 81.2296C18.3765 81.0919 18.3868 80.9543 18.3937 80.8167Z" fill="#55A6D3"/>
<path d="M63.3552 20.397C61.0221 27.0832 58.689 33.7728 56.3594 40.4589C56.1185 40.3763 55.8776 40.2937 55.6333 40.2111C57.9217 33.5078 60.2066 26.8044 62.4949 20.1011C62.7806 20.2009 63.0696 20.2972 63.3552 20.397Z" fill="#55A6D3"/>
<path d="M43.7549 67.5304C44.9283 62.5407 46.057 57.5373 48.1355 52.8195C48.3695 52.8883 48.6 52.9571 48.834 53.0259C47.4094 57.933 45.9847 62.8401 44.5601 67.7472C44.2917 67.6749 44.0233 67.6026 43.7549 67.5304Z" fill="#55A6D3"/>
<path d="M54.7046 34.3061C53.4279 39.8773 51.5043 45.2283 49.3432 50.4967C49.1024 50.4141 48.8615 50.3315 48.6206 50.249C50.4719 44.8739 52.3233 39.4988 54.1746 34.1203C54.3467 34.1822 54.5256 34.2442 54.7046 34.3061Z" fill="#55A6D3"/>
<path d="M43.7993 30.772C45.6679 25.2559 47.5364 19.7431 49.4049 14.227C49.6906 14.3268 49.9762 14.4266 50.2618 14.5264C48.3313 20.0322 46.3974 25.538 44.4669 31.0439C44.2467 30.9544 44.023 30.8615 43.7993 30.772Z" fill="#55A6D3"/>
<path d="M52.3334 22.7988C51.7105 27.0762 49.8833 30.9612 48.3451 34.9392C48.1111 34.8635 47.8736 34.7878 47.6396 34.7121C48.9473 30.6515 50.2515 26.5944 51.5591 22.5339C51.8172 22.6233 52.0753 22.7128 52.3334 22.7988Z" fill="#55A6D3"/>
<path d="M43.4381 34.4472C42.0479 39.0928 40.6577 43.7383 39.2675 48.3873C38.5758 46.5876 41.7898 35.5553 43.4381 34.4472Z" fill="#55A6D3"/>
<path d="M42.5952 47.3378C43.9166 43.931 45.1348 40.7996 46.5009 37.2724C47.1582 39.633 44.3158 47.0212 42.5952 47.3378Z" fill="#55A6D3"/>
<path d="M21.2877 68.7383C23.8788 68.697 26.1294 69.7018 28.1596 71.3708C25.7921 70.7479 23.4281 70.1285 21.0605 69.5057C21.1363 69.251 21.212 68.9964 21.2877 68.7383Z" fill="#55A6D3"/>
<path d="M18.1528 60.3247C19.8493 59.1788 21.0365 59.5057 22.1927 61.443C20.7888 62.028 19.4536 61.6564 18.1528 60.3247Z" fill="#55A6D3"/>
<path d="M27.1509 56.9901C29.2809 56.147 30.5507 57.0796 31.8962 60.0872C30.1791 58.9688 28.8508 58.1016 27.1509 56.9901Z" fill="#55A6D3"/>
<path d="M30.8642 69.8429C29.5428 69.0239 28.2627 68.2255 26.8174 67.3308C28.6722 66.825 30.4375 68.0156 30.8642 69.8429Z" fill="#55A6D3"/>
<path d="M65.1722 63.4011C63.5377 64.017 61.9031 64.633 60.2686 65.249C60.1963 65.0838 60.124 64.9186 60.0483 64.7534C61.6657 64.0411 63.283 63.3254 64.9004 62.613C64.9933 62.8746 65.0827 63.1361 65.1722 63.4011Z" fill="#55A6D3"/>
<path d="M57.6776 67.5751C56.2495 68.3769 54.8214 69.1752 53.3933 69.977C53.3073 69.8531 53.2213 69.7258 53.1353 69.6019C54.5048 68.6866 55.8744 67.7747 57.2405 66.8593C57.3885 67.0968 57.533 67.3376 57.6776 67.5751Z" fill="#55A6D3"/>
<path d="M28.6755 73.6074C29.9693 74.0238 31.2666 74.4402 32.5605 74.8566C32.4882 75.0837 32.4125 75.3074 32.3403 75.5345C31.0395 75.1422 29.7353 74.7499 28.4346 74.3576C28.5137 74.1098 28.5929 73.8586 28.6755 73.6074Z" fill="#55A6D3"/>
</svg>
