<svg width="91" height="91" viewBox="0 0 91 91" fill="none" xmlns="http://www.w3.org/2000/svg">
<circle cx="45.3824" cy="45.3824" r="43.5787" fill="#55A6D3" fill-opacity="0.2" stroke="#55A6D3" stroke-width="3.60745"/>
<path d="M71.6816 43.8399C71.5894 45.161 71.5664 46.4429 71.3925 47.704C71.2542 48.7124 70.775 49.602 69.8904 50.1951C68.6854 51.0016 67.3653 50.787 66.5394 49.6666C65.6778 48.4978 65.8448 46.9067 66.9207 46.0425C67.1292 45.8752 67.3458 45.7194 67.5543 45.5164C63.7218 46.8998 60.0196 46.7879 56.5362 44.5841C56.4221 45.7021 56.3784 46.7925 56.1814 47.854C55.9833 48.9224 55.443 49.8247 54.4316 50.3635C53.3338 50.9497 52.1877 50.7131 51.4021 49.7301C50.6234 48.7551 50.5854 47.2679 51.3837 46.4417C51.7903 46.0206 52.296 45.6894 52.7798 45.3514C53.1945 45.0618 53.6437 44.8206 54.0549 44.5287C52.8109 44.9983 51.5553 45.4379 50.3308 45.956C50.0267 46.0852 49.817 46.4533 49.5809 46.7267C47.8749 48.6997 46.1735 50.6751 44.403 52.7277C45.8775 52.6262 47.2586 52.5304 48.6386 52.4358C49.1731 52.3988 49.7088 52.3423 50.2433 52.3354C50.4471 52.3331 50.719 52.3908 50.8353 52.5281C50.9148 52.6215 50.8261 52.9284 50.7294 53.09C49.9092 54.4538 49.0718 55.8072 48.2366 57.1629C44.0194 64.005 39.8011 70.8471 35.584 77.6892C35.5333 77.7712 35.5045 77.89 35.4319 77.9292C35.2649 78.0192 35.076 78.0723 34.8963 78.1404C34.8456 77.9454 34.7016 77.7169 34.758 77.5612C35.2499 76.2112 35.7752 74.8739 36.2935 73.5344C38.3416 68.2476 40.3898 62.9608 42.4379 57.6741C42.4851 57.5518 42.522 57.4272 42.6037 57.1872C41.5417 57.1872 40.5487 57.1941 39.5558 57.1849C38.9614 57.1791 38.367 57.1491 37.7737 57.1306C37.2012 57.1133 37.0872 56.9656 37.2899 56.4233C37.7726 55.1311 38.2714 53.8457 38.7644 52.5569C39.6203 50.322 40.4773 48.0882 41.3378 45.8429C40.5879 45.3525 39.8472 44.8668 39.1825 44.4318C39.0604 45.5798 39.0409 46.7925 38.769 47.9463C38.6031 48.6513 38.1504 49.3597 37.6459 49.8951C37.0077 50.5712 36.1265 50.8827 35.1727 50.5112C34.242 50.1489 33.7086 49.4324 33.514 48.4609C33.2698 47.2425 33.8215 46.3725 34.773 45.7148C35.3916 45.2879 36.0528 44.9245 36.6575 44.471C35.6934 44.8679 34.7477 45.3214 33.7605 45.6502C31.6859 46.3425 29.5594 46.6609 27.4652 45.8037C26.599 45.4483 25.8433 44.8206 25.0451 44.3072C24.8942 44.2103 24.7732 44.0649 24.658 43.9599C24.5728 45.0664 24.5555 46.1579 24.3873 47.2263C24.2168 48.3132 23.7273 49.2697 22.7332 49.8743C21.1309 50.8493 19.1668 49.8247 18.9883 47.9509C18.8789 46.8029 19.3592 45.9848 20.2589 45.3618C20.6332 45.1022 21.0306 44.8737 21.4903 44.5852C19.4755 44.8506 17.5588 44.8506 15.7963 43.938C14.9612 43.5053 14.126 42.948 13.5006 42.2569C11.5492 40.0992 12.4304 36.6909 14.4532 35.0167C16.1096 33.646 18.0541 33.1094 20.169 33.1487C20.5526 33.1556 20.715 33.0794 20.8728 32.7033C21.617 30.9322 22.679 29.3953 24.6396 28.8692C25.4805 28.6442 26.4112 28.7446 27.3017 28.7238C27.5597 28.718 27.7912 28.8484 27.9594 28.4896C28.8717 26.5489 30.4314 25.7562 32.536 25.9731C32.5913 25.9789 32.65 25.9616 32.7618 25.95C33.1258 23.467 34.4125 21.6521 36.8442 20.8329C38.8278 20.1648 41.2571 20.3079 43.0576 22.634C45.2647 18.1722 48.7711 16.2327 53.6506 17.428C56.9221 18.2299 60.2615 20.8664 60.5149 25.5589C62.8752 23.9343 65.2504 23.9874 67.5335 25.5716C69.8569 27.1835 70.54 29.4738 69.9906 32.0572C71.1851 32.2614 72.4223 32.3341 73.5707 32.6941C77.3778 33.886 79.2048 37.952 77.6485 41.5784C76.9217 43.2734 75.3781 44.1676 73.4302 44.013C72.8208 43.9645 72.2126 43.8941 71.6816 43.8399Z" fill="#55A6D3"/>
<path d="M36.2954 59.2525C36.224 60.6648 36.133 61.8509 35.5432 62.9274C34.8613 64.1735 33.4997 64.8208 32.3881 64.4354C30.5232 63.7881 29.9875 61.2659 31.4977 59.9979C32.2845 59.3379 33.2406 58.8856 34.0515 58.2499C34.5837 57.8333 34.988 57.2541 35.458 56.7545C35.5628 56.6426 35.7011 56.5607 35.8232 56.4649C35.898 56.608 36.0201 56.7441 36.0397 56.8941C36.1457 57.7503 36.2275 58.6098 36.2954 59.2525Z" fill="#55A6D3"/>
<path d="M30.1171 51.9707C30.0572 53.683 29.972 55.1402 28.9756 56.3448C27.9492 57.584 26.3446 57.7409 25.2952 56.7094C24.1571 55.5902 24.1744 53.8157 25.3735 52.7888C25.8055 52.4184 26.3112 52.1276 26.8042 51.8392C27.8075 51.2507 28.7198 50.5723 29.328 49.5489C29.3891 49.4473 29.5158 49.385 29.6126 49.3043C29.6978 49.4173 29.843 49.5235 29.8579 49.6458C29.9685 50.4985 30.0515 51.3569 30.1171 51.9707Z" fill="#55A6D3"/>
<path d="M62.6022 52.2016C62.5769 53.3911 62.4433 54.5461 61.9076 55.6191C61.4227 56.5884 60.6555 57.2345 59.5635 57.3476C58.4887 57.4595 57.7204 56.9033 57.2493 55.9745C56.7643 55.0169 56.7275 54.0269 57.4578 53.1765C57.8356 52.7358 58.3321 52.37 58.8332 52.07C59.9897 51.3766 61.1474 50.7062 61.8189 49.4601C61.8615 49.3805 62.0436 49.2836 62.0735 49.3078C62.1795 49.3909 62.3039 49.5155 62.32 49.6366C62.4283 50.4893 62.5112 51.3454 62.6022 52.2016Z" fill="#55A6D3"/>
<path d="M53.3311 59.5905C53.2148 60.2724 53.1284 61.3097 52.8485 62.2927C52.4879 63.5562 51.6413 64.4342 50.2808 64.6188C49.3086 64.7515 48.4044 64.1608 47.9286 63.2043C47.4195 62.1797 47.5255 61.0362 48.2995 60.2759C48.7292 59.8536 49.2579 59.5178 49.7786 59.2051C50.8384 58.5705 51.8509 57.8979 52.5006 56.7983C52.5639 56.6921 52.7298 56.6471 52.8473 56.5733C52.9199 56.6979 53.0397 56.8168 53.0558 56.9483C53.1503 57.7075 53.2182 58.4702 53.3311 59.5905Z" fill="#55A6D3"/>
</svg>
