<svg width="91" height="91" viewBox="0 0 91 91" fill="none" xmlns="http://www.w3.org/2000/svg">
<circle cx="45.3824" cy="45.3824" r="43.7774" fill="#55A6D3" fill-opacity="0.2" stroke="#55A6D3" stroke-width="3.21"/>
<path d="M60.0859 69.4662C61.228 68.4801 62.3701 67.4909 63.5123 66.5048C63.4343 66.3987 63.3531 66.2895 63.2751 66.1834C61.8272 66.7888 60.4167 67.5159 58.925 67.9777C51.8351 70.1746 44.7545 70.2526 37.6989 67.7499C37.2651 67.597 36.6597 67.65 36.2228 67.8279C31.9477 69.5848 27.7224 69.3227 23.4815 67.6968C22.9698 67.5003 22.2645 67.5003 21.7403 67.6812C17.8895 69.0012 13.9638 69.435 9.92265 68.9076C8.64322 68.7422 7.98166 68.271 8.12208 66.8137C8.26563 65.3252 8.15329 63.8086 8.15329 62.1048C13.2242 66.1054 17.93 65.9181 22.4268 61.3746C27.6569 64.8915 31.7916 64.6106 37.4399 60.2449C39.5275 63.4934 42.7729 64.0427 46.2586 63.9054C49.8348 63.7649 52.169 60.7723 51.4949 57.2866C50.9332 54.3845 47.8033 52.9709 44.5361 54.1723C43.8714 54.4157 43.2535 54.7746 42.3205 55.2208C43.0444 52.6931 44.9136 51.8412 46.8234 51.1328C48.8393 50.3839 50.8864 50.4619 52.9023 51.2826C54.9619 52.1221 55.9792 53.9008 56.8436 55.8387C56.9747 55.7638 57.1026 55.692 57.2337 55.6171C56.931 54.6716 56.6314 53.726 56.3381 52.8117C58.7378 53.13 59.8362 56.391 59.3026 61.8083C59.3869 61.8239 59.5335 61.8739 59.5491 61.8489C61.8802 57.8889 63.0317 53.7416 61.2342 49.2574C59.2527 44.3144 53.5857 43.4001 49.6226 45.9777C48.4274 46.7547 47.4569 47.8718 46.0183 48.755C46.5176 47.616 46.8141 46.3116 47.5724 45.3847C48.39 44.383 49.5508 43.5467 50.7273 42.9881C51.91 42.4264 53.2955 42.2985 54.9432 41.8959C51.4419 40.6883 48.3619 41.2219 45.2694 42.1893C42.102 43.1816 39.6867 44.9978 38.557 48.3524C38.3417 48.2276 38.1233 48.1059 37.908 47.9811C38.2325 46.9232 38.3604 45.7499 38.9097 44.8262C42.0334 39.568 46.7454 37.3243 52.8025 37.8423C54.1849 37.9609 55.4705 38.1013 56.8904 37.5271C58.5131 36.8718 60.3293 37.2806 61.8116 38.2761C63.4311 39.3652 64.9196 40.6415 66.4737 41.8273C66.7421 42.0333 67.0354 42.2954 67.3443 42.3422C70.5897 42.8415 71.9971 44.408 72.1032 47.8282C72.1875 50.5212 72.0502 53.1893 70.6272 55.6265C74.0692 52.69 74.4156 45.2069 71.2513 42.183C70.5304 41.4934 69.3945 41.0159 68.396 40.9067C67.466 40.8037 66.9324 40.5198 66.3676 39.8301C64.4952 37.5427 62.445 35.4301 59.1903 35.4551C58.0232 35.4644 56.8374 35.7266 55.6983 36.023C54.7684 36.2664 53.8978 36.7314 53.0022 37.0996C52.8805 36.981 52.7556 36.8593 52.6339 36.7408C53.3579 35.8951 53.929 34.7935 54.834 34.2599C56.9528 33.0086 59.1684 31.8508 61.4745 31.0145C62.5355 30.6307 63.971 31.3671 65.1069 31.08C66.1554 30.8179 66.9636 29.4511 67.9934 29.2919C71.8785 28.6866 74.9055 30.4809 77.4269 33.28C77.7015 33.5859 77.9324 33.9478 78.1072 34.3192C78.8561 35.9013 79.5052 37.2744 81.8176 37.1527C83.4746 37.0653 84.3359 38.713 85.0068 40.1984C85.272 40.785 85.7776 41.3186 86.2893 41.7274C88.6734 43.6247 89.3537 46.1618 89.1915 49.0577C88.92 53.9601 85.996 57.3553 82.6976 60.5414C82.4541 60.7785 82.1889 60.9907 82.1265 61.4807C83.1313 60.7473 84.1361 60.014 85.3001 59.1652C84.6542 61.359 83.1438 62.7289 81.5367 63.871C76.8184 67.2256 71.4323 68.8546 65.7466 69.5411C63.8805 69.7658 61.9894 69.797 60.1077 69.9187C60.0984 69.7658 60.0921 69.616 60.0859 69.4662ZM83.4621 47.4693C83.5151 47.0324 83.5807 46.7984 83.5651 46.5706C83.4246 44.5734 83.4246 42.5513 83.0627 40.5947C82.8099 39.2372 81.7021 38.6131 80.2042 38.9595C80.2947 40.111 80.379 41.1938 80.4632 42.2798C80.2978 42.3172 80.1293 42.3547 79.9639 42.3921C79.7424 41.9053 79.527 41.4185 79.3024 40.9348C78.3849 38.9657 77.6017 36.9155 76.5126 35.0494C75.1208 32.6684 72.8459 31.4233 70.1341 31.0956C69.0263 30.9615 67.8623 31.0114 67.1446 32.0162C67.9185 33.0585 68.6269 34.0134 69.3353 34.9683C67.3443 34.16 65.7497 32.7371 63.3999 32.7683C64.1301 33.6139 64.7324 34.3067 65.525 35.2242C63.5403 34.6312 61.9457 34.1569 60.348 33.6795C60.295 33.8199 60.2419 33.9603 60.192 34.1039C62.8101 34.6219 64.9072 35.8701 66.3114 38.1731C66.4581 38.4165 67.0354 38.5819 67.3537 38.5101C70.39 37.8392 72.6243 39.128 74.0255 41.6213C74.9741 43.3096 75.3673 45.3099 76.0601 47.3101C76.0601 46.1337 76.1599 44.9853 76.0414 43.8619C75.6669 40.3544 72.9395 38.7161 69.925 36.825C70.8831 36.825 71.3823 36.7439 71.8473 36.8375C75.2987 37.524 78.3007 40.7195 78.647 44.2645C78.8249 46.0806 78.6783 47.928 78.6783 49.7629C78.8748 49.8035 79.0714 49.844 79.2649 49.8846C79.68 48.3743 80.095 46.867 80.5288 45.2942C81.5741 46.3615 81.5741 47.7657 81.4774 49.1201C81.3807 50.4619 81.0717 51.7913 80.8564 53.1238C81.0062 53.2049 81.156 53.286 81.3058 53.3672C82.139 52.2687 82.9753 51.1703 83.9583 49.8753C84.1205 54.3127 82.3262 57.7141 79.4209 60.6756C83.6493 58.5754 87.9089 52.4872 87.2442 46.8108C87.0944 45.5252 86.9197 44.1896 85.6527 43.3033C85.2096 44.8449 85.2595 46.5113 83.4621 47.4693Z" fill="#55A6D3"/>
<path d="M36.8222 43.0068C36.2949 43.4999 35.73 43.9586 35.2463 44.4922C33.8733 46.0026 33.3397 47.7376 33.7672 49.7878C33.97 50.7615 33.9887 51.9379 32.6032 52.0222C31.252 52.1033 30.9556 51.0111 30.8994 49.9127C30.734 46.764 33.0619 43.9336 36.8222 43.0068Z" fill="#55A6D3"/>
<path d="M39.7461 38.2137C37.156 38.3915 35.602 40.0891 33.9106 41.6401C33.558 41.9646 32.5095 41.9958 32.1444 41.7056C31.7949 41.4279 31.6388 40.3825 31.8916 39.983C32.3534 39.2528 33.0961 38.4009 33.8669 38.2199C35.7049 37.7893 37.6272 37.7237 39.5152 37.5115C39.5932 37.7456 39.6681 37.9796 39.7461 38.2137Z" fill="#55A6D3"/>
<path d="M53.6265 33.9946C51.5607 34.8091 49.8724 35.5393 48.1374 36.1166C47.7161 36.2571 47.1294 35.8982 46.6177 35.7702C46.8112 35.2179 46.8517 34.3847 47.2324 34.1725C48.0126 33.7419 48.9737 33.4704 49.8631 33.461C51.0052 33.4517 52.1504 33.7668 53.6265 33.9946Z" fill="#55A6D3"/>
<path d="M37.4304 49.8659C37.8517 51.2546 38.3292 52.4341 38.5414 53.6605C38.6599 54.3502 38.5538 55.5859 38.1794 55.7544C37.109 56.235 36.488 55.3144 36.2165 54.3845C35.7204 52.6651 36.2945 51.1984 37.4304 49.8659Z" fill="#55A6D3"/>
<path d="M4.8623 60.3749L8.91431 62.6035C9.04937 63.2113 9.31951 64.5079 9.31951 64.8321C9.31951 65.2373 12.9663 66.8581 17.8287 66.2503C22.6911 65.6425 25.7301 67.4659 27.5535 67.4659C29.3769 67.4659 32.4159 67.0607 35.4549 66.8581C38.4939 66.6555 58.5513 66.2503 61.5903 65.0347C64.6293 63.8191 68.4787 66.0477 70.5047 66.2503C72.5307 66.4529 79.6217 63.8191 80.2295 63.2113C80.7158 62.725 86.3751 54.3644 89.144 50.2449C87.9959 54.1618 85.5377 62.5224 84.8893 64.6295C84.0789 67.2633 72.7333 78.6089 69.6943 81.8505C66.6553 85.0921 57.1331 89.1441 43.3563 89.1441C29.5795 89.1441 19.0443 80.6349 13.5741 76.1777C9.19795 72.6119 5.94284 64.1567 4.8623 60.3749Z" fill="#55A6D3"/>
</svg>
