<svg width="91" height="91" viewBox="0 0 91 91" fill="none" xmlns="http://www.w3.org/2000/svg">
<circle cx="45.3824" cy="45.3824" r="43.7774" fill="#55A6D3" fill-opacity="0.2" stroke="#55A6D3" stroke-width="3.21"/>
<path d="M6.88818 48.1359C8.77466 47.9845 10.6601 47.8288 12.5476 47.6828C16.1488 47.4036 19.7499 47.1255 23.3521 46.8539C25.9365 46.6595 28.5219 46.4802 31.1063 46.2891C34.2984 46.0529 37.4883 45.8006 40.6804 45.5762C42.8568 45.4237 45.0342 45.2863 47.2127 45.1811C50.16 45.0383 53.1084 44.9159 56.0567 44.8182C57.5942 44.7666 59.1403 44.7537 60.6338 45.2068C63.2955 46.0153 64.9168 47.7794 65.3452 50.5474C65.911 54.2097 62.0404 57.7389 58.5144 56.807C56.2951 56.2197 54.692 53.544 55.3427 51.5115C55.6992 50.396 56.8158 49.5521 58.0022 49.5005C59.2176 49.4479 60.1764 50.0223 60.621 51.0724C60.6457 51.1314 60.6542 51.1969 60.6446 51.2839C59.9886 50.3101 59.1049 49.8956 57.9646 50.1748C56.6021 50.5087 55.959 51.8648 56.5184 53.1575C57.6254 55.715 60.5404 56.05 62.3861 53.8318C64.2167 51.6318 63.3642 48.4322 60.5995 47.3746C59.7491 47.0493 58.7957 46.8496 57.8873 46.841C54.3291 46.8098 50.7709 46.8582 47.2127 46.9151C43.8166 46.9698 40.4216 47.0525 37.0266 47.1556C32.1864 47.3027 27.3473 47.4723 22.5082 47.6463C17.3953 47.8299 12.2824 48.0317 7.17056 48.2239C7.0836 48.2271 6.99555 48.2239 6.90751 48.2239C6.90107 48.196 6.89463 48.1659 6.88818 48.1359Z" fill="#55A6D3"/>
<path d="M36.841 40.7876C36.3857 41.7936 35.5343 42.178 34.5562 41.8956C33.5029 41.5918 32.8662 40.6555 33.0369 39.6194C33.2387 38.3889 33.869 37.4344 35.0415 36.9663C36.3428 36.4466 37.5496 36.8031 38.5986 37.6502C39.7786 38.6037 40.3702 39.8642 40.1265 41.3867C39.8527 43.0938 38.852 44.3028 37.2168 44.8579C36.419 45.1285 35.5429 45.2573 34.6968 45.2788C28.6197 45.4388 22.5416 45.5526 16.4634 45.6879C13.9263 45.7448 11.3902 45.8199 8.84668 45.7856C9.74536 45.7115 10.644 45.631 11.5438 45.5633C15.5723 45.2606 19.5997 44.9513 23.6292 44.6625C27.356 44.3952 31.0849 44.1579 34.8117 43.8916C35.6835 43.8293 36.5543 43.7241 37.3274 43.242C38.3012 42.6343 38.9196 41.4114 38.7543 40.3763C38.5739 39.2457 37.6301 38.23 36.5081 37.9605C35.1918 37.6449 33.7702 38.7926 33.811 40.1466C33.8304 40.7962 34.204 41.2042 34.772 41.4425C35.3657 41.6927 35.9262 41.6079 36.4244 41.1923C36.5468 41.0903 36.6542 40.9701 36.841 40.7876Z" fill="#55A6D3"/>
<path d="M19.875 49.3846C21.8914 49.304 23.9067 49.2052 25.9242 49.1473C31.1724 48.997 36.4216 48.8423 41.6709 48.736C43.3845 48.7017 45.1045 48.7575 46.8149 48.866C48.871 48.9959 50.4408 50.2779 51.0098 52.1579C51.8387 54.8947 49.205 57.8399 46.4714 57.2332C45.0047 56.9079 43.8795 55.3811 44.0298 53.8876C44.1103 53.0877 44.5623 52.5262 45.2978 52.233C46.0268 51.9421 46.7376 51.9958 47.3561 52.5337C47.4924 52.6518 47.5923 52.8139 47.6771 53.0018C47.0318 52.4832 46.3608 52.2867 45.6027 52.6926C44.8855 53.0759 44.6074 53.7448 44.893 54.4975C45.2227 55.3671 45.7853 56.0457 46.7634 56.1359C47.8865 56.2379 48.7207 55.6667 49.3156 54.7551C50.1777 53.4345 49.7064 51.6661 48.2956 50.8083C47.5032 50.3273 46.6206 50.2102 45.723 50.1662C37.4159 49.7571 29.1055 49.4608 20.7866 49.4941C20.4838 49.4951 20.181 49.4941 19.8782 49.4941C19.8771 49.4565 19.8761 49.4211 19.875 49.3846Z" fill="#55A6D3"/>
<path d="M41.5928 44.6733C46.9086 43.8197 51.9152 42.1136 56.5697 39.41C58.3251 38.39 59.9561 37.2015 61.2273 35.5866C62.1045 34.4732 62.651 33.2406 62.5469 31.7804C62.4578 30.5317 61.4174 29.7243 60.0602 29.8671C58.6623 30.0153 57.9139 30.9032 58.0954 32.2002C58.2027 32.9658 58.7106 33.4715 59.3784 33.479C60.0516 33.4865 60.655 32.9529 60.7817 32.2356C60.7989 32.1358 60.8075 32.0349 60.8376 31.7976C61.0115 32.8895 60.6175 33.581 59.7574 33.8773C58.935 34.1608 58.0385 33.8097 57.5983 33.0323C56.5299 31.148 57.7947 28.9545 60.0484 28.7837C62.5941 28.5905 64.1649 30.347 63.7516 32.9035C63.379 35.2119 61.9832 36.845 60.2299 38.2236C57.4909 40.3764 54.3192 41.6691 51.0391 42.7224C48.2969 43.6028 45.5074 44.2867 42.6407 44.6206C42.2928 44.6604 41.9417 44.6561 41.5928 44.6733Z" fill="#55A6D3"/>
<path d="M17.4748 51.6265C17.7003 51.7124 17.929 51.7918 18.1501 51.8852C21.7674 53.4185 25.5468 54.0326 29.4582 53.8479C31.5122 53.7513 33.5619 53.5709 35.6158 53.4915C37.1491 53.4324 38.6565 53.6321 40.0051 54.4546C41.9839 55.6635 42.4896 58.1738 41.111 59.8681C40.047 61.1769 38.1143 61.5688 36.8216 60.7389C35.9261 60.1634 35.4065 58.8556 35.6642 57.827C35.8639 57.0325 36.5628 56.4871 37.3885 56.4838C38.2034 56.4806 38.7671 56.9122 39.0205 57.8646C38.6265 57.186 38.1863 56.8424 37.5163 56.8961C36.8313 56.952 36.3427 57.4362 36.3148 58.1062C36.2579 59.4676 37.4819 60.4533 38.7832 60.0689C39.8054 59.7661 40.5226 59.1251 40.6504 58.0235C40.7749 56.9455 40.2907 56.1113 39.4049 55.525C38.4847 54.9152 37.4336 54.6672 36.3502 54.6532C33.972 54.6221 31.5927 54.679 29.2145 54.6414C25.229 54.577 21.4281 53.6944 17.8388 51.9421C17.7003 51.8745 17.5725 51.7854 17.4404 51.7059C17.4533 51.6791 17.4641 51.6533 17.4748 51.6265Z" fill="#55A6D3"/>
<path d="M73.5112 38.7497C73.2729 39.7332 72.5106 40.1917 71.585 39.9834C70.5972 39.7601 70.0185 38.8904 70.1635 37.8478C70.4319 35.9163 72.0542 34.8888 73.9321 35.4975C75.3021 35.941 76.1955 36.8676 76.4005 38.3181C76.5916 39.6753 76.0999 40.8155 75.0434 41.6863C74.0148 42.5345 72.7757 42.8727 71.4884 43.052C69.1123 43.3838 66.7405 43.1819 64.3784 42.9124C62.0034 42.6419 59.6359 42.3069 57.4639 42.0256C58.049 42.0256 58.8371 42.0062 59.6231 42.0288C62.3921 42.1115 65.1601 42.2693 67.9291 42.279C69.7501 42.2854 71.5732 42.0932 73.2772 41.3438C74.6826 40.7253 75.359 39.672 75.1991 38.3933C75.0326 37.0641 73.4135 36.0322 72.138 36.4445C71.3413 36.7011 70.7003 37.8339 70.8979 38.652C71.0246 39.1739 71.3832 39.4788 71.89 39.5958C72.4236 39.7193 72.8788 39.5475 73.2428 39.1459C73.3491 39.0268 73.4232 38.8818 73.5112 38.7497Z" fill="#55A6D3"/>
<path d="M49.582 34.1994C49.7387 34.9209 49.437 35.4384 48.796 35.6961C48.1593 35.9517 47.4765 35.7681 47.0685 35.2312C46.0324 33.8709 46.7657 31.964 48.4696 31.5882C50.3583 31.1716 51.9194 32.3655 52.1062 34.2928C52.3542 36.8407 51.0712 38.4995 49.0462 39.7407C47.2918 40.8155 45.3463 41.3942 43.3481 41.8247C44.2704 41.4533 45.2067 41.114 46.1107 40.7038C47.6193 40.0209 49.0204 39.1706 50.0823 37.8585C51.0175 36.7022 51.3503 35.3912 51.0164 33.9396C50.7126 32.6146 49.16 31.9887 47.9972 32.6973C47.2263 33.1676 47.0148 34.4056 47.6601 35.0347C47.877 35.2463 48.2893 35.3407 48.6124 35.3418C49.058 35.344 49.3511 35.0219 49.5036 34.6031C49.5508 34.4743 49.5573 34.3336 49.582 34.1994Z" fill="#55A6D3"/>
<path d="M63.068 44.2427C63.6284 44.3233 64.1878 44.4145 64.7494 44.4843C68.2238 44.9149 71.6983 44.9374 75.1792 44.5273C75.8427 44.4489 76.5449 44.4671 77.2009 44.5917C78.5914 44.8569 79.3311 46.2183 78.8201 47.4294C78.484 48.225 77.6003 48.6567 76.794 48.4183C76.0542 48.1993 75.6183 47.4434 75.7568 46.7852C75.9093 47.0655 76.0456 47.4778 76.3141 47.7709C76.6265 48.1123 77.0742 48.2165 77.5477 48.0307C78.0642 47.8289 78.3551 47.4563 78.4131 46.9098C78.4797 46.2795 78.2628 45.6954 77.6852 45.4861C77.0528 45.2574 76.3248 45.092 75.6677 45.165C73.545 45.4023 71.4245 45.5419 69.3029 45.2982C67.2156 45.0587 65.138 44.7291 63.0562 44.4392C63.0604 44.3737 63.0647 44.3082 63.068 44.2427Z" fill="#55A6D3"/>
<path d="M68.9426 48.8874C68.2963 50.484 69.1144 51.7907 70.6122 51.7757C71.4068 51.7681 71.8362 51.2785 72.1476 50.6343C72.4536 49.9998 72.3054 49.406 71.8019 48.9819C71.2618 48.5267 70.6766 48.065 70.0314 47.8052C68.7623 47.2941 67.4373 46.9194 66.1349 46.4899C66.019 46.4512 65.8998 46.4201 65.7012 46.3621C67.2795 46.3696 70.2193 47.0955 71.4969 47.7848C71.7471 47.92 71.9876 48.0789 72.211 48.2561C73.0688 48.9358 73.3673 49.7893 73.0871 50.7063C72.7661 51.7542 71.8835 52.524 70.9161 52.6024C69.9304 52.6819 68.8911 52.0827 68.4606 51.1862C68.1019 50.4411 68.249 49.6186 68.9426 48.8874Z" fill="#55A6D3"/>
<path d="M20.1255 42.6558C21.7886 42.3606 23.4539 42.0835 25.1117 41.7614C25.611 41.6648 26.1242 41.5102 26.5644 41.2632C27.2204 40.895 27.5404 40.2551 27.4599 39.5024C27.3783 38.7412 26.8994 38.243 26.1822 37.9949C25.3168 37.6954 24.4041 38.2902 24.402 39.2061C24.4009 39.4884 24.606 39.8556 24.8336 40.0349C25.2201 40.3388 25.6679 40.2271 26.063 39.9448C25.7956 40.3742 25.3909 40.4848 24.9174 40.3989C24.3676 40.2991 23.9972 39.8825 23.9478 39.336C23.8233 37.9509 25.1364 36.9706 26.5021 37.428C27.4921 37.7598 28.1653 38.6864 28.1513 39.6978C28.1374 40.7758 27.4094 41.7754 26.3003 42.0556C25.5627 42.2425 24.7842 42.279 24.0219 42.3584C22.7281 42.4948 21.4322 42.6118 20.1373 42.7364C20.133 42.7095 20.1298 42.6827 20.1255 42.6558Z" fill="#55A6D3"/>
<path d="M30.7381 59.6018C30.037 59.4408 29.5957 59.5514 29.3176 59.9862C29.0761 60.3631 29.1598 60.9418 29.5259 61.4314C29.8921 61.9221 30.503 62.1153 31.1064 61.906C31.8719 61.6397 32.4013 61.1393 32.4925 60.3008C32.5795 59.502 32.251 58.8459 31.5853 58.4326C31.1719 58.176 30.6801 58.0074 30.2013 57.8989C28.7604 57.5715 27.3088 57.2934 25.8765 56.9015C26.5089 57.0089 27.1402 57.1227 27.7737 57.2236C28.7432 57.3782 29.7181 57.4995 30.6823 57.6778C32.2574 57.9687 33.1937 59.2239 32.8673 60.6165C32.6514 61.5377 32.0137 62.0713 31.1139 62.3054C30.4246 62.4847 29.8212 62.3043 29.3864 61.7589C29.163 61.4786 29.0095 61.1071 28.9343 60.7528C28.8291 60.2664 29.0041 59.8337 29.454 59.5578C29.8878 59.2894 30.3205 59.2926 30.7381 59.6018Z" fill="#55A6D3"/>
</svg>
