<svg width="75" height="85" viewBox="0 0 75 85" fill="none" xmlns="http://www.w3.org/2000/svg">
<path fill-rule="evenodd" clip-rule="evenodd" d="M31.8482 7.27157L31.8482 7.27159L31.7655 7.35486C28.6443 10.4844 25.7057 13.4396 25.7057 16.6024C25.7057 17.5902 25.8302 18.4951 26.0709 19.292L26.3365 19.1592C26.4943 19.0762 26.652 19.0014 26.8097 18.9267C26.9704 18.8496 27.1311 18.7824 27.2956 18.7136L27.2956 18.7136L27.2957 18.7136L27.2957 18.7136L27.2957 18.7136L27.2958 18.7136L27.2958 18.7136L27.2958 18.7136C27.3437 18.6935 27.392 18.6734 27.4406 18.6528L27.7976 18.4951C27.8806 18.4619 27.9615 18.4266 28.0424 18.3913L28.0425 18.3913L28.0426 18.3913L28.0426 18.3912L28.0427 18.3912L28.0428 18.3912L28.0428 18.3911L28.0429 18.3911C28.1237 18.3559 28.2045 18.3207 28.2873 18.2875C28.4257 18.2322 28.564 18.1842 28.7024 18.1363L28.703 18.1361L28.7031 18.136L28.7033 18.136L28.7034 18.1359L28.7036 18.1359L28.7037 18.1358L28.7039 18.1358C28.7725 18.112 28.8412 18.0881 28.9099 18.0634L29.3084 17.9223C29.4661 17.8642 29.6321 17.8061 29.7981 17.7563C30.014 17.6899 30.2298 17.6234 30.4456 17.5653L30.8607 17.4491C31.0184 17.3993 31.1761 17.3578 31.3422 17.3163C31.5663 17.2582 31.7987 17.2084 32.0311 17.1586L32.0312 17.1586L32.4462 17.0673C32.5209 17.0507 32.5977 17.0341 32.6745 17.0175C32.7513 17.0009 32.8281 16.9843 32.9028 16.9677C33.1518 16.9178 33.3926 16.8846 33.6416 16.8514L34.065 16.785C34.2061 16.7601 34.3472 16.7352 34.4883 16.7186C34.7872 16.6771 35.086 16.6522 35.3932 16.6273L35.7501 16.5941C35.8082 16.5899 35.8643 16.5837 35.9203 16.5775C35.9763 16.5713 36.0324 16.565 36.0905 16.5609C36.63 16.5277 37.1696 16.5111 37.7009 16.5111C38.2322 16.5111 38.7717 16.5277 39.3113 16.5609C39.4275 16.5692 39.5355 16.5775 39.6517 16.5941L40.0003 16.6273C40.3075 16.6522 40.6063 16.6771 40.9135 16.7186C41.0546 16.7352 41.1957 16.7601 41.3368 16.785L41.7602 16.8514C41.9778 16.8804 42.1891 16.9158 42.4052 16.952L42.4053 16.952L42.4053 16.952L42.4054 16.952L42.4055 16.952L42.4055 16.952L42.4056 16.952L42.4057 16.9521L42.499 16.9677C42.6567 17.0009 42.8061 17.0341 42.9556 17.0673L43.3872 17.1586L44.0596 17.308C44.153 17.3314 44.2438 17.3573 44.3334 17.383L44.3335 17.383L44.3335 17.383L44.3335 17.383L44.3336 17.383L44.3336 17.383L44.3337 17.383L44.3337 17.3831C44.4033 17.403 44.4722 17.4227 44.5411 17.4408L44.9561 17.557C45.172 17.6151 45.3878 17.6816 45.5953 17.748C45.7219 17.7859 45.8484 17.8335 45.9713 17.8798C46.0096 17.8942 46.0476 17.9085 46.0851 17.9223L46.4836 18.0634C46.5452 18.0856 46.6069 18.1071 46.6684 18.1285L46.6686 18.1286L46.6688 18.1286L46.669 18.1287L46.6691 18.1287L46.6693 18.1288C46.8143 18.1793 46.9581 18.2293 47.0979 18.2875L47.0979 18.2876C47.2639 18.354 47.4299 18.4204 47.5876 18.4951L47.9446 18.6445C48.0213 18.6782 48.0991 18.7108 48.1772 18.7436L48.1773 18.7436C48.3106 18.7995 48.4447 18.8557 48.5755 18.9184C48.6543 18.9558 48.733 18.9951 48.8118 19.0345L48.812 19.0347C48.8909 19.0741 48.9698 19.1135 49.0486 19.1509L49.3143 19.2837C49.555 18.4868 49.6795 17.5902 49.6795 16.5941C49.6795 13.4387 46.7463 10.4899 43.6414 7.36846L43.6196 7.34656C41.287 5.03053 38.888 2.62318 37.6843 0C36.4949 2.59196 34.1385 4.96509 31.8482 7.27156L31.8482 7.27157ZM0.411438 22.3386C2.15469 24.6381 3.14253 27.8838 4.09717 31.0217C5.38386 35.247 6.60413 39.2399 9.39334 40.7258C9.94952 41.0246 10.4974 41.2571 11.0204 41.4231C11.2362 41.365 11.4603 41.3152 11.6928 41.2737L11.8422 41.2488L11.9501 41.2322V41.2073L11.975 40.7756L11.976 40.7527C11.984 40.5771 11.9923 40.3944 12.0082 40.2194C12.0248 40.0202 12.0414 39.8293 12.0663 39.6383L12.1078 39.2399C12.1244 39.0406 12.1493 38.8414 12.1742 38.6422C12.1991 38.4762 12.224 38.3184 12.2573 38.1524L12.3237 37.7457C12.3569 37.5298 12.3984 37.3057 12.4399 37.0899C12.4608 36.9715 12.4875 36.8589 12.5152 36.7424L12.5312 36.6748L12.6225 36.2846C12.6405 36.2101 12.6577 36.1356 12.6748 36.0613L12.6748 36.0613C12.713 35.8956 12.751 35.7312 12.7968 35.5707L12.8964 35.2221L13.0127 34.8651L13.0378 34.7782C13.1043 34.5483 13.1723 34.3133 13.2534 34.0848C13.2783 34.0018 13.3115 33.9188 13.3447 33.8358L13.3447 33.8358L13.4277 33.6034C13.5439 33.2796 13.6602 32.9559 13.7847 32.6321L13.8096 32.574C14.291 31.3869 14.8887 30.1916 15.5943 29.0211L15.7022 28.8385C15.7441 28.7607 15.7903 28.6872 15.8378 28.6118L15.8378 28.6117L15.8378 28.6117L15.8378 28.6117L15.8379 28.6116L15.8379 28.6116L15.8384 28.6107L15.8683 28.5631L15.8932 28.523L15.8932 28.523C16.0011 28.357 16.109 28.191 16.2252 28.0249L16.4909 27.6348C16.5365 27.5684 16.5801 27.502 16.6237 27.4356C16.6673 27.3692 16.7108 27.3027 16.7565 27.2363C16.8644 27.0869 16.9723 26.9458 17.0885 26.8047L17.3625 26.4477C17.4046 26.3935 17.4457 26.3394 17.4864 26.2856C17.5581 26.191 17.6288 26.0977 17.7028 26.0078C17.8108 25.8749 17.927 25.7421 18.0432 25.6176L18.342 25.2773C18.4665 25.1278 18.5994 24.9784 18.7322 24.8373C18.8484 24.7128 18.9646 24.5883 19.0891 24.472L19.3714 24.1815C19.5208 24.0238 19.6702 23.8743 19.8279 23.7249C19.8901 23.6669 19.9544 23.6088 20.0187 23.5508L20.0189 23.5506L20.0191 23.5504C20.0833 23.4924 20.1476 23.4343 20.2098 23.3763L20.5086 23.1106C20.6116 23.0131 20.7182 22.919 20.826 22.8239C20.8832 22.7734 20.9408 22.7225 20.9984 22.6707L21.3969 22.3469L21.6791 22.1228C21.8617 21.9734 22.0444 21.824 22.2353 21.6828C22.3058 21.6331 22.3742 21.5833 22.4426 21.5336L22.4428 21.5334C22.5113 21.4836 22.5798 21.4338 22.6504 21.384L22.8994 21.2097C22.3183 20.6203 21.5961 20.0973 20.6996 19.6158C17.9175 18.1337 13.9461 19.3275 9.73278 20.594L9.70048 20.6037L9.49828 20.6633C6.40756 21.5747 3.23857 22.5092 0.411438 22.3386ZM26.0291 63.4296C25.4564 63.1141 24.9666 62.8236 24.5349 62.533C17.7445 58.1251 13.6354 50.654 13.5441 42.5354V42.2698C13.5441 42.1868 13.5441 42.0872 13.5524 41.971C13.569 40.4684 13.7268 38.9659 14.0173 37.5049C14.1335 36.9487 14.2829 36.351 14.4822 35.6454C16.076 30.0421 19.6455 25.1942 24.5432 22.0149C25.0081 21.7077 25.5145 21.4089 26.0374 21.1183C29.5904 19.1593 33.6247 18.1216 37.7006 18.1216C38.7134 18.1216 39.7344 18.188 40.7389 18.3125C41.2701 18.379 41.8429 18.4703 42.4904 18.6031C44.4163 18.9932 46.2675 19.6075 48.0024 20.421C48.459 20.6286 48.9072 20.861 49.3555 21.11C49.8536 21.3757 50.3434 21.6745 50.858 22.0066C57.6401 26.4228 61.7492 33.8856 61.8488 41.9959V42.2698V42.2699C61.8488 42.3612 61.8488 42.4525 61.8405 42.5686C61.8239 44.0712 61.6662 45.5737 61.3756 47.0347C60.089 53.4432 56.3534 58.9469 50.8497 62.5247C50.3517 62.8568 49.8453 63.1556 49.3472 63.4296C45.7943 65.3886 41.7682 66.4263 37.6923 66.4263C37.186 66.4263 36.6713 66.4097 36.1649 66.3765C33.1018 66.1856 30.1465 65.4218 27.3822 64.1186C26.9257 63.9027 26.4691 63.6703 26.0291 63.4296ZM37.684 19.9479C25.3733 19.9479 15.3538 29.9674 15.3538 42.2781C15.3538 54.5971 25.3733 64.6083 37.684 64.6083C49.9947 64.6083 60.0142 54.5888 60.0142 42.2781C60.0142 29.9674 49.9947 19.9479 37.684 19.9479ZM37.6839 62.9978C49.1271 62.9978 58.4037 53.7213 58.4037 42.278C58.4037 30.8348 49.1271 21.5582 37.6839 21.5582C26.2406 21.5582 16.9641 30.8348 16.9641 42.278C16.9641 53.7213 26.2406 62.9978 37.6839 62.9978ZM53.1575 21.6745C53.0081 21.5583 52.8587 21.4504 52.701 21.3425L52.4851 21.2014C53.0662 20.612 53.7884 20.089 54.685 19.6075C57.4742 18.1133 61.467 19.317 65.7007 20.5954L65.7299 20.6042C68.8669 21.5478 72.1015 22.5207 74.9731 22.3469C73.2299 24.6464 72.2337 27.8921 71.2791 31.03C69.9924 35.247 68.7721 39.2399 65.9829 40.7341C65.352 41.0744 64.7294 41.3318 64.1234 41.5061C63.9159 41.5725 63.6918 41.6223 63.4427 41.6721L63.441 41.6261C63.4249 41.2087 63.4083 40.7769 63.3763 40.3605C63.3763 40.2997 63.3689 40.2388 63.3616 40.1779C63.3579 40.1475 63.3542 40.117 63.3514 40.0866L63.3265 39.8376C63.3016 39.4889 63.2684 39.132 63.2186 38.7833C63.2103 38.7252 63.1999 38.6671 63.1895 38.609C63.1792 38.5509 63.1688 38.4928 63.1605 38.4347L63.0941 38.0362C63.0526 37.7623 63.0028 37.4883 62.953 37.2227L62.9423 37.1692C62.9208 37.0606 62.8984 36.9477 62.8699 36.8408L62.7786 36.4341C62.7724 36.4076 62.7664 36.381 62.7603 36.3545C62.7578 36.3436 62.7554 36.3327 62.7529 36.3218L62.7264 36.2036L62.7263 36.2031L62.7262 36.2025C62.688 36.0313 62.6501 35.8613 62.6043 35.6953C62.5711 35.5625 62.5296 35.4296 62.4881 35.2968L62.3636 34.8652C62.3526 34.828 62.3418 34.7911 62.3311 34.7544L62.3066 34.6694C62.2616 34.5135 62.2171 34.3594 62.1643 34.2011C62.1367 34.107 62.1016 34.0129 62.0666 33.9188C62.049 33.8718 62.0315 33.8247 62.0149 33.7777L61.8655 33.3792C61.8305 33.2881 61.7969 33.197 61.7636 33.1065C61.7179 32.9826 61.6727 32.86 61.6248 32.74C61.5667 32.5906 61.5086 32.4495 61.4421 32.3084L61.2761 31.9265C61.1848 31.719 61.0935 31.5115 61.0022 31.3122C60.9358 31.1628 60.8611 31.0217 60.7863 30.8806L60.5871 30.4904C60.4958 30.2995 60.3962 30.1086 60.2966 29.9176C60.2386 29.8082 60.1707 29.6937 60.1044 29.582L60.0475 29.486L59.8317 29.1207C59.7321 28.9381 59.6242 28.7555 59.5163 28.5811L59.5161 28.5808C59.4248 28.4398 59.3336 28.2988 59.234 28.1578L58.9933 27.8008C58.8771 27.6265 58.7609 27.4522 58.6446 27.2862C58.5907 27.2156 58.5388 27.1471 58.4869 27.0786C58.435 27.0101 58.3831 26.9417 58.3292 26.8711L58.0885 26.5557C57.9639 26.3896 57.8311 26.2153 57.6983 26.0493C57.5821 25.9082 57.4659 25.7754 57.3497 25.6426L57.3497 25.6425L57.084 25.3354C56.9512 25.1777 56.8101 25.0199 56.669 24.8622C56.5943 24.7776 56.5167 24.699 56.4396 24.6209L56.4396 24.6209L56.4396 24.6209L56.4396 24.6209C56.3881 24.5688 56.3369 24.5169 56.2871 24.4637L56.0215 24.1898L56.0101 24.1778C55.8648 24.0245 55.7269 23.8789 55.5732 23.7332C55.5068 23.671 55.4383 23.6087 55.3697 23.5464C55.3013 23.4842 55.2328 23.4219 55.1664 23.3597L54.8676 23.094C54.815 23.047 54.7624 22.999 54.7099 22.9511L54.7098 22.951C54.6047 22.8551 54.4995 22.7592 54.3944 22.6707C54.2533 22.5462 54.1039 22.43 53.9545 22.3137L53.6556 22.073C53.4896 21.9319 53.3236 21.7991 53.1575 21.6745ZM74.9729 62.2176C73.2297 59.9182 72.2335 56.6724 71.2789 53.5262C69.9922 49.3009 68.7719 45.308 65.9827 43.8221C65.4348 43.5316 64.887 43.2909 64.3557 43.1165C64.1482 43.1746 63.9323 43.2244 63.6999 43.266L63.6536 43.2736C63.6186 43.2794 63.5824 43.2851 63.5422 43.2909L63.4259 43.3075V43.3407L63.401 43.7972L63.3761 44.3202C63.3678 44.4198 63.3575 44.5174 63.3471 44.615C63.3367 44.7125 63.3263 44.81 63.318 44.9096L63.2765 45.3163C63.2599 45.5073 63.235 45.7065 63.2101 45.8974C63.1977 45.9846 63.1831 46.0697 63.1686 46.1548C63.1541 46.2399 63.1396 46.3249 63.1271 46.4121L63.0524 46.8521C63.0192 47.0513 62.986 47.2505 62.9445 47.4498L62.9444 47.45C62.9112 47.6076 62.878 47.7653 62.8366 47.9229L62.7369 48.3629C62.7192 48.4338 62.7026 48.5057 62.6858 48.5779L62.6858 48.5779C62.6555 48.7087 62.625 48.8405 62.5875 48.9689C62.5668 49.0394 62.5461 49.112 62.5253 49.1845C62.5046 49.2572 62.4838 49.3299 62.463 49.4005L62.3385 49.8156C62.3185 49.8807 62.2992 49.9458 62.28 50.0107L62.28 50.0107L62.2797 50.0118L62.2796 50.0118C62.2353 50.1616 62.1913 50.3102 62.1393 50.4548C62.0978 50.5876 62.0479 50.7204 61.9981 50.845L61.8321 51.2683C61.7574 51.4841 61.6744 51.7 61.5914 51.9075C61.5416 52.0237 61.4918 52.1399 61.442 52.2479L61.3506 52.4554C61.1182 53.0033 60.8609 53.5428 60.5952 54.0658L60.479 54.29L60.4789 54.2901C60.4126 54.4229 60.3462 54.5556 60.2715 54.6884C60.2217 54.7825 60.1645 54.8766 60.1073 54.9706L60.107 54.9712C60.0785 55.0181 60.05 55.0649 60.0225 55.1118L59.7734 55.5351C59.7348 55.5994 59.6975 55.6637 59.6605 55.7275L59.6604 55.7277C59.6018 55.8286 59.5439 55.9283 59.4829 56.0249C59.3999 56.1577 59.3169 56.2822 59.2255 56.4068L58.9599 56.7969L58.8905 56.9014C58.7995 57.0385 58.7107 57.1724 58.6113 57.3116C58.5656 57.3738 58.5179 57.4361 58.4702 57.4983L58.47 57.4986C58.4223 57.5608 58.3746 57.623 58.329 57.6851L58.0551 58.0421C57.9305 58.2081 57.7977 58.3824 57.6649 58.5402C57.5653 58.6647 57.4657 58.7809 57.3578 58.8971L57.0672 59.2292C56.9261 59.3952 56.785 59.5529 56.6439 59.7106C56.5361 59.8267 56.4199 59.9429 56.3038 60.059L56.3035 60.0593L56.0213 60.3498C55.9424 60.4287 55.8636 60.5096 55.7847 60.5906C55.7058 60.6715 55.627 60.7524 55.5481 60.8313C55.4694 60.91 55.3869 60.9849 55.3058 61.0585L55.3056 61.0587C55.267 61.0937 55.2286 61.1285 55.1912 61.1633L54.884 61.4456L54.3859 61.8938C54.2614 62.0018 54.1286 62.1097 53.9958 62.2093L53.7052 62.4417C53.5226 62.5911 53.34 62.7323 53.1574 62.8734C53.0247 62.9729 52.8837 63.0724 52.7427 63.1719L52.7427 63.172L52.7426 63.172L52.7423 63.1722L52.4933 63.3466C53.0744 63.9359 53.7966 64.4589 54.6931 64.9404C57.4823 66.4263 61.4752 65.2309 65.7005 63.9525L65.8372 63.912C68.9328 62.9946 72.1342 62.0458 74.9729 62.2176ZM22.692 63.2221L22.8913 63.3632C22.3102 63.9526 21.588 64.4756 20.6998 64.957C17.9106 66.443 13.9177 65.2476 9.68406 63.9692C6.78694 63.0976 3.79851 62.201 1.09232 62.201H1.09216C0.859783 62.201 0.635701 62.201 0.40332 62.2176C2.14657 59.9182 3.14272 56.6724 4.09735 53.5263C5.38404 49.301 6.60432 45.3164 9.39352 43.8222C10.0244 43.4901 10.647 43.2245 11.2447 43.0502C11.4605 42.9838 11.6847 42.934 11.9337 42.8841L11.9355 42.9304C11.9515 43.3478 11.9681 43.7795 12.0001 44.1957C12.0001 44.2579 12.0078 44.3239 12.0153 44.3885L12.0153 44.3885C12.0189 44.4188 12.0224 44.4488 12.025 44.478L12.0499 44.7602C12.0586 44.849 12.0667 44.9383 12.0748 45.0279C12.0978 45.2819 12.121 45.538 12.1578 45.7896C12.1661 45.8477 12.1765 45.9058 12.1869 45.9639C12.1973 46.022 12.2076 46.0801 12.2159 46.1382L12.2823 46.5284L12.2823 46.5284C12.3239 46.8023 12.3654 47.0763 12.4235 47.3419C12.4401 47.4083 12.4546 47.4726 12.4691 47.537L12.4691 47.5371C12.4837 47.6014 12.4982 47.6657 12.5148 47.732L12.6144 48.1471C12.6642 48.3878 12.714 48.6286 12.7804 48.8693C12.8012 48.9399 12.8219 49.0084 12.8427 49.0768C12.8634 49.1453 12.8842 49.2138 12.9049 49.2844L13.0294 49.716C13.0468 49.7747 13.0637 49.8329 13.0804 49.8906L13.0804 49.8907C13.1275 50.0533 13.1735 50.2126 13.2287 50.3718C13.2785 50.5212 13.3283 50.6707 13.3864 50.8118L13.5441 51.2435C13.6105 51.4427 13.6852 51.6419 13.76 51.8411C13.8181 51.9905 13.8845 52.14 13.9509 52.2894L13.9509 52.2894L14.1335 52.7045C14.175 52.7958 14.2165 52.8891 14.258 52.9825C14.2995 53.0759 14.341 53.1693 14.3825 53.2606C14.4573 53.4184 14.532 53.5678 14.615 53.7255L14.8059 54.1074C14.8889 54.29 14.9802 54.4726 15.0798 54.6469C15.1404 54.7621 15.2054 54.8727 15.2716 54.9855C15.2961 55.0272 15.3208 55.0692 15.3455 55.1118L15.5613 55.4854L15.8602 55.9834C15.9267 56.0983 16.002 56.2088 16.0765 56.318L16.0765 56.3181L16.0766 56.3183C16.1044 56.3589 16.132 56.3995 16.159 56.44L16.3997 56.797L16.4478 56.8711C16.5379 57.0103 16.6247 57.1444 16.7235 57.2784C16.8314 57.4361 16.9476 57.5856 17.0638 57.735L17.3129 58.0587C17.348 58.1039 17.3831 58.1498 17.4185 58.1961C17.5001 58.3028 17.5829 58.4111 17.6698 58.5153C17.7943 58.673 17.9272 58.8224 18.06 58.9719L18.3173 59.2707C18.4418 59.4201 18.5663 59.5613 18.6992 59.7024C18.832 59.8435 18.9648 59.9846 19.1059 60.1257L19.3799 60.408C19.4272 60.4553 19.4736 60.5027 19.5197 60.5497L19.5198 60.5498C19.6111 60.6429 19.7012 60.7348 19.7949 60.823C19.936 60.9642 20.0855 61.097 20.2349 61.2298L20.5337 61.4954C20.5818 61.5382 20.6291 61.581 20.676 61.6234L20.6761 61.6235L20.6762 61.6236L20.6763 61.6237C20.7751 61.7131 20.8725 61.8012 20.9737 61.8856C21.1231 62.0101 21.2725 62.1346 21.4303 62.2591L21.7374 62.4999C21.8951 62.6327 22.0529 62.7572 22.2189 62.8817C22.3063 62.9498 22.3995 63.0149 22.4933 63.0806L22.4937 63.0808C22.56 63.1273 22.6267 63.174 22.692 63.2221ZM37.6843 84.5562C38.8877 81.9335 41.286 79.5266 43.6016 77.2028L43.603 77.2013C46.7243 74.0718 49.6629 71.1165 49.6629 67.9538C49.6629 66.9576 49.5384 66.0611 49.2977 65.2725L49.0403 65.4053C48.8826 65.4883 48.7166 65.5713 48.5589 65.646C48.4206 65.7124 48.2823 65.7714 48.144 65.8304L48.1437 65.8306C48.0745 65.8601 48.0054 65.8896 47.9363 65.92L47.571 66.0777C47.5289 66.0954 47.4863 66.1137 47.4433 66.1322C47.3253 66.1828 47.2052 66.2343 47.0895 66.2769C46.9253 66.3426 46.7558 66.4031 46.5894 66.4626L46.5891 66.4627L46.4587 66.5094L46.0602 66.6422C45.9025 66.7003 45.7365 66.7584 45.5787 66.8082C45.3629 66.8746 45.1471 66.941 44.9395 66.9991L44.5162 67.1237C44.3585 67.1735 44.2007 67.215 44.043 67.2565C43.8534 67.3056 43.6578 67.3489 43.4663 67.3912L43.4662 67.3912L43.3623 67.4142L42.9389 67.5055C42.8642 67.5221 42.7874 67.5387 42.7106 67.5553L42.7102 67.5554L42.7067 67.5562C42.6313 67.5725 42.5558 67.5888 42.4824 67.6051C42.3124 67.6391 42.1386 67.6654 41.9636 67.6918L41.9631 67.6919C41.8818 67.7042 41.8002 67.7165 41.7187 67.7296L41.3119 67.7961C41.2414 67.8085 41.1729 67.8189 41.1045 67.8293H41.1044C41.0359 67.8396 40.9674 67.85 40.8969 67.8625C40.5899 67.904 40.2829 67.9288 39.9759 67.9537L39.9754 67.9538L39.6268 67.987C39.5728 67.9911 39.5168 67.9974 39.4607 68.0036C39.4047 68.0098 39.3487 68.016 39.2947 68.0202C38.2156 68.0866 37.153 68.0866 36.0739 68.0202C35.9659 68.0119 35.858 68.0036 35.7501 67.987L35.4181 67.9538L35.4176 67.9538C35.1023 67.9289 34.787 67.904 34.48 67.8625C34.4136 67.8542 34.3451 67.8438 34.2766 67.8334C34.2082 67.823 34.1397 67.8127 34.0733 67.8044L33.6499 67.7379C33.5631 67.7235 33.4752 67.71 33.3871 67.6965C33.2224 67.6713 33.0567 67.6459 32.8945 67.6134C32.7451 67.5885 32.5957 67.5553 32.4462 67.5138L32.0312 67.4225C31.7987 67.3727 31.5663 67.3229 31.3339 67.2648L31.3332 67.2646C31.1757 67.2232 31.0182 67.1817 30.869 67.132L30.4622 67.0158C30.3875 66.9936 30.3128 66.9724 30.238 66.9512C30.0886 66.9087 29.9392 66.8663 29.7898 66.8165C29.6321 66.7667 29.4744 66.7086 29.3167 66.6505L28.9182 66.5094C28.7024 66.4347 28.4949 66.36 28.2873 66.2769C28.1216 66.2107 27.9642 66.1444 27.8068 66.0781L27.8068 66.0781L27.8059 66.0777L27.4489 65.9283C27.3411 65.8827 27.2354 65.8371 27.1297 65.7915C27.0237 65.7458 26.9178 65.7001 26.8097 65.6543C26.6855 65.5984 26.5659 65.5379 26.4441 65.4762L26.4437 65.476C26.4028 65.4553 26.3616 65.4345 26.3199 65.4136L26.0709 65.2891C25.8302 66.086 25.7057 66.9825 25.7057 67.9787C25.7057 71.1341 28.6388 74.0829 31.7437 77.2043L31.7655 77.2262C34.0816 79.5257 36.4806 81.933 37.6843 84.5562ZM38.174 51.2439C46.8339 51.2439 54.1172 45.3504 56.232 37.3554C56.6363 38.8838 56.8517 40.4891 56.8517 42.1446C56.8517 52.46 48.4894 60.8223 38.174 60.8223C27.8586 60.8223 19.4963 52.46 19.4963 42.1446C19.4963 40.4891 19.7117 38.8838 20.116 37.3554C22.2308 45.3504 29.5141 51.2439 38.174 51.2439Z" fill="#F9AF61"/>
</svg>
