<svg width="105" height="51" viewBox="0 0 105 51" fill="none" xmlns="http://www.w3.org/2000/svg">
<path fill-rule="evenodd" clip-rule="evenodd" d="M103.88 24.9891C98.6107 22.662 93.712 17.7782 88.9764 13.05L88.9533 13.027C82.7797 6.883 76.399 0.532837 69.656 0.532837C65.6541 0.532837 62.4822 1.43698 59.9921 3.30454L59.9921 3.30456C60.081 3.3342 60.1699 3.36384 60.2515 3.40089C60.3997 3.45276 60.5405 3.50464 60.6887 3.56393C60.7665 3.59357 60.8443 3.62506 60.9221 3.65656L60.9222 3.65657C61 3.68807 61.0778 3.71956 61.1556 3.7492C61.226 3.77885 61.2983 3.80849 61.3705 3.83814C61.4428 3.86778 61.515 3.89742 61.5854 3.92707C61.6594 3.96036 61.7352 3.99365 61.8111 4.02694L61.8115 4.02712L61.8119 4.02729C61.8877 4.06058 61.9635 4.09387 62.0375 4.12716L62.4599 4.32726L62.4601 4.32736L62.4603 4.32746L62.4605 4.32756L62.4607 4.32766C62.6087 4.40164 62.7566 4.47561 62.8972 4.54959C62.9676 4.58665 63.0361 4.62185 63.1047 4.65705L63.105 4.65722L63.1052 4.65729C63.1735 4.69241 63.2419 4.72754 63.3122 4.76451C63.453 4.83862 63.5938 4.92014 63.7346 5.00166C63.8013 5.0387 63.8698 5.0776 63.9384 5.11649C64.0069 5.15541 64.0755 5.19433 64.1422 5.2314C64.283 5.31292 64.4164 5.39444 64.5572 5.48337C64.6906 5.56489 64.824 5.64642 64.95 5.72794L65.3502 5.99473C65.4984 6.09849 65.617 6.18001 65.7356 6.26153C65.7987 6.30606 65.8636 6.35244 65.9285 6.39882L65.9297 6.39962L65.9309 6.40052C65.9949 6.44621 66.0588 6.49187 66.121 6.53573C66.1838 6.58376 66.2466 6.62994 66.3094 6.67612L66.3099 6.67654C66.3729 6.72286 66.4359 6.76918 66.4989 6.81735C66.5619 6.86552 66.6231 6.9137 66.6842 6.96187L66.685 6.96251L66.6851 6.96256C66.7459 7.0105 66.8068 7.05844 66.8695 7.10638C66.9325 7.15455 66.9936 7.20458 67.0547 7.2546C67.1159 7.30462 67.177 7.35465 67.24 7.40282C67.3586 7.49916 67.4772 7.60292 67.5957 7.70667L67.6402 7.75114L67.6405 7.75139C67.7442 7.84023 67.8478 7.92909 67.9515 8.02534C68.025 8.08906 68.0953 8.15603 68.1645 8.22195L68.1647 8.22219L68.1651 8.22255C68.2003 8.25609 68.2352 8.28935 68.2701 8.32178L68.3122 8.36144C68.4286 8.47138 68.5339 8.57074 68.6333 8.6701L68.9149 8.95171L68.9594 8.99618C69.0149 9.05176 69.0705 9.1092 69.1261 9.16663C69.1817 9.22407 69.2373 9.2815 69.2929 9.33709C69.323 9.36974 69.354 9.40239 69.3853 9.43533C69.4463 9.49959 69.5083 9.56494 69.5671 9.63353L69.6708 9.74469C69.7152 9.79282 69.7578 9.84095 69.8004 9.88908L69.8004 9.88915L69.8005 9.88921L69.8006 9.88928L69.8006 9.88934L69.8007 9.88941C69.8433 9.93751 69.8858 9.98562 69.9302 10.0337L70.1748 10.3227L70.2266 10.382C70.2643 10.4268 70.2997 10.4685 70.3336 10.5084C70.4064 10.5942 70.4722 10.6717 70.5379 10.7526C70.5899 10.814 70.6388 10.8784 70.6886 10.9439L70.6887 10.944C70.7067 10.9677 70.7248 10.9916 70.7432 11.0155L70.7751 11.0564L70.8714 11.1824L70.8717 11.1828C70.9531 11.2864 71.0345 11.39 71.1085 11.4937C71.1827 11.5974 71.2568 11.7012 71.3309 11.7975L71.4346 11.9458C71.4566 11.9765 71.4786 12.0066 71.5004 12.0365L71.5005 12.0367C71.5521 12.1074 71.6027 12.1767 71.6496 12.2496C71.7237 12.3534 71.7978 12.4645 71.8645 12.5757L71.9386 12.6943C71.9756 12.7498 72.0127 12.8073 72.0497 12.8647C72.0868 12.9221 72.1239 12.9796 72.1609 13.0352C72.235 13.1463 72.3017 13.2575 72.3684 13.3687L72.4351 13.4798C72.4722 13.5391 72.5074 13.5984 72.5426 13.6577C72.5778 13.717 72.613 13.7763 72.65 13.8356L72.8279 14.1468L72.9094 14.2876C72.9427 14.3469 72.9761 14.408 73.0094 14.4691L73.0095 14.4692L73.0103 14.4707C73.0434 14.5313 73.0764 14.5919 73.1095 14.6508C73.1355 14.7026 73.1614 14.7527 73.1873 14.8027C73.2133 14.8527 73.2392 14.9027 73.2651 14.9546L73.3615 15.1473C73.4208 15.2585 73.4801 15.377 73.5319 15.4882C73.5838 15.592 73.6283 15.6957 73.6728 15.7995L73.7691 16.0144C73.821 16.1255 73.8728 16.2367 73.9173 16.3479C73.9692 16.4665 74.0137 16.5776 74.0581 16.6962L74.1396 16.8963C74.1619 16.9519 74.1842 17.0057 74.2064 17.0596C74.2286 17.1132 74.2508 17.1669 74.273 17.2224C74.3083 17.3047 74.3389 17.3916 74.3685 17.4758L74.3916 17.541L74.4731 17.7782C74.5176 17.8894 74.5547 18.0005 74.5917 18.1117C74.6288 18.2229 74.6658 18.3414 74.7029 18.46L74.777 18.7046C74.814 18.8083 74.8437 18.9121 74.8733 19.0232C74.8882 19.0789 74.9048 19.1363 74.9215 19.1938L74.9216 19.1939L74.9216 19.194L74.9217 19.1943C74.9383 19.2515 74.9549 19.3087 74.9697 19.3641L75.0364 19.6161C75.0512 19.6679 75.066 19.7215 75.0807 19.7752C75.0956 19.829 75.1105 19.8828 75.1253 19.9348C75.142 19.9975 75.1564 20.0603 75.1711 20.1243L75.1713 20.1252C75.1825 20.1744 75.194 20.2243 75.2068 20.2757L75.2735 20.5573C75.2846 20.6092 75.2976 20.6611 75.3106 20.7129C75.3235 20.7648 75.3365 20.8167 75.3476 20.8686C75.3734 20.9782 75.3936 21.0935 75.4131 21.2046L75.4217 21.2539L75.4662 21.4985C75.4773 21.5504 75.4866 21.6023 75.4958 21.6541C75.5051 21.706 75.5144 21.7579 75.5255 21.8098C75.5477 21.9432 75.57 22.0766 75.5848 22.21L75.6218 22.4768L75.6271 22.5107L75.6271 22.5109L75.6271 22.511C75.6401 22.5944 75.6524 22.6735 75.6589 22.7584L75.7034 23.203L75.733 23.4772L75.7552 23.7218C75.7624 23.8077 75.7678 23.8935 75.7732 23.9785L75.7733 23.9796V23.9797C75.779 24.0704 75.7847 24.1602 75.7923 24.248L75.8071 24.4925C75.8108 24.5259 75.8127 24.5592 75.8145 24.5926C75.8164 24.6259 75.8182 24.6593 75.8219 24.6926C75.8368 25.0187 75.8442 25.3448 75.8442 25.6709C75.8442 25.997 75.8368 26.3231 75.8219 26.6491C75.8219 26.7158 75.8145 26.7825 75.8071 26.8492L75.7923 27.1086C75.7854 27.2661 75.7723 27.4235 75.7586 27.5868L75.7552 27.6274L75.733 27.872L75.7034 28.1462C75.6885 28.2944 75.6737 28.4426 75.6589 28.5834C75.6532 28.6204 75.6475 28.6585 75.6418 28.6968C75.6327 28.7583 75.6236 28.8205 75.6144 28.8799L75.5774 29.1466C75.5626 29.2726 75.5403 29.406 75.5181 29.532C75.5114 29.5754 75.5032 29.6202 75.4949 29.6659C75.4847 29.7217 75.4744 29.7788 75.4662 29.8359L75.4143 30.1027C75.3921 30.2287 75.3699 30.3546 75.3402 30.4732L75.2735 30.7845L75.2068 31.0661C75.1846 31.1773 75.1549 31.2958 75.1253 31.407C75.1122 31.4529 75.1005 31.4988 75.089 31.5441L75.0889 31.5445C75.0745 31.6014 75.0603 31.6573 75.0438 31.7108L74.9697 31.9851L74.9696 31.9854C74.94 32.0964 74.9103 32.2075 74.8733 32.3185C74.8437 32.4297 74.8066 32.5483 74.7696 32.6595L74.6955 32.8818C74.6769 32.9374 74.6584 32.9948 74.6399 33.0522C74.6214 33.1097 74.6028 33.1671 74.5843 33.2227C74.5472 33.3339 74.5102 33.4376 74.4657 33.5488L74.3842 33.7785C74.3574 33.8589 74.3267 33.9393 74.295 34.0225L74.2949 34.0226C74.2828 34.0544 74.2705 34.0866 74.2582 34.1194L74.2285 34.1931L74.2284 34.1933C74.1942 34.2775 74.161 34.3593 74.1322 34.4455L74.0359 34.6901C74.0137 34.7419 73.9933 34.7938 73.9729 34.8457C73.9525 34.8976 73.9321 34.9494 73.9099 35.0013C73.8763 35.0854 73.8384 35.1652 73.7995 35.2472L73.7808 35.2868L73.7617 35.3274L73.6728 35.5201C73.6209 35.6313 73.569 35.7424 73.5171 35.861C73.4783 35.9497 73.4354 36.0343 73.3914 36.1209C73.3765 36.15 73.3616 36.1794 73.3467 36.2093L73.2503 36.3946C73.231 36.4333 73.2116 36.471 73.1922 36.5084L73.1725 36.5465C73.1466 36.5965 73.1206 36.6466 73.0947 36.6984L73.0729 36.7391L73.0373 36.8046L73.0021 36.8689C72.9706 36.9263 72.9391 36.9838 72.9094 37.0393L72.8279 37.195C72.7686 37.3061 72.7093 37.4173 72.6426 37.5285C72.6199 37.5683 72.596 37.6081 72.572 37.6483L72.5718 37.6485L72.5717 37.6487C72.5331 37.7132 72.4938 37.7788 72.4573 37.8471L72.3239 38.0621C72.298 38.1065 72.2702 38.151 72.2424 38.1955C72.2146 38.2399 72.1868 38.2844 72.1609 38.3289C72.1052 38.4181 72.0452 38.5073 71.9874 38.5933L71.9312 38.6772L71.8274 38.8402C71.8106 38.8654 71.7939 38.8911 71.7769 38.9171L71.7768 38.9173L71.7765 38.9178L71.7761 38.9184C71.7334 38.9839 71.6897 39.0511 71.6421 39.1144C71.5681 39.2255 71.4866 39.3367 71.4051 39.4478L71.405 39.4479L71.3012 39.5887C71.2345 39.6851 71.1678 39.7814 71.0937 39.8703C71.0265 39.9621 70.9542 40.0538 70.8851 40.1413L70.8418 40.1964L70.738 40.3372C70.7009 40.3817 70.6657 40.428 70.6305 40.4743C70.5953 40.5207 70.5601 40.567 70.5231 40.6114C70.4269 40.7299 70.3306 40.8409 70.2344 40.952L70.234 40.9523L70.1599 41.0413C70.1192 41.0894 70.0804 41.1356 70.0415 41.1819L70.0398 41.1839L70.0383 41.1857C70.0004 41.2308 69.9625 41.276 69.9228 41.3229C69.8783 41.3711 69.8357 41.4193 69.7931 41.4675C69.7505 41.5156 69.7079 41.5638 69.6634 41.6119L69.53 41.7527L69.4114 41.8824L69.2929 42.0121C69.2448 42.0602 69.1967 42.1101 69.1486 42.16L69.1483 42.1604C69.1001 42.2104 69.052 42.2604 69.0038 42.3086L68.952 42.3604C68.9179 42.3945 68.8839 42.4293 68.8496 42.4644L68.8488 42.4652C68.7788 42.5369 68.7077 42.6096 68.6333 42.6791C68.5296 42.7828 68.4185 42.8865 68.3074 42.9902L68.3072 42.9904C68.2406 43.05 68.1822 43.1046 68.1267 43.1567L68.1266 43.1568C68.0648 43.2146 68.0065 43.2692 67.9441 43.3239C67.863 43.3999 67.7784 43.4725 67.6951 43.5439C67.6566 43.577 67.6184 43.6097 67.5809 43.6425C67.4475 43.7611 67.3438 43.85 67.2326 43.939C67.1066 44.0427 66.9806 44.1465 66.8546 44.2428L66.8545 44.243C66.7359 44.3393 66.6174 44.4356 66.4989 44.5244C66.3733 44.6205 66.2403 44.7166 66.1072 44.8126L66.107 44.8128L66.1067 44.8131L66.1064 44.8133L66.1061 44.8135C66.0431 44.8579 65.982 44.9024 65.9209 44.9469L65.9201 44.9474C65.8592 44.9917 65.7983 45.036 65.7356 45.0803C65.6689 45.1247 65.6021 45.1711 65.5354 45.2174C65.4687 45.2637 65.4021 45.31 65.3354 45.3545C65.2724 45.3989 65.2076 45.4415 65.1427 45.4841C65.0779 45.5268 65.013 45.5694 64.95 45.6139C64.8833 45.6583 64.8148 45.7009 64.7462 45.7435C64.6777 45.7862 64.6091 45.8288 64.5424 45.8732L64.1422 46.1178C64.1042 46.1398 64.0667 46.1618 64.0295 46.1837C63.9288 46.2428 63.83 46.3009 63.7272 46.355C63.6866 46.3775 63.6454 46.4007 63.6037 46.4242L63.6036 46.4242L63.6035 46.4243C63.5081 46.478 63.4101 46.5331 63.3122 46.5847L62.8898 46.807C62.8193 46.8441 62.7489 46.8793 62.6785 46.9145C62.6081 46.9497 62.5377 46.9849 62.4673 47.0219C62.3932 47.0553 62.321 47.0905 62.2487 47.1257C62.1765 47.1609 62.1042 47.1961 62.0301 47.2294C61.8893 47.2961 61.7411 47.3628 61.5928 47.4295C61.4447 47.4962 61.2966 47.5555 61.1484 47.6147L61.1482 47.6148C61 47.6741 60.8517 47.7334 60.6961 47.7927C60.6052 47.829 60.5143 47.8626 60.4217 47.8968C60.3633 47.9184 60.3042 47.9402 60.244 47.9631C60.2333 47.967 60.2225 47.9709 60.2116 47.9748C60.2043 47.9774 60.1971 47.98 60.1898 47.9825L60.1181 48.0076C60.0754 48.0224 60.0328 48.0372 59.9921 48.0521C62.4822 49.9122 65.6541 50.8238 69.656 50.8238C76.4066 50.8238 82.7803 44.4731 88.9466 38.3289L88.969 38.3066L89.0086 38.2672C93.7393 33.5587 98.6254 28.6955 103.873 26.3749C104.147 26.2564 104.31 26.0044 104.31 25.7154C104.31 25.3522 104.147 25.1077 103.88 24.9891ZM68.5221 40.5076C68.6555 40.3594 68.7889 40.2037 68.9223 40.0481C69.2706 39.6405 69.6041 39.2255 69.9154 38.8105C70.1599 38.477 70.4045 38.1287 70.6342 37.7804C71.1827 36.9503 71.6718 36.0832 72.0868 35.2236C72.2498 34.8827 72.4129 34.5195 72.5982 34.0749C73.5912 31.6737 74.1545 29.1466 74.2582 26.5749C74.273 26.2711 74.2805 25.9598 74.2805 25.656C74.2805 15.8068 67.6699 7.047 58.1986 4.36422C56.2421 3.8084 54.2115 3.53419 52.1587 3.53419C50.1058 3.53419 48.0678 3.81581 46.1187 4.36422C39.4859 6.24661 34.0314 11.2342 31.5265 17.7114C30.5408 20.2608 30.0443 22.9287 30.0443 25.656C30.0443 25.9672 30.0517 26.2711 30.0665 26.5749C30.4667 36.1499 36.9217 44.3391 46.1261 46.9477C50.0243 48.052 54.3153 48.052 58.2134 46.9477C61.8004 45.9324 65.1057 43.9833 67.7736 41.3154C67.8957 41.1785 68.0215 41.0453 68.1473 40.9121L68.1479 40.9115L68.1485 40.9109C68.2742 40.7777 68.4 40.6445 68.5221 40.5076ZM52.1587 45.8064C41.0422 45.8064 32.0008 36.765 32.0008 25.6486C32.0008 14.5321 41.0422 5.49069 52.1587 5.49069C63.2751 5.49069 72.3165 14.5321 72.3165 25.6486C72.3165 36.765 63.2751 45.8064 52.1587 45.8064ZM44.3251 47.9854C41.835 49.853 38.6631 50.7571 34.6612 50.7571C27.9105 50.7571 21.5369 44.4064 15.3631 38.2548L15.3407 38.2325L15.3383 38.2301C10.6034 33.51 5.70554 28.6275 0.437248 26.3009C0.163042 26.1823 0 25.9303 0 25.6413C0 25.3522 0.163042 25.1077 0.437248 24.9891C5.70553 22.6625 10.6034 17.7799 15.3382 13.0599L15.3383 13.0599L15.3383 13.0599L15.3407 13.0574L15.3631 13.0352C21.5369 6.88357 27.9105 0.532861 34.6612 0.532861C38.6631 0.532861 41.835 1.437 44.288 3.28975C44.2473 3.30455 44.2048 3.31936 44.1622 3.33417L44.1621 3.33419L44.1621 3.3342L44.1618 3.33429C44.1193 3.34909 44.0768 3.36388 44.0361 3.37868C43.9759 3.40161 43.9168 3.42343 43.8584 3.44501C43.7658 3.47921 43.6749 3.51278 43.584 3.54913C43.4284 3.60842 43.2802 3.66771 43.1319 3.727C42.9837 3.78628 42.8355 3.84557 42.6873 3.91227C42.5391 3.97156 42.3908 4.03826 42.25 4.10496C42.1525 4.14884 42.055 4.19594 41.9596 4.24201L41.9593 4.24214L41.959 4.24228L41.9589 4.24233L41.9587 4.24242C41.9094 4.26623 41.8607 4.28978 41.8128 4.31246C41.7628 4.33744 41.7137 4.36158 41.6651 4.38545C41.5696 4.43238 41.4763 4.47825 41.3829 4.52738L40.9605 4.74971C40.8625 4.80128 40.7646 4.85643 40.6691 4.91017C40.6274 4.93367 40.5861 4.95691 40.5455 4.97945C40.4427 5.03355 40.3439 5.09159 40.2432 5.1507C40.206 5.17257 40.1685 5.19459 40.1305 5.2166L39.7303 5.46117C39.6636 5.50563 39.5951 5.54824 39.5265 5.59085C39.458 5.63346 39.3894 5.67608 39.3227 5.72055C39.2597 5.765 39.1949 5.8076 39.1301 5.8502L39.13 5.85022L39.13 5.85024L39.13 5.85026L39.1299 5.85028C39.0651 5.89288 39.0003 5.93548 38.9373 5.97993C38.8706 6.0244 38.8039 6.07072 38.7372 6.11704C38.6705 6.16336 38.6038 6.20968 38.5371 6.25414C38.4559 6.30995 38.3748 6.36923 38.2888 6.43199L38.2882 6.43243C38.2488 6.4612 38.2084 6.49071 38.1666 6.52094C38.0332 6.61728 37.8998 6.71362 37.7738 6.80997C37.7145 6.85814 37.6552 6.90446 37.5959 6.95077C37.5366 6.99709 37.4774 7.04341 37.4181 7.09158C37.2921 7.18793 37.1661 7.29168 37.0401 7.39543C36.9354 7.48053 36.8306 7.5714 36.731 7.65784L36.6918 7.69187L36.6473 7.72893C36.5955 7.77709 36.5417 7.82341 36.488 7.86972C36.4343 7.91604 36.3805 7.96237 36.3287 8.01054C36.254 8.07524 36.1827 8.14327 36.1102 8.2124L36.1102 8.21248L36.1101 8.21255L36.1096 8.21299C36.0744 8.24662 36.0389 8.28051 36.0026 8.31439L35.6468 8.64789C35.5505 8.73682 35.4542 8.83316 35.3578 8.92951L35.2985 8.99621L35.2984 8.99637C35.1947 9.10007 35.091 9.20377 34.9873 9.31488C34.929 9.3731 34.874 9.4345 34.818 9.497C34.7884 9.52996 34.7586 9.56323 34.7279 9.59649L34.6612 9.6706C34.613 9.72615 34.5631 9.78169 34.5131 9.83723L34.513 9.83731C34.463 9.89291 34.4129 9.9485 34.3647 10.0041L34.0979 10.3154L34.0609 10.3598C34.0133 10.4176 33.9658 10.4738 33.9189 10.5291L33.9188 10.5292C33.8635 10.5946 33.8092 10.6588 33.757 10.723C33.72 10.7674 33.6848 10.8138 33.6496 10.8601C33.6144 10.9064 33.5792 10.9527 33.5421 10.9972L33.4384 11.138L33.3951 11.1929C33.3261 11.2805 33.2537 11.3723 33.1864 11.4641C33.1291 11.5386 33.0762 11.6131 33.0209 11.6911L33.0206 11.6914L32.9715 11.7605L32.8677 11.9087L32.6454 12.22C32.5714 12.3236 32.5048 12.4272 32.4382 12.5308L32.4381 12.531L32.438 12.5311L32.4379 12.5312L32.3638 12.6498C32.3267 12.7091 32.2878 12.7684 32.2489 12.8277C32.21 12.887 32.1711 12.9463 32.134 13.0055C32.0673 13.1093 32.008 13.2056 31.9488 13.3094L31.845 13.4799L31.6449 13.8133C31.6153 13.8652 31.5875 13.9171 31.5597 13.969C31.5319 14.0209 31.5041 14.0727 31.4745 14.1246L31.3855 14.2876C31.3678 14.3192 31.35 14.3503 31.3323 14.3811L31.3323 14.3812L31.3323 14.3813C31.2838 14.4661 31.2363 14.549 31.1928 14.636C31.1783 14.665 31.163 14.6948 31.1475 14.7251L31.1473 14.7254L31.1473 14.7255L31.1472 14.7257C31.1151 14.7881 31.0819 14.8529 31.052 14.9176L30.9409 15.1399C30.8816 15.2436 30.8297 15.3547 30.7779 15.4659L30.7779 15.4659L30.7778 15.4659L30.7778 15.466C30.7259 15.5697 30.6741 15.6809 30.6296 15.7847L30.5407 15.9699L30.385 16.3257C30.3406 16.4294 30.2962 16.5404 30.2517 16.6515L30.2517 16.6517L30.2517 16.6517L30.2516 16.6518L30.1553 16.8889C30.1331 16.9408 30.1127 16.9927 30.0923 17.0445C30.0719 17.0964 30.0515 17.1483 30.0293 17.2002C29.994 17.2824 29.9634 17.3694 29.9338 17.4536L29.9338 17.4537L29.9107 17.5188L29.8292 17.756C29.8107 17.8115 29.7903 17.8671 29.77 17.9226L29.77 17.9227L29.7699 17.9227C29.7496 17.9783 29.7292 18.0339 29.7106 18.0895C29.6736 18.1932 29.6365 18.3044 29.6069 18.4082L29.5254 18.675C29.5126 18.7197 29.4984 18.7645 29.484 18.8099C29.4651 18.8697 29.4459 18.9304 29.429 18.9936C29.3984 19.0855 29.3728 19.1825 29.3481 19.2762L29.3481 19.2763L29.3327 19.3345L29.266 19.5717C29.2512 19.6273 29.2363 19.6847 29.2215 19.7421C29.2067 19.7996 29.1919 19.857 29.177 19.9126C29.1474 20.0237 29.1178 20.1423 29.0955 20.2535L29.0288 20.5351C28.9992 20.6389 28.977 20.7426 28.9547 20.8464C28.9289 20.956 28.9087 21.0712 28.8893 21.1823L28.8806 21.2317L28.8361 21.4763L28.8261 21.5228L28.8261 21.5229C28.8074 21.6093 28.7894 21.6921 28.7769 21.7802C28.7657 21.8468 28.7565 21.9135 28.7472 21.9802L28.7472 21.9802L28.7472 21.9803L28.7472 21.9803C28.7379 22.047 28.7287 22.1137 28.7176 22.1803L28.6805 22.4471C28.6731 22.4953 28.6675 22.5416 28.662 22.588C28.6564 22.6343 28.6509 22.6806 28.6435 22.7288L28.599 23.1734L28.5693 23.4476L28.5471 23.6922C28.5323 23.8626 28.5175 24.0405 28.5101 24.2184L28.4952 24.4629C28.4878 24.5296 28.4804 24.5963 28.4804 24.663C28.4656 24.9891 28.4582 25.3152 28.4582 25.6413C28.4582 25.9674 28.4656 26.2934 28.4804 26.6195C28.4841 26.6529 28.486 26.6862 28.4878 26.7196C28.4897 26.7529 28.4915 26.7863 28.4952 26.8196L28.5101 27.079C28.5172 27.1649 28.5226 27.2491 28.528 27.3324L28.528 27.3325L28.528 27.3326C28.5338 27.4216 28.5395 27.5097 28.5471 27.5978L28.5693 27.8423L28.599 28.1165C28.6138 28.2574 28.6286 28.4056 28.6435 28.5538C28.6509 28.6019 28.6583 28.6519 28.6657 28.7018L28.6657 28.702L28.6754 28.7671L28.6879 28.8502L28.725 29.117C28.7361 29.18 28.7454 29.2449 28.7546 29.3097L28.7546 29.3099C28.7639 29.3747 28.7732 29.4395 28.7843 29.5024C28.7954 29.5543 28.8046 29.6043 28.8139 29.6543C28.8232 29.7043 28.8324 29.7544 28.8436 29.8063L28.8954 30.073C28.9251 30.199 28.9473 30.3176 28.9695 30.4436C28.9807 30.4955 28.9936 30.5473 29.0066 30.5992C29.0196 30.6511 29.0325 30.703 29.0436 30.7549L29.1103 31.0365C29.1232 31.0877 29.1346 31.1375 29.1458 31.1866L29.146 31.1874L29.1461 31.1877C29.1608 31.2518 29.1751 31.3146 29.1919 31.3774C29.2067 31.4292 29.2215 31.483 29.2363 31.5367C29.2512 31.5904 29.266 31.6442 29.2808 31.696L29.3475 31.948C29.3642 32.0149 29.3833 32.0795 29.4021 32.143C29.4166 32.1921 29.4309 32.2405 29.4438 32.2889C29.4735 32.4001 29.5105 32.5113 29.5476 32.6224L29.6217 32.8596C29.6454 32.9483 29.6737 33.0323 29.7031 33.1191L29.7031 33.1192L29.7255 33.1857C29.7482 33.254 29.7738 33.3223 29.7987 33.3889L29.7988 33.3891L29.7989 33.3893L29.799 33.3897C29.8146 33.4312 29.8299 33.472 29.844 33.5117L29.9256 33.7415C29.9429 33.7877 29.9591 33.8329 29.9751 33.8773L29.9751 33.8775C30.0001 33.9469 30.0244 34.0146 30.0515 34.0824L30.1849 34.4159L30.2739 34.6308L30.2739 34.631C30.3184 34.7421 30.3628 34.8532 30.4073 34.9569C30.4332 35.0162 30.4591 35.0736 30.4851 35.131C30.511 35.1885 30.537 35.2459 30.5629 35.3052L30.6444 35.4905C30.6704 35.5424 30.6945 35.5961 30.7185 35.6498C30.7426 35.7036 30.7667 35.7573 30.7926 35.8091C30.8223 35.8647 30.8501 35.9222 30.8779 35.9796C30.9057 36.037 30.9335 36.0945 30.9631 36.1501L31.0594 36.3427C31.0854 36.3946 31.1113 36.4446 31.1372 36.4946C31.1632 36.5447 31.1891 36.5947 31.2151 36.6466C31.2669 36.7503 31.3262 36.8541 31.3855 36.9579L31.4967 37.1579C31.5486 37.2617 31.6079 37.3655 31.6671 37.4692L31.8672 37.8027L31.9562 37.9583C32.0155 38.0621 32.0747 38.1584 32.1414 38.2622C32.1831 38.3317 32.2277 38.3982 32.2715 38.4637L32.2716 38.4638L32.315 38.5288C32.3264 38.5462 32.3378 38.5635 32.349 38.5809L32.4527 38.7439C32.4829 38.7909 32.5131 38.8364 32.5433 38.8817L32.5528 38.8958C32.5861 38.9458 32.6195 38.9959 32.6528 39.0477C32.6899 39.1033 32.7288 39.1571 32.7677 39.2108C32.8066 39.2645 32.8455 39.3182 32.8825 39.3738L32.9789 39.5072C33.016 39.5591 33.053 39.6092 33.0901 39.6592C33.1271 39.7092 33.1642 39.7592 33.2012 39.8111C33.2827 39.9221 33.3641 40.0258 33.4455 40.1295L33.4456 40.1295L33.4456 40.1295L33.4458 40.1298L33.5421 40.2483C33.6162 40.3521 33.6978 40.4558 33.7793 40.5522C33.836 40.622 33.8953 40.6918 33.9571 40.7646C34.0004 40.8155 34.0448 40.8679 34.0905 40.9227L34.1276 40.9672C34.159 41.0038 34.1895 41.0405 34.2197 41.0768C34.275 41.1433 34.3294 41.2087 34.387 41.271C34.4516 41.3449 34.5162 41.4158 34.588 41.4947C34.6314 41.5424 34.6775 41.5931 34.7279 41.649C34.8302 41.7587 34.9253 41.8611 35.0204 41.9634L35.0243 41.9677C35.1207 42.0714 35.2244 42.1752 35.3208 42.2715L35.4023 42.353C35.4613 42.417 35.5236 42.4777 35.587 42.5395C35.6191 42.5707 35.6515 42.6023 35.6839 42.6347C35.7394 42.6865 35.7932 42.7384 35.8469 42.7902C35.9006 42.8421 35.9544 42.894 36.01 42.9459L36.047 42.983C36.0821 43.0156 36.1172 43.049 36.1526 43.0827L36.1527 43.0829L36.1528 43.0829C36.222 43.1488 36.2922 43.2157 36.3657 43.2794L36.7214 43.5907L36.7659 43.6277C36.8178 43.6722 36.8697 43.7148 36.9216 43.7575C36.9734 43.8001 37.0253 43.8427 37.0772 43.8871C37.1401 43.9353 37.2013 43.9853 37.2624 44.0353C37.3235 44.0853 37.3847 44.1354 37.4477 44.1836C37.5106 44.2317 37.5716 44.2797 37.6327 44.3278L37.6328 44.3279L37.6329 44.328C37.694 44.3762 37.7552 44.4244 37.8183 44.4726C37.8812 44.5208 37.9442 44.5671 38.0072 44.6134C38.0702 44.6597 38.1332 44.706 38.1962 44.7542C38.2592 44.7987 38.3241 44.845 38.3889 44.8913C38.4538 44.9376 38.5186 44.9839 38.5816 45.0284C38.7002 45.1099 38.8187 45.1915 38.967 45.2952L39.3672 45.562C39.4931 45.6435 39.6265 45.725 39.7599 45.8066C39.9007 45.8955 40.0341 45.977 40.1749 46.0585C40.2417 46.0956 40.3103 46.1346 40.3789 46.1735C40.4474 46.2124 40.5159 46.2513 40.5826 46.2883C40.7234 46.3698 40.8642 46.4513 41.005 46.5254C41.0753 46.5625 41.1439 46.5976 41.2124 46.6328C41.281 46.6681 41.3496 46.7033 41.42 46.7404C41.5607 46.8144 41.7089 46.8885 41.857 46.9626L41.8572 46.9627L42.2797 47.1628C42.3538 47.1961 42.4298 47.2295 42.5058 47.2629C42.5817 47.2962 42.6577 47.3295 42.7317 47.3629C42.8021 47.3925 42.8744 47.4221 42.9466 47.4518C43.0189 47.4814 43.0912 47.5111 43.1616 47.5407C43.3172 47.6074 43.4728 47.6667 43.6285 47.726C43.7767 47.7853 43.9175 47.8372 44.0657 47.8891C44.1472 47.9261 44.2361 47.9557 44.325 47.9854L44.3251 47.9854ZM70.7515 26.4871C71.2181 16.2199 63.2732 7.51844 53.006 7.05184C42.7388 6.58524 34.0374 14.5302 33.5708 24.7974C33.1042 35.0645 41.0491 43.766 51.3163 44.2326C61.5835 44.6992 70.2849 36.7542 70.7515 26.4871ZM61.0882 20.4263L51.8768 36.8612L42.6655 20.4263L61.0882 20.4263ZM52.9397 39.179C52.4673 40.0218 51.2864 40.0218 50.814 39.179L40.1855 20.2156C39.7131 19.3728 40.3036 18.3192 41.2483 18.3192L62.5053 18.3192C63.4501 18.3192 64.0405 19.3728 63.5681 20.2156L52.9397 39.179Z" fill="#BC7BF2"/>
</svg>
