<svg width="78" height="38" viewBox="0 0 78 38" fill="none" xmlns="http://www.w3.org/2000/svg">
<path fill-rule="evenodd" clip-rule="evenodd" d="M33.0727 35.4062C31.2148 36.7997 28.8481 37.4743 25.8621 37.4743C20.8251 37.4743 16.0695 32.7358 11.463 28.1458L11.463 28.1458L11.4463 28.1292L11.4445 28.1274C7.91163 24.6056 4.25713 20.9625 0.326248 19.2265C0.121652 19.138 0 18.95 0 18.7344C0 18.5187 0.121652 18.3362 0.326248 18.2478C4.25713 16.5118 7.91163 12.8687 11.4445 9.3469L11.4463 9.34507L11.463 9.32848C16.0695 4.73852 20.8251 0 25.8621 0C28.8481 0 31.2148 0.674615 33.0451 2.05702C33.0146 2.06808 32.9828 2.07914 32.9511 2.0902C32.9193 2.10126 32.8875 2.11232 32.8571 2.12338C32.8122 2.14048 32.7681 2.15675 32.7246 2.17284L32.7245 2.17286L32.7244 2.17288C32.6554 2.19839 32.5876 2.22344 32.5197 2.25056C32.4036 2.2948 32.293 2.33903 32.1824 2.38327L32.1824 2.3833C32.0718 2.42753 31.9612 2.47176 31.8507 2.52151C31.7401 2.56575 31.6295 2.61551 31.5244 2.66528C31.4515 2.69809 31.3786 2.7333 31.3073 2.76774C31.2704 2.78555 31.234 2.80315 31.1982 2.82011C31.161 2.83871 31.1244 2.85669 31.0882 2.87446L31.088 2.87458C31.0167 2.90959 30.9471 2.94382 30.8774 2.98047L30.5623 3.14636C30.4891 3.18484 30.416 3.22599 30.3448 3.2661L30.3448 3.26611C30.3136 3.28364 30.2829 3.30096 30.2526 3.31778C30.1759 3.35813 30.1022 3.40143 30.0271 3.44553L30.0269 3.44564C29.9992 3.46193 29.9713 3.47833 29.9429 3.49473L29.6443 3.6772C29.5946 3.71038 29.5434 3.74218 29.4923 3.77397C29.4411 3.80577 29.39 3.83756 29.3402 3.87074C29.2932 3.90392 29.2448 3.93571 29.1964 3.96751C29.1481 3.9993 29.0997 4.0311 29.0527 4.06428C29.0029 4.09746 28.9531 4.13202 28.9034 4.16658L28.9033 4.16662C28.8536 4.20116 28.8038 4.23571 28.7541 4.26887C28.6935 4.3105 28.633 4.35472 28.5689 4.40153L28.5688 4.40159L28.5686 4.40172L28.5681 4.40208C28.5388 4.42349 28.5087 4.44544 28.4776 4.46794C28.3781 4.53983 28.2785 4.61171 28.1845 4.6836C28.1403 4.71954 28.096 4.7541 28.0518 4.78866C28.0076 4.82322 27.9633 4.85778 27.9191 4.89372C27.8251 4.9656 27.7311 5.04301 27.6371 5.12042L27.6371 5.12044C27.5589 5.18392 27.4808 5.25172 27.4065 5.31621L27.4065 5.31623L27.3772 5.34162L27.344 5.36927C27.3053 5.40521 27.2652 5.43977 27.2251 5.47432C27.185 5.50889 27.1449 5.54345 27.1062 5.5794C27.0505 5.62769 26.9973 5.67849 26.9432 5.7301C26.9168 5.75531 26.8902 5.78071 26.8629 5.80611L26.5975 6.05494C26.5256 6.1213 26.4537 6.19318 26.3819 6.26507L26.3376 6.31484L26.3375 6.31492C26.2602 6.3923 26.1828 6.46969 26.1054 6.55261C26.0619 6.59605 26.0209 6.64185 25.9791 6.68848L25.9791 6.68849L25.9791 6.6885L25.979 6.68853C25.957 6.71311 25.9347 6.73792 25.9118 6.76274L25.8621 6.81803C25.8262 6.85945 25.7889 6.90088 25.7516 6.9423L25.7515 6.94247C25.7141 6.98394 25.6768 7.0254 25.6409 7.06687L25.4418 7.29911L25.4142 7.33229C25.3787 7.37539 25.3432 7.41733 25.3082 7.45863L25.3081 7.45876L25.3078 7.45918C25.2666 7.50778 25.2262 7.55551 25.1875 7.60324C25.1598 7.63642 25.1335 7.67098 25.1073 7.70554C25.081 7.7401 25.0547 7.77466 25.0271 7.80784L24.9497 7.9129L24.9173 7.95396C24.8658 8.0193 24.8119 8.08775 24.7617 8.1562C24.7188 8.2119 24.6793 8.2676 24.638 8.32587L24.6013 8.37739L24.5239 8.48798L24.358 8.72023C24.3027 8.79761 24.253 8.875 24.2032 8.95239L24.2032 8.95242L24.2032 8.95244L24.2032 8.95247L24.1479 9.04094C24.1202 9.08518 24.0912 9.12941 24.0622 9.17365C24.0331 9.21789 24.0041 9.26213 23.9765 9.30637C23.9267 9.38378 23.8825 9.45567 23.8382 9.53308L23.7608 9.66026L23.6115 9.9091C23.5894 9.9478 23.5687 9.98651 23.5479 10.0252C23.5272 10.0639 23.5065 10.1026 23.4843 10.1413L23.418 10.263C23.4047 10.2866 23.3914 10.3098 23.3783 10.3328C23.3421 10.3961 23.3066 10.458 23.2742 10.5229C23.2633 10.5446 23.2519 10.5669 23.2402 10.5896C23.2163 10.6363 23.1915 10.6847 23.1691 10.733L23.0862 10.8989C23.042 10.9763 23.0033 11.0593 22.9645 11.1422C22.9258 11.2196 22.8871 11.3026 22.854 11.38L22.7876 11.5182L22.6715 11.7836C22.6383 11.861 22.6052 11.9439 22.572 12.0268L22.5719 12.0269L22.5001 12.2039C22.4835 12.2426 22.4683 12.2813 22.453 12.32C22.4378 12.3587 22.4226 12.3974 22.4061 12.4361C22.3797 12.4976 22.3569 12.5625 22.3347 12.6254L22.3176 12.6739L22.2568 12.8509C22.2429 12.8923 22.2277 12.9338 22.2125 12.9753C22.1973 13.0168 22.1821 13.0582 22.1683 13.0997C22.1406 13.1771 22.113 13.2601 22.0909 13.3375L22.03 13.5365C22.0205 13.57 22.0099 13.6034 21.9992 13.6372C21.9851 13.6818 21.9707 13.7272 21.9582 13.7743C21.9353 13.8429 21.9162 13.9153 21.8978 13.9852L21.8977 13.9853L21.8863 14.0287L21.8365 14.2056C21.8254 14.2471 21.8144 14.29 21.8033 14.3329C21.7923 14.3757 21.7812 14.4185 21.7701 14.46C21.748 14.5429 21.7259 14.6314 21.7093 14.7143L21.6596 14.9245C21.6374 15.0018 21.6209 15.0792 21.6043 15.1566L21.6043 15.1567C21.585 15.2385 21.57 15.3245 21.5554 15.4073L21.5554 15.4074L21.549 15.4443L21.5158 15.6267L21.5083 15.6615C21.4943 15.726 21.4809 15.7877 21.4715 15.8534C21.4633 15.9032 21.4563 15.953 21.4494 16.0027C21.4425 16.0525 21.4356 16.1023 21.4273 16.152L21.3997 16.3511C21.3941 16.3871 21.39 16.4216 21.3858 16.4562V16.4562C21.3817 16.4907 21.3775 16.5253 21.372 16.5612L21.3388 16.893L21.3167 17.0976L21.3001 17.2801C21.2891 17.4073 21.278 17.54 21.2725 17.6727L21.2614 17.8552C21.2559 17.9049 21.2504 17.9547 21.2504 18.0045C21.2393 18.2478 21.2338 18.4911 21.2338 18.7344C21.2338 18.9777 21.2393 19.221 21.2504 19.4643C21.2531 19.4891 21.2545 19.514 21.2559 19.5388L21.2559 19.5389L21.2559 19.539C21.2573 19.5639 21.2587 19.5887 21.2614 19.6136L21.2725 19.8071C21.2778 19.8712 21.2819 19.934 21.2859 19.9961L21.2859 19.9963C21.2902 20.0628 21.2944 20.1285 21.3001 20.1942L21.3167 20.3767L21.3388 20.5813C21.3499 20.6863 21.361 20.7969 21.372 20.9075C21.3735 20.9175 21.3751 20.9275 21.3766 20.9376C21.3806 20.9641 21.3846 20.9911 21.3886 21.0181C21.3941 21.0555 21.3997 21.0928 21.4052 21.1287L21.4328 21.3278C21.4411 21.3748 21.448 21.4231 21.4549 21.4715L21.455 21.4715L21.455 21.4715L21.455 21.4716L21.455 21.4716C21.4619 21.52 21.4688 21.5683 21.4771 21.6153C21.4854 21.654 21.4923 21.6913 21.4992 21.7287C21.5061 21.766 21.513 21.8033 21.5213 21.842L21.56 22.0411C21.5821 22.1351 21.5987 22.2236 21.6153 22.3176C21.6236 22.3563 21.6333 22.395 21.643 22.4337C21.6526 22.4724 21.6623 22.5111 21.6706 22.5498L21.7204 22.76C21.73 22.7985 21.7386 22.8359 21.747 22.8728L21.747 22.8728C21.758 22.9206 21.7687 22.9675 21.7812 23.0143C21.7923 23.053 21.8033 23.0931 21.8144 23.1332L21.8144 23.1334C21.8255 23.1734 21.8365 23.2134 21.8476 23.2521L21.8973 23.4401C21.9098 23.49 21.9241 23.5382 21.9381 23.5856C21.9489 23.6222 21.9596 23.6583 21.9692 23.6945C21.9913 23.7774 22.019 23.8603 22.0466 23.9432L22.0466 23.9433L22.1019 24.1202C22.1196 24.1865 22.1408 24.2492 22.1627 24.314L22.1793 24.3635C22.1964 24.4146 22.2155 24.4656 22.2341 24.5154L22.2341 24.5154L22.2345 24.5165C22.246 24.5472 22.2573 24.5774 22.2678 24.6068L22.3286 24.7783C22.3415 24.8127 22.3536 24.8463 22.3655 24.8794L22.3656 24.8797L22.3656 24.8798L22.3657 24.8798C22.3843 24.9316 22.4024 24.9821 22.4226 25.0326L22.5222 25.2815L22.5885 25.4418L22.5887 25.4422L22.5887 25.4422C22.6218 25.525 22.6549 25.6078 22.6881 25.6851C22.7074 25.7293 22.7267 25.772 22.746 25.8148L22.7461 25.815L22.7462 25.8152C22.7655 25.858 22.7849 25.9008 22.8042 25.945L22.865 26.0833C22.8844 26.122 22.9023 26.1621 22.9203 26.2021L22.9204 26.2023C22.9383 26.2423 22.9563 26.2824 22.9756 26.321C22.9977 26.3625 23.0185 26.4054 23.0392 26.4482C23.0599 26.4911 23.0807 26.5339 23.1028 26.5754L23.1747 26.7192C23.194 26.7579 23.2134 26.7952 23.2327 26.8325C23.2521 26.8698 23.2714 26.9072 23.2908 26.9459C23.3295 27.0233 23.3737 27.1007 23.4179 27.178L23.418 27.1781L23.5009 27.3274C23.5396 27.4048 23.5839 27.4823 23.6281 27.5597L23.7774 27.8085L23.8438 27.9246C23.888 28.002 23.9322 28.0739 23.982 28.1513C24.0131 28.2032 24.0464 28.2529 24.0791 28.3018L24.0792 28.3019L24.0793 28.302C24.0988 28.3312 24.1182 28.3602 24.1368 28.3891L24.2142 28.5108C24.2391 28.5495 24.264 28.5868 24.2889 28.6241C24.3138 28.6615 24.3387 28.6988 24.3635 28.7375C24.3912 28.779 24.4202 28.819 24.4492 28.8591C24.4783 28.8992 24.5073 28.9393 24.535 28.9808L24.6068 29.0803C24.6345 29.119 24.6621 29.1563 24.6897 29.1935L24.6898 29.1937C24.7175 29.231 24.7451 29.2683 24.7727 29.307C24.8335 29.3899 24.8943 29.4673 24.9551 29.5447L24.9551 29.5447L24.9551 29.5447L24.9552 29.5448L25.0271 29.6333C25.0824 29.7107 25.1432 29.7881 25.204 29.86C25.2464 29.9121 25.2906 29.9641 25.3367 30.0185L25.3368 30.0185C25.369 30.0565 25.4022 30.0956 25.4363 30.1365L25.4639 30.1697C25.4874 30.197 25.5101 30.2243 25.5327 30.2514C25.5739 30.3011 25.6146 30.3499 25.6575 30.3964C25.7057 30.4514 25.7538 30.5044 25.8074 30.5631L25.8074 30.5632L25.8075 30.5633C25.8399 30.5989 25.8743 30.6367 25.9118 30.6784C25.9893 30.7613 26.0611 30.8387 26.133 30.9162C26.2049 30.9935 26.2822 31.0709 26.3541 31.1427L26.3542 31.1429L26.415 31.2037C26.4591 31.2514 26.5055 31.2967 26.5528 31.3427L26.5529 31.3428C26.5768 31.3661 26.601 31.3897 26.6252 31.4138C26.6666 31.4525 26.7067 31.4912 26.7468 31.5299C26.7869 31.5686 26.827 31.6074 26.8685 31.6461L26.8961 31.6737C26.9073 31.6841 26.9185 31.6947 26.9298 31.7053C26.9448 31.7194 26.9598 31.7337 26.9749 31.7481L26.975 31.7482L26.9751 31.7483C27.0267 31.7975 27.0791 31.8474 27.1339 31.8949L27.3993 32.1271L27.4325 32.1548C27.4712 32.188 27.5099 32.2198 27.5487 32.2516C27.5874 32.2834 27.626 32.3152 27.6647 32.3483C27.7117 32.3843 27.7573 32.4216 27.8029 32.4589L27.803 32.459L27.8031 32.459C27.8487 32.4963 27.8943 32.5336 27.9412 32.5695C27.9882 32.6055 28.0339 32.6414 28.0795 32.6774C28.1251 32.7133 28.1707 32.7492 28.2177 32.7852C28.2646 32.821 28.3114 32.8555 28.3583 32.8899L28.3587 32.8902L28.3591 32.8905C28.406 32.925 28.4528 32.9595 28.4997 32.9953C28.5467 33.0285 28.5951 33.063 28.6435 33.0976C28.6919 33.1322 28.7402 33.1667 28.7872 33.1999C28.8757 33.2607 28.9642 33.3215 29.0748 33.399L29.3734 33.598C29.4674 33.6589 29.5669 33.7197 29.6665 33.7805C29.7715 33.8469 29.8711 33.9077 29.9761 33.9685C30.0259 33.9962 30.0771 34.0252 30.1282 34.0542L30.1295 34.0549C30.1802 34.0837 30.2309 34.1125 30.2802 34.1399C30.3853 34.2008 30.4904 34.2616 30.5954 34.3169C30.619 34.3293 30.6423 34.3414 30.6654 34.3534L30.7502 34.397L30.7511 34.3975C30.802 34.4236 30.8528 34.4497 30.9051 34.4772C31.0102 34.5325 31.1207 34.5878 31.2313 34.6431L31.5465 34.7924C31.6018 34.8173 31.6585 34.8422 31.7152 34.8671L31.7827 34.8967C31.7996 34.9042 31.8165 34.9117 31.8333 34.9191C31.8502 34.9267 31.8671 34.9342 31.8838 34.9417C31.9364 34.9638 31.9903 34.986 32.0442 35.0081L32.0453 35.0085L32.0459 35.0088C32.0993 35.0307 32.1526 35.0526 32.2046 35.0744C32.3206 35.1242 32.4367 35.1684 32.5528 35.2126L32.5529 35.2127C32.6635 35.2569 32.7686 35.2956 32.8792 35.3343C32.94 35.362 33.0064 35.3841 33.0727 35.4062ZM77.509 18.2478C73.5775 16.5115 69.9224 12.8675 66.3889 9.33959L66.3717 9.32239C61.7653 4.73814 57.0044 5.01722e-05 51.9732 5.01722e-05C48.9872 5.01722e-05 46.6205 0.674665 44.7626 2.06813C44.8289 2.09025 44.8953 2.11237 44.9561 2.14002C45.0667 2.17872 45.1718 2.21743 45.2823 2.26167C45.3403 2.28376 45.3983 2.30724 45.4563 2.33071L45.4565 2.33079L45.4567 2.33087C45.5147 2.35434 45.5727 2.37781 45.6307 2.39991C45.6832 2.42203 45.7372 2.44415 45.7911 2.46627C45.845 2.48838 45.8989 2.5105 45.9514 2.53262C46.0067 2.5575 46.0634 2.58239 46.1201 2.60727C46.1768 2.63215 46.2334 2.65704 46.2887 2.68192L46.6039 2.83122C46.7145 2.88652 46.8251 2.94181 46.9302 2.99711C46.9826 3.02469 47.0336 3.05089 47.0846 3.07709L47.0849 3.07723L47.0851 3.07732L47.0854 3.07746C47.1364 3.10367 47.1874 3.12988 47.2398 3.15747C47.3449 3.21276 47.45 3.27359 47.555 3.33442C47.6048 3.36206 47.6559 3.39109 47.7071 3.42012C47.7582 3.44915 47.8094 3.47818 47.8592 3.50583C47.9642 3.56666 48.0638 3.62749 48.1688 3.69384C48.2683 3.75467 48.3679 3.81549 48.4619 3.87632L48.7605 4.07539C48.8711 4.1528 48.9595 4.21363 49.048 4.27445C49.095 4.30763 49.1434 4.34219 49.1918 4.37675C49.2402 4.41131 49.2886 4.44587 49.3356 4.47905C49.3826 4.51499 49.4296 4.54954 49.4766 4.5841L49.4766 4.58413L49.4768 4.58431C49.5238 4.6188 49.5707 4.6533 49.6176 4.68917C49.6646 4.72512 49.7102 4.76106 49.7558 4.797C49.8014 4.83294 49.8471 4.86889 49.8941 4.90483C49.9411 4.94078 49.9867 4.97811 50.0323 5.01544C50.0779 5.05276 50.1235 5.09008 50.1705 5.12602C50.259 5.1979 50.3475 5.27532 50.436 5.35273L50.4691 5.38591L50.4694 5.38616C50.5467 5.45243 50.6241 5.51871 50.7014 5.5905C50.7562 5.63804 50.8087 5.68799 50.8603 5.73717C50.8867 5.76236 50.9129 5.78734 50.9392 5.81169L50.9706 5.84138C51.0575 5.92337 51.136 5.99748 51.2101 6.07158L51.4202 6.28171L51.4534 6.31488C51.4949 6.35634 51.5363 6.39918 51.5778 6.44202L51.5778 6.44207C51.6193 6.48492 51.6608 6.52778 51.7022 6.56925C51.7247 6.59355 51.7477 6.61784 51.771 6.64236L51.7713 6.64263C51.8167 6.69055 51.863 6.73928 51.9068 6.79043L51.9843 6.87338C52.0174 6.90932 52.0492 6.94526 52.081 6.98121C52.1128 7.01715 52.1446 7.05309 52.1778 7.08903L52.3603 7.30469L52.399 7.34893C52.4271 7.38229 52.4535 7.41342 52.4788 7.44321C52.5331 7.50722 52.5822 7.56503 52.6312 7.62541C52.67 7.67124 52.7065 7.71933 52.7437 7.76823L52.7438 7.76841C52.7649 7.79614 52.7862 7.82413 52.8082 7.85212L52.8801 7.94613L52.8802 7.94627C52.941 8.02364 53.0017 8.101 53.057 8.17837C53.1123 8.25578 53.1676 8.3332 53.2229 8.40508L53.3003 8.51568C53.3167 8.53864 53.3331 8.56111 53.3494 8.58338C53.3879 8.63622 53.4257 8.68794 53.4607 8.74239C53.516 8.81981 53.5713 8.90275 53.621 8.9857L53.6763 9.07417C53.704 9.11566 53.7317 9.15854 53.7593 9.20142C53.7869 9.24425 53.8146 9.28708 53.8422 9.32853C53.8975 9.41148 53.9473 9.49442 53.997 9.57737L54.0468 9.66031C54.0745 9.70455 54.1007 9.74878 54.127 9.79302C54.1533 9.83726 54.1795 9.8815 54.2072 9.92573L54.3399 10.158L54.4007 10.263C54.4256 10.3073 54.4505 10.3529 54.4754 10.3985L54.5203 10.4806L54.55 10.534C54.5694 10.5727 54.5887 10.61 54.6081 10.6473C54.6274 10.6847 54.6468 10.722 54.6661 10.7607L54.738 10.9045C54.7822 10.9874 54.8265 11.0759 54.8652 11.1588C54.9039 11.2363 54.9371 11.3137 54.9703 11.3911L55.0421 11.5514C55.0808 11.6344 55.1196 11.7173 55.1527 11.8003C55.1914 11.8887 55.2246 11.9717 55.2578 12.0602L55.3186 12.2095C55.3352 12.2509 55.3518 12.291 55.3683 12.331C55.385 12.3711 55.4016 12.4113 55.4182 12.4528C55.4445 12.5142 55.4673 12.5791 55.4894 12.6419L55.4894 12.6419L55.5066 12.6905L55.5675 12.8675C55.6006 12.9504 55.6283 13.0334 55.6559 13.1163C55.6836 13.1993 55.7112 13.2877 55.7389 13.3762L55.7389 13.3762L55.7942 13.5587C55.8218 13.6361 55.8439 13.7135 55.8661 13.7965C55.8771 13.8379 55.8896 13.8808 55.902 13.9236C55.9144 13.9665 55.9269 14.0094 55.9379 14.0508L55.9877 14.2388C55.9986 14.2771 56.0096 14.3168 56.0205 14.3564L56.0205 14.3565L56.0209 14.3577L56.0209 14.3578C56.032 14.3979 56.043 14.4379 56.0541 14.4766C56.0665 14.5234 56.0773 14.5702 56.0882 14.6181L56.0882 14.6181C56.0967 14.655 56.1053 14.6925 56.1149 14.731L56.1647 14.9411C56.173 14.9798 56.1826 15.0185 56.1923 15.0573C56.202 15.096 56.2117 15.1347 56.22 15.1733C56.2392 15.2552 56.2543 15.3412 56.2688 15.4242L56.2752 15.4609L56.3084 15.6434C56.3167 15.6821 56.3236 15.7208 56.3305 15.7595C56.3375 15.7982 56.3444 15.8369 56.3527 15.8756C56.3693 15.9751 56.3858 16.0747 56.3969 16.1742L56.4245 16.3733L56.4285 16.3986C56.4381 16.461 56.4473 16.52 56.4522 16.5834L56.4854 16.9152L56.5075 17.1198L56.5241 17.3023C56.5294 17.3665 56.5335 17.4308 56.5375 17.4944L56.5375 17.4946L56.5375 17.4947L56.5375 17.4948C56.5418 17.5625 56.546 17.6294 56.5517 17.6949L56.5628 17.8773C56.5655 17.9022 56.5669 17.927 56.5683 17.9518L56.5683 17.952C56.5697 17.9769 56.5711 18.0018 56.5738 18.0266C56.5849 18.2699 56.5904 18.5132 56.5904 18.7565C56.5904 18.9999 56.5849 19.2432 56.5738 19.4865C56.5738 19.5362 56.5683 19.586 56.5628 19.6358L56.5517 19.8293C56.5466 19.9466 56.5368 20.064 56.5267 20.1857L56.5266 20.1858L56.5241 20.2164L56.5075 20.3988L56.4854 20.6034C56.4743 20.714 56.4633 20.8246 56.4522 20.9297C56.4467 20.9656 56.4411 21.0029 56.4356 21.0402L56.4269 21.099L56.419 21.1509L56.3914 21.3499C56.3803 21.4439 56.3637 21.5435 56.3471 21.6375C56.3444 21.655 56.3414 21.6727 56.3383 21.6908C56.3356 21.7061 56.3327 21.7215 56.3299 21.7371L56.3299 21.7372L56.3299 21.7374C56.3223 21.779 56.3145 21.8216 56.3084 21.8642L56.2697 22.0633C56.2531 22.1573 56.2365 22.2513 56.2144 22.3397L56.1647 22.572L56.1149 22.7821C56.0983 22.8651 56.0762 22.9535 56.0541 23.0365C56.0443 23.0708 56.0355 23.1052 56.0269 23.139L56.0269 23.1391C56.0161 23.1816 56.0055 23.2232 55.9932 23.2632L55.9379 23.4678C55.9158 23.5507 55.8937 23.6337 55.8661 23.7166C55.8439 23.7996 55.8163 23.888 55.7886 23.971L55.7333 24.1369L55.7127 24.1995L55.6918 24.2642C55.678 24.307 55.6642 24.3498 55.6504 24.3912C55.6228 24.4742 55.5951 24.5516 55.5619 24.6345L55.5011 24.806C55.4812 24.8656 55.4585 24.9253 55.4349 24.987L55.4349 24.9872L55.4346 24.9879L55.4345 24.9881L55.4071 25.0603L55.3849 25.1153C55.3593 25.1782 55.3345 25.2393 55.3131 25.3036L55.2412 25.4861C55.2246 25.5248 55.2094 25.5635 55.1942 25.6022C55.179 25.6409 55.1638 25.6796 55.1472 25.7183C55.1221 25.781 55.0939 25.8406 55.0649 25.9017L55.0648 25.9019L55.0366 25.9617L54.9703 26.1054L54.9699 26.1062C54.9313 26.1889 54.8927 26.2716 54.8541 26.3598C54.8252 26.426 54.7931 26.4891 54.7603 26.5537C54.7492 26.5755 54.7381 26.5974 54.727 26.6197L54.6551 26.7579L54.6302 26.807L54.597 26.8713C54.5777 26.9086 54.5583 26.9459 54.5389 26.9846C54.5168 27.0261 54.4934 27.0689 54.4699 27.1117L54.4696 27.1123C54.4462 27.155 54.4227 27.1977 54.4007 27.239L54.3399 27.3551C54.2956 27.4381 54.2514 27.521 54.2016 27.604C54.1846 27.6337 54.1668 27.6635 54.1488 27.6936L54.1487 27.6937L54.1487 27.6938C54.1199 27.7418 54.0906 27.7907 54.0634 27.8417L53.9639 28.0021C53.9445 28.0353 53.9238 28.0684 53.903 28.1016L53.903 28.1017C53.8823 28.1349 53.8615 28.168 53.8422 28.2012C53.8006 28.2678 53.7558 28.3344 53.7126 28.3987L53.6708 28.461L53.5934 28.5827L53.574 28.6121L53.5557 28.64L53.5557 28.6401L53.5556 28.6402C53.5236 28.6893 53.4908 28.7397 53.4551 28.7873C53.3998 28.8702 53.339 28.9532 53.2782 29.0361L53.2008 29.1412C53.151 29.2131 53.1012 29.285 53.0459 29.3513C52.9958 29.4197 52.9418 29.4882 52.8903 29.5535L52.8579 29.5946L52.7805 29.6997C52.7529 29.7329 52.7266 29.7674 52.7004 29.802C52.6741 29.8365 52.6478 29.8711 52.6202 29.9043C52.5484 29.9926 52.4767 30.0754 52.4049 30.1582L52.4045 30.1586L52.3492 30.225C52.3193 30.2603 52.2908 30.2943 52.2622 30.3283L52.2607 30.3301L52.2592 30.3318L52.2585 30.3327C52.2302 30.3664 52.2019 30.4001 52.1723 30.4351C52.1391 30.4711 52.1073 30.507 52.0755 30.543C52.0437 30.5789 52.0119 30.6148 51.9787 30.6508L51.8792 30.7558C51.8184 30.8222 51.7631 30.883 51.7022 30.9494C51.6663 30.9853 51.6303 31.0227 51.5944 31.06C51.5584 31.0973 51.5225 31.1346 51.4866 31.1706L51.4479 31.2093C51.4302 31.227 51.4125 31.2449 51.3947 31.2631L51.3708 31.2875C51.3186 31.341 51.2656 31.3952 51.2101 31.447C51.1327 31.5245 51.0497 31.6019 50.9668 31.6793C50.9171 31.7238 50.8735 31.7646 50.8321 31.8034C50.786 31.8466 50.7424 31.8874 50.6959 31.9281C50.6354 31.9848 50.5724 32.0389 50.5103 32.0921L50.5102 32.0922L50.5102 32.0923L50.5101 32.0923L50.5097 32.0926L50.5094 32.093C50.4958 32.1046 50.4823 32.1162 50.4688 32.1278C50.4541 32.1405 50.4394 32.1532 50.4249 32.1659C50.3254 32.2544 50.248 32.3207 50.165 32.3871L50.1648 32.3872C50.0709 32.4646 49.9769 32.542 49.883 32.6138C49.7945 32.6857 49.7061 32.7576 49.6176 32.8239C49.5236 32.8958 49.4242 32.9676 49.3247 33.0394L49.3245 33.0396C49.2775 33.0728 49.2319 33.1059 49.1863 33.1391C49.1406 33.1723 49.095 33.2055 49.048 33.2386C48.9982 33.2718 48.9485 33.3064 48.8987 33.341L48.8984 33.3412L48.8981 33.3414C48.8485 33.3758 48.799 33.4102 48.7494 33.4432C48.7024 33.4764 48.654 33.5082 48.6057 33.54L48.6055 33.5401C48.5572 33.5719 48.5088 33.6036 48.4619 33.6368C48.4121 33.67 48.3609 33.7018 48.3098 33.7336C48.2586 33.7654 48.2075 33.7971 48.1578 33.8303L47.8592 34.0128L47.8067 34.0434L47.7753 34.0618L47.775 34.062L47.7749 34.062C47.6999 34.1061 47.6261 34.1494 47.5495 34.1897C47.5193 34.2065 47.4885 34.2239 47.4574 34.2414C47.3861 34.2815 47.313 34.3227 47.2398 34.3612L46.9246 34.527C46.8721 34.5547 46.8196 34.5809 46.7671 34.6072L46.7669 34.6073C46.7144 34.6335 46.6619 34.6598 46.6095 34.6874C46.5542 34.7123 46.5002 34.7386 46.4463 34.7648C46.3924 34.7911 46.3385 34.8173 46.2832 34.8422C46.1781 34.892 46.0676 34.9418 45.957 34.9915C45.8464 35.0413 45.7359 35.0855 45.6254 35.1297L45.6252 35.1298L45.6248 35.1299L45.6247 35.13C45.5143 35.1741 45.4038 35.2183 45.2879 35.2625C45.2201 35.2896 45.1523 35.3146 45.0832 35.3402L45.0818 35.3407L45.0808 35.341C45.038 35.3569 44.9947 35.3729 44.9506 35.3897C44.9202 35.4007 44.8884 35.4118 44.8566 35.4228C44.8248 35.4339 44.793 35.445 44.7626 35.456C46.6205 36.844 48.9872 37.5241 51.9732 37.5241C57.0101 37.5241 61.7657 32.7856 66.3667 28.2012L66.3834 28.1846L66.413 28.1552C69.9427 24.6419 73.5884 21.0133 77.5035 19.2819C77.7081 19.1934 77.8297 19.0054 77.8297 18.7897C77.8297 18.5188 77.7081 18.3363 77.509 18.2478ZM51.1272 29.8267C51.2267 29.7162 51.3262 29.6 51.4258 29.4839C51.6857 29.1798 51.9345 28.8701 52.1667 28.5605C52.3492 28.3116 52.5317 28.0517 52.7031 27.7918C53.1123 27.1725 53.4773 26.5256 53.7869 25.8841C53.9086 25.6298 54.0302 25.3588 54.1685 25.027C54.9094 23.2354 55.3297 21.3498 55.4071 19.431C55.4182 19.2043 55.4237 18.9721 55.4237 18.7454C55.4237 11.3965 50.4913 4.86048 43.4244 2.85875C41.9646 2.44403 40.4495 2.23943 38.9177 2.23943C37.386 2.23943 35.8654 2.44956 34.4111 2.85875C29.4621 4.26328 25.3923 7.98472 23.5233 12.8176C22.7878 14.7198 22.4173 16.7105 22.4173 18.7454C22.4173 18.9776 22.4229 19.2043 22.4339 19.431C22.7325 26.5753 27.5488 32.6856 34.4166 34.632C37.3252 35.4559 40.5269 35.4559 43.4355 34.632C46.1118 33.8744 48.578 32.4201 50.5687 30.4295C50.6599 30.3272 50.7539 30.2276 50.848 30.1281C50.942 30.0286 51.0359 29.929 51.1272 29.8267ZM38.9177 33.7804C30.6233 33.7804 23.8772 27.0343 23.8772 18.7398C23.8772 10.4454 30.6233 3.69925 38.9177 3.69925C47.2122 3.69925 53.9583 10.4454 53.9583 18.7398C53.9583 27.0343 47.2122 33.7804 38.9177 33.7804ZM52.7905 19.3655C53.1387 11.7047 47.2106 5.21225 39.5499 4.8641C31.8891 4.51595 25.3966 10.444 25.0485 18.1047C24.7003 25.7655 30.6284 32.258 38.2891 32.6061C45.9499 32.9543 52.4424 27.0262 52.7905 19.3655ZM45.5804 14.8432L38.7075 27.106L31.8345 14.8432L45.5804 14.8432ZM39.5005 28.8354C39.148 29.4642 38.2669 29.4642 37.9144 28.8354L29.9841 14.686C29.6317 14.0572 30.0722 13.2711 30.7771 13.2711L46.6378 13.2711C47.3427 13.2711 47.7833 14.0572 47.4308 14.686L39.5005 28.8354Z" fill="#8B2ADD"/>
</svg>
