<svg width="93" height="99" viewBox="0 0 93 99" fill="none" xmlns="http://www.w3.org/2000/svg">
<path d="M42.0215 56.2965C39.7026 64.6597 38.2896 73.2247 36.45 81.6938C36.1213 83.2029 35.6394 84.6893 35.0973 86.1353C33.4334 90.5718 29.9726 92.5604 25.4853 93.0071C22.943 93.2594 20.4484 92.9036 18.019 92.1011C16.9047 90.9074 15.3312 90.4179 14.0487 89.4816C13.9634 88.5504 13.3385 87.8388 13.0373 86.9833C10.9819 81.126 14.5255 74.6732 20.5789 73.3408C22.6669 72.8815 24.7299 73.1616 26.8029 73.3837L26.7753 73.3711C26.9133 73.4417 27.0513 73.5124 27.1868 73.583C28.2007 74.0171 28.9838 74.7792 29.8345 75.4505C30.1859 75.7256 30.5849 76.1041 30.9087 75.3975C31.378 75.67 31.9 75.8795 32.3041 76.2278C33.062 76.8788 33.2276 76.5129 33.3556 75.7584C33.5388 74.6833 33.8048 73.6234 34.0207 72.5534C35.2153 66.6457 36.3898 60.733 37.607 54.8278C37.9408 53.2026 38.5707 51.638 38.5531 49.9421C39.6323 46.0987 40.3877 42.1796 41.2636 38.2882C41.5296 37.1072 42.551 36.1507 43.7607 35.964C45.4849 35.699 47.214 35.5022 48.9633 35.4845C48.9231 35.4467 48.8855 35.4088 48.8453 35.3684C48.8177 35.3407 48.7876 35.3129 48.76 35.2852C48.9407 34.682 49.4476 34.9192 49.8115 34.9167C57.0369 34.8561 64.1719 33.7231 71.3545 33.1502C73.5555 32.9761 75.7465 32.6808 77.9474 32.5294C80.6504 32.3427 81.4008 32.9004 82.2315 35.4845C81.9102 35.9085 81.9955 36.3804 82.0708 36.8523C82.0583 36.8927 82.0407 36.9305 82.0307 36.9709C81.0168 41.5563 80.0004 46.1416 78.9915 50.7295C78.9463 50.9389 79.0617 51.1333 79.25 51.2569C78.9162 52.5313 78.6175 53.8158 78.2411 55.0801C75.8368 63.1455 73.4275 71.2109 70.9982 79.2687C70.3331 81.4743 69.7408 83.7152 68.609 85.7391C67.7557 87.2659 66.8898 88.8204 65.1431 89.5422C64.6462 89.5826 64.1417 89.5826 63.6524 89.6684C60.962 90.1453 58.3218 89.9308 55.7519 89.0324C51.2069 87.4426 48.8578 83.4528 49.5129 78.6958C49.8442 76.2934 51.109 74.4335 52.5973 72.6619C53.7668 71.9856 54.9338 71.3118 56.1033 70.6355C59.5691 69.4418 62.9421 69.7901 66.2474 71.2563C66.6941 71.4557 67.0956 71.8039 67.6377 71.7206C67.7607 72.2657 68.1472 72.3793 68.6316 72.3313C68.7621 72.8916 69.1812 73.2903 69.6756 73.2499C70.2553 73.202 70.1047 72.5408 70.1951 72.1244C70.948 68.6822 71.7285 65.2426 72.4036 61.7853C72.6169 60.6875 73.0009 59.5999 72.9055 58.4491C73.3422 57.7476 73.1791 56.9148 73.42 56.1602C74.3436 53.2606 75.227 50.3484 76.0928 47.4312C76.2384 46.9441 76.4667 46.3359 75.6988 46.0735C75.7766 45.5789 75.7866 45.0615 75.9447 44.5947C76.2911 43.56 75.9573 43.2572 74.9183 43.3783C72.6018 43.6508 70.2779 43.8729 67.9539 44.0874C60.4852 44.7814 53.0139 45.4628 45.5451 46.1593C45.3142 46.182 45.0933 46.3334 44.87 46.4268C43.7456 46.0079 43.5775 46.8911 43.4194 47.5977C42.8798 50.0052 42.3904 52.4228 41.9211 54.8454C41.8333 55.3199 41.625 55.8448 42.0215 56.2965Z" fill="#81C5EB"/>
<path d="M16.2398 31.3964C13.7226 33.0973 11.6496 35.3407 9.25537 37.188C5.94511 39.7419 0.900675 37.7609 0.0498964 33.6197C-0.153387 32.6279 0.33098 31.727 0.318431 30.7655C1.00859 30.6999 1.03118 29.9781 1.42771 29.6223C3.44799 28.2798 5.49337 27.9895 7.60401 29.4356C8.75594 30.2254 9.50132 31.3257 9.97815 32.6001C10.2843 33.4203 10.6332 33.4152 11.2154 32.8878C12.6033 31.6336 14.0212 30.4147 15.4091 29.1605C16.2925 28.3605 17.3491 27.7372 17.9991 26.6899L17.979 26.7076C18.1873 26.7278 18.2074 26.5839 18.2199 26.4325C20.3933 24.5575 22.6846 22.8339 25.0061 21.1506C25.0864 21.239 25.1516 21.3525 25.2495 21.4131C29.7795 24.1739 34.3169 26.9246 38.8444 29.6904C40.2849 30.5712 40.3376 31.4998 39.138 32.6935C38.3575 33.4733 37.2909 33.9755 36.8191 35.0581L36.8366 35.043C36.5731 35.0127 36.3347 35.0631 36.1365 35.2499C34.4299 37.1956 32.2339 38.5835 30.3768 40.3576C29.669 41.0339 28.748 41.4983 28.2962 42.4345C26.5771 44.6755 24.2858 46.2325 21.7686 47.3025C19.3267 48.3397 15.8207 46.2325 14.7641 43.4162C14.6185 43.025 14.5257 42.6137 14.4077 42.215C14.621 41.3771 14.8344 40.5368 15.0477 39.6964C16.5334 38.1116 18.2274 37.1072 20.4887 37.8189C22.3584 38.4094 23.6508 39.6864 24.341 41.4907C24.6673 42.3437 24.9885 42.3866 25.6159 41.8844C26.9084 40.8497 28.2611 39.8807 29.2901 38.5507L29.2675 38.5709C29.4256 38.5709 29.5009 38.4927 29.4959 38.3337C31.2351 36.8877 32.9768 35.4493 34.7084 33.9957C35.1677 33.6096 35.6094 33.1755 34.5754 32.9585C32.8889 31.5957 30.9515 30.6292 29.1269 29.4886C27.2597 28.3227 25.3549 27.2148 23.4676 26.0792C23.0887 25.3499 22.5792 25.4382 22.0497 25.8773C21.4724 26.3543 20.8902 26.8287 20.3632 27.3586C19.1108 28.6204 17.5523 29.5567 16.5033 31.0305C16.5033 31.0305 16.5184 31.0077 16.5184 31.0103C16.3176 31.0582 16.2674 31.2172 16.2398 31.3964Z" fill="#81C5EB"/>
<path d="M82.0662 36.8598C81.9909 36.3879 81.9056 35.916 82.2268 35.4921C83.8932 36.769 84.4203 38.3664 83.7903 40.4888C81.0448 49.7099 78.2791 58.9261 75.531 68.1447C75.28 68.985 75.0994 69.8456 74.886 70.696C74.6727 70.9232 74.6777 71.2134 74.6677 71.4985C74.6476 71.6096 74.6275 71.7206 74.6075 71.8317C74.5121 71.9654 74.369 72.084 74.3239 72.2329C72.8582 77.0176 71.6285 81.878 69.7287 86.5214C65.5576 93.7515 56.6859 93.701 51.2776 91.0109C43.2843 87.0388 44.115 77.5905 49.0791 73.366C51.0743 71.6676 53.2978 70.3402 56.1011 70.6481C54.9316 71.3244 53.7646 71.9982 52.5951 72.6745C52.432 72.6796 52.2413 72.6316 52.1108 72.6972C48.66 74.4537 46.7777 77.2977 46.5067 81.1538C46.2657 84.5732 47.6511 87.2987 50.4644 89.1889C53.2978 91.0916 56.4977 91.8033 59.8707 91.4399C61.7454 91.238 63.6678 90.9755 65.1435 89.5548C66.8902 88.833 67.7535 87.2785 68.6093 85.7517C69.7412 83.7278 70.3335 81.4844 70.9986 79.2813C73.4279 71.2235 75.8397 63.1581 78.2415 55.0927C78.6179 53.8309 78.9166 52.5439 79.2503 51.2695C79.9004 50.2273 79.8301 48.9554 80.2718 47.8702C81.3108 45.3088 81.9006 42.6161 82.7538 40.0017C83.1353 38.8181 82.8994 37.7734 82.0662 36.8598Z" fill="#40403F"/>
<path d="M63.7453 7.54344C61.7476 7.53335 59.7524 7.53587 57.7572 7.50054C57.1624 7.49045 57.0169 7.78823 56.8688 8.29547C55.9001 11.5837 54.8886 14.8593 53.8898 18.1374C53.7191 18.6977 53.5635 19.263 53.3578 19.8106C51.8193 23.8735 47.1062 24.9309 43.9214 21.9354C44.6718 21.9531 45.4197 21.9682 46.1701 21.9834C48.9809 23.2401 51.3776 22.2156 52.3614 19.1772C53.6213 15.2807 54.7757 11.3465 55.9176 7.41222C56.1585 6.58448 56.5275 6.29175 57.3782 6.29932C59.6269 6.31951 61.8756 6.25137 64.1242 6.21604C64.6262 6.33465 65.1281 6.31194 65.63 6.21604C66.2098 6.23623 66.787 6.27913 67.3667 6.26651C67.8837 6.25642 68.0268 6.44569 67.8762 6.94031C66.8648 10.226 65.8634 13.5168 64.8646 16.7949C64.2673 16.757 64.0339 16.1135 63.4767 16.1716C62.1968 14.983 59.8377 15.0637 58.2717 16.5703C57.1875 17.6151 57.0194 19.4093 57.9028 20.7897C58.9493 22.4654 60.5956 22.5865 62.2997 22.4427C64.1217 22.2887 65.1281 21.0875 65.63 19.4573C67.2011 14.3748 68.732 9.27715 70.2579 4.17951C70.5616 3.16503 70.0973 2.54675 69.0532 2.5089C68.22 2.47862 67.3843 2.50637 66.5486 2.5089C66.3905 2.1026 66.6364 1.75939 66.7192 1.38843C67.4295 1.39095 68.1397 1.39095 68.85 1.40105C70.9782 1.42881 71.9042 2.66031 71.2969 4.70946C70.2478 8.24752 69.1712 11.778 68.1046 15.311C67.7055 16.6359 67.3266 17.9684 66.8999 19.2857C65.9287 22.2761 64.443 23.5985 61.7877 23.6565C59.3157 23.7095 57.0821 22.8237 56.0682 19.8812C56.0782 18.3116 56.2338 16.805 57.4962 15.6467C58.3495 14.8618 59.396 14.501 60.4451 14.1224C61.1026 14.1704 61.7576 14.2158 62.4126 14.2637C62.8293 14.4253 63.2459 14.5918 63.6675 14.7483C63.9686 14.8618 64.1343 14.7634 64.1192 14.4227C64.5735 14.2259 64.586 13.7716 64.704 13.383C65.1984 11.7452 65.6351 10.0847 66.1997 8.4696C66.5963 7.33399 66.2424 7.20276 65.2887 7.58635C64.7717 7.56868 64.2598 7.55606 63.7453 7.54344Z" fill="#40403F"/>
<path d="M48.7553 35.2902C48.7829 35.318 48.813 35.3457 48.8406 35.3735C48.8808 35.4114 48.9184 35.4492 48.9586 35.4896C47.2118 35.5047 45.4802 35.7016 43.756 35.9691C42.5489 36.1558 41.5249 37.1123 41.2589 38.2933C40.383 42.1847 39.6301 46.1038 38.5484 49.9472C38.1745 50.2727 38.167 50.7547 38.0365 51.1812C36.887 54.9843 35.6975 58.7772 34.6133 62.6004C33.4011 66.8754 31.9355 71.0746 30.904 75.4026C30.5802 76.1092 30.1812 75.7306 29.8299 75.4556C28.9791 74.7868 28.1961 74.0222 27.1821 73.5881C27.0441 73.5175 26.9061 73.4468 26.7706 73.3761L26.7982 73.3887C23.9748 71.5465 20.8879 71.0065 17.6203 71.6601C11.1353 72.9572 7.42602 80.4295 10.4702 86.0571C11.2834 87.5587 12.3676 88.8583 14.0465 89.4867C15.3315 90.4204 16.9025 90.9125 18.0168 92.1062C16.8825 92.2475 15.8836 91.7352 14.9073 91.3289C11.5293 89.9308 9.16773 87.5334 8.47255 83.8364C7.09725 76.5129 12.7842 70.0627 20.3358 70.2873C23.5632 70.3832 26.4819 71.4103 29.0318 73.3812C29.8826 74.0373 30.0909 73.8203 30.3619 72.9067C33.6496 61.8206 36.9674 50.7472 40.2801 39.6686C40.4608 39.0655 40.6114 38.4523 40.8348 37.8668C41.3743 36.4385 42.3657 35.3912 43.874 35.1792C45.4852 34.947 47.1441 34.6745 48.7553 35.2902Z" fill="#40403F"/>
<path d="M1.42778 29.6222C1.03125 29.978 1.01117 30.6997 0.318504 30.7653C-0.0428889 28.1837 0.991096 26.1674 3.3025 24.946C5.51352 23.7775 8.2591 24.1788 10.1464 25.9756C10.8466 26.6418 11.484 27.3888 11.8203 28.3074C12.1892 29.3143 12.6385 28.9029 13.1806 28.4992C16.9652 25.6753 20.7598 22.864 24.5494 20.0502C26.5822 18.5411 27.2623 18.5411 29.3353 20.0704C33.1751 22.9019 37.0124 25.7358 40.8472 28.5724C43.013 30.1748 43.0482 31.9262 40.8974 33.5438C37.1304 36.3803 33.3307 39.1739 29.5562 42.0003C29.1672 42.2905 28.7807 42.4697 28.2988 42.4344C28.7506 41.4981 29.6716 41.0338 30.3793 40.3575C32.234 38.5834 34.4325 37.1954 36.1365 35.2498C36.3724 35.1892 36.6912 35.4087 36.8367 35.0428L36.8192 35.058C37.9887 34.4801 38.9198 33.564 39.9688 32.8145C41.826 31.4896 41.8034 30.6947 39.9362 29.3193C36.1365 26.5232 32.3369 23.7271 28.5448 20.9234C27.0164 19.7928 26.4693 19.8206 25.0036 21.1505C22.6822 22.8337 20.3909 24.5573 18.2175 26.4324C18.0719 26.4652 17.8536 26.4374 17.9765 26.7074L17.9966 26.6898C17.4796 26.3642 17.2688 26.9068 16.9902 27.1062C15.1958 28.3881 13.4315 29.713 11.5744 31.0858C11.0925 29.1553 10.3873 27.4796 8.78613 26.3693C7.26025 25.3094 5.62395 25.0772 3.94498 25.9075C2.43918 26.6519 1.41774 27.8001 1.42778 29.6222Z" fill="#40403F"/>
<path d="M68.6314 72.3466C68.147 72.3945 67.7605 72.281 67.6376 71.7359C69.9289 64.0213 72.2052 56.2991 74.5341 48.5946C74.8303 47.618 74.6948 47.4136 73.6658 47.4287C64.39 47.56 55.1118 47.6533 45.836 47.7088C44.8673 47.7139 44.4582 48.0167 44.2048 48.953C43.5372 51.4185 42.7567 53.8512 42.0213 56.2966C41.6248 55.8449 41.8331 55.32 41.9235 54.8582C42.3903 52.4355 42.8822 50.0179 43.4217 47.6104C43.5799 46.9038 43.748 46.0206 44.8723 46.4395C45.2162 46.8079 45.6604 46.6212 46.0494 46.6161C55.5359 46.5379 65.0225 46.4395 74.509 46.3512C74.9332 46.3461 75.3372 46.3259 75.7011 46.0862C76.4691 46.3486 76.2407 46.9593 76.0951 47.4439C75.2293 50.3611 74.3459 53.2733 73.4223 56.1729C73.1814 56.9275 73.342 57.7628 72.9079 58.4618C72.7573 58.7975 72.564 59.123 72.4586 59.4738C71.1762 63.7639 69.9063 68.0565 68.6314 72.3466Z" fill="#40403F"/>
<path d="M65.6252 6.21356C65.1233 6.30946 64.6213 6.33217 64.1194 6.21356C64.142 5.96372 64.1094 5.68865 64.1997 5.46658C64.6866 4.28554 64.1269 4.1316 63.1256 4.24769C60.4427 4.55809 57.7549 4.82811 55.0695 5.11328C54.6504 4.99719 54.2388 5.02243 53.8323 5.17889C53.0693 5.05019 52.6929 5.34545 52.6 6.14795C52.5097 6.92773 52.2587 7.68733 52.1282 8.46459C51.827 10.2715 51.1043 12.0027 51.1846 13.8777C50.8884 15.3287 50.1029 14.607 49.4077 14.2815C50.2133 10.3068 51.0139 6.33217 51.8321 2.36257C51.9826 1.63326 52.5599 1.39099 53.2299 1.3279C57.1275 0.967031 61.025 0.616253 64.92 0.250334C65.8235 0.164532 66.481 0.424461 66.7144 1.38595C66.6316 1.75439 66.3856 2.10012 66.5437 2.50642C66.2376 3.74297 65.9314 4.97953 65.6252 6.21356Z" fill="#81C5EB"/>
<path d="M46.1675 21.9833C45.4197 21.9682 44.6693 21.9505 43.9189 21.9353C41.4418 20.2143 40.8696 18.6522 41.9889 16.6535C42.7443 15.3084 44.0117 14.8668 45.4297 14.6952C47.0911 15.3993 48.9859 15.3589 50.572 16.3103C50.3486 17.1052 50.1002 17.8926 49.9044 18.6951C49.4201 20.6761 48.1627 21.7486 46.1675 21.9833Z" fill="#81C5EB"/>
<path d="M15.0527 39.6964C14.8394 40.5367 14.626 41.3771 14.4127 42.2149C13.3486 39.6686 14.0363 37.2813 16.3151 35.6082C18.3228 34.1344 21.485 34.3388 23.5153 36.0851C24.5443 36.9709 25.3298 38.046 25.8669 39.4213C28.8207 37.2334 31.7019 35.0959 34.583 32.9609C35.6169 33.178 35.1752 33.612 34.716 33.9981C32.9843 35.4517 31.2426 36.8927 29.5034 38.3362C29.3879 38.3765 29.1796 38.3286 29.275 38.5734L29.2976 38.5532C27.985 39.0276 27.0414 40.0623 25.9296 40.8396C25.3725 41.2282 25.1215 41.3064 24.9659 40.4964C24.7551 39.4137 24.2331 38.4497 23.4777 37.6296C22.0597 36.0851 20.3305 35.3811 18.2852 35.9514C16.4405 36.4611 15.3137 37.7356 15.0527 39.6964Z" fill="#40403F"/>
<path d="M50.572 16.3104C48.9859 15.359 47.0911 15.4019 45.4297 14.6953C46.6921 13.9433 48.0473 14.0922 49.4075 14.2814C50.1027 14.607 50.8882 15.3287 51.1844 13.8776C52.2033 11.021 53.0365 8.10622 53.8321 5.17886C54.2361 5.0224 54.6502 4.99716 55.0693 5.11325C53.9927 8.73711 52.8834 12.3534 51.857 15.9924C51.5558 17.0523 51.099 16.6183 50.572 16.3104Z" fill="#40403F"/>
<path d="M69.728 86.519C71.6278 81.8756 72.8576 77.0152 74.3232 72.2305C74.3684 72.0816 74.509 71.963 74.6068 71.8292C73.8514 76.1445 73.3219 80.5204 71.3392 84.5128C70.9553 85.29 70.5412 86.0748 69.728 86.519Z" fill="#81C5EB"/>
<path d="M60.4429 14.1174C59.3939 14.4959 58.3473 14.8568 57.494 15.6416C56.2317 16.7999 56.0736 18.3065 56.066 19.8762C54.7459 19.2402 54.766 18.0365 54.8664 16.8554C54.9894 15.3993 55.8904 14.4757 57.1853 14.0013C58.252 13.6101 59.3763 13.5294 60.4429 14.1174Z" fill="#81C5EB"/>
<path d="M63.7453 7.54346C64.2598 7.55607 64.7743 7.56869 65.2862 7.58383C65.1959 8.11126 65.093 8.63869 65.0202 9.16864C64.7843 10.9301 64.0339 12.6032 64.1167 14.4202C64.1318 14.7634 63.9662 14.8593 63.665 14.7458C63.2459 14.5893 62.8293 14.4227 62.4102 14.2612C62.8569 12.0203 63.3011 9.78187 63.7453 7.54346Z" fill="#81C5EB"/>
<path d="M81.6695 56.5262C81.672 55.4512 82.3296 54.4518 83.1201 54.525C83.8052 54.5906 84.1717 55.0323 84.1817 55.7035C84.1993 56.8694 83.4639 57.9092 82.6834 57.8511C81.9832 57.8032 81.6419 57.3918 81.6695 56.5262Z" fill="#40403F"/>
<path d="M81.3682 65.1138C81.3231 66.3781 80.6204 67.3976 79.8549 67.3043C79.1773 67.2235 78.831 66.7844 78.8385 66.098C78.851 64.8513 79.5136 63.9353 80.3468 63.9883C81.0796 64.0362 81.3381 64.5006 81.3682 65.1138Z" fill="#40403F"/>
<path d="M88.3574 41.8036C88.3775 42.9619 87.6924 44.0294 86.9244 43.9865C86.2342 43.9486 85.8653 43.5398 85.8503 42.8458C85.8252 41.695 86.5329 40.6023 87.2908 40.6528C87.9684 40.7008 88.3399 41.102 88.3574 41.8036Z" fill="#40403F"/>
<path d="M85.5416 51.2822C85.5215 52.544 84.874 53.5004 84.0659 53.4222C83.3682 53.3566 83.0294 52.8998 83.0269 52.2285C83.0244 51.0298 83.7346 50.0482 84.5352 50.1037C85.2504 50.1567 85.5641 50.5806 85.5416 51.2822Z" fill="#40403F"/>
<path d="M84.4651 47.5599C84.45 46.346 85.095 45.3492 85.8981 45.382C86.6033 45.4123 86.9422 45.8539 86.9698 46.5201C87.0149 47.6154 86.267 48.7359 85.5192 48.698C84.8215 48.6627 84.4802 48.2488 84.4651 47.5599Z" fill="#40403F"/>
<path d="M82.7462 60.1979C82.7512 61.6161 82.0911 62.6054 81.2956 62.5675C80.5803 62.5347 80.2566 62.088 80.2415 61.4142C80.2139 60.2332 80.9066 59.2112 81.7047 59.2566C82.4023 59.297 82.7311 59.7234 82.7462 60.1979Z" fill="#40403F"/>
<path d="M16.5083 31.033C17.5599 29.5592 19.1184 28.623 20.3682 27.3612C20.8952 26.8312 21.4774 26.3568 22.0547 25.8798C22.5842 25.4407 23.0937 25.3549 23.4726 26.0817C21.4674 27.5681 19.4647 29.057 17.4519 30.5333C17.1658 30.7403 16.9475 31.1062 16.5083 31.033Z" fill="#40403F"/>
<path d="M90.8123 28.6658C90.0971 28.6431 89.7031 27.9012 90.1146 27.3737C90.5689 26.7908 91.1286 26.2785 91.6982 25.8015C92.0421 25.5113 92.4687 25.5391 92.795 25.9252C93.0861 26.2709 93.0585 26.6419 92.7623 26.9372C92.1299 27.5681 91.6355 28.3731 90.8123 28.6658Z" fill="#40403F"/>
<path d="M92.988 34.0915C92.9754 34.7249 92.2501 35.111 91.7156 34.6921C91.1333 34.2354 90.5963 33.6928 90.142 33.1073C89.7078 32.5496 90.0542 31.8405 90.6941 31.8127C91.1936 31.79 92.998 33.5817 92.988 34.0915Z" fill="#40403F"/>
<path d="M84.6055 25.6376C85.0698 25.6603 86.7236 27.288 86.7688 27.7675C86.7989 28.0855 86.6835 28.3404 86.4225 28.5271C86.1464 28.724 85.8277 28.7164 85.6068 28.5145C85.0221 27.982 84.4649 27.4142 83.9228 26.8363C83.707 26.6067 83.697 26.2837 83.8601 26.0111C84.0182 25.7411 84.2842 25.6174 84.6055 25.6376Z" fill="#40403F"/>
<path d="M85.9761 31.8178C86.6286 31.7976 87.0427 32.4815 86.6261 33.0468C86.1668 33.6701 85.5921 34.2405 84.9747 34.7073C84.4326 35.1161 83.7374 34.677 83.7675 34.0335C83.7926 33.5238 85.4791 31.833 85.9761 31.8178Z" fill="#40403F"/>
<path d="M10.8392 91.0463C11.4039 91.2885 12.1166 91.4955 12.1568 92.3055C12.1869 92.9162 11.7326 93.2468 11.1529 93.1232C10.4878 92.9819 9.84033 92.6664 9.84033 91.8412C9.84284 91.2911 10.2444 91.0513 10.8392 91.0463Z" fill="#40403F"/>
<path d="M13.778 92.674C14.3602 92.8506 15.0805 92.9894 15.1809 93.807C15.2436 94.3269 14.8621 94.761 14.3627 94.7155C13.66 94.6524 12.8996 94.4177 12.8243 93.5345C12.7791 93.0222 13.1781 92.7194 13.778 92.674Z" fill="#40403F"/>
<path d="M17.1259 93.84C17.6077 93.9737 18.2929 94.0948 18.2502 94.9327C18.2201 95.5459 17.7759 95.8336 17.2037 95.7024C16.5788 95.5611 15.7857 95.4702 15.8961 94.5213C15.9689 93.9182 16.4081 93.7037 17.1259 93.84Z" fill="#40403F"/>
<path d="M26.9362 96.3255C26.364 96.381 25.8797 96.1009 25.8646 95.475C25.847 94.6549 26.4895 94.5337 27.1646 94.5287C27.7644 94.5236 28.2764 94.6624 28.2839 95.3615C28.2915 96.2069 27.6615 96.3179 26.9362 96.3255Z" fill="#40403F"/>
<path d="M19.929 94.448C20.707 94.559 21.4549 94.6246 21.4298 95.523C21.4148 96.0732 20.9906 96.4366 20.4059 96.3255C19.7885 96.2069 18.9979 96.2044 19.023 95.2555C19.0431 94.6297 19.4924 94.448 19.929 94.448Z" fill="#40403F"/>
<path d="M23.5681 94.8215C24.2432 94.8241 24.7802 95.0184 24.7752 95.7023C24.7677 96.5653 24.1051 96.6259 23.43 96.6082C22.7951 96.5931 22.3183 96.3231 22.3534 95.6669C22.3986 94.9149 22.9883 94.7685 23.5681 94.8215Z" fill="#40403F"/>
<path d="M18.8725 63.7436C19.4246 64.0994 20.0671 64.5032 20.2703 65.2653C20.3783 65.664 19.9943 65.9744 19.6705 65.8104C19.0155 65.4773 18.3881 65.0155 18.2149 64.2306C18.1497 63.9228 18.4132 63.7007 18.8725 63.7436Z" fill="#40403F"/>
<path d="M7.15968 16.3987C7.13458 16.815 6.94134 17.1305 6.63767 17.0548C5.87473 16.863 5.3753 16.2674 5.06159 15.5886C4.90098 15.2403 5.27241 14.8567 5.59866 14.9653C6.32396 15.21 6.79076 15.8132 7.15968 16.3987Z" fill="#40403F"/>
<path d="M11.4989 20.9638C11.4437 21.2995 11.2405 21.4761 10.9067 21.4635C10.4574 21.4458 9.35318 20.1815 9.42847 19.7828C9.49623 19.432 9.71206 19.3008 10.0559 19.3639C10.4675 19.4371 11.5291 20.6131 11.4989 20.9638Z" fill="#40403F"/>
<path d="M42.2373 4.96933C42.2147 5.38572 40.9348 6.58947 40.5734 6.51881C40.2321 6.45319 40.0012 6.16046 40.1393 5.89043C40.4781 5.21664 40.9725 4.61855 41.7203 4.39647C41.9839 4.31572 42.2248 4.62612 42.2373 4.96933Z" fill="#40403F"/>
<path d="M42.2423 1.46911C42.2273 1.86531 42.0416 2.14291 41.7203 2.07982C40.9298 1.92336 40.4805 1.28741 40.1493 0.631281C39.9786 0.293121 40.3199 -0.0879398 40.6838 0.0180506C41.4267 0.240126 41.8558 0.876069 42.2423 1.46911Z" fill="#40403F"/>
<path d="M5.67432 21.4586C5.27779 21.4258 5.05945 21.2718 5.03937 20.921C5.01678 20.5122 6.24652 19.3034 6.64054 19.3463C6.98436 19.3817 7.2278 19.6214 7.1224 19.9318C6.87394 20.6687 6.26409 21.0977 5.67432 21.4586Z" fill="#40403F"/>
<path d="M14.571 65.8205C14.0942 65.8231 13.7805 65.6641 13.8532 65.3335C14.0239 64.5587 14.6262 64.0843 15.2863 63.7613C15.6175 63.5998 16.0166 63.9026 15.9237 64.2736C15.7305 65.0433 15.0002 65.3739 14.571 65.8205Z" fill="#40403F"/>
<path d="M20.2754 59.9886C19.9592 60.5715 19.5099 61.1696 18.7947 61.4245C18.4433 61.5481 18.0945 61.1898 18.235 60.8365C18.5111 60.14 19.0281 59.5823 19.7659 59.3602C20.0771 59.2668 20.2904 59.5267 20.2754 59.9886Z" fill="#40403F"/>
<path d="M14.3676 59.2693C15.0302 59.6327 15.5974 60.1096 15.9161 60.7986C16.0516 61.0888 15.8232 61.3639 15.497 61.4396C15.1356 61.5228 13.8255 60.3292 13.8155 59.9153C13.8105 59.5645 14.0539 59.4157 14.3676 59.2693Z" fill="#40403F"/>
<path d="M41.2612 92.2324C40.8597 92.8053 40.4531 93.4437 39.6927 93.6658C39.3388 93.7693 39.1682 93.4589 39.1305 93.1535C39.0778 92.7346 40.3201 91.5107 40.7242 91.5738C41.0429 91.6242 41.2261 91.8362 41.2612 92.2324Z" fill="#40403F"/>
<path d="M41.2437 97.4687C41.2462 97.8018 41.1032 98.0289 40.7619 98.0794C40.3879 98.1375 39.1155 96.9362 39.1255 96.5325C39.1356 96.1817 39.3564 96.0076 39.6802 95.9773C40.0165 95.947 41.2086 97.1003 41.2437 97.4687Z" fill="#40403F"/>
<path d="M36.8817 96.5603C36.6006 97.2214 36.0711 97.7438 35.4035 98.0567C35.0722 98.2132 34.6908 97.8851 34.8012 97.5091C35.0195 96.7647 35.5867 96.2574 36.302 95.9899C36.6408 95.8612 36.8014 96.1767 36.8817 96.5603Z" fill="#40403F"/>
<path d="M46.5919 5.8224C46.5844 6.24132 46.3986 6.55424 46.095 6.4861C45.327 6.31198 44.8351 5.72651 44.5365 5.03757C44.3859 4.68679 44.6845 4.29563 45.0484 4.40667C45.7838 4.62622 46.2255 5.2445 46.5919 5.8224Z" fill="#40403F"/>
<path d="M45.209 2.08999C44.7321 2.1228 44.5439 1.92848 44.5063 1.60042C44.4586 1.19412 45.6632 -0.0197227 46.0748 0.00803674C46.4211 0.030749 46.6671 0.293202 46.5792 0.575843C46.3459 1.31273 45.7385 1.74174 45.209 2.08999Z" fill="#40403F"/>
<path d="M11.4964 15.6569C11.1225 16.2121 10.7084 16.8556 9.95545 17.0524C9.579 17.1508 9.2929 16.7597 9.45603 16.4139C9.77225 15.7402 10.2466 15.132 11.0271 14.9755C11.3408 14.9124 11.5089 15.2253 11.4964 15.6569Z" fill="#40403F"/>
<path d="M35.3886 91.5435C35.9733 91.9548 36.6083 92.3586 36.8417 93.1106C36.937 93.421 36.7112 93.6607 36.3623 93.6885C35.9281 93.7213 34.7536 92.5352 34.7787 92.0986C34.7988 91.7428 35.0222 91.6015 35.3886 91.5435Z" fill="#40403F"/>
<path d="M74.6699 71.4987C74.68 71.2135 74.6724 70.9258 74.8883 70.6962C74.9108 70.9914 74.8607 71.264 74.6699 71.4987Z" fill="#81C5EB"/>
<path d="M16.2397 31.3963C16.2699 31.2196 16.3201 31.0581 16.5233 31.0127C16.5861 31.255 16.3928 31.313 16.2397 31.3963Z" fill="#40403F"/>
<path d="M26.7729 73.3711C26.911 73.4418 27.049 73.5124 27.1845 73.5831C27.049 73.5124 26.911 73.4418 26.7729 73.3711Z" fill="#FEFEFD"/>
<path d="M63.4692 16.169C63.1379 19.702 61.2281 21.2843 57.8952 20.7872C57.0118 19.4042 57.18 17.6125 58.2641 16.5677C59.8302 15.0611 62.1918 14.9779 63.4692 16.169Z" fill="#81C5EB"/>
</svg>
