<svg width="87" height="87" viewBox="0 0 87 87" fill="none" xmlns="http://www.w3.org/2000/svg">
<path d="M59.2 14.89C59.0227 15.0634 58.8558 15.2471 58.7 15.44L59.06 15.64L59.5 15.9L59.7299 16.03L60.0999 16.26L60.54 16.54L60.74 16.68L61.11 16.92L61.5299 17.21L61.79 17.39L62.09 17.61L62.52 17.94L62.7599 18.12L63.04 18.34L63.4799 18.69L63.72 18.9L63.97 19.1L64.4599 19.54L64.6699 19.73L64.86 19.9L65.6699 20.67L65.7799 20.79C66.0399 21.05 66.3 21.32 66.55 21.59L66.73 21.79L66.93 22.01C67.07 22.17 67.2099 22.32 67.3399 22.48L67.55 22.73L67.79 23.02L68.11 23.4L68.3399 23.71L68.5199 23.94L68.83 24.36L69.0599 24.67L69.23 24.91L69.5299 25.34L69.7699 25.71L69.91 25.92L70.19 26.35C70.26 26.48 70.3399 26.6 70.4199 26.73L70.5199 26.9L70.8099 27.39L71.01 27.75C71.19 27.6 71.37 27.43 71.55 27.25C73.16 25.65 73.1699 22.57 73.1699 19.32C73.0626 17.0819 73.2713 14.8398 73.79 12.66C71.611 13.184 69.3682 13.3927 67.1299 13.28C63.8699 13.28 60.8 13.29 59.2 14.89Z" fill="#88C1E0"/>
<path d="M43.23 0C42.0705 1.90796 40.6463 3.64188 39 5.15C36.7 7.45 34.53 9.63 34.53 11.9C34.53 12.15 34.53 12.4 34.53 12.63L34.91 12.52L35.49 12.38L35.69 12.33L36.08 12.23L36.65 12.11H36.92L37.27 12.04L37.81 11.94L38.12 11.89L38.46 11.84L39.01 11.76H39.32H39.65L40.27 11.7H40.55H40.85H41.55H41.81H42.06C42.46 11.7 42.85 11.7 43.26 11.7H44.46H44.91H45.66H45.94H46.23L46.86 11.76H47.15H47.44L48.05 11.84L48.37 11.89H48.61L49.24 12L49.56 12.07H49.79L50.41 12.21L50.77 12.29L51 12.35L51.57 12.5L51.94 12.6C51.94 12.37 51.94 12.12 51.94 11.87C51.94 9.6 49.77 7.42 47.47 5.12C45.8236 3.62064 44.3962 1.89708 43.23 0Z" fill="#88C1E0"/>
<path d="M19.33 13.28C17.0885 13.3922 14.8425 13.1834 12.66 12.66C13.1892 14.8347 13.398 17.0749 13.28 19.31C13.28 22.57 13.28 25.64 14.9 27.25C15.0735 27.4272 15.2571 27.5942 15.45 27.75L15.64 27.4L15.99 26.82L16.06 26.69C16.13 26.58 16.2 26.47 16.26 26.36C16.32 26.25 16.49 26.01 16.6 25.84L16.72 25.66L16.92 25.35L17.25 24.88L17.43 24.63L17.62 24.36L17.99 23.87L18.16 23.66C18.2177 23.5725 18.2812 23.489 18.35 23.41C18.48 23.23 18.63 23.06 18.77 22.89L18.93 22.7L19.11 22.48L19.67 21.85L19.9 21.59C20.45 21.01 21.02 20.44 21.6 19.9L21.88 19.64L22.49 19.1L22.74 18.9L22.97 18.7L23.41 18.34L23.7 18.12L23.95 17.93L24.36 17.61L24.68 17.39L24.92 17.22L25.35 16.92L25.67 16.71L25.94 16.53L26.35 16.26L26.73 16.03L26.94 15.91L27.39 15.64C27.51 15.57 27.63 15.5 27.76 15.44C27.6 15.25 27.44 15.07 27.26 14.89C25.65 13.29 22.58 13.28 19.33 13.28Z" fill="#88C1E0"/>
<path d="M81.3 39C79 36.7 76.82 34.53 74.55 34.53C74.3036 34.5145 74.0564 34.5145 73.81 34.53C73.81 34.65 73.89 34.78 73.92 34.91C73.95 35.04 74.01 35.26 74.06 35.44L74.12 35.68L74.21 36.07C74.26 36.27 74.3 36.46 74.34 36.65V36.87C74.34 37 74.4 37.13 74.42 37.25L74.51 37.79V38.07L74.57 38.44C74.57 38.61 74.57 38.79 74.65 38.97V39.26C74.65 39.38 74.65 39.5 74.65 39.63C74.65 39.76 74.65 39.99 74.7 40.17V40.5C74.7 40.61 74.7 40.72 74.7 40.82C74.7 40.92 74.7 41.31 74.7 41.56V41.78C74.7 41.86 74.7 41.94 74.7 42.03C74.7 42.43 74.7 42.83 74.7 43.23C74.7 43.63 74.7 44.04 74.7 44.44C74.7 44.53 74.7 44.62 74.7 44.71V44.94C74.7 45.18 74.7 45.42 74.7 45.65C74.7 45.88 74.7 45.86 74.7 45.96V46.26L74.64 46.85C74.64 46.96 74.64 47.08 74.64 47.19V47.49C74.64 47.67 74.64 47.86 74.56 48.04L74.5 48.41V48.66C74.5 48.85 74.44 49.04 74.4 49.22C74.36 49.4 74.4 49.46 74.33 49.57L74.27 49.86L74.15 50.4L74.06 50.78L74.01 50.97L73.86 51.56C73.86 51.69 73.79 51.81 73.75 51.94C73.99 51.94 74.23 51.94 74.49 51.94C76.76 51.94 78.94 49.77 81.24 47.47C82.7483 45.8087 84.4858 44.3709 86.4 43.2C84.5094 42.049 82.7922 40.6348 81.3 39Z" fill="#88C1E0"/>
<path d="M11.47 41.77V41.48C11.47 41.26 11.47 41.04 11.47 40.81V40.5V40.22C11.47 40.02 11.47 39.82 11.53 39.61V39.31L11.58 38.99C11.58 38.8 11.58 38.61 11.65 38.42L11.71 38.09L11.76 37.79C11.76 37.61 11.82 37.42 11.86 37.23C11.9 37.04 11.91 36.99 11.93 36.87V36.74C11.98 36.48 12.03 36.27 12.07 36.06C12.11 35.85 12.13 35.81 12.17 35.68L12.22 35.46L12.37 34.89C12.37 34.77 12.43 34.65 12.47 34.53C12.2269 34.5145 11.9831 34.5145 11.74 34.53C9.46 34.53 7.29 36.7 4.98 39C3.52643 40.6336 1.84995 42.0542 0 43.22C1.91329 44.388 3.64786 45.8261 5.15 47.49C7.46 49.79 9.63 52 11.91 52C12.16 52 12.41 52 12.64 52C12.64 51.87 12.57 51.74 12.53 51.61C12.49 51.48 12.44 51.26 12.4 51.08L12.35 50.88C12.35 50.74 12.27 50.6 12.24 50.45C12.21 50.3 12.17 50.15 12.14 49.99L12.07 49.67C12.07 49.54 12.02 49.41 12 49.28C11.98 49.15 11.93 48.92 11.9 48.73V48.47C11.9 48.35 11.9 48.23 11.83 48.1C11.76 47.97 11.83 47.74 11.76 47.56V47.24C11.76 47.13 11.76 47.02 11.76 46.91C11.76 46.8 11.76 46.52 11.7 46.32V46.04V45.71C11.7 45.46 11.7 45.22 11.7 44.97V44.75C11.7 44.67 11.7 44.59 11.7 44.5C11.7 44.1 11.7 43.7 11.7 43.29C11.7 42.88 11.7 42.49 11.7 42.09C11.46 41.94 11.46 41.85 11.47 41.77Z" fill="#88C1E0"/>
<path d="M26.9401 70.54L26.7301 70.41L26.3501 70.18L25.9401 69.92L25.6701 69.74L25.3501 69.52L24.9201 69.23L24.6801 69.05L24.3601 68.83L23.9601 68.53L23.6901 68.31L23.4101 68.1L23.0001 67.72L22.7901 67.55L22.5401 67.34L21.9801 66.84L21.6501 66.54C21.0601 66 20.4901 65.43 19.9601 64.85C19.9017 64.7983 19.8481 64.7414 19.8001 64.68L19.6601 64.52C19.4901 64.34 19.3201 64.15 19.1601 63.96L18.9601 63.72L18.7901 63.51C18.6601 63.35 18.5201 63.19 18.4001 63.03L18.1901 62.76L18.0001 62.54C17.8801 62.39 17.7601 62.24 17.6501 62.08L17.4401 61.79L17.2601 61.53C17.1601 61.39 17.0501 61.24 16.9601 61.1L16.7401 60.77L16.5901 60.54C16.4901 60.39 16.3901 60.24 16.3001 60.09L16.0901 59.74L16.0001 59.61C15.8801 59.4 15.7701 59.23 15.6701 59.05C15.5701 58.87 15.5301 58.81 15.4701 58.69C15.2771 58.8458 15.0935 59.0128 14.9201 59.19C13.3201 60.8 13.3101 63.87 13.3001 67.12C13.4173 69.3616 13.2084 71.6084 12.6801 73.79C14.862 73.2635 17.1081 73.0513 19.3501 73.16C22.6001 73.16 25.6701 73.16 27.2801 71.55C27.4601 71.37 27.6201 71.19 27.7801 71C27.6501 70.94 27.5301 70.87 27.4101 70.8L26.9401 70.54Z" fill="#88C1E0"/>
<path d="M51.55 73.92L51.12 74.03H50.91L50.35 74.17L50 74.3L49.16 74.47H49.1C45.2261 75.1849 41.254 75.1849 37.38 74.47L36.45 74.27L36.15 74.21L35.5 74.05H35.32L34.94 73.95L34.54 73.84C34.54 74.08 34.54 74.32 34.54 74.57C34.54 76.84 36.71 79.02 39.01 81.32C40.6713 82.8284 42.1091 84.5658 43.28 86.48C44.4278 84.5576 45.8494 82.8127 47.5 81.3C49.79 79 52 76.81 52 74.54C52 74.29 52 74.05 52 73.81L51.55 73.92Z" fill="#88C1E0"/>
<path d="M71.55 59.19C71.37 59.01 71.19 58.84 71.01 58.69L70.81 59.05C70.71 59.23 70.6 59.41 70.49 59.58L70.4 59.74L70.19 60.09C70.09 60.24 69.99 60.39 69.9 60.54L69.73 60.79L69.53 61.1L69.23 61.52L69 61.8L68.8 62.08L68.47 62.52L68.28 62.77L68.07 63.04L67.69 63.49L67.52 63.7C67.4521 63.7911 67.3787 63.878 67.3 63.96C67.15 64.13 67 64.31 66.84 64.48L66.68 64.66L66.51 64.85C66.25 65.13 65.98 65.41 65.71 65.68L65.65 65.74L64.82 66.54L64.63 66.71L64.45 66.88L63.93 67.34L63.68 67.55L63.46 67.72L63.01 68.1L62.72 68.32L62.46 68.52L62.05 68.83L61.75 69.05L61.49 69.23L61.07 69.52L60.7 69.76L60.5 69.9L60.06 70.18L59.69 70.41L59.46 70.54L59.03 70.8L58.66 71C58.8159 71.1929 58.9828 71.3766 59.16 71.55C60.76 73.15 63.83 73.16 67.09 73.16C69.3287 73.0509 71.5715 73.2631 73.75 73.79C73.2319 71.6101 73.0232 69.3681 73.13 67.13C73.17 63.87 73.16 60.8 71.55 59.19Z" fill="#88C1E0"/>
<path d="M42.72 50.27C41.5309 50.2687 40.3546 50.0251 39.2628 49.554C38.171 49.0829 37.1867 48.3942 36.37 47.53L42.81 58.69L49.63 46.88C48.8128 47.9344 47.7654 48.788 46.5678 49.3756C45.3701 49.9631 44.054 50.2691 42.72 50.27Z" fill="#88C1E0"/>
<path d="M40.92 32.92H27.92L34.29 43.92C34.0798 43.131 33.9821 42.3163 34 41.5C34.002 39.4951 34.6894 37.5511 35.948 35.9905C37.2067 34.4299 38.961 33.3465 40.92 32.92Z" fill="#88C1E0"/>
<path d="M51.49 41.5C51.4878 42.6167 51.2741 43.7229 50.86 44.76C53.1334 40.8133 55.41 36.8666 57.69 32.92H44.53C46.4973 33.3368 48.2618 34.4163 49.5287 35.9781C50.7955 37.5398 51.4879 39.489 51.49 41.5Z" fill="#88C1E0"/>
<path d="M47.1137 45.8884C49.5389 43.4633 49.5389 39.5313 47.1137 37.1062C44.6886 34.681 40.7566 34.681 38.3314 37.1062C35.9063 39.5313 35.9063 43.4633 38.3314 45.8884C40.7566 48.3136 44.6886 48.3136 47.1137 45.8884Z" fill="#88C1E0"/>
<path d="M73.34 42.06C73.34 41.96 73.34 41.86 73.34 41.75V41.36V40.91V40.56V40.21C73.34 40.06 73.34 39.91 73.34 39.76C73.34 39.61 73.34 39.52 73.34 39.41L73.07 39C73.07 38.86 73.07 38.72 73.07 38.58C73.07 38.44 73.07 38.32 73 38.19L72.93 37.8L72.87 37.44C72.87 37.32 72.87 37.2 72.79 37.07L72.71 36.68C72.71 36.56 72.71 36.43 72.63 36.31C72.55 36.19 72.63 36.09 72.55 35.98L72.46 35.63L72.34 35.19C72.34 35.1 72.29 35 72.26 34.91L72.17 34.59C72.17 34.44 72.08 34.29 72.04 34.14V34.05C71.5173 32.4162 70.8479 30.8331 70.04 29.32C68.4549 26.2344 66.3432 23.4492 63.8 21.09L63.62 21C63.07 20.49 62.52 20 61.97 19.58C60.4472 18.3821 58.817 17.3276 57.1 16.43C55.5756 15.6313 53.9866 14.9623 52.35 14.43C51.62 14.2 50.88 14 50.13 13.82L49.72 13.74L49 13.63H48.72L48.36 13.56L47.87 13.48H47.57L47.18 13.43L46.72 13.36H46.42H46.04H45.57H45.27H44.91H44.42H43.8C43.54 13.36 43.28 13.36 43.01 13.36H41.85H41.53H40.94H40.69H40.38L39.79 13.42H39.53H39.2L38.64 13.49L38.35 13.54L37.99 13.6L37.5 13.69L37.17 13.76L36.8 13.83L36.36 13.93L36 14L35.63 14.09L35.25 14.19L34.82 14.31L34.46 14.42L34.19 14.5H34.11C29.5081 15.953 25.3236 18.4926 21.9103 21.9041C18.4971 25.3156 15.9553 29.4988 14.5 34.1V34.18L14.38 34.57L14.28 34.91L14.19 35.23C14.19 35.37 14.12 35.51 14.08 35.66L14 36C14 36.11 13.94 36.23 13.92 36.34L13.83 36.75L13.75 37.14C13.75 37.25 13.7 37.36 13.68 37.47C13.66 37.58 13.63 37.76 13.6 37.91L13.54 38.26L13.48 38.6L13.42 39.03L13.37 39.39C13.37 39.51 13.37 39.63 13.37 39.75C13.37 39.87 13.37 40.05 13.37 40.21V40.57V40.9C13.37 41.09 13.37 41.29 13.37 41.48V41.79C13.37 41.88 13.37 41.96 13.37 42.05C13.37 42.44 13.37 42.83 13.37 43.21C13.3318 47.9249 14.4013 52.5829 16.4926 56.8088C18.5838 61.0347 21.6383 64.7105 25.41 67.54C26.6625 68.4589 27.9829 69.2812 29.36 70C30.8798 70.8011 32.4657 71.4703 34.1 72H34.17L34.5 72.1L34.87 72.2L35.24 72.31L35.65 72.42L36.03 72.51L36.36 72.59L36.82 72.69L37.2 72.77L37.5 72.83L38.01 72.92L38.37 72.98L38.64 73.03L39.23 73.11H39.56H39.79L40.48 73.18H40.94H41.72H42.1H42.96H44.41H45.41H45.61L46.61 73.08H46.75C47.11 73.04 47.47 72.99 47.83 72.93H47.89C48.25 72.8833 48.61 72.8233 48.97 72.75H49C49.7267 72.61 50.4567 72.44 51.19 72.24L52.35 72C53.9866 71.4677 55.5756 70.7987 57.1 70C62.6336 67.137 67.1413 62.6258 70 57.09C70.8071 55.5695 71.4764 53.9798 72 52.34C72.5837 50.5067 72.9889 48.6212 73.21 46.71C73.342 45.5513 73.4087 44.3861 73.41 43.22C73.37 42.84 73.36 42.45 73.34 42.06ZM43.23 71.06C37.7161 71.062 32.3256 69.4283 27.7404 66.3658C23.1553 63.3033 19.5816 58.9495 17.4715 53.8554C15.3614 48.7612 14.8098 43.1556 15.8865 37.7479C16.9632 32.3402 19.6197 27.3733 23.52 23.4758C27.4203 19.5784 32.3891 16.9254 37.7976 15.8526C43.2061 14.7798 48.8113 15.3354 53.9039 17.4491C58.9965 19.5628 63.3477 23.1397 66.407 27.727C69.4662 32.3144 71.0959 37.7061 71.09 43.22C71.0821 50.6074 68.1446 57.6901 62.9218 62.9148C57.6991 68.1394 50.6174 71.0794 43.23 71.09V71.06Z" fill="#88C1E0"/>
<path d="M43.23 17C38.0457 16.998 32.9773 18.5335 28.6658 21.4123C24.3543 24.2911 20.9933 28.3839 19.008 33.1729C17.0227 37.962 16.5022 43.2323 17.5124 48.3172C18.5226 53.4021 21.0181 58.0732 24.6832 61.7397C28.3484 65.4063 33.0185 67.9035 38.103 68.9157C43.1875 69.9278 48.458 69.4093 53.2478 67.4258C58.0377 65.4424 62.1317 62.083 65.0121 57.7725C67.8926 53.4621 69.43 48.3943 69.43 43.21C69.4221 36.2628 66.6595 29.6024 61.7481 24.689C56.8366 19.7757 50.1772 17.0106 43.23 17ZM61 32.29C55.3067 42.1633 49.6134 52.03 43.92 61.89C43.8072 62.0829 43.6459 62.243 43.452 62.3542C43.2581 62.4654 43.0385 62.524 42.815 62.524C42.5915 62.524 42.3719 62.4654 42.178 62.3542C41.9842 62.243 41.8228 62.0829 41.71 61.89L24.61 32.29C24.5014 32.0941 24.4453 31.8735 24.4471 31.6495C24.4488 31.4255 24.5084 31.2058 24.6201 31.0116C24.7318 30.8174 24.8917 30.6554 25.0844 30.5412C25.2771 30.4271 25.4961 30.3647 25.72 30.36H59.91C60.1334 30.3652 60.3516 30.4283 60.5433 30.5432C60.735 30.658 60.8935 30.8207 61.0034 31.0153C61.1133 31.2099 61.1708 31.4296 61.1702 31.6531C61.1696 31.8765 61.1109 32.096 61 32.29Z" fill="#88C1E0"/>
</svg>
