<svg width="84" height="84" viewBox="0 0 84 84" fill="none" xmlns="http://www.w3.org/2000/svg">
<path fill-rule="evenodd" clip-rule="evenodd" d="M41.9155 0.578857C43.1511 2.62028 45.2693 4.41613 47.3261 6.15057L47.391 6.20547C48.9133 7.49292 50.4801 8.81798 51.5471 10.2027H51.5394L51.1633 10.3102L49.897 10.6555C46.6661 11.5304 43.3276 12.436 41.8925 14.9149C41.8162 15.0357 41.7504 15.1618 41.6864 15.2845L41.6469 15.36C41.5778 15.2142 41.4934 15.0607 41.409 14.9149C41.3246 14.7614 41.2248 14.6079 41.1174 14.4621C41.1107 14.4531 41.1039 14.4435 41.097 14.4337C41.0803 14.4097 41.0624 14.3841 41.0406 14.3623L41.0022 14.3086L41.0022 14.3085C40.9331 14.2165 40.8641 14.1244 40.7874 14.04L40.7873 14.04L40.7873 14.0399C40.7566 14.0016 40.7259 13.9632 40.6876 13.9325L40.6339 13.8712C40.6081 13.8454 40.5832 13.8196 40.5585 13.7941L40.5583 13.7938L40.5582 13.7937C40.5096 13.7435 40.4622 13.6944 40.4113 13.6486C40.3806 13.6102 40.3422 13.5795 40.3039 13.5488L40.2501 13.5028C40.2079 13.4682 40.1676 13.4337 40.1274 13.3992C40.0871 13.3646 40.0468 13.3301 40.0046 13.2956C39.9854 13.2802 39.9662 13.2668 39.947 13.2534C39.9278 13.2399 39.9086 13.2265 39.8894 13.2111L39.8204 13.1574C39.736 13.0883 39.6515 13.027 39.5594 12.9656L39.4059 12.8658C39.3786 12.849 39.3508 12.8316 39.3225 12.814L39.3224 12.814C39.2474 12.7672 39.1693 12.7185 39.0913 12.6739L38.9378 12.5895L38.5924 12.4053L38.4466 12.3362C38.3238 12.2748 38.1934 12.2135 38.0629 12.1521L37.9401 12.0983C37.8096 12.0369 37.6715 11.9755 37.5334 11.9218L37.4182 11.8758C37.3032 11.8273 37.1833 11.7836 37.0662 11.741L36.9731 11.7069L36.8733 11.6686L36.4129 11.5074L36.3131 11.4767C36.2325 11.4498 36.152 11.4249 36.0714 11.4C35.9908 11.375 35.9102 11.3501 35.8296 11.3232L35.7452 11.2925C35.6753 11.2725 35.6054 11.2511 35.5349 11.2295C35.4428 11.2013 35.3497 11.1728 35.254 11.1467L34.5019 10.9318C35.2937 9.68545 36.3517 8.41809 37.388 7.17655L37.5334 7.00244L37.5521 6.98006C39.273 4.92257 41.0514 2.79643 41.9155 0.578857ZM43.3045 15.6978C43.1817 15.9126 43.0743 16.1275 42.9668 16.3501C42.9636 16.3581 42.9604 16.3658 42.9572 16.3733C42.9527 16.3837 42.9483 16.3938 42.9438 16.4038C42.9361 16.4211 42.9285 16.4383 42.9208 16.4575L42.8824 16.5573C42.821 16.6954 42.7673 16.8413 42.7213 16.9794C42.7136 17.0024 42.7059 17.0274 42.6982 17.0524C42.6905 17.0773 42.6829 17.1022 42.6752 17.1252L42.6522 17.2096C42.6292 17.2864 42.6061 17.3708 42.5908 17.4475C44.0797 17.5089 45.5608 17.6931 46.996 18.0078L47.5025 18.1306C47.5869 18.1498 47.6674 18.1709 47.748 18.192L47.7481 18.192C47.8287 18.2131 47.9092 18.2342 47.9937 18.2534L48.6 18.4222C49.3674 18.6524 50.1042 18.9057 50.7872 19.182L51.3398 19.4122C51.4702 19.466 51.593 19.5197 51.7158 19.5811C51.8616 19.6425 52.0305 19.7192 52.1916 19.796C52.583 19.9801 52.9668 20.1797 53.3428 20.3792C53.3889 20.4022 53.4579 20.4406 53.5193 20.479L53.607 20.5282L53.6568 20.556C53.7964 20.6339 53.9457 20.7171 54.0949 20.809C55.3919 21.5688 56.6275 22.459 57.771 23.4567C57.8361 23.5142 57.9032 23.5716 57.9702 23.6291L57.9706 23.6294C58.0377 23.687 58.1049 23.7445 58.1701 23.8021C58.3696 23.3416 58.4848 22.812 58.5231 22.2134C58.6216 20.5474 58.0923 18.545 57.5326 16.4276L57.5326 16.4276L57.5101 16.3424C57.2722 15.4598 57.0343 14.5466 56.8347 13.6487C56.5124 12.1751 56.3743 10.9779 56.4126 9.94185C55.5608 10.4791 54.494 10.9472 53.1126 11.4C52.1993 11.6916 51.2477 11.9526 50.3191 12.2058C47.2876 13.0193 44.4097 13.7945 43.3045 15.6978ZM76.7113 37.8959C78.7688 39.6169 80.8949 41.3952 83.1125 42.2593C81.0634 43.4949 79.2752 45.6131 77.5408 47.6699C76.2361 49.2201 74.893 50.8087 73.5116 51.9139C73.5116 51.91 73.5097 51.9062 73.5078 51.9024C73.5059 51.8985 73.5039 51.8947 73.5039 51.8908L73.3965 51.5301C73.2955 51.1829 73.1997 50.8305 73.1048 50.4815L73.1045 50.4803L73.0435 50.2562C72.1763 47.0252 71.2707 43.6868 68.7918 42.2516C68.6831 42.1887 68.5702 42.1301 68.4594 42.0725L68.4565 42.071L68.3978 42.0405L68.3467 42.0137C68.4925 41.937 68.646 41.8526 68.7918 41.7681C68.9453 41.676 69.0988 41.5763 69.2446 41.4688C69.2599 41.4573 69.2753 41.4439 69.2906 41.4305C69.306 41.417 69.3213 41.4036 69.3367 41.3921L69.3904 41.3537C69.4534 41.3065 69.5127 41.2557 69.5734 41.2037L69.5735 41.2037L69.5736 41.2036C69.6016 41.1796 69.6299 41.1554 69.659 41.1311C69.6974 41.1004 69.7358 41.0621 69.7664 41.0314L69.8355 40.9623C69.8585 40.9393 69.8816 40.9171 69.9046 40.8949L69.9047 40.8949C69.9507 40.8505 69.9967 40.8062 70.0427 40.7551C70.0755 40.7223 70.1026 40.6896 70.1338 40.6521L70.1502 40.6323L70.2116 40.5632C70.273 40.4942 70.3344 40.4251 70.3958 40.3483C70.4341 40.3023 70.4725 40.2562 70.5032 40.2102L70.5493 40.1488C70.5689 40.1208 70.5895 40.0928 70.6104 40.0644C70.6468 40.015 70.684 39.9645 70.7181 39.9109C70.7373 39.884 70.7545 39.8572 70.7718 39.8303C70.7891 39.8035 70.8063 39.7766 70.8255 39.7497L70.8793 39.6653C70.9029 39.6227 70.9295 39.5802 70.9571 39.5358L70.9876 39.4869L71.0097 39.4504C71.0168 39.4381 71.0242 39.4254 71.0318 39.4124L71.0381 39.4017C71.0621 39.3609 71.0877 39.3174 71.1095 39.2739L71.1479 39.2048C71.1709 39.1627 71.1919 39.1224 71.213 39.0822C71.2341 39.0419 71.2553 39.0015 71.2783 38.9593L71.6314 38.2072C71.6774 38.1151 71.7158 38.023 71.7542 37.9232L71.9614 37.386L72.7595 34.8457C74.0059 35.6375 75.2733 36.6955 76.5149 37.7319L76.6889 37.8771L76.7113 37.8959ZM15.9081 57.8376C14.6623 57.5073 13.3749 57.166 12.1461 56.9637C11.3403 56.8255 10.6189 56.7641 9.95887 56.7564C9.83608 56.7564 9.72096 56.7564 9.59817 56.7641C10.6669 55.0695 11.2724 52.8281 11.8604 50.6518L11.8698 50.6168L11.8837 50.5657C12.6621 47.6961 13.4621 44.7469 15.3617 43.6483C15.569 43.5332 15.7762 43.4258 16.0064 43.3183C16.0256 43.3107 16.0429 43.303 16.0602 43.2953C16.0774 43.2876 16.0947 43.28 16.1139 43.2723L16.2136 43.2339C16.3594 43.1725 16.4976 43.1188 16.6357 43.0727C16.6626 43.0651 16.6875 43.0574 16.7125 43.0497C16.7374 43.042 16.7623 43.0344 16.7892 43.0267L16.8736 43.0037C16.912 42.9922 16.9523 42.9826 16.9926 42.973C17.0329 42.9634 17.0732 42.9538 17.1115 42.9423C17.1115 42.9778 17.1136 43.0134 17.1155 43.0479L17.1156 43.048C17.1174 43.0805 17.1192 43.1121 17.1192 43.1418C17.1346 43.4565 17.1499 43.7711 17.1806 44.0704C17.2036 44.4004 17.242 44.7228 17.2804 45.0144C17.2804 45.0528 17.2881 45.1065 17.2957 45.1602C17.3341 45.4672 17.3725 45.7742 17.4262 46.0581C17.4717 46.3915 17.5395 46.7174 17.6151 47.0801L17.6181 47.0942C17.6718 47.3705 17.7332 47.6544 17.8022 47.9231L17.8483 48.1226C17.9174 48.3835 17.9864 48.6368 18.0555 48.867C18.1553 49.2124 18.2627 49.5577 18.3778 49.9031L18.4239 50.0489C18.5237 50.3405 18.6311 50.6245 18.7385 50.9085C19.1146 51.8754 19.5674 52.8501 20.0816 53.8017L20.1737 53.9706C20.2427 54.0934 20.3118 54.2162 20.3809 54.3313L20.473 54.4925C20.5308 54.585 20.5887 54.6819 20.6432 54.7733L20.6434 54.7736L20.6955 54.8608C20.7876 55.0067 20.8797 55.1525 20.9949 55.329C21.0102 55.3597 21.0256 55.3904 21.0486 55.4211L21.1176 55.5285C21.1575 55.5849 21.1958 55.6399 21.2328 55.6928L21.2331 55.6932C21.2815 55.7625 21.3274 55.8283 21.3709 55.8892C21.5628 56.1732 21.7623 56.4571 21.9618 56.7181L22.0321 56.8102L22.0321 56.8103C22.1056 56.9068 22.1757 56.9988 22.2458 57.0864C22.6295 57.5699 22.9749 57.992 23.3202 58.3758C23.3433 58.3988 23.3663 58.4237 23.3893 58.4487C23.4123 58.4736 23.4354 58.4986 23.4584 58.5216C21.5634 59.3425 18.8554 58.6218 16.0015 57.8623L15.9987 57.8616L15.9081 57.8376ZM71.5913 51.0444C71.8125 51.8522 72.0382 52.6765 72.2988 53.4717C72.744 54.8531 73.2121 55.9198 73.734 56.764C72.6902 56.7257 71.493 56.8638 70.0195 57.1861C69.1369 57.3857 68.2313 57.6236 67.3411 57.8615L67.3383 57.8623L67.3382 57.8623C64.4843 58.6218 61.7764 59.3424 59.8738 58.5292C60.0273 58.3604 60.1807 58.1838 60.3342 58.0073C60.9328 57.3089 61.4931 56.5645 62.0226 55.7971C62.0747 55.7174 62.1267 55.6391 62.1783 55.5614L62.1784 55.5613L62.1784 55.5612L62.1794 55.5597C62.2567 55.4433 62.3329 55.3285 62.4064 55.2138C62.7057 54.7456 62.9973 54.2468 63.2966 53.7019C63.4424 53.441 63.5806 53.1724 63.711 52.9038C63.7801 52.7733 63.8492 52.6351 63.9106 52.497C64.041 52.2437 64.1562 51.9828 64.2713 51.7065L64.5015 51.154C64.7855 50.4479 65.0387 49.6958 65.269 48.9207L65.4071 48.4372C65.4266 48.3592 65.4474 48.2799 65.4685 48.1999L65.4687 48.1992C65.4973 48.0902 65.5264 47.9797 65.5529 47.8693L65.6757 47.3551C65.7465 47.0508 65.8042 46.74 65.8609 46.4347L65.8752 46.3574C65.9022 46.2332 65.9217 46.109 65.9415 45.9822C65.947 45.9464 65.9527 45.9105 65.9585 45.8743L65.9673 45.8202C66.1132 44.8532 66.2053 43.8938 66.2436 42.9499C66.3281 42.9652 66.4048 42.9883 66.4815 43.0113L66.566 43.0343C66.5856 43.0399 66.6043 43.0455 66.6227 43.0512L66.6427 43.0573C66.6676 43.065 66.6926 43.0727 66.7194 43.0803C66.8576 43.1264 66.9957 43.1801 67.1339 43.2415L67.2336 43.2799C67.2527 43.2875 67.2699 43.2952 67.2871 43.3028L67.2873 43.3029L67.3137 43.3145C67.3225 43.3183 67.3315 43.3221 67.3411 43.3259C67.5713 43.4257 67.7784 43.5408 67.9856 43.6558L67.9857 43.6559C69.889 44.7611 70.6718 47.639 71.493 50.6858L71.5913 51.0444ZM40.0351 68.3298C40.1579 68.1226 40.2654 67.9077 40.3651 67.6851C40.3805 67.6468 40.3958 67.6084 40.4112 67.5777L40.4496 67.4856C40.511 67.3475 40.5647 67.2016 40.6107 67.0635L40.6568 66.9023L40.6798 66.8333C40.7028 66.7565 40.7259 66.6721 40.7412 66.5953C39.7972 66.557 38.8379 66.4649 37.8709 66.3191C37.813 66.3094 37.7551 66.3005 37.6975 66.2917L37.6959 66.2914C37.5707 66.2722 37.4466 66.2532 37.326 66.227L37.248 66.2125L37.2477 66.2124C36.9427 66.1558 36.6323 66.0981 36.3283 66.0274L35.8141 65.9046C35.7039 65.8782 35.5936 65.8492 35.4848 65.8206L35.4843 65.8204C35.4039 65.7993 35.3244 65.7784 35.2462 65.7588L34.7627 65.6207C33.9953 65.3981 33.2432 65.1372 32.5294 64.8532L31.9769 64.623L31.9767 64.6229C31.7081 64.5078 31.4396 64.3927 31.1864 64.27C31.1306 64.2421 31.0749 64.2155 31.0196 64.1891L31.0196 64.189C30.938 64.1501 30.8574 64.1116 30.7797 64.0704C30.511 63.94 30.2424 63.8018 29.9815 63.656C29.4366 63.3567 28.9454 63.0651 28.4696 62.7658C28.3268 62.6779 28.188 62.5861 28.0475 62.4932C27.9916 62.4563 27.9354 62.4191 27.8787 62.382C27.1112 61.8602 26.3668 61.2922 25.6684 60.6936C25.6226 60.6538 25.5769 60.6146 25.5312 60.5754C25.4009 60.4635 25.2716 60.3525 25.1465 60.2332C24.3334 62.1357 25.0539 64.8357 25.8133 67.6816L25.8142 67.6851C26.0368 68.5217 26.29 69.481 26.4896 70.3866C26.8119 71.8678 26.9424 73.065 26.904 74.1011C27.7559 73.5638 28.8226 73.0957 30.2041 72.6429C31.1097 72.3513 32.0613 72.0903 32.9822 71.8447L32.9932 71.8418C36.0589 71.014 38.9313 70.2385 40.0351 68.3298ZM24.6017 69.3428L24.6938 69.7342C24.7092 69.8032 24.7245 69.8646 24.7475 69.9183C22.7502 70.2015 20.2417 69.7597 17.8077 69.3311L17.7867 69.3274C15.7913 68.9744 13.7269 68.6137 11.8236 68.6137C11.1713 68.6137 10.5803 68.652 10.0278 68.7365C11.178 66.643 11.6693 63.9135 12.1525 61.2295L12.1536 61.2231C12.2994 60.3789 12.4606 59.5117 12.6371 58.6751L12.8904 58.7289C12.9786 58.7481 13.0688 58.7692 13.159 58.7903L13.1597 58.7904L13.1599 58.7905L13.1602 58.7905C13.25 58.8116 13.3397 58.8326 13.4276 58.8517L13.7883 58.9361C13.882 58.9586 13.9738 58.9829 14.0691 59.0081L14.0694 59.0082C14.1693 59.0346 14.2731 59.0621 14.3869 59.0896L17.1728 59.8186C17.3339 59.8647 17.4951 59.9031 17.6946 59.9491L17.8711 59.9875C18.1014 60.0412 18.3316 60.0949 18.5695 60.141C18.7921 60.187 19.007 60.2254 19.2295 60.2638L19.4368 60.2945L19.5384 60.3091L19.6713 60.3285L19.6742 60.3289C19.753 60.3405 19.8318 60.352 19.9126 60.3635L20.1428 60.3942L20.2478 60.4043L20.3801 60.4172L20.3808 60.4173L20.469 60.4259L20.6186 60.4403L20.8182 60.4556C21.0407 60.471 21.2556 60.4787 21.4245 60.4787H21.4935C21.7391 60.4787 21.977 60.471 22.2149 60.448L22.3991 60.4326C22.6831 60.4019 22.9133 60.3712 23.1359 60.3175C23.1772 60.3057 23.2197 60.295 23.2629 60.2841C23.3319 60.2668 23.4027 60.249 23.4736 60.2254C23.297 60.8317 23.2126 61.4917 23.2126 62.2361C23.2126 64.0684 23.743 66.0726 24.2584 68.0201L24.2794 68.0995C24.351 68.3708 24.4227 68.6489 24.4944 68.927C24.5302 69.0659 24.5659 69.2047 24.6017 69.3428ZM58.101 65.3902C58.3926 64.1086 58.5385 63.1185 58.5385 62.282C58.5461 61.4839 58.4233 60.8008 58.1778 60.2253C58.1636 60.2394 58.1483 60.2536 58.1328 60.2678L58.1164 60.2828C58.0952 60.302 58.0741 60.3212 58.055 60.3404C57.6559 60.7011 57.2261 61.0541 56.7426 61.4378C56.6551 61.5079 56.5631 61.5779 56.4667 61.6513L56.4663 61.6516L56.3742 61.7218C56.1133 61.9213 55.8293 62.1209 55.5454 62.3127C55.4379 62.3895 55.2998 62.4816 55.1617 62.5737L55.0696 62.6351C55.0389 62.6581 55.0082 62.6734 54.9775 62.6888C54.8163 62.7962 54.6782 62.8806 54.5323 62.9651C54.3865 63.0572 54.2637 63.1339 54.1333 63.203L53.9721 63.2951C53.857 63.3641 53.7265 63.4409 53.5961 63.51L53.4426 63.5944C52.4909 64.1086 51.5163 64.5614 50.5493 64.9374C50.2653 65.0449 49.9813 65.1523 49.6897 65.2521L49.5516 65.2981L49.448 65.3319C49.1308 65.4356 48.8193 65.5374 48.5078 65.6204C48.2853 65.6895 48.0244 65.7586 47.7635 65.8276L47.7634 65.8277L47.5639 65.8814C47.3106 65.9428 47.042 66.0042 46.7811 66.0579L46.6966 66.0732L46.6964 66.0733C46.3665 66.1424 46.0365 66.2114 45.699 66.2574C45.4073 66.3112 45.1003 66.3572 44.7857 66.3956C44.7473 66.4033 44.6936 66.4109 44.6552 66.4109C44.3636 66.4493 44.0413 66.48 43.7113 66.5107C43.4043 66.5414 43.0973 66.5567 42.7826 66.5721C42.7677 66.5721 42.7524 66.5725 42.7367 66.5732L42.7261 66.5737L42.69 66.5757L42.6887 66.5758L42.6882 66.5758H42.6881C42.6538 66.5777 42.6184 66.5798 42.5831 66.5798C42.5984 66.6565 42.6215 66.7409 42.6445 66.8177L42.6675 66.9098C42.6752 66.9328 42.6809 66.9558 42.6867 66.9788C42.6925 67.0019 42.6982 67.0249 42.7059 67.0479C42.7394 67.1483 42.7809 67.2528 42.8218 67.3554C42.8371 67.394 42.8524 67.4323 42.8671 67.47L42.9054 67.5698C42.9147 67.5884 42.9212 67.607 42.9283 67.6273L42.9365 67.6504C42.9388 67.6566 42.9412 67.663 42.9438 67.6695C43.0436 67.8921 43.1587 68.107 43.2815 68.3219C44.3866 70.2328 47.3643 71.0387 50.2576 71.8138L50.3114 71.8291L50.3238 71.8325C52.4841 72.4147 54.7045 73.0131 56.4049 74.0855C56.3742 73.3257 56.4356 72.4815 56.5968 71.5298C56.7964 70.3176 57.1312 69.0627 57.4573 67.8405L57.4573 67.8403L57.4947 67.7002C57.7096 66.9788 57.9245 66.1577 58.101 65.3902ZM41.4323 83.4487C40.1967 81.4072 38.0709 79.6114 36.0141 77.8769C34.4715 76.5799 32.8829 75.2369 31.7701 73.8401H31.7778L32.1538 73.7327L33.4201 73.3873L33.448 73.3798L33.4481 73.3798C36.6704 72.5072 39.9937 71.6073 41.4247 69.128C41.4876 69.0193 41.5462 68.9064 41.6037 68.7956L41.6044 68.7944L41.6342 68.7371L41.6626 68.6828C41.7393 68.8287 41.8237 68.9821 41.9082 69.128C41.9926 69.2891 42.0924 69.435 42.1998 69.5808L42.2919 69.6959L42.3456 69.765C42.407 69.8417 42.4684 69.9184 42.5375 69.9952L42.6603 70.118L42.7447 70.2024C42.7984 70.2638 42.8521 70.3252 42.9135 70.3789C42.9596 70.425 43.0056 70.4633 43.0517 70.5017L43.1514 70.5861C43.1821 70.6092 43.2109 70.6341 43.2397 70.659C43.2685 70.684 43.2973 70.7089 43.328 70.7319C43.3817 70.778 43.4354 70.8164 43.4891 70.8547L43.5889 70.9238L43.5891 70.924L43.5892 70.924L43.5893 70.9241C43.6505 70.97 43.7118 71.016 43.7731 71.0543C43.8267 71.0926 43.8881 71.1309 43.9494 71.1693L43.9496 71.1694L44.0263 71.2154C44.0752 71.248 44.124 71.2767 44.1755 71.307L44.1757 71.3071L44.1982 71.3204L44.2412 71.3459C44.2735 71.3661 44.3079 71.3841 44.3489 71.4056L44.349 71.4057L44.3498 71.4061C44.3865 71.4254 44.4286 71.4475 44.4791 71.4764L44.5329 71.5071C44.5749 71.5333 44.6169 71.556 44.6614 71.58L44.6928 71.597L44.7247 71.6145C44.8015 71.6606 44.8859 71.6989 44.9703 71.7373C45.0123 71.7564 45.0562 71.7774 45.1001 71.7984L45.1009 71.7988C45.145 71.8198 45.1891 71.8409 45.2312 71.8601L46.0601 72.2055L48.8459 73.0957C48.0542 74.342 46.9962 75.6094 45.9598 76.8509L45.8145 77.0251L45.7958 77.0475C44.0748 79.1049 42.2964 81.2311 41.4323 83.4487ZM69.5824 58.9513C69.548 58.959 69.5155 58.9666 69.483 58.9743L69.4826 58.9744C69.45 58.982 69.4174 58.9897 69.3829 58.9974L68.9991 59.0895C68.5847 59.1969 68.178 59.3044 67.7712 59.4118L66.1979 59.8186C66.0214 59.8646 65.8526 59.903 65.6761 59.9414L65.4919 59.9874C64.993 60.1025 64.5402 60.1946 64.1181 60.2714L63.9339 60.3021C63.7651 60.3328 63.6039 60.3558 63.4428 60.3711L63.2279 60.4018C63.1438 60.4095 63.0615 60.4171 62.9803 60.4248L62.7419 60.4474L62.7367 60.4479L62.5525 60.4632C62.33 60.4786 62.1074 60.4862 61.8925 60.4862C61.6239 60.4862 61.386 60.4709 61.1481 60.4479L60.9716 60.4325C60.6876 60.4018 60.4574 60.3635 60.2425 60.3174C60.1274 60.2867 60.0123 60.256 59.8895 60.2253C60.5595 62.5248 59.8169 65.3228 59.0932 68.0497L59.076 68.1147C59.0376 68.2644 58.9973 68.414 58.957 68.5637C58.9167 68.7133 58.8764 68.863 58.8381 69.0127L58.7767 69.2582C58.7458 69.3863 58.7123 69.5143 58.6793 69.6408C58.6548 69.7343 58.6306 69.827 58.6078 69.9183L58.5311 70.2406C58.485 70.4324 58.439 70.6243 58.4006 70.8162L58.3546 71.0618C59.0894 71.2168 59.8538 71.3541 60.6062 71.4892L60.9179 71.5453C63.5809 72.0211 66.3207 72.5122 68.4236 73.6634C68.0667 71.3247 68.5362 68.6253 68.9922 66.0039L69.0068 65.9198V65.9121L69.0256 65.8036C69.442 63.3971 69.8697 60.9247 69.5824 58.9513ZM58.7458 14.6847L58.6614 14.324C58.6574 14.3109 58.6537 14.2978 58.6501 14.2849L58.6424 14.2564L58.6424 14.2563L58.6424 14.2563L58.6424 14.2562L58.6423 14.2562L58.6423 14.2561L58.6423 14.2561L58.6423 14.2561L58.6423 14.256L58.6423 14.256L58.6423 14.2559L58.6423 14.2559C58.6284 14.2046 58.6161 14.159 58.6 14.1322C60.6009 13.842 63.0957 14.2813 65.525 14.7091L65.5608 14.7154H65.5761L65.6462 14.7277C68.2645 15.1844 70.9692 15.6562 73.312 15.2987C72.1609 17.4015 71.6697 20.1337 71.1939 22.789L71.1785 22.8581C71.0327 23.687 70.8792 24.5388 70.7027 25.36L70.4494 25.3063L70.3548 25.2858L70.3547 25.2858C70.2075 25.254 70.056 25.2214 69.9045 25.1835L69.5592 25.0991C69.352 25.0454 69.1371 24.9916 68.9222 24.9379L66.1977 24.2242L66.1976 24.2241C66.0211 24.1781 65.8447 24.1321 65.6375 24.086L65.4917 24.0477C65.0005 23.9325 64.5477 23.8405 64.1179 23.7637L63.9338 23.733C63.7859 23.7061 63.6381 23.6851 63.4954 23.6649L63.4349 23.6563L63.22 23.6332C63.0513 23.6179 62.8902 23.6026 62.7291 23.5872L62.7289 23.5872L62.5447 23.5718C62.3221 23.5565 62.1072 23.5488 61.877 23.5488C61.6084 23.5488 61.3858 23.5642 61.1402 23.5872L60.9637 23.6025C60.6798 23.6332 60.4495 23.6716 60.227 23.7177C60.1118 23.7407 59.9967 23.7714 59.8816 23.8098C60.5479 21.5045 59.8003 18.6871 59.0726 15.945L59.0681 15.928L58.7458 14.6847ZM68.3007 26.4191C69.1679 26.6416 70.1963 26.8949 71.194 27.0637C72.1533 27.2249 72.9898 27.294 73.7573 27.2633C72.6905 28.967 72.0842 31.1926 71.5009 33.3569L71.4856 33.4106L71.4717 33.4618C70.6933 36.3313 69.8933 39.2805 67.9937 40.3791C67.7788 40.5019 67.5716 40.6093 67.3413 40.7167C67.333 40.7201 67.325 40.7234 67.3172 40.7268L67.2876 40.7398C67.2704 40.7474 67.2531 40.7551 67.2339 40.7628L67.1341 40.8012C66.996 40.8626 66.8578 40.9163 66.7197 40.9623C66.6901 40.9771 66.6574 40.9856 66.6256 40.9938L66.6255 40.9938C66.6162 40.9962 66.6071 40.9986 66.5981 41.0011L66.5865 41.0044L66.5739 41.0084L66.4895 41.0314L66.4353 41.0464C66.3716 41.0641 66.3116 41.0808 66.2516 41.0928C66.2516 41.0572 66.2495 41.0217 66.2476 40.9872C66.2457 40.9546 66.2439 40.923 66.2439 40.8933C66.2285 40.5786 66.2132 40.2639 66.1825 39.9646C66.1518 39.6346 66.1211 39.3123 66.0827 39.0207C66.0827 38.9823 66.075 38.9286 66.0674 38.8749C66.029 38.5602 65.9906 38.2609 65.9369 37.9693C65.8371 37.363 65.7067 36.7337 65.5532 36.0967L65.5071 35.9125C65.4472 35.6727 65.3799 35.4402 65.2982 35.1578L65.2977 35.1562L65.2977 35.1561L65.2974 35.1553L65.2922 35.1374L65.2921 35.1368C65.1924 34.7993 65.0927 34.4618 64.9776 34.1243L64.9265 33.9811L64.9264 33.9808C64.83 33.7101 64.7367 33.448 64.6322 33.1803L64.6169 33.1343C64.5248 32.8964 64.4327 32.6585 64.3329 32.4359C64.2255 32.175 64.1104 31.914 63.9952 31.6685L63.9646 31.5994C63.945 31.5642 63.9275 31.5271 63.9109 31.492L63.9108 31.4919C63.8949 31.4581 63.8798 31.4262 63.8648 31.3999C63.8341 31.3231 63.7957 31.254 63.765 31.2003C63.6345 30.924 63.4887 30.6477 63.3276 30.3484C63.2431 30.1873 63.151 30.0261 63.059 29.8649L63.0206 29.7959C62.9362 29.6501 62.8517 29.5042 62.775 29.3814C62.6974 29.2456 62.6088 29.1043 62.514 28.9529L62.5138 28.9527L62.5137 28.9526L62.5136 28.9523L62.5135 28.9521L62.4603 28.8673C62.3878 28.7533 62.3153 28.6429 62.2404 28.5288L62.2404 28.5288L62.2404 28.5287L62.2403 28.5287L62.2403 28.5286L62.2403 28.5286L62.2399 28.528L62.2396 28.5276L62.2382 28.5255C62.2029 28.4716 62.167 28.417 62.1303 28.3607L61.808 27.8926C61.7543 27.812 61.6969 27.7353 61.6383 27.657L61.6383 27.6569L61.6382 27.6569L61.6382 27.6569L61.6382 27.6569L61.6382 27.6568L61.6381 27.6568C61.613 27.6232 61.5877 27.5894 61.5624 27.5549L61.432 27.3707C61.3665 27.2879 61.3036 27.205 61.2417 27.1235L61.2416 27.1234C61.1946 27.0615 61.1483 27.0005 61.1019 26.9409C60.7643 26.4958 60.3959 26.0584 60.0122 25.6286C59.993 25.6056 59.9719 25.5845 59.9508 25.5634C59.9297 25.5423 59.9086 25.5212 59.8894 25.4981C61.7891 24.6862 64.484 25.4033 67.333 26.1616L67.349 26.1658C67.6637 26.2502 67.9783 26.3347 68.3007 26.4191ZM59.1055 56.9842L59.1056 56.9841L59.1295 56.956C59.6897 56.3037 60.2193 55.6129 60.7104 54.8915C60.8332 54.7073 60.9483 54.5308 61.0711 54.339C61.3551 53.9015 61.6237 53.4411 61.9 52.9269C62.0305 52.6813 62.1609 52.4357 62.2837 52.1824C62.3528 52.052 62.4142 51.9215 62.4756 51.791C62.5907 51.5531 62.6981 51.3152 62.7979 51.0696L63.0205 50.5324C63.2814 49.8724 63.527 49.174 63.7342 48.4603L63.8647 47.9921C63.9107 47.8233 63.9568 47.6468 63.9951 47.4779L64.1103 46.9868C64.1793 46.6875 64.2407 46.3651 64.2944 46.0428L64.3087 45.965L64.3088 45.9643C64.3345 45.8236 64.3594 45.6876 64.3789 45.5516C64.5631 44.3544 64.6552 43.1649 64.6552 42.0137V41.9906C64.6552 41.7376 64.6475 41.4923 64.6398 41.2469L64.6398 41.2462C64.6398 41.1791 64.6375 41.1211 64.6354 41.0686V41.0684C64.6337 41.0249 64.6321 40.9851 64.6321 40.9469C64.6245 40.6476 64.6014 40.3636 64.5784 40.0874C64.5554 39.7881 64.5247 39.4964 64.4863 39.2048L64.4786 39.1818L64.471 39.0667C64.4403 38.8057 64.3942 38.5141 64.3482 38.2301C64.2561 37.6545 64.141 37.0713 63.9951 36.4803L63.9337 36.3115C63.903 36.1964 63.8723 36.0832 63.8416 35.97C63.811 35.8568 63.7803 35.7436 63.7496 35.6285C63.6421 35.2754 63.5423 34.9531 63.4426 34.6384C63.3351 34.3315 63.2277 34.0245 63.1049 33.7175L63.0819 33.6561C63.0051 33.4566 62.9284 33.2647 62.844 33.0652L62.825 33.0205C62.7247 32.7839 62.63 32.5604 62.5216 32.3438L62.4909 32.2747L62.4844 32.26L62.4844 32.2599L62.4843 32.2598L62.4843 32.2597C62.4568 32.1978 62.435 32.1485 62.4065 32.1059C62.3942 32.0787 62.385 32.0579 62.3777 32.0414C62.3624 32.0066 62.3555 31.991 62.3451 31.9754C62.1839 31.6454 62.0535 31.3921 61.9153 31.1312C61.841 30.9887 61.7667 30.8612 61.6963 30.7406L61.6963 30.7406L61.6467 30.6554L61.3705 30.1795C61.2784 30.0184 61.1939 29.8802 61.1018 29.7344C60.9878 29.5596 60.8889 29.4074 60.7901 29.2554L60.7872 29.2509L60.4725 28.7981C60.438 28.7483 60.4016 28.6984 60.3651 28.6485C60.3286 28.5986 60.2922 28.5487 60.2576 28.4988L60.1502 28.353C60.0965 28.2801 60.0428 28.2091 59.989 28.1381C59.9353 28.0671 59.8816 27.9961 59.8279 27.9232C59.5132 27.5088 59.1755 27.1097 58.8225 26.7183C58.7151 26.5955 58.6153 26.4881 58.5155 26.3806C58.4361 26.2972 58.3607 26.2158 58.2863 26.1354C58.2169 26.0605 58.1484 25.9865 58.0781 25.9125L57.7481 25.5902C57.5633 25.4054 57.3786 25.2349 57.187 25.0581L57.1648 25.0376L56.7274 24.6462C55.6606 23.7176 54.5017 22.8811 53.2892 22.175L53.2186 22.1343C53.0456 22.0344 52.8817 21.9397 52.7059 21.845L52.6215 21.7989C52.2378 21.5917 51.877 21.4075 51.5163 21.2387C51.3858 21.1763 51.2721 21.1264 51.1658 21.0799L51.1657 21.0799L51.1656 21.0798C51.1282 21.0634 51.0918 21.0475 51.0559 21.0315C50.9254 20.9701 50.8256 20.9241 50.7259 20.8857L50.1886 20.6631C49.5517 20.4099 48.8686 20.1719 48.1549 19.9571L47.5793 19.7959C47.4426 19.7569 47.3225 19.7288 47.2096 19.7025L47.1495 19.6885L46.6507 19.5733C45.039 19.2203 43.366 19.0361 41.6776 19.0284H41.6622C41.409 19.0284 41.1634 19.0361 40.9178 19.0438C40.8507 19.0438 40.7928 19.0461 40.7403 19.0482L40.7402 19.0482H40.7401C40.6966 19.0499 40.6568 19.0515 40.6185 19.0515C40.3192 19.0591 40.0352 19.0822 39.759 19.1052C39.452 19.1282 39.1603 19.1589 38.8687 19.1973L38.8457 19.205L38.7382 19.2126C38.4773 19.2433 38.1857 19.2894 37.9017 19.3354C37.3261 19.4275 36.7352 19.5503 36.1519 19.6885L35.9677 19.7345C35.7298 19.7959 35.4842 19.865 35.2463 19.934C34.9765 20.0111 34.7174 20.0936 34.4555 20.177L34.3024 20.2257L34.1401 20.2827L34.1399 20.2828C33.9309 20.3561 33.719 20.4305 33.5119 20.5096L33.4121 20.548C33.3968 20.5557 33.3737 20.5633 33.3507 20.571L33.274 20.6017C33.0898 20.6708 32.9056 20.7475 32.7291 20.8243C32.6409 20.8641 32.5516 20.9029 32.4621 20.9418L32.4619 20.9419C32.31 21.0079 32.1573 21.0742 32.0077 21.1466L31.5856 21.3538C31.317 21.4843 31.056 21.6148 30.8028 21.7529C30.6416 21.8373 30.4804 21.9294 30.327 22.0215C30.2502 22.0676 30.1696 22.1136 30.089 22.1597L30.0888 22.1598C30.0083 22.2058 29.9278 22.2518 29.8511 22.2978C29.755 22.3512 29.6664 22.4083 29.5799 22.4639L29.5799 22.464C29.5421 22.4883 29.5048 22.5124 29.4674 22.5357L29.383 22.5894C29.3561 22.6073 29.3281 22.6253 29.2993 22.6436L29.2992 22.6437C29.2541 22.6725 29.2072 22.7025 29.1604 22.7352L28.9072 22.8964L28.4697 23.2034C28.3623 23.2725 28.2625 23.3492 28.1627 23.426L28.0246 23.5257C27.8865 23.6255 27.7406 23.7329 27.5948 23.848C27.1881 24.1627 26.7813 24.5004 26.3899 24.8534C26.3553 24.8856 26.3198 24.9178 26.2841 24.9502L26.2841 24.9502C26.209 25.0183 26.1327 25.0876 26.0599 25.1604C25.8911 25.3139 25.7453 25.452 25.5918 25.5978L25.2771 25.9125C23.7883 27.4167 22.4989 29.1665 21.4552 31.0851C21.0408 31.8526 20.6647 32.6584 20.3347 33.4719C19.2526 36.181 18.7 39.0436 18.6924 41.9906V42.0137C18.6924 42.2669 18.7 42.5125 18.7077 42.7581C18.7077 42.8201 18.7099 42.8732 18.712 42.9222C18.7137 42.9642 18.7154 43.0031 18.7154 43.0421C18.7307 43.3644 18.7461 43.6407 18.7768 43.9246C18.7998 44.2239 18.8305 44.5156 18.8689 44.8072L18.8765 44.8302L18.8842 44.9453C18.912 45.1818 18.9524 45.4371 18.994 45.6999L19.007 45.7819C19.053 46.1041 19.1144 46.4033 19.1758 46.7024L19.1758 46.7025L19.1758 46.7025L19.1758 46.7025L19.1758 46.7026L19.1758 46.7026L19.1758 46.7027L19.1758 46.7027L19.1759 46.7028C19.2373 47.0021 19.291 47.2631 19.36 47.5163L19.4061 47.7159C19.4244 47.7823 19.4427 47.8501 19.4613 47.9186L19.4613 47.9187L19.4613 47.9188L19.4613 47.9189L19.4614 47.9189L19.4614 47.919L19.4614 47.9193L19.4615 47.9195C19.505 48.0803 19.5496 48.2453 19.598 48.4066C19.6686 48.6714 19.7482 48.9181 19.8265 49.1607L19.8265 49.1608C19.8503 49.2345 19.874 49.3079 19.8973 49.3812L19.9433 49.504C20.0354 49.7726 20.1352 50.0412 20.2426 50.3098C20.5956 51.2154 21.0177 52.1287 21.5012 53.019L21.5703 53.1494C21.601 53.207 21.6336 53.2645 21.6662 53.3221C21.6989 53.3797 21.7315 53.4372 21.7622 53.4948L21.8619 53.6636C21.8908 53.7127 21.9175 53.7586 21.9433 53.8028L21.9436 53.8034L21.9439 53.8039C21.9864 53.8767 22.0263 53.9452 22.0692 54.0166C22.1689 54.1855 22.2687 54.3466 22.3761 54.5078L22.4452 54.6153C22.5296 54.7457 22.6064 54.8608 22.6908 54.9836C22.8827 55.2676 23.0668 55.5209 23.2587 55.7741L23.2924 55.8201C23.3639 55.918 23.4312 56.0101 23.5043 56.0964C23.8727 56.5646 24.2027 56.9637 24.5173 57.309C24.5645 57.3598 24.6117 57.4124 24.6597 57.4658L24.6598 57.4659L24.6598 57.4659C24.7132 57.5254 24.7677 57.5861 24.8243 57.6467L24.8642 57.6906C25.002 57.8423 25.1287 57.9818 25.2618 58.1148L25.5764 58.4372L25.5766 58.4373C25.753 58.6061 25.9295 58.7749 26.1136 58.9437C26.3115 59.1342 26.5023 59.2968 26.6996 59.4647L26.7276 59.4886C27.3799 60.0488 28.0783 60.5784 28.792 61.0695L28.7923 61.0697C28.9764 61.1925 29.1605 61.3152 29.3446 61.4302C29.7821 61.7065 30.2425 61.9828 30.7567 62.2591C31.0023 62.3896 31.2479 62.52 31.5012 62.6428C31.5664 62.6735 31.6316 62.7061 31.6969 62.7388C31.7621 62.7714 31.8273 62.804 31.8926 62.8347C32.1305 62.9498 32.3684 63.0572 32.614 63.157L33.1512 63.3796C33.8112 63.6405 34.5096 63.8861 35.2233 64.0933L35.6915 64.2238C35.8603 64.2698 36.0368 64.3159 36.2056 64.3542L36.6968 64.4694L36.8419 64.4993C37.0991 64.5524 37.37 64.6084 37.6408 64.6535C37.7176 64.6675 37.7928 64.6799 37.8671 64.6921L37.8682 64.6923C37.9569 64.7069 38.0444 64.7213 38.132 64.738C39.3292 64.9222 40.5187 65.0143 41.6699 65.0143H41.6929C41.9462 65.0143 42.1918 65.0066 42.4374 64.9989C42.5043 64.9989 42.5621 64.9966 42.6146 64.9946L42.615 64.9945C42.6586 64.9928 42.6984 64.9912 42.7367 64.9912C43.036 64.9836 43.3199 64.9605 43.5962 64.9375C43.9032 64.9145 44.1872 64.8838 44.4788 64.8454L44.5095 64.8377L44.6246 64.8301C44.8855 64.7994 45.1695 64.7533 45.4535 64.7073C45.7757 64.6612 46.0749 64.5999 46.3741 64.5385L46.3744 64.5384L46.4588 64.5231C46.7044 64.4694 46.95 64.4156 47.1879 64.3619L47.3798 64.2775C47.6177 64.2161 47.8479 64.1547 48.0705 64.0856C48.3353 64.015 48.582 63.9354 48.8245 63.8571L48.8246 63.8571L48.8248 63.857C48.8985 63.8332 48.9718 63.8096 49.0451 63.7863L49.1679 63.7403C49.4365 63.6482 49.7128 63.5484 49.9738 63.441C50.8794 63.0879 51.7926 62.6658 52.6752 62.1823L52.8133 62.1056C52.9361 62.0365 53.0436 61.9751 53.151 61.9137L53.3122 61.8216C53.3896 61.7733 53.467 61.7279 53.5425 61.6837L53.5425 61.6837L53.5426 61.6837C53.5868 61.6578 53.6304 61.6323 53.6729 61.6068L53.7714 61.5454L53.8024 61.5263C53.9314 61.4463 54.0461 61.3752 54.1564 61.2998L54.2638 61.2307C54.2851 61.2162 54.3057 61.2023 54.3257 61.1889C54.3522 61.1712 54.3776 61.1544 54.4022 61.1382C54.4867 61.0824 54.5611 61.0333 54.6322 60.9774C54.9162 60.7856 55.1694 60.6014 55.4227 60.4095L55.4687 60.3759C55.5666 60.3043 55.6587 60.237 55.745 60.1639C56.2132 59.7956 56.6122 59.4656 56.9576 59.1509C57.0044 59.107 57.049 59.0665 57.0917 59.0276L57.092 59.0273C57.1614 58.9643 57.2259 58.9056 57.2876 58.8439C57.4564 58.6904 57.6023 58.5523 57.7557 58.4065L58.0781 58.0841C58.2515 57.9333 58.4102 57.7602 58.5759 57.5795L58.5846 57.57C58.7749 57.3723 58.9374 57.1816 59.1052 56.9846L59.1055 56.9842ZM41.6853 62.9652C30.1351 62.9652 20.7415 53.5715 20.7415 42.0213C20.7415 30.4712 30.1351 21.0775 41.6853 21.0775C53.2354 21.0775 62.6291 30.4712 62.6291 42.0213C62.6214 53.5715 53.2278 62.9652 41.6853 62.9652ZM60.9756 40.8174C61.645 51.4729 53.5497 60.6536 42.8942 61.3231C32.2387 61.9925 23.0581 53.8972 22.3886 43.2417C21.7192 32.5862 29.8145 23.4055 40.47 22.7361C51.1255 22.0666 60.3061 30.1619 60.9756 40.8174ZM0.234863 41.7759C2.46048 42.6432 4.594 44.4313 6.65077 46.1581L6.82488 46.3034C8.06642 47.3398 9.33378 48.3977 10.5801 49.1895L10.795 48.4451C10.8252 48.3344 10.8587 48.2269 10.8912 48.1228C10.9082 48.0681 10.925 48.0144 10.9408 47.9616L10.9792 47.8465C11.0022 47.7698 11.0272 47.693 11.0521 47.6163C11.0771 47.5395 11.102 47.4628 11.125 47.386L11.1634 47.2709C11.1974 47.1633 11.2356 47.0556 11.2748 46.9449L11.2749 46.9449L11.2749 46.9447C11.2888 46.9055 11.3029 46.8659 11.3169 46.8258L11.3629 46.703C11.4167 46.5649 11.4704 46.4267 11.5241 46.2809L11.5548 46.1965C11.6315 46.0123 11.6853 45.8818 11.739 45.7514L11.8004 45.6055C11.8541 45.4828 11.9155 45.36 11.9769 45.2372L11.9769 45.2372L12.0536 45.0837C12.0843 45.0261 12.1131 44.9705 12.1419 44.9148C12.1707 44.8592 12.1995 44.8035 12.2302 44.746L12.3223 44.5848C12.346 44.5462 12.3686 44.5077 12.3909 44.4695L12.391 44.4695C12.4264 44.409 12.4611 44.3497 12.4988 44.2932L12.6139 44.109C12.6753 44.0169 12.7367 43.9325 12.8058 43.8404L12.8518 43.779C12.8672 43.7598 12.8806 43.7406 12.894 43.7214C12.9074 43.7022 12.9209 43.6831 12.9362 43.6639C12.9669 43.6255 12.9995 43.5871 13.0322 43.5487C13.0648 43.5104 13.0974 43.472 13.1281 43.4336L13.1895 43.3646C13.2048 43.3454 13.2221 43.3262 13.2394 43.307C13.2566 43.2878 13.2739 43.2686 13.2892 43.2495L13.4965 43.0422L13.5655 42.9732C13.5847 42.9578 13.602 42.9406 13.6193 42.9233L13.6193 42.9232L13.6193 42.9232C13.6366 42.906 13.6538 42.8887 13.673 42.8734C13.7497 42.8043 13.8341 42.7353 13.9186 42.6739L13.9953 42.6125C14.0061 42.6044 14.0169 42.5953 14.0281 42.5859C14.0486 42.5688 14.0702 42.5506 14.0951 42.5357C14.2409 42.4283 14.3944 42.3285 14.5479 42.2364C14.6937 42.152 14.8472 42.0676 14.993 41.9985L14.9175 41.959C14.7948 41.895 14.6687 41.8292 14.5479 41.7529C12.2685 40.4329 11.3092 37.4935 10.4497 34.3316L10.2885 33.7407C10.1734 33.3263 10.0583 32.9042 9.94315 32.4821L9.82803 32.0907C8.44662 33.1958 7.10357 34.7844 5.7989 36.3347C4.07213 38.4145 2.27629 40.5403 0.234863 41.7759ZM11.0484 30.5632C11.3335 31.4331 11.5908 32.3796 11.8202 33.2236L11.8543 33.3491C12.6754 36.3959 13.4582 39.2738 15.3615 40.3789C15.5687 40.5017 15.7836 40.6092 16.0138 40.7166C16.0241 40.7207 16.0337 40.7248 16.0432 40.7289L16.0675 40.7396C16.0848 40.7473 16.1021 40.755 16.1213 40.7627L16.2211 40.801C16.3592 40.8624 16.4973 40.9162 16.6355 40.9622C16.6585 40.9699 16.6834 40.9775 16.7083 40.9852C16.7333 40.9929 16.7583 41.0006 16.7813 41.0082L16.8657 41.0313C16.9425 41.0543 17.0192 41.0773 17.1036 41.0927C17.2111 38.2684 17.7943 35.5133 18.8381 32.8963C19.1834 32.0214 19.5902 31.1541 20.0353 30.333C20.9869 28.5832 22.1305 26.9638 23.4581 25.5057C23.343 25.4596 23.2279 25.4136 23.1051 25.3752C21.2325 24.7766 18.6846 25.452 15.9832 26.1734C15.1006 26.4113 14.1873 26.6492 13.3047 26.8487C11.8312 27.1711 10.6417 27.3092 9.59026 27.2708C10.1275 28.115 10.5956 29.1818 11.0484 30.5632ZM13.9648 25.0301C13.8957 25.0531 13.8267 25.0684 13.7576 25.0838C13.466 23.0731 13.9111 20.5635 14.3485 18.1076L14.3493 18.1033C14.8172 15.457 15.3 12.7265 14.9395 10.3564C17.0423 11.5075 19.7744 11.9987 22.4298 12.4745C23.2433 12.6203 24.1412 12.7815 25.0008 12.9657C24.9923 13.0164 24.9816 13.0647 24.971 13.112L24.971 13.1121C24.9624 13.1507 24.954 13.1887 24.9471 13.2266C24.9281 13.3309 24.9033 13.4352 24.878 13.5413L24.878 13.5414C24.8624 13.6071 24.8466 13.6734 24.832 13.7408L24.5096 15.0455C24.4329 15.3371 24.3561 15.6288 24.2794 15.9281L24.2193 16.1576C23.931 17.2589 23.6366 18.3831 23.4429 19.4737C23.2894 20.3409 23.2126 21.1007 23.2126 21.7914C23.2049 22.5282 23.2894 23.1959 23.4659 23.7945C21.163 23.1311 18.3524 23.8769 15.6214 24.6017L15.5688 24.6156L15.5676 24.616L15.5676 24.616C15.1612 24.7233 14.7549 24.8306 14.3409 24.938L13.9648 25.0301ZM25.8221 16.3424L25.8179 16.3584C25.0597 19.2074 24.3425 21.9023 25.1545 23.8021C25.2005 23.7637 25.2465 23.7176 25.2849 23.6793C25.7224 23.2879 26.1598 22.9272 26.5896 22.5895C26.6663 22.5319 26.7431 22.4724 26.8198 22.413C26.8966 22.3535 26.9733 22.294 27.0501 22.2365L27.1959 22.129C27.3263 22.0369 27.4338 21.9602 27.5412 21.8834L28.255 21.3999L28.5082 21.2388L28.6003 21.185L28.6004 21.185C28.7385 21.1006 28.8766 21.0162 29.0224 20.9318C29.1759 20.8397 29.3447 20.7399 29.5213 20.6402C29.6901 20.5404 29.8589 20.4483 30.0278 20.3562C30.3117 20.2027 30.5957 20.0569 30.8797 19.9187L31.3094 19.7039C31.5037 19.6151 31.6899 19.5343 31.871 19.4557C31.9403 19.4257 32.0089 19.3959 32.0769 19.3662C32.2764 19.2818 32.4836 19.1973 32.6832 19.1206L32.852 19.0515C33.1513 18.9364 33.4583 18.829 33.773 18.7215C34.1106 18.6064 34.4482 18.5067 34.7859 18.4069L34.786 18.4069C34.8607 18.3865 34.9361 18.3655 35.0117 18.3443L35.0119 18.3443L35.0122 18.3442C35.1928 18.2938 35.375 18.2429 35.5534 18.1997L35.7453 18.1536C36.3823 18.0001 37.0039 17.8696 37.6179 17.7699C37.9095 17.7162 38.2088 17.6778 38.5158 17.6394C38.5695 17.6241 38.6233 17.6241 38.6616 17.6241C38.9533 17.5857 39.2756 17.555 39.6056 17.5243C39.9126 17.4936 40.2196 17.4706 40.5342 17.4629C40.564 17.4629 40.5956 17.4611 40.628 17.4592L40.6281 17.4592C40.6627 17.4573 40.6982 17.4552 40.7338 17.4552C40.7184 17.3785 40.6954 17.3018 40.6724 17.2251L40.6724 17.225L40.6493 17.1482L40.6033 16.9871C40.5572 16.8489 40.5035 16.7108 40.4421 16.5727L40.4038 16.4729L40.3577 16.3578C40.2503 16.1275 40.1428 15.9203 40.0277 15.7131C38.9302 13.8021 35.9448 12.9963 33.0515 12.2212L33.017 12.2119C30.8406 11.6239 28.599 11.0183 26.9042 9.94185C26.9349 10.694 26.8735 11.5382 26.7124 12.4975C26.5435 13.4952 26.2903 14.5235 26.0677 15.3984L25.8221 16.3424ZM41.6773 58.1378C50.5782 58.1378 57.7938 50.9222 57.7938 42.0213C57.7938 33.1203 50.5782 25.9047 41.6773 25.9047C32.7764 25.9047 25.5608 33.1203 25.5608 42.0213C25.5608 50.9222 32.7764 58.1378 41.6773 58.1378Z" fill="#E788D7"/>
</svg>
